<svg xmlns="http://www.w3.org/2000/svg" viewBox="0 0 212.6 212.6"><defs><style>.cls-1{fill:#66beaf;}.cls-2{fill:none;}.cls-3{fill:#010101;}.cls-4{fill:#fff;}.cls-5{fill:#f3cbb7;}.cls-6{fill:#65beb0;}.cls-7{fill:#f1e400;}.cls-8{fill:#e9511d;}</style></defs><title>elephantè</title><g id="Livello_2" data-name="Livello 2"><circle class="cls-1" cx="106.3" cy="106.3" r="106.3"/></g><g id="Livello_1" data-name="Livello 1"><path class="cls-2" d="M10.49,127.21a105.62,105.62,0,0,0,13.68,43.61A105.64,105.64,0,0,1,10.5,127.21Z" transform="translate(-10.06 -11.61)"/><path class="cls-2" d="M10.09,117.92a107.38,107.38,0,0,1,.7-12.23h0a107.36,107.36,0,0,0-.7,12.23c0,2.43.09,4.84.25,7.24h0C10.18,122.76,10.09,120.35,10.09,117.92Z" transform="translate(-10.06 -11.61)"/><path class="cls-2" d="M89.8,15A106.38,106.38,0,0,0,30.94,54.66h0A106.4,106.4,0,0,1,89.8,15Z" transform="translate(-10.06 -11.61)"/><path class="cls-2" d="M29.75,56.32h0A106.1,106.1,0,0,0,18.47,76.45h0A106.12,106.12,0,0,1,29.75,56.32Z" transform="translate(-10.06 -11.61)"/><path class="cls-3" d="M17.28,79.44q.59-1.51,1.21-3h0c-.42,1-.82,2-1.21,3Z" transform="translate(-10.06 -11.61)"/><path class="cls-4" d="M12.13,97.1a105.48,105.48,0,0,1,5.14-17.67h0A105.47,105.47,0,0,0,12.12,97.1Z" transform="translate(-10.06 -11.61)"/><path class="cls-4" d="M11.7,99.31c-.21,1.2-.4,2.41-.57,3.63h0c.17-1.22.36-2.43.57-3.63Z" transform="translate(-10.06 -11.61)"/><path class="cls-3" d="M12.12,97.1c-.15.74-.29,1.47-.42,2.22h0c.13-.74.27-1.48.42-2.22Z" transform="translate(-10.06 -11.61)"/><path class="cls-3" d="M11.14,102.95h0q-.19,1.36-.35,2.74h0Q11,104.31,11.14,102.95Z" transform="translate(-10.06 -11.61)"/><path class="cls-5" d="M31,54.67h0c-.41.55-.81,1.1-1.21,1.65h0C30.14,55.76,30.55,55.21,31,54.67Z" transform="translate(-10.06 -11.61)"/><path class="cls-5" d="M10.34,125.15h0q.07,1,.16,2.07h0Q10.41,126.18,10.34,125.15Z" transform="translate(-10.06 -11.61)"/><path class="cls-2" d="M44.84,95c-1.67,4.43,2.87,8.33,6.82,8.42,4.27.09,9.11-2.27,13.34-3,2.11-.38,4.23-.71,6.35-1-5.45-4-11.94-7.29-18.8-7.51C49.85,91.77,46,92,44.84,95Zm9.14.41c-1.69-.88-3.94-1.39-5.73-.58-1,.44-1.8-1-.83-1.44A8.57,8.57,0,0,1,54.8,94C55.76,94.47,54.92,95.91,54,95.42Z" transform="translate(-10.06 -11.61)"/><path class="cls-2" d="M35.22,138.37l28.9-8.68a2.6,2.6,0,0,0-.21-.24c-2.46-2.26-12.54-2.4-14.74-2.2H49a27.57,27.57,0,0,0-11.36,4.1c-3.33,2.09-9.64,6.67-9.51,8.94.21,3.91,14.12,3.91,14.26,3.91,9.2,0,16.57-4.44,21.4-12.72l-28,8.4-.18,0a.88.88,0,0,1-.9-.64A.69.69,0,0,1,35.22,138.37Z" transform="translate(-10.06 -11.61)"/><path class="cls-2" d="M171.24,144.25a35.2,35.2,0,0,0,4.48,1.33,22.56,22.56,0,0,0-7.89-3.92c-.82-.27-2.36-.68-3.81-1.27a6.1,6.1,0,0,0,.61.51A28,28,0,0,0,171.24,144.25Z" transform="translate(-10.06 -11.61)"/><path class="cls-2" d="M27.85,172.43c-4.78-5,1.88-12.16,7.22-7.84a3.25,3.25,0,0,0,4.37-4.81c-4.78-5,1.88-12.16,7.22-7.84,1,.84-.39,2.35-1.43,1.52a3.25,3.25,0,0,0-4.37,4.81c4.77,5-1.87,12.15-7.21,7.85h0a3.25,3.25,0,0,0-4.37,4.81h0a5.22,5.22,0,0,1-.14,7.72,106.88,106.88,0,0,0,21.48,22.78,27.81,27.81,0,0,1,25.66-17.83c15.42,0,26.44,12.33,27.38,27.08a.25.25,0,0,1,0,.12.86.86,0,0,1,0,.23.78.78,0,0,1,0,.27.19.19,0,0,1,0,.08A30.81,30.81,0,0,1,100.56,223a107.12,107.12,0,0,0,15.8,1.17l1.66,0a14.06,14.06,0,0,1-1.07-4.23c-.77-8.22-.54-16.4-1.81-24.66a1.06,1.06,0,0,1,.08-.58.9.9,0,0,1,1.27-.7.75.75,0,0,1,.51.35c8.26,5.93,16.39,14.22,18.69,24.48a17,17,0,0,1,.43,3.51,106.07,106.07,0,0,0,56.71-30.65,28.37,28.37,0,0,1-7.66-4.49.79.79,0,0,1-.36-.32.05.05,0,0,1,0,0,.81.81,0,0,1-.16-.43c0-.08,0-.16-.07-.25a1,1,0,0,1,.11-.83,11.09,11.09,0,0,1-3.57.49c-2.81-.15-5.22-4.17-6.78-6.12s-2.93-3.79-4.36-5.72l-1.53-2.07c-.35-.47-.83-.78-.7-.84a2.55,2.55,0,0,1-.35-.6,1,1,0,0,1,1.1-1.24,1.47,1.47,0,0,1,.82.6,0,0,0,0,1,0,0s0,0,0,.06a1.59,1.59,0,0,0,.41.3,21.16,21.16,0,0,0,3.34,1.13c5.1,1,10.47,0,15.55-.62,1.26-.15,7.33-.14,8-1.66.33-.75-5.58.13-6.35.22a65,65,0,0,1-12.71.27,58.23,58.23,0,0,1-9-1,13.13,13.13,0,0,1-3.13-1.11,6.69,6.69,0,0,1-2.63-3.27c-1.12-2.44-3.13-8.28-1.79-10.68a1,1,0,0,1,.58-.47,6.19,6.19,0,0,1-2.51-4.51c-.33-2.88-.21-7.45,1.56-9.87a.67.67,0,0,1,.31-.23,2.16,2.16,0,0,1-.34-.72c-.38-1.58,1.76-4.11,2.15-5.65.58-2.28-1.29-4.07-1.55-6.43a4.58,4.58,0,0,1,0-1.22,1,1,0,0,1,1.12-.74,11.67,11.67,0,0,1,3,1.39c1.76,1.15,2.5,1.63,4.54.87,1.28-.48,3.62-2.58,5.1-2.24a3.4,3.4,0,0,1,1.85,1.51,25.72,25.72,0,0,1,2.42,5.3,23.13,23.13,0,0,0,4.41,7.73c0-.07,0-.14,0-.19a30.7,30.7,0,0,0-3-7.17,33.12,33.12,0,0,0-2.91-4.67c-.27-.36-.62-.67-.84-1a1.3,1.3,0,0,1-.14-1.17c.73-2.18,6.19-2.44,8-2.46a6.84,6.84,0,0,1,5.68,2.32.85.85,0,0,1,.38-.57c2.38-1.49,8,.14,10.55,1.06a7,7,0,0,1,3.7,2.5,13,13,0,0,1,1.34,3.18,59.79,59.79,0,0,1,1.44,8.69,64.51,64.51,0,0,1,.4,12.5c0,.72-.58,6.9.1,6.55,1.48-.77,1.19-6.81,1.27-8,.32-5.12,1.08-10.64-.23-15.68a12.84,12.84,0,0,0-1.48-3.42h0a1.7,1.7,0,0,1-.81-.86,1,1,0,0,1,1.32-1.16,3.11,3.11,0,0,1,1.23.84l0,0c.82.48,1.6,1,2.39,1.56,1.91,1.25,3.81,2.51,5.68,3.83.84.59,2,1.3,3.17,2.12a106.83,106.83,0,0,0,1.71-18.1h-.06c-6.66,1.72-9.66-7.61-3.28-10.14h0a3.25,3.25,0,0,0-2-6.17h0c-6.66,1.72-9.66-7.62-3.27-10.15,1.25-.49,1.86,1.5.62,2a3.25,3.25,0,0,0,2,6.17,5.27,5.27,0,0,1,4.76.88,106.41,106.41,0,0,0-69.48-83.81c3.93,5.5,5.18,11.48-2.72,15.06-4.94,2.24-13.27,3.35-19,1.27.6.76,1.17,1.54,1.72,2.27,8.27,11,8,22.43-.4,33a.84.84,0,0,1-1,.29c-14.08-1.43-23.89-11.07-24.17-25.82,0-.2,0-.39,0-.57a14.28,14.28,0,0,1-1.37,2.79C101.87,51,95.24,57.53,89,58.14c-11.76,1.15-11.21-18-8.72-25.78A55.77,55.77,0,0,1,90.43,14.82L89.8,15A106.4,106.4,0,0,0,31,54.67,3.18,3.18,0,0,0,35,53.41c3.8-5.73,12.27-.8,9.22,5.35h0A3.25,3.25,0,0,0,49.86,62h0c3.81-5.73,12.28-.79,9.22,5.35-.6,1.2-2.38.13-1.79-1.07A3.25,3.25,0,0,0,51.65,63c-3.8,5.74-12.28.79-9.22-5.35a3.25,3.25,0,0,0-5.64-3.22,5.19,5.19,0,0,1-7,1.85A106.12,106.12,0,0,0,18.49,76.44L24,73.32c2.52-1.42,7.3-5.55,10.59-5.09,7,1,3.57,20.76,3.55,25.1,0,5,3.71,26.32-5.75,24.57l-.06,0a1,1,0,0,1-.44-.15c-6.88-4.1-14.09-8-21.1-12a107.38,107.38,0,0,0-.7,12.23c0,2.43.09,4.84.25,7.22a3.19,3.19,0,0,0,3-1.52h0c3.81-5.73,12.28-.79,9.22,5.35-.6,1.2-2.38.13-1.79-1.07a3.25,3.25,0,0,0-5.64-3.22,5.21,5.21,0,0,1-4.65,2.53,105.64,105.64,0,0,0,13.67,43.61Q26,174,28,177A3.21,3.21,0,0,0,27.85,172.43ZM54.65,42.33l0,0a1,1,0,0,1-.21.47c-1.79,2.2-5.52.37-4.15-2.38S55.48,39.56,54.65,42.33ZM48,188.46l-8.17-5.68c-1.09-.76-.07-2.58,1-1.81L49,186.65C50.12,187.41,49.1,189.23,48,188.46Zm3-4.75L43.8,176.9c-1-.92.5-2.39,1.47-1.47l7.24,6.82C53.49,183.17,52,184.63,51,183.72Zm4.38-3-6.69-7.36c-.9-1,.57-2.46,1.47-1.47l6.69,7.36C57.8,180.27,56.33,181.74,55.42,180.75ZM59.6,179l-5.16-8.51c-.7-1.15,1.12-2.17,1.81-1L61.41,178C62.1,179.15,60.29,180.18,59.6,179Zm-2.75-25.71c1.34-2.7,5.2-.9,4.38,1.88l0,0a1,1,0,0,1-.21.47C59.21,157.91,55.48,156.08,56.85,153.33Zm7.67,24.42-3.71-9.23c-.5-1.24,1.52-1.76,2-.53l3.71,9.23C67,178.46,65,179,64.52,177.75ZM98,175.27l0,0a1,1,0,0,1-.21.47c-1.79,2.2-5.52.37-4.15-2.38S98.79,172.5,98,175.27Zm9,12.57,0,0a1,1,0,0,1-.21.47c-1.79,2.2-5.52.37-4.15-2.38S107.77,185.07,106.95,187.84Zm10.77-10.17,0,0a1,1,0,0,1-.21.47c-1.79,2.2-5.52.37-4.15-2.38S118.54,174.89,117.72,177.67Zm10.78,10.74a14.38,14.38,0,0,1,14.24-14.24c8.07,0,13.83,6.51,14.24,14.24-.43,8-6.62,14.63-15,14.2A14.37,14.37,0,0,1,128.49,188.41Zm22.91-23.48c1.34-2.7,5.2-.9,4.38,1.88l0,0a1,1,0,0,1-.21.47C153.76,169.51,150,167.68,151.41,164.92Zm16,33.82,0,0a3.25,3.25,0,0,0,5.06-4.07h0c-3.94-5.64,3.76-11.71,8.36-6.62.9,1-.75,2.26-1.65,1.27a3.25,3.25,0,0,0-5.06,4.07c3.94,5.64-3.76,11.71-8.36,6.62a3.25,3.25,0,0,0-5.07,4.07c3.94,5.64-3.76,11.71-8.36,6.62-.9-1,.75-2.26,1.65-1.27a3.25,3.25,0,0,0,5.07-4.07C155.1,199.74,162.77,193.68,167.38,198.74ZM184.74,113l0,0a1,1,0,0,1-.21.47c-1.79,2.2-5.52.37-4.15-2.38S185.56,110.27,184.74,113Zm22-2.12a1.07,1.07,0,0,1-.74-.13c-7.24-4.17-14.95-6.91-22.34-10.59-6.13-3.06-9.07-9.67-5.22-15.76,3.27-5.19,8.37-4.43,13-1.33C200.18,89,205,99.53,207.53,109.37a.78.78,0,0,1,.13.74A.87.87,0,0,1,206.72,110.92Zm-1.46-32.17c1.34-2.7,5.2-.9,4.38,1.88l0,0a1,1,0,0,1-.21.47C207.62,83.34,203.9,81.51,205.26,78.75Zm-29.92-38.9c1.34-2.7,5.2-.9,4.38,1.88l0,0a1,1,0,0,1-.21.47C177.7,44.44,174,42.61,175.34,39.86ZM188,48.56c16.26,4.2,9.38,29.87-6.74,27.05h0l-.33-.06-.31-.11h0C165.15,70,171.79,44.35,188,48.56Zm-19.65,50c1.34-2.7,5.2-.9,4.38,1.88l0,0a1,1,0,0,1-.21.47C170.75,103.18,167,101.35,168.39,98.6Zm.19,13.85,0,0a1,1,0,0,1-.21.47c-1.79,2.2-5.52.37-4.15-2.38S169.41,109.67,168.58,112.44Zm-24.73-70.1c1.34-2.7,5.2-.9,4.38,1.88l0,0a1,1,0,0,1-.21.47C146.21,46.93,142.49,45.1,143.86,42.35Zm-.69,23a3.25,3.25,0,0,0,4.37-4.81c-4.78-5,1.88-12.16,7.22-7.84a3.25,3.25,0,0,0,4.37-4.81c-4.78-5,1.88-12.16,7.22-7.84,1,.84-.39,2.35-1.43,1.52a3.25,3.25,0,0,0-4.37,4.81c4.77,5-1.87,12.15-7.21,7.85h0A3.25,3.25,0,0,0,149,59h0c4.78,5-1.88,12.16-7.22,7.84C140.7,66,142.13,64.5,143.17,65.33Zm-40,1.32c1.34-2.7,5.2-.9,4.38,1.88l0,0a1,1,0,0,1-.21.47C105.52,71.24,101.79,69.4,103.16,66.65Zm15.16,11.63c8.16,1,17.33,3.15,25.52,1.42,5.32-1.13,10.07-5.4,12.49-10.3.16-.33.31-.66.46-1a1,1,0,0,1,1.05-.43c2.87.5,6.2,1.8,8,4.17,1.66,2.16.82,3.47.09,5.8-2,6.35-3.58,12.78-5.44,19.14-1.94,6.69-4.26,14.2-8,20.11-2.75,4.31-5.44,8.45-6.84,13.45a27.8,27.8,0,0,0-.81,8c0,2.19.22,4.38.34,6.53.18,3.43.7,6.95.67,10.38a6,6,0,0,1-.4,2.21c-2.14,5.42-9.56,6.84-14.58,7.39-10.33,1.15-21,.8-31.39.52-6.76-.18-18-.08-24.56-1.73-2.16-.54-4.61-.83-6.08-2.69-2.31-2.93-1.39-7.65-1-11,.68-5.9,5.24-11.82,5.62-17.76a26.94,26.94,0,0,0-.07-7.17v0a13.9,13.9,0,0,1-.62-4.77c.07-2,.15-2.47.35-4.46,1.14-11.27,6.94-23.36,16.37-30l.3-.2C96.22,76.9,108.49,77.09,118.32,78.28Zm-40.7,8.79-9.09-4c-1.22-.54-.55-2.52.67-2l9.09,4C79.5,85.64,78.84,87.61,77.62,87.07Zm10.7-22.91,5.38,8.37c.72,1.12-1.16,2-1.88.9l-5.38-8.37C85.71,63.94,87.6,63,88.32,64.16Zm-6.18,2.72,6.67,7.38c.9,1-.69,2.35-1.58,1.35l-6.67-7.38C79.66,67.24,81.24,65.89,82.14,66.88ZM76.66,70.4l8,6c1.07.8-.09,2.53-1.17,1.72l-8-6C74.42,71.33,75.59,69.6,76.66,70.4Zm-4.18,4.38,8.4,5.33c1.13.72,0,2.44-1.17,1.72l-8.4-5.33C70.17,75.79,71.35,74.07,72.48,74.78ZM65.83,37.46c1.34-2.7,5.2-.9,4.38,1.88l0,0a1,1,0,0,1-.21.47C68.19,42,64.47,40.21,65.83,37.46ZM59.25,50c1.34-2.7,5.2-.9,4.38,1.88l0,0a1,1,0,0,1-.21.47C61.61,54.61,57.88,52.78,59.25,50Zm-3,28.72c1.34-2.7,5.2-.9,4.38,1.88l0,0a1,1,0,0,1-.21.47C58.62,83.34,54.89,81.51,56.26,78.75ZM50.75,90.22c8.39-.52,16.56,3.87,23,8.88a.62.62,0,0,1,.43.39.71.71,0,0,1-.26,1,.84.84,0,0,1-.47.23c-6.62.87-12.85,2.87-19.32,4.11-5.38,1-10.45-1.74-11-7.48C42.69,92.49,46.29,90.5,50.75,90.22ZM66,117.13l0,0a1,1,0,0,1-.21.47c-1.79,2.2-5.52.37-4.15-2.38S66.85,114.36,66,117.13Zm-14.36-1.2,0,0a1,1,0,0,1-.21.47c-1.79,2.2-5.52.37-4.15-2.38S52.49,113.16,51.66,115.94ZM26.32,140.2c.21-1.65,2.65-3.84,4.27-5.27l.84-.77a32.5,32.5,0,0,1,12.28-7.44c3.33-1,16.39-2.39,20.83,1a3.46,3.46,0,0,1,1.5,2.62,1.25,1.25,0,0,1-.1.59c0,.16,0,.09-.11.29C61.1,140,53.92,144.92,44.95,145.73a27.26,27.26,0,0,1-3.39.1c-2.77-.05-12-.5-14.58-3.5A2.58,2.58,0,0,1,26.32,140.2Zm-3.58,10.73c1.34-2.7,5.2-.9,4.38,1.88l0,0a1,1,0,0,1-.21.47C25.1,155.52,21.37,153.68,22.74,150.93Z" transform="translate(-10.06 -11.61)"/><path class="cls-2" d="M117.51,197.29c.38,2.66.72,5.32,1,8,.55,5.35-.59,12,1,17.08a8.6,8.6,0,0,0,.79,1.75,106.89,106.89,0,0,0,10.74-.93c.2-2.34-1.14-4.74-2.72-6.4-.92-1,.52-2.47,1.44-1.5a11.18,11.18,0,0,1,3.35,7.59l1-.17a18.39,18.39,0,0,0-1-5.45C130.44,209.09,124.27,202.42,117.51,197.29Z" transform="translate(-10.06 -11.61)"/><path class="cls-2" d="M192,86.11c-2.62-2.14-6.68-4.83-10.05-2.73-5,3.13-3.48,10.46.39,13.55,4.18,3.34,10.77,4.66,15.56,7.11,2.39,1.22,4.74,2.5,7.08,3.82C202.62,99.7,198.64,91.54,192,86.11Zm-1.28,4.62c-1-2.15-2.86-4.37-5.25-4.93-1.29-.3-1-2.37.27-2.06,3.17.74,5.54,3.31,6.9,6.19C193.2,91.14,191.27,91.94,190.71,90.73Z" transform="translate(-10.06 -11.61)"/><path class="cls-2" d="M194.2,184.26c2.05-.52,5.79-2.87,6.21-5.4q-3.91,1.72-7.88,3.32c-1.7.68-3.74,1.69-5.81,2.47.6,0,1.22.11,1.82.12A22,22,0,0,0,194.2,184.26Z" transform="translate(-10.06 -11.61)"/><path class="cls-2" d="M197.53,147a5.88,5.88,0,0,0,1,2.81,13.25,13.25,0,0,0,0-5.06,45.8,45.8,0,0,0-4.13-14.54c-.34-.67-.71-1.35-1.12-2a38.93,38.93,0,0,1,2.56,6.46C197.14,138.82,197,142.78,197.53,147Z" transform="translate(-10.06 -11.61)"/><path class="cls-2" d="M219.9,110.8a3.25,3.25,0,0,0,2,6.17,6.77,6.77,0,0,1,.68-.14q0-3.89-.35-7.7A5.78,5.78,0,0,1,219.9,110.8Z" transform="translate(-10.06 -11.61)"/><path class="cls-2" d="M182.05,159.9a17,17,0,0,0,6-.22,5.75,5.75,0,0,0-2.18-.77c-2.23-.3-4.49.07-6.74,0a33.93,33.93,0,0,1-6.24-1,38.78,38.78,0,0,1-6.84-2.31c.62.35,1.26.67,1.91,1A45.87,45.87,0,0,0,182.05,159.9Z" transform="translate(-10.06 -11.61)"/><path class="cls-2" d="M129.84,188.41c0,16.66,25.07,17.43,25.79,0C154.83,171,129.84,171.75,129.84,188.41Zm6.62.55c-1-1.71,1.42-3.11,2.63-1.69l0,0a.69.69,0,0,1,.15.26C139.82,189.33,137.43,190.68,136.46,189Zm9,.93a.63.63,0,0,1-.24-.24h0c-1.15-1.5.81-3.5,2.24-2.17S147.07,190.79,145.48,189.89Zm3.1-5.5c-1.77-3.8-6.12-4.1-9.64-2.76-.81.31-1.16-1-.36-1.3,4-1.54,9.13-1,11.16,3.38C150.1,184.49,148.94,185.17,148.57,184.39Z" transform="translate(-10.06 -11.61)"/><path d="M157.34,69.8c.25,0,.51.09.79.16.09-.19.19-.39.27-.59Z" transform="translate(-10.06 -11.61)"/><path d="M158.39,69.37c-.08.2-.17.4-.27.59,2.41.52,5.6,1.67,6.61,3.87.69,1.49-.75,4.11-1.25,5.74-1.59,5.12-3.14,10.23-4.35,15.44a86.91,86.91,0,0,1-7.24,19.4c-1.57,3.07-3.76,5.75-5.32,8.84a32.21,32.21,0,0,0-3.44,10.55,5,5,0,0,1,.71,1.07,11.89,11.89,0,0,1,1,3.75s0,.05,0,.08h0a27.8,27.8,0,0,1,.81-8c1.4-5,4.09-9.14,6.84-13.45,3.78-5.91,6.09-13.41,8-20.11,1.86-6.36,3.46-12.8,5.44-19.14.72-2.32,1.56-3.64-.09-5.8-1.82-2.37-5.14-3.67-8-4.17a1,1,0,0,0-1.05.43c-.14.33-.29.66-.46,1l1,.39Z" transform="translate(-10.06 -11.61)"/><path class="cls-6" d="M141,143.94c-2.94.17-4.7.87-4.7,1.88a1.78,1.78,0,0,0,.54,1.51c1.07.91,3.87.61,6.47.19h.09q-.11-1.77-.21-3.54h0A20.51,20.51,0,0,1,141,143.94Z" transform="translate(-10.06 -11.61)"/><path class="cls-6" d="M142.16,135.68a2,2,0,0,0-1.25-1.23c-1.5-.39-4.07,1.43-6.14,2.89a4.17,4.17,0,0,0,1,2.59c1,1.22,2.81,1.93,5.26,2.13,1,0,1.73,0,2.07,0q-.07-1.53-.11-3a.88.88,0,0,1-.06-.17A10.09,10.09,0,0,0,142.16,135.68Z" transform="translate(-10.06 -11.61)"/><path class="cls-7" d="M133.85,85.49l-6.18,5.58C130.88,90.79,133.44,88.77,133.85,85.49Z" transform="translate(-10.06 -11.61)"/><path class="cls-7" d="M113.78,86.61a1,1,0,0,1-.14,1.71l9.82,26.23a.9.9,0,0,1,1.21.59,10,10,0,0,1-.9,7.16c-3.08,5.83-10.55,7.1-16.37,8.35a79.18,79.18,0,0,1-17,1.59c-4.86,0-10.87.8-14.68-3a2.55,2.55,0,0,1-.22-.24c0,.76-.06,1.55-.12,2.39-.49,7.08-4.9,11.85-5.57,17.75-.39,3.5-2.14,10.24,2.08,12.09a26.75,26.75,0,0,0,7.2,1.64c8.08,1,20.39,1,28.53,1.09,4.75,0,9.5,0,14.25-.16s9.89-.2,14.61-1.6c2.95-.87,7.26-2.79,7.5-6.41a41.76,41.76,0,0,0-.43-6.46,27.67,27.67,0,0,1-4.2.42,5.53,5.53,0,0,1-3.71-1,3.66,3.66,0,0,1-1.2-2.93c0-1,.47-2.15,2.24-2.91a7,7,0,0,1-2.36-1.79,6,6,0,0,1-1.27-2.59,15.51,15.51,0,0,1-1.62,1c-3.56,1.78-16.41,2-22.06,2l-2.67,0a.93.93,0,0,1,0-1.87h0c3,0,8.68,0,13.85-.28a9.58,9.58,0,0,0,2-6.76.93.93,0,0,1,1.85-.26,11.46,11.46,0,0,1-1.49,6.86c3.43-.27,6.34-.69,7.62-1.33a22.46,22.46,0,0,0,2.62-1.66l.45-.32c2.64-1.86,5.36-3.79,7.71-3.19a3.43,3.43,0,0,1,1.76,1.16,32.21,32.21,0,0,1,3.44-10.55c1.56-3.09,3.75-5.77,5.32-8.84A86.91,86.91,0,0,0,159.14,95c1.21-5.22,2.76-10.33,4.35-15.44.5-1.63,1.93-4.25,1.25-5.74-1-2.19-4.2-3.34-6.61-3.87a22.33,22.33,0,0,1-10.48,10.48c-6.26,2.85-14.12,1.55-20.69.78-9.85-1.15-23.91-4.46-32.52,2.43A21.3,21.3,0,0,1,113.78,86.61Zm12.81,4.5a8.67,8.67,0,0,0,1.07,0l6.18-5.58a7,7,0,0,0,.06-.9.94.94,0,0,1,1.87,0,9.49,9.49,0,0,1-1.28,4.57c-1.67,2.85-4.73,3.91-7.9,3.81C125.39,92.94,125.39,91.07,126.59,91.11Z" transform="translate(-10.06 -11.61)"/><path d="M134.85,84.59l-1,.9c-.41,3.29-3,5.3-6.18,5.58l-1.07,1C134.85,92.45,134.85,84.59,134.85,84.59Z" transform="translate(-10.06 -11.61)"/><path d="M126.59,93c3.17.1,6.23-1,7.9-3.81a9.49,9.49,0,0,0,1.28-4.57.94.94,0,0,0-1.87,0,7,7,0,0,1-.06.9l1-.9s0,7.85-8.25,7.45l1.07-1a8.67,8.67,0,0,1-1.07,0C125.39,91.07,125.39,92.94,126.59,93Z" transform="translate(-10.06 -11.61)"/><path class="cls-7" d="M112.84,88.22a21,21,0,0,0-8-3.46A18,18,0,0,0,91,87.49a25.73,25.73,0,0,0-4.92,4.16,42.72,42.72,0,0,0-11.24,25.81,21.63,21.63,0,0,0,.28,7.24,7.1,7.1,0,0,0,3,4.11c2.34,1.55,5.2,1.53,7.9,1.54s5.39,0,8.08,0a70.1,70.1,0,0,0,14.71-1.92c5.9-1.37,16.47-4.44,14.09-12.78a.86.86,0,0,1,.59-1.09l-9.82-26.23A.74.74,0,0,1,112.84,88.22Z" transform="translate(-10.06 -11.61)"/><path d="M89.74,86a19.67,19.67,0,0,1,4.69-2.32C103,76.76,117.1,80.07,127,81.22c6.57.77,14.42,2.07,20.69-.78A22.33,22.33,0,0,0,158.13,70c-.28-.07-.54-.12-.79-.16l-1-.39c-2.42,4.9-7.17,9.17-12.49,10.3-8.19,1.73-17.36-.43-25.52-1.42C108.49,77.09,96.22,76.9,89.74,86Z" transform="translate(-10.06 -11.61)"/><path d="M92.6,85.37c10.82-5.41,20.71,2,20.71,2l.34.9a1,1,0,0,0,.14-1.71,21.3,21.3,0,0,0-19.35-3A15.25,15.25,0,0,0,92.6,85.37Z" transform="translate(-10.06 -11.61)"/><path d="M89.62,87.19a21.32,21.32,0,0,1,3-1.81,15.25,15.25,0,0,1,1.83-1.72A19.67,19.67,0,0,0,89.74,86l-.16.21A.77.77,0,0,0,89.62,87.19Z" transform="translate(-10.06 -11.61)"/><path d="M90.94,87.39a1,1,0,0,0,.26-.26,17.49,17.49,0,0,1,1.4-1.76,21.32,21.32,0,0,0-3,1.81A1,1,0,0,0,90.94,87.39Z" transform="translate(-10.06 -11.61)"/><path d="M90.94,87.39l.06.1a18,18,0,0,1,13.84-2.73,21,21,0,0,1,8,3.46.74.74,0,0,0,.8.1l-.34-.9s-9.89-7.45-20.71-2a17.49,17.49,0,0,0-1.4,1.76A1,1,0,0,1,90.94,87.39Z" transform="translate(-10.06 -11.61)"/><path d="M90.4,132.24a79.18,79.18,0,0,0,17-1.59c5.82-1.25,13.29-2.53,16.37-8.35a10,10,0,0,0,.9-7.16.9.9,0,0,0-1.21-.59l.32.84s2.82,9.46-10.47,12.88-15.9,3-29,3c-4.69,0-7.36-1.63-8.86-3.72,0,.49,0,1,0,1.48a2.55,2.55,0,0,0,.22.24C79.53,133,85.54,132.24,90.4,132.24Z" transform="translate(-10.06 -11.61)"/><path d="M75.11,124.71a.82.82,0,0,0-1.1-.45,9.26,9.26,0,0,0,1.46,3.3,17.73,17.73,0,0,0-.32-2.69A1.21,1.21,0,0,0,75.11,124.71Z" transform="translate(-10.06 -11.61)"/><path d="M84.33,131.29c13.08,0,15.69.4,29-3s10.47-12.88,10.47-12.88l-.32-.84a.86.86,0,0,0-.59,1.09c2.38,8.34-8.2,11.41-14.09,12.78a70.1,70.1,0,0,1-14.71,1.92c-2.69.06-5.39,0-8.08,0s-5.55,0-7.9-1.54a7.1,7.1,0,0,1-3-4.11h0a1.21,1.21,0,0,1,0,.16,17.73,17.73,0,0,1,.32,2.69C77,129.65,79.64,131.29,84.33,131.29Z" transform="translate(-10.06 -11.61)"/><path d="M75.11,124.71h0a21.63,21.63,0,0,1-.28-7.24A42.72,42.72,0,0,1,86.08,91.65,25.73,25.73,0,0,1,91,87.49l-.06-.1a1,1,0,0,1-1.31-.21,25.31,25.31,0,0,0-3.08,2.64A43.48,43.48,0,0,0,73.87,118.6a14.54,14.54,0,0,0,.14,5.66A.82.82,0,0,1,75.11,124.71Z" transform="translate(-10.06 -11.61)"/><path d="M75.47,127.57a9.26,9.26,0,0,1-1.46-3.3,1,1,0,0,0-.66,1.09A9.54,9.54,0,0,0,75.49,129C75.5,128.55,75.49,128.06,75.47,127.57Z" transform="translate(-10.06 -11.61)"/><path d="M74,124.26a14.54,14.54,0,0,1-.14-5.66A43.48,43.48,0,0,1,86.54,89.83a25.31,25.31,0,0,1,3.08-2.64.77.77,0,0,1,0-1l.16-.21-.3.2c-9.43,6.59-15.23,18.69-16.37,30-.2,2-.28,2.51-.35,4.46a13.9,13.9,0,0,0,.62,4.77A1,1,0,0,1,74,124.26Z" transform="translate(-10.06 -11.61)"/><path d="M144,139.65a.93.93,0,0,1-1-.65q0,1.52.11,3h.07l.68,0a.94.94,0,0,1,0,1.87l-.63,0q.1,1.77.21,3.54a.92.92,0,0,1,1,.77.93.93,0,0,1-.78,1.07h-.07a41.76,41.76,0,0,1,.43,6.46c-.24,3.61-4.56,5.53-7.5,6.41-4.72,1.4-9.74,1.44-14.61,1.6s-9.51.19-14.25.16c-8.13-.06-20.44-.1-28.53-1.09a26.75,26.75,0,0,1-7.2-1.64c-4.21-1.84-2.47-8.59-2.08-12.09.67-5.9,5.07-10.67,5.57-17.75.06-.84.11-1.63.12-2.39a9.54,9.54,0,0,1-2.14-3.69v0a26.94,26.94,0,0,1,.07,7.17c-.39,5.93-4.94,11.85-5.62,17.76-.38,3.35-1.3,8.08,1,11,1.47,1.86,3.92,2.15,6.08,2.69,6.6,1.66,17.8,1.55,24.56,1.73,10.38.28,21.05.62,31.39-.52,5-.55,12.45-2,14.58-7.39a6,6,0,0,0,.4-2.21c0-3.43-.49-6.95-.67-10.38-.12-2.14-.29-4.34-.34-6.53h0A.93.93,0,0,1,144,139.65Z" transform="translate(-10.06 -11.61)"/><path d="M143.87,138.72l.92,0s0-.05,0-.08a11.89,11.89,0,0,0-1-3.75,5,5,0,0,0-.71-1.07c-.06.49-.11,1-.13,1.48A10.91,10.91,0,0,1,143.87,138.72Z" transform="translate(-10.06 -11.61)"/><path d="M143,135.28c-1.73-3.54-5.27-1.17-8.52,1.12a.92.92,0,0,1,.28.74s0,.1,0,.21c2.07-1.46,4.64-3.28,6.14-2.89a2,2,0,0,1,1.25,1.23,10.09,10.09,0,0,1,.79,3.15.88.88,0,0,0,.06.17c0-.92,0-1.84,0-2.76C143,135.92,143,135.6,143,135.28Z" transform="translate(-10.06 -11.61)"/><path d="M141.37,132.65c-2.35-.6-5.07,1.33-7.71,3.19l-.45.32a22.46,22.46,0,0,1-2.62,1.66c-1.28.64-4.19,1.06-7.62,1.33a10.29,10.29,0,0,1-1.24,1.69.94.94,0,0,1-1.38-1.26l.23-.27c-5.18.3-10.9.32-13.85.28h0a.93.93,0,0,0,0,1.87l2.67,0c5.65,0,18.5-.2,22.06-2a15.51,15.51,0,0,0,1.62-1,5.63,5.63,0,0,1-.14-1.57.94.94,0,0,1,1-.84.92.92,0,0,1,.56.28c3.25-2.29,6.79-4.67,8.52-1.12,0-.49.07-1,.13-1.48A3.43,3.43,0,0,0,141.37,132.65Z" transform="translate(-10.06 -11.61)"/><path d="M143,135.28c0,.32,0,.64,0,1,0,.92,0,1.84,0,2.76a.92.92,0,0,0,1.8-.3l-.92,0A10.91,10.91,0,0,0,143,135.28Z" transform="translate(-10.06 -11.61)"/><path d="M143.79,143l-.64,0a.22.22,0,0,0,0,.06Z" transform="translate(-10.06 -11.61)"/><path d="M141,143c-2.45.13-5.65.7-5.65,2.82,0,3.43,3.42,3.37,8.1,2.62,0-.31,0-.61-.05-.92h-.09c-2.6.42-5.41.72-6.47-.19a1.78,1.78,0,0,1-.54-1.51c0-1,1.76-1.71,4.7-1.88a20.51,20.51,0,0,0,2.17,0h0c0-.31,0-.62-.06-.93A19.49,19.49,0,0,1,141,143Z" transform="translate(-10.06 -11.61)"/><path d="M143.15,143a.22.22,0,0,1,0-.06c-.51,0-1.27,0-2.13,0A19.49,19.49,0,0,0,143.15,143Z" transform="translate(-10.06 -11.61)"/><path d="M141,142.07c-2.45-.19-4.22-.91-5.26-2.12a4.17,4.17,0,0,1-1-2.59h0l-.46.33-.4.28c.24,1.56,1.43,4.62,7.14,5,.85,0,1.62,0,2.13,0,0-.31,0-.62,0-.94C142.76,142,142,142,141,142.07Z" transform="translate(-10.06 -11.61)"/><path d="M135.37,145.82c0-2.11,3.2-2.69,5.65-2.82-5.71-.42-6.9-3.48-7.14-5l-.84.57a6,6,0,0,0,1.27,2.59,7,7,0,0,0,2.36,1.79c-1.77.77-2.24,1.92-2.24,2.91a3.66,3.66,0,0,0,1.2,2.93,5.53,5.53,0,0,0,3.71,1,27.67,27.67,0,0,0,4.2-.42c0-.31-.05-.63-.07-.93C138.79,149.19,135.37,149.25,135.37,145.82Z" transform="translate(-10.06 -11.61)"/><path d="M143.79,143l-.64,0c0,.31,0,.62.06.93l.63,0a.94.94,0,0,0,0-1.87l-.68,0h-.07c0,.31,0,.62,0,.94Z" transform="translate(-10.06 -11.61)"/><path d="M143.54,149.38h.07a.93.93,0,0,0,.78-1.07.92.92,0,0,0-1-.77c0,.31,0,.61.05.92S143.51,149.07,143.54,149.38Z" transform="translate(-10.06 -11.61)"/><path d="M133.83,137.05a4.24,4.24,0,0,0,.05.91l.4-.28.46-.33h0c0-.12,0-.2,0-.21a.92.92,0,0,0-.28-.74l-.74.52Z" transform="translate(-10.06 -11.61)"/><path d="M133.83,137.05l-.09-.13.74-.52a.92.92,0,0,0-.56-.28.94.94,0,0,0-1,.84,5.63,5.63,0,0,0,.14,1.57l.84-.57A4.24,4.24,0,0,1,133.83,137.05Z" transform="translate(-10.06 -11.61)"/><path d="M124.45,132.29a.93.93,0,0,0-1.85.26,9.58,9.58,0,0,1-2,6.76l2.4-.16A11.46,11.46,0,0,0,124.45,132.29Z" transform="translate(-10.06 -11.61)"/><path d="M120.41,140.9a.94.94,0,0,0,1.32-.06,10.29,10.29,0,0,0,1.24-1.69l-2.4.16-.23.27A.93.93,0,0,0,120.41,140.9Z" transform="translate(-10.06 -11.61)"/><path class="cls-3" d="M54.09,104.85c6.48-1.25,12.71-3.25,19.32-4.11a.84.84,0,0,0,.47-.23.87.87,0,0,1-1.07,0c-.48-.38-1-.75-1.47-1.12-2.12.3-4.24.63-6.35,1-4.23.77-9.06,3.13-13.34,3-4-.09-8.5-4-6.82-8.42,1.12-3,5-3.23,7.71-3.14,6.86.22,13.35,3.47,18.8,7.51l2.06-.29a.78.78,0,0,1,.31,0c-6.4-5-14.57-9.4-23-8.88-4.46.28-8.06,2.27-7.62,7.16C43.64,103.11,48.71,105.89,54.09,104.85Z" transform="translate(-10.06 -11.61)"/><path class="cls-3" d="M73.88,100.51a.71.71,0,0,0,.26-1A1,1,0,0,1,73.88,100.51Z" transform="translate(-10.06 -11.61)"/><path class="cls-3" d="M71.35,99.37c.5.37,1,.74,1.47,1.12a.87.87,0,0,0,1.07,0,1,1,0,0,0,.26-1,.75.75,0,0,0-.14-.17l-.29-.22a.78.78,0,0,0-.31,0Z" transform="translate(-10.06 -11.61)"/><path class="cls-3" d="M74.14,99.49a.62.62,0,0,0-.43-.39l.29.22A.75.75,0,0,1,74.14,99.49Z" transform="translate(-10.06 -11.61)"/><path class="cls-3" d="M47.42,93.39c-1,.44-.14,1.88.83,1.44,1.79-.81,4-.29,5.73.58.95.49,1.78-.95.83-1.44A8.57,8.57,0,0,0,47.42,93.39Z" transform="translate(-10.06 -11.61)"/><path class="cls-3" d="M117,194.35a1,1,0,0,1,.14.36c.13.86.24,1.71.37,2.57,6.75,5.13,12.93,11.8,15.59,20a18.39,18.39,0,0,1,1,5.45l2-.35a17,17,0,0,0-.43-3.51C133.4,208.58,125.27,200.29,117,194.35Z" transform="translate(-10.06 -11.61)"/><path class="cls-3" d="M118.51,205.27c-.28-2.67-.62-5.33-1-8-.62-.47-1.24-.93-1.86-1.37a1.1,1.1,0,0,1-.42-1.21,1.06,1.06,0,0,0-.08.58c1.27,8.25,1,16.43,1.81,24.66a14.06,14.06,0,0,0,1.07,4.23l2.29-.06a8.6,8.6,0,0,1-.79-1.75C117.92,217.25,119.07,210.62,118.51,205.27Z" transform="translate(-10.06 -11.61)"/><path class="cls-3" d="M116.5,194a.9.9,0,0,0-1.27.7A1.17,1.17,0,0,1,116.5,194Z" transform="translate(-10.06 -11.61)"/><path class="cls-3" d="M115.65,195.91c.63.44,1.25.91,1.86,1.37-.12-.86-.23-1.72-.37-2.57a1,1,0,0,0-.14-.36l-.37-.27-.14-.08a1.17,1.17,0,0,0-1.27.7A1.1,1.1,0,0,0,115.65,195.91Z" transform="translate(-10.06 -11.61)"/><path class="cls-3" d="M117,194.35a.75.75,0,0,0-.51-.35l.14.08Z" transform="translate(-10.06 -11.61)"/><path class="cls-3" d="M129.77,215.28c-.93-1-2.37.53-1.44,1.5,1.58,1.65,2.92,4.05,2.72,6.4l2.08-.31A11.18,11.18,0,0,0,129.77,215.28Z" transform="translate(-10.06 -11.61)"/><path class="cls-3" d="M205.58,110.09c-.19-.74-.39-1.49-.61-2.23-2.34-1.31-4.7-2.59-7.08-3.82-4.79-2.45-11.39-3.77-15.56-7.11-3.87-3.09-5.42-10.42-.39-13.55,3.37-2.1,7.44.6,10.05,2.73,6.65,5.43,10.64,13.59,13,21.74.76.42,1.52.84,2.27,1.27a1,1,0,0,1,.28.24C205,99.53,200.18,89,191.45,83.11c-4.64-3.11-9.74-3.86-13,1.33-3.85,6.1-.91,12.71,5.22,15.76,7.39,3.68,15.1,6.42,22.34,10.59a1.07,1.07,0,0,0,.74.13A1.11,1.11,0,0,1,205.58,110.09Z" transform="translate(-10.06 -11.61)"/><path class="cls-3" d="M207.53,109.37l.12.46a.94.94,0,0,1,0,.29A.78.78,0,0,0,207.53,109.37Z" transform="translate(-10.06 -11.61)"/><path class="cls-3" d="M206.72,110.92a.87.87,0,0,0,.94-.81A1.22,1.22,0,0,1,206.72,110.92Z" transform="translate(-10.06 -11.61)"/><path class="cls-3" d="M207.53,109.37a1,1,0,0,0-.28-.24c-.75-.43-1.51-.85-2.27-1.27.21.75.42,1.49.61,2.23a1.11,1.11,0,0,0,1.14.83,1.22,1.22,0,0,0,.94-.81.94.94,0,0,0,0-.29Z" transform="translate(-10.06 -11.61)"/><path class="cls-3" d="M185.73,83.74c-1.31-.31-1.57,1.76-.27,2.06,2.39.56,4.24,2.78,5.25,4.93.57,1.21,2.49.41,1.92-.8C191.27,87,188.9,84.48,185.73,83.74Z" transform="translate(-10.06 -11.61)"/><path class="cls-5" d="M52.85,41.5l-.23.5c-.38,1.26,1.61,1.58,2,.36A1,1,0,0,0,52.85,41.5Z" transform="translate(-10.06 -11.61)"/><path class="cls-5" d="M50.27,40.46c-1.37,2.75,2.36,4.58,4.15,2.38a1,1,0,0,0,.21-.47c-.41,1.22-2.39.91-2-.36l.23-.5a1,1,0,0,1,1.78.86l0,0C55.48,39.56,51.61,37.76,50.27,40.46Z" transform="translate(-10.06 -11.61)"/><path class="cls-5" d="M68.41,38.51l-.23.5c-.38,1.26,1.61,1.58,2,.36A1,1,0,0,0,68.41,38.51Z" transform="translate(-10.06 -11.61)"/><path class="cls-5" d="M70,39.84a1,1,0,0,0,.21-.47c-.41,1.22-2.39.91-2-.36l.23-.5a1,1,0,0,1,1.78.86l0,0c.82-2.77-3-4.58-4.38-1.88S68.19,42,70,39.84Z" transform="translate(-10.06 -11.61)"/><path class="cls-5" d="M63.4,52.41a1,1,0,0,0,.21-.47c-.41,1.22-2.39.91-2-.36l.23-.5a1,1,0,0,1,1.78.86l0,0c.82-2.77-3-4.58-4.38-1.88S61.61,54.61,63.4,52.41Z" transform="translate(-10.06 -11.61)"/><path class="cls-5" d="M61.83,51.08l-.23.5c-.38,1.26,1.61,1.58,2,.36A1,1,0,0,0,61.83,51.08Z" transform="translate(-10.06 -11.61)"/><path class="cls-5" d="M107.31,69a1,1,0,0,0,.21-.47c-.41,1.22-2.39.91-2-.36l.23-.5a1,1,0,0,1,1.78.86l0,0c.82-2.77-3-4.58-4.38-1.88S105.52,71.24,107.31,69Z" transform="translate(-10.06 -11.61)"/><path class="cls-5" d="M105.74,67.7l-.23.5c-.38,1.26,1.61,1.58,2,.36A1,1,0,0,0,105.74,67.7Z" transform="translate(-10.06 -11.61)"/><path class="cls-5" d="M146.43,43.4l-.23.5c-.38,1.26,1.61,1.58,2,.36A1,1,0,0,0,146.43,43.4Z" transform="translate(-10.06 -11.61)"/><path class="cls-5" d="M148,44.73a1,1,0,0,0,.21-.47c-.41,1.22-2.39.91-2-.36l.23-.5a1,1,0,0,1,1.78.86l0,0c.82-2.77-3-4.58-4.38-1.88S146.21,46.93,148,44.73Z" transform="translate(-10.06 -11.61)"/><path class="cls-5" d="M180.36,111.16c-1.37,2.75,2.36,4.58,4.15,2.38a1,1,0,0,0,.21-.47c-.41,1.22-2.39.91-2-.36l.23-.5a1,1,0,0,1,1.78.86l0,0C185.56,110.27,181.7,108.46,180.36,111.16Z" transform="translate(-10.06 -11.61)"/><path class="cls-5" d="M182.94,112.21l-.23.5c-.38,1.26,1.61,1.58,2,.36A1,1,0,0,0,182.94,112.21Z" transform="translate(-10.06 -11.61)"/><path class="cls-5" d="M171,99.65l-.23.5c-.38,1.26,1.61,1.58,2,.36A1,1,0,0,0,171,99.65Z" transform="translate(-10.06 -11.61)"/><path class="cls-5" d="M172.54,101a1,1,0,0,0,.21-.47c-.41,1.22-2.39.91-2-.36l.23-.5a1,1,0,0,1,1.78.86l0,0c.82-2.77-3-4.58-4.38-1.88S170.75,103.18,172.54,101Z" transform="translate(-10.06 -11.61)"/><path class="cls-5" d="M166.78,111.61l-.23.5c-.38,1.26,1.61,1.58,2,.36A1,1,0,0,0,166.78,111.61Z" transform="translate(-10.06 -11.61)"/><path class="cls-5" d="M164.2,110.56c-1.37,2.75,2.36,4.58,4.15,2.38a1,1,0,0,0,.21-.47c-.41,1.22-2.39.91-2-.36l.23-.5a1,1,0,0,1,1.78.86l0,0C169.41,109.67,165.54,107.87,164.2,110.56Z" transform="translate(-10.06 -11.61)"/><path class="cls-5" d="M105.14,187l-.23.5c-.38,1.26,1.61,1.58,2,.36A1,1,0,0,0,105.14,187Z" transform="translate(-10.06 -11.61)"/><path class="cls-5" d="M102.57,186c-1.37,2.75,2.36,4.58,4.15,2.38a1,1,0,0,0,.21-.47c-.41,1.22-2.39.91-2-.36l.23-.5a1,1,0,0,1,1.78.86l0,0C107.77,185.07,103.91,183.26,102.57,186Z" transform="translate(-10.06 -11.61)"/><path class="cls-5" d="M115.92,176.84l-.23.5c-.38,1.26,1.61,1.58,2,.36A1,1,0,0,0,115.92,176.84Z" transform="translate(-10.06 -11.61)"/><path class="cls-5" d="M113.34,175.79c-1.37,2.75,2.36,4.58,4.15,2.38a1,1,0,0,0,.21-.47c-.41,1.22-2.39.91-2-.36l.23-.5a1,1,0,0,1,1.78.86l0,0C118.54,174.89,114.68,173.09,113.34,175.79Z" transform="translate(-10.06 -11.61)"/><path class="cls-5" d="M49.86,115.11l-.23.5c-.38,1.26,1.61,1.58,2,.36A1,1,0,0,0,49.86,115.11Z" transform="translate(-10.06 -11.61)"/><path class="cls-5" d="M47.28,114.06c-1.37,2.75,2.36,4.58,4.15,2.38a1,1,0,0,0,.21-.47c-.41,1.22-2.39.91-2-.36l.23-.5a1,1,0,0,1,1.78.86l0,0C52.49,113.16,48.62,111.36,47.28,114.06Z" transform="translate(-10.06 -11.61)"/><path class="cls-5" d="M64.22,116.31l-.23.5c-.38,1.26,1.61,1.58,2,.36A1,1,0,0,0,64.22,116.31Z" transform="translate(-10.06 -11.61)"/><path class="cls-5" d="M61.64,115.26c-1.37,2.75,2.36,4.58,4.15,2.38a1,1,0,0,0,.21-.47c-.41,1.22-2.39.91-2-.36l.23-.5a1,1,0,0,1,1.78.86l0,0C66.85,114.36,63,112.56,61.64,115.26Z" transform="translate(-10.06 -11.61)"/><path class="cls-5" d="M59.43,154.38l-.23.5c-.38,1.26,1.61,1.58,2,.36A1,1,0,0,0,59.43,154.38Z" transform="translate(-10.06 -11.61)"/><path class="cls-5" d="M61,155.71a1,1,0,0,0,.21-.47c-.41,1.22-2.39.91-2-.36l.23-.5a1,1,0,0,1,1.78.86l0,0c.82-2.77-3-4.58-4.38-1.88S59.21,157.91,61,155.71Z" transform="translate(-10.06 -11.61)"/><path class="cls-5" d="M25.32,152l-.23.5c-.38,1.26,1.61,1.58,2,.36A1,1,0,0,0,25.32,152Z" transform="translate(-10.06 -11.61)"/><path class="cls-5" d="M26.89,153.31a1,1,0,0,0,.21-.47c-.41,1.22-2.39.91-2-.36l.23-.5a1,1,0,0,1,1.78.86l0,0c.82-2.77-3-4.58-4.38-1.88S25.1,155.52,26.89,153.31Z" transform="translate(-10.06 -11.61)"/><path class="cls-5" d="M58.84,79.8l-.23.5c-.38,1.26,1.61,1.58,2,.36A1,1,0,0,0,58.84,79.8Z" transform="translate(-10.06 -11.61)"/><path class="cls-5" d="M60.41,81.13a1,1,0,0,0,.21-.47c-.41,1.22-2.39.91-2-.36l.23-.5a1,1,0,0,1,1.78.86l0,0c.82-2.77-3-4.58-4.38-1.88S58.62,83.34,60.41,81.13Z" transform="translate(-10.06 -11.61)"/><path class="cls-5" d="M154,166l-.23.5c-.38,1.26,1.61,1.58,2,.36A1,1,0,0,0,154,166Z" transform="translate(-10.06 -11.61)"/><path class="cls-5" d="M155.55,167.3a1,1,0,0,0,.21-.47c-.41,1.22-2.39.91-2-.36l.23-.5a1,1,0,0,1,1.78.86l0,0c.82-2.77-3-4.58-4.38-1.88S153.76,169.51,155.55,167.3Z" transform="translate(-10.06 -11.61)"/><path class="cls-5" d="M179.49,42.24a1,1,0,0,0,.21-.47c-.41,1.22-2.39.91-2-.36l.23-.5a1,1,0,0,1,1.78.86l0,0c.82-2.77-3-4.58-4.38-1.88S177.7,44.44,179.49,42.24Z" transform="translate(-10.06 -11.61)"/><path class="cls-5" d="M177.92,40.91l-.23.5c-.38,1.26,1.61,1.58,2,.36A1,1,0,0,0,177.92,40.91Z" transform="translate(-10.06 -11.61)"/><path class="cls-5" d="M207.84,79.8l-.23.5c-.38,1.26,1.61,1.58,2,.36A1,1,0,0,0,207.84,79.8Z" transform="translate(-10.06 -11.61)"/><path class="cls-5" d="M209.41,81.13a1,1,0,0,0,.21-.47c-.41,1.22-2.39.91-2-.36l.23-.5a1,1,0,0,1,1.78.86l0,0c.82-2.77-3-4.58-4.38-1.88S207.62,83.34,209.41,81.13Z" transform="translate(-10.06 -11.61)"/><path class="cls-5" d="M96.17,174.45l-.23.5c-.38,1.26,1.61,1.58,2,.36A1,1,0,0,0,96.17,174.45Z" transform="translate(-10.06 -11.61)"/><path class="cls-5" d="M93.59,173.4c-1.37,2.75,2.36,4.58,4.15,2.38a1,1,0,0,0,.21-.47c-.41,1.22-2.39.91-2-.36l.23-.5a1,1,0,0,1,1.78.86l0,0C98.79,172.5,94.93,170.7,93.59,173.4Z" transform="translate(-10.06 -11.61)"/><path class="cls-4" d="M219.26,138.36c-1.87-1.43-3.82-2.76-5.78-4.08-.75-.5-1.5-1-2.26-1.49a33.14,33.14,0,0,1,.74,7.78c0,4.13-.33,8.32-.68,12.43-.14,1.72-.13,4-1.13,5.53a2.34,2.34,0,0,1-3.19.94c-1.55-1-1-4-.88-5.48a64.68,64.68,0,0,0-1.44-22.05c-.51-2-.54-3.87-2.15-5a11.23,11.23,0,0,0-3.85-1.41c-1.33-.3-4.23-1.15-5.91-.93.57.73,1.48,1.52,1.87,2.1a26.38,26.38,0,0,1,2.56,5,45.29,45.29,0,0,1,3.51,15.55c0,1.53,0,5.63-2.62,4.72-1.78-.63-2.22-3.22-2.42-4.8-.34-2.56-.1-5.12-.54-7.68a36.45,36.45,0,0,0-2.08-7.16c-1.48-3.75-3.46-8.88-8.13-8.86a17.29,17.29,0,0,0-4.74.73c-.53.16-1.37.53-1.37.32,0,.42,1.77,2.28,2,2.67,2,3.25,4.38,7.35,4.92,11.2a7.28,7.28,0,0,1,.09,1.28,1.71,1.71,0,0,1-.68,1.48A1,1,0,0,1,184,141a18.13,18.13,0,0,1-5.23-6.56c-.77-1.8-1.29-3.7-2.12-5.49a13.44,13.44,0,0,0-1.59-2.87,1.81,1.81,0,0,1-.31-.49h0c-.86.09-2.14,1.21-2.94,1.58a11.59,11.59,0,0,1-3.16,1.08c-2.3.36-3.57-1.28-5.38-2.26.37,1.87,2.07,3.3,1.7,5.53a15,15,0,0,1-1.16,3.46c-.15.36-1.36,2.18-1.27,2.54,0,0,3.45,1.39,4.21,1.69,1.94.74,4,1.1,5.93,2a19,19,0,0,1,5.92,4.43,1,1,0,0,1,.22,1.14,1.84,1.84,0,0,1-1.42.85,8.93,8.93,0,0,1-3.09-.39,35.28,35.28,0,0,1-8.47-3.38,35,35,0,0,1-4-3.23c-.88,2-.84,5.13-.73,6.94.16,2.51,1.07,3.6,3.12,4.85a34.54,34.54,0,0,0,12.76,4.31c3.68.52,8.05-.69,11.55.84.9.39,2.2,1.26,2,2.45-.4,2.61-6.06,2-7.56,1.86a51.82,51.82,0,0,1-14-2.92,23.63,23.63,0,0,1-4.76-2.34c-.44-.29-1-.93-1.6-1.35-.18,2,1.11,5.55,1.63,7a8,8,0,0,0,1.6,3c1.8,1.77,7,1.89,9.8,2.19,6.25.67,12.3,0,18.4-.64,1.74-.2,5.21-.39,4.66,2.38a3.1,3.1,0,0,1-2.22,2.13c-2.35.9-5.16,1-7.63,1.28-4.41.5-8.89,1.2-13.34.91a25.86,25.86,0,0,1-3.79-.48c.61.84,1.23,1.68,1.86,2.51,1.41,1.86,2.83,3.71,4.36,5.47.77.88,2,2.68,3.23,2.89,1.46.25,3.7-.88,5-1.34,2.15-.75,4.28-1.58,6.39-2.44,2.83-1.14,5.65-2.34,8.44-3.58a1,1,0,0,1,1.21.58c.79,3.11-1.92,5.91-4.29,7.57a11.61,11.61,0,0,1-5.4,1.78,28.75,28.75,0,0,1-3.82.19c-.25,0-.72-.08-1.21-.13a23.7,23.7,0,0,0,6.83,3.63,106,106,0,0,0,26.21-50.91C220,138.92,219.59,138.62,219.26,138.36Z" transform="translate(-10.06 -11.61)"/><path class="cls-3" d="M213.48,134.28c2,1.32,3.91,2.65,5.78,4.08.33.25.78.56,1.23.89.15-.73.29-1.47.42-2.21-1.14-.82-2.32-1.53-3.17-2.12-1.87-1.32-3.77-2.58-5.68-3.83-.79-.52-1.57-1.08-2.39-1.56l0,0a7.66,7.66,0,0,1,1.58,3.29C212,133.28,212.73,133.78,213.48,134.28Z" transform="translate(-10.06 -11.61)"/><path class="cls-3" d="M187.44,186.54a5.84,5.84,0,0,0-.92,0,1,1,0,0,1-1.34.69,28.37,28.37,0,0,0,7.66,4.49q.73-.75,1.44-1.52a23.7,23.7,0,0,1-6.83-3.63Z" transform="translate(-10.06 -11.61)"/><path class="cls-3" d="M191,124.51c.17.22.33.44.47.66l.43-.31.36-1.1a2.48,2.48,0,0,0,.48.85c1.68-.22,4.58.63,5.91.93a11.23,11.23,0,0,1,3.85,1.41c1.61,1.12,1.64,3,2.15,5A64.68,64.68,0,0,1,206.08,154c-.14,1.5-.67,4.45.88,5.48a2.34,2.34,0,0,0,3.19-.94c1-1.51,1-3.81,1.13-5.53.35-4.11.68-8.3.68-12.43a33.14,33.14,0,0,0-.74-7.78l-2.39-1.56c-.22-.14-.58-.32-.92-.54a12.84,12.84,0,0,1,1.48,3.42c1.31,5,.55,10.56.23,15.68-.08,1.16.21,7.2-1.27,8-.68.35-.14-5.83-.1-6.55a64.51,64.51,0,0,0-.4-12.5,59.79,59.79,0,0,0-1.44-8.69,13,13,0,0,0-1.34-3.18,7,7,0,0,0-3.7-2.5c-2.52-.92-8.17-2.55-10.55-1.06a.85.85,0,0,0-.38.57h0C190.63,124.06,190.81,124.28,191,124.51Z" transform="translate(-10.06 -11.61)"/><path class="cls-3" d="M211.22,132.79a7.66,7.66,0,0,0-1.58-3.29c-.53-.33-.91-.91-.75-.3l-1.33,1.16a.89.89,0,0,1,.34.32h0c.34.22.7.4.92.54Z" transform="translate(-10.06 -11.61)"/><path class="cls-3" d="M207.56,130.36l1.33-1.16c-.16-.61.22,0,.75.3a3.11,3.11,0,0,0-1.23-.84,1,1,0,0,0-1.32,1.16,1.7,1.7,0,0,0,.81.86A.89.89,0,0,0,207.56,130.36Z" transform="translate(-10.06 -11.61)"/><path class="cls-3" d="M186.23,185.6l.09.07a.73.73,0,0,1,0-.14l.06.22c.33.27.67.53,1,.79h0c.49,0,1,.12,1.21.13a28.75,28.75,0,0,0,3.82-.19,11.61,11.61,0,0,0,5.4-1.78c2.37-1.66,5.08-4.46,4.29-7.57a1,1,0,0,0-1.21-.58c-2.79,1.24-5.61,2.44-8.44,3.58-2.11.86-4.24,1.69-6.39,2.44-1.33.46-3.57,1.59-5,1.34-1.24-.21-2.46-2-3.23-2.89-1.53-1.76-3-3.61-4.36-5.47-.63-.83-1.25-1.67-1.86-2.51a6.79,6.79,0,0,1-3.92-2c-.13.06.35.37.7.84L170,174c1.43,1.93,2.87,3.84,4.36,5.72s4,6,6.78,6.12a11.09,11.09,0,0,0,3.57-.49.75.75,0,0,1,.26-.27,2.9,2.9,0,0,1,1.79-.41c2.07-.78,4.11-1.79,5.81-2.47q4-1.59,7.88-3.32a2.73,2.73,0,0,0,0-1.1l1.21.58-1.17.52c-.42,2.53-4.16,4.88-6.21,5.4a22,22,0,0,1-5.66.51c-.6,0-1.22-.11-1.82-.12-.68.26-1.37.49-2,.68a1,1,0,0,0-.11.83c0,.09,0,.17.07.25A1,1,0,0,1,186.23,185.6Z" transform="translate(-10.06 -11.61)"/><path class="cls-3" d="M200.37,177.76a2.73,2.73,0,0,1,0,1.1l1.17-.52Z" transform="translate(-10.06 -11.61)"/><path class="cls-3" d="M185.22,139.61l.58,0a7.28,7.28,0,0,0-.09-1.28c-.54-3.85-2.9-8-4.92-11.2-.25-.39-2-2.25-2-2.67,0,.21.84-.16,1.37-.32a17.29,17.29,0,0,1,4.74-.73c4.67,0,6.65,5.11,8.13,8.86a36.45,36.45,0,0,1,2.08,7.16c.44,2.56.2,5.12.54,7.68.2,1.58.64,4.17,2.42,4.8,2.58.91,2.66-3.19,2.62-4.72a45.29,45.29,0,0,0-3.51-15.55,26.38,26.38,0,0,0-2.56-5c-.39-.58-1.3-1.37-1.87-2.1a1.85,1.85,0,0,0-.84.25l-.43.31a23.8,23.8,0,0,1,1.85,3,15.15,15.15,0,0,0-1.35-1.83c-.6-.69-1.28-1.08-1.51-2a1.14,1.14,0,0,1,0-.52h0a6.84,6.84,0,0,0-5.68-2.32c-1.77,0-7.23.28-8,2.46a1.3,1.3,0,0,0,.14,1.17c.22.36.57.67.84,1a33.12,33.12,0,0,1,2.91,4.67,30.7,30.7,0,0,1,3,7.17s0,.12,0,.19a16.48,16.48,0,0,0,1.48,1.39Zm13.16,10.68c.05-.15.1-.31.14-.47l.28.36C198.69,150.05,198.31,150.5,198.38,150.29Zm-3.95-20.08a45.8,45.8,0,0,1,4.13,14.54,13.25,13.25,0,0,1,0,5.06,5.88,5.88,0,0,1-1-2.81c-.58-4.22-.39-8.18-1.66-12.33a38.93,38.93,0,0,0-2.56-6.46C193.72,128.86,194.09,129.54,194.43,130.21Z" transform="translate(-10.06 -11.61)"/><path class="cls-3" d="M198.38,150.29c-.07.21.31-.24.42-.11l-.28-.36C198.48,150,198.43,150.14,198.38,150.29Z" transform="translate(-10.06 -11.61)"/><path class="cls-3" d="M171.65,173a25.86,25.86,0,0,0,3.79.48c4.45.29,8.93-.41,13.34-.91,2.47-.28,5.28-.38,7.63-1.28a3.1,3.1,0,0,0,2.22-2.13c.55-2.77-2.92-2.58-4.66-2.38-6.1.68-12.15,1.31-18.4.64-2.82-.3-8-.42-9.8-2.19a8,8,0,0,1-1.6-3c-.52-1.45-1.81-5-1.63-7a2,2,0,0,0-.79-.41l1-.5L163,154l-.33-.2a12.43,12.43,0,0,1-1-.74,1,1,0,0,0-.58.47c-1.34,2.4.67,8.24,1.79,10.68a6.69,6.69,0,0,0,2.63,3.27,13.13,13.13,0,0,0,3.13,1.11,58.23,58.23,0,0,0,9,1,65,65,0,0,0,12.71-.27c.77-.09,6.68-1,6.35-.22-.66,1.52-6.73,1.51-8,1.66-5.08.58-10.45,1.58-15.55.62a21.16,21.16,0,0,1-3.34-1.13,1.59,1.59,0,0,1-.41-.3c.25.33.47.7.65.94Z" transform="translate(-10.06 -11.61)"/><path class="cls-3" d="M190.44,123.86a1.14,1.14,0,0,0,0,.52c.23.91.91,1.3,1.51,2a15.15,15.15,0,0,1,1.35,1.83,23.8,23.8,0,0,0-1.85-3c-.14-.22-.3-.44-.47-.66S190.63,124.06,190.44,123.86Z" transform="translate(-10.06 -11.61)"/><path class="cls-3" d="M191.89,124.86a1.85,1.85,0,0,1,.84-.25,2.48,2.48,0,0,1-.48-.85Z" transform="translate(-10.06 -11.61)"/><path class="cls-3" d="M162.13,153c1,.17,1.38.79,2.12,1.37a14.26,14.26,0,0,0,1.79,1.19,24,24,0,0,1-3-1.59l-.24.39a2.33,2.33,0,0,0-.25.91c.57.42,1.16,1.06,1.6,1.35A23.63,23.63,0,0,0,168.9,159a51.82,51.82,0,0,0,14,2.92c1.5.11,7.16.75,7.56-1.86.18-1.19-1.12-2.06-2-2.45-3.5-1.53-7.87-.32-11.55-.84a34.54,34.54,0,0,1-12.76-4.31c-2.05-1.25-3-2.34-3.12-4.85-.11-1.81-.15-5,.73-6.94-.23-.18-.47-.34-.72-.5l1.14-.23.57-.13a5.13,5.13,0,0,1-1.69-1.35.67.67,0,0,0-.31.23c-1.77,2.42-1.89,7-1.56,9.87a6.19,6.19,0,0,0,2.51,4.51A.89.89,0,0,1,162.13,153Zm10.76,4.87a33.93,33.93,0,0,0,6.24,1c2.25.12,4.51-.25,6.74,0a5.75,5.75,0,0,1,2.18.77l.58-.16c.23-.07-.18.37-.07.44l-.51-.28a17,17,0,0,1-6,.22A45.87,45.87,0,0,1,168,156.52c-.65-.29-1.29-.61-1.91-1A38.78,38.78,0,0,0,172.89,157.87Z" transform="translate(-10.06 -11.61)"/><path class="cls-3" d="M188.63,159.52l-.58.16.51.28C188.45,159.89,188.86,159.45,188.63,159.52Z" transform="translate(-10.06 -11.61)"/><path class="cls-3" d="M180.61,75.43c-.86-.51-.26-2.11.92-1.88-13.38-4.33-7.8-26.52,5.93-23s7.87,25.74-5.93,23a1.06,1.06,0,0,1-.23,2.06c16.12,2.82,23-22.85,6.74-27.05S165.15,70,180.61,75.43Z" transform="translate(-10.06 -11.61)"/><path class="cls-4" d="M187.46,50.56c-13.73-3.53-19.31,18.66-5.93,23C195.33,76.3,201.18,54.08,187.46,50.56ZM181.65,71c-4-1.82-7.19-6-5.51-10.57.46-1.25,2.47-.68,2,.58-1.37,3.72,1.38,6.75,4.59,8.21C184,69.75,182.86,71.53,181.65,71Z" transform="translate(-10.06 -11.61)"/><path class="cls-3" d="M186.5,186a1.07,1.07,0,0,1,0,.5,5.84,5.84,0,0,1,.92,0c-.35-.26-.69-.52-1-.79Z" transform="translate(-10.06 -11.61)"/><path class="cls-3" d="M184.93,185.06a.75.75,0,0,0-.26.27c.68-.19,1.37-.42,2-.68A2.9,2.9,0,0,0,184.93,185.06Z" transform="translate(-10.06 -11.61)"/><path class="cls-3" d="M186.5,186l-.08-.26-.1-.08c-.11.32-.22.65-.32,1a1,1,0,0,1,.52-.13A1.07,1.07,0,0,0,186.5,186Z" transform="translate(-10.06 -11.61)"/><path class="cls-3" d="M186.36,185.53a.73.73,0,0,0,0,.14l.1.08Z" transform="translate(-10.06 -11.61)"/><path class="cls-3" d="M186.52,186.51a1,1,0,0,0-.52.13c.1-.32.21-.65.32-1l-.09-.07a1,1,0,0,0-1.6.81,1.85,1.85,0,0,1,.07.22.67.67,0,0,0,.09.21.05.05,0,0,0,0,0,1.06,1.06,0,0,0,.15.15l.21.17A1,1,0,0,0,186.52,186.51Z" transform="translate(-10.06 -11.61)"/><path class="cls-3" d="M163.18,124.79a3.42,3.42,0,0,0,0,1.24c1.81,1,3.08,2.62,5.38,2.26a11.59,11.59,0,0,0,3.16-1.08c.8-.37,2.08-1.49,2.94-1.58h0c-.16-.52.8-.11,0,0a1.81,1.81,0,0,0,.31.49,13.44,13.44,0,0,1,1.59,2.87c.83,1.79,1.35,3.69,2.12,5.49A18.13,18.13,0,0,0,184,141a1,1,0,0,0,1.16.07,1.71,1.71,0,0,0,.68-1.48l-.58,0h0l-1.15-.07c-.29.19-.26-.78-.33-1.32a23.13,23.13,0,0,1-4.41-7.73,25.72,25.72,0,0,0-2.42-5.3,3.4,3.4,0,0,0-1.85-1.51c-1.48-.34-3.82,1.76-5.1,2.24-2,.76-2.78.28-4.54-.87a11.67,11.67,0,0,0-3-1.39,1,1,0,0,0-1.12.74,4.58,4.58,0,0,0,0,1.22l.77-.09Z" transform="translate(-10.06 -11.61)"/><path class="cls-3" d="M184.06,139.54l1.15.07a16.48,16.48,0,0,1-1.48-1.39C183.8,138.76,183.77,139.73,184.06,139.54Z" transform="translate(-10.06 -11.61)"/><path class="cls-3" d="M184.82,186.88a.79.79,0,0,0,.36.32L185,187A1.06,1.06,0,0,1,184.82,186.88Z" transform="translate(-10.06 -11.61)"/><path class="cls-3" d="M184.63,186.41a.81.81,0,0,0,.16.43.67.67,0,0,1-.09-.21A1.85,1.85,0,0,0,184.63,186.41Z" transform="translate(-10.06 -11.61)"/><path class="cls-3" d="M182.73,69.2c-3.21-1.46-6-4.49-4.59-8.21.47-1.26-1.54-1.83-2-.58-1.68,4.57,1.49,8.75,5.51,10.57C182.86,71.53,184,69.75,182.73,69.2Z" transform="translate(-10.06 -11.61)"/><path class="cls-3" d="M181.53,73.55c-1.18-.23-1.78,1.37-.92,1.88h0l.31.11.33.06h0A1.06,1.06,0,0,0,181.53,73.55Z" transform="translate(-10.06 -11.61)"/><path class="cls-3" d="M161.86,138.43a14.88,14.88,0,0,1,2.16,2c1.45.59,3,1,3.81,1.27a22.56,22.56,0,0,1,7.89,3.92l.47.11c.6.15,1.18-.3.87.24.07.38.15.76.22,1.14l.06.56a1.84,1.84,0,0,0,1.42-.85,1,1,0,0,0-.22-1.14,19,19,0,0,0-5.92-4.43c-1.89-.86-4-1.22-5.93-2-.76-.3-4.16-1.69-4.21-1.69-.09-.36,1.12-2.18,1.27-2.54a15,15,0,0,0,1.16-3.46c.37-2.23-1.33-3.66-1.7-5.53a6.24,6.24,0,0,0-1.15-.5l-.77.09c.26,2.36,2.13,4.15,1.55,6.43-.39,1.54-2.53,4.07-2.15,5.65a2.16,2.16,0,0,0,.34.72A.9.9,0,0,1,161.86,138.43Z" transform="translate(-10.06 -11.61)"/><path class="cls-3" d="M175.72,145.58a35.2,35.2,0,0,1-4.48-1.33,28,28,0,0,1-6.61-3.35,6.1,6.1,0,0,1-.61-.51,13,13,0,0,1-1.3-.62l-.57.13a4,4,0,0,0-.42.73,35,35,0,0,0,4,3.23,35.28,35.28,0,0,0,8.47,3.38,8.93,8.93,0,0,0,3.09.39l-.06-.56A16.62,16.62,0,0,0,175.72,145.58Z" transform="translate(-10.06 -11.61)"/><path class="cls-3" d="M177.28,147.07c-.07-.38-.15-.76-.22-1.14.31-.54-.27-.09-.87-.24l-.47-.11A16.62,16.62,0,0,1,177.28,147.07Z" transform="translate(-10.06 -11.61)"/><path class="cls-3" d="M174.71,125.63c.8-.11-.16-.52,0,0Z" transform="translate(-10.06 -11.61)"/><path class="cls-3" d="M171.65,173l-1.64-2.2c-.18-.24-.4-.61-.65-.94,0,0,0,0,0-.06a0,0,0,0,0,0,0c-.14-.15-.22-.22-.12,0l-1.09,1.24a.77.77,0,0,0-.36,0A6.79,6.79,0,0,0,171.65,173Z" transform="translate(-10.06 -11.61)"/><path class="cls-3" d="M168.09,171.09l1.09-1.24c-.1-.24,0-.17.12,0a1.47,1.47,0,0,0-.82-.6,1,1,0,0,0-1.1,1.24,2.55,2.55,0,0,0,.35.6A.77.77,0,0,1,168.09,171.09Z" transform="translate(-10.06 -11.61)"/><path class="cls-3" d="M163,154a24,24,0,0,0,3,1.59,14.26,14.26,0,0,1-1.79-1.19c-.74-.58-1.16-1.2-2.12-1.37a.89.89,0,0,0-.46,0,12.43,12.43,0,0,0,1,.74Z" transform="translate(-10.06 -11.61)"/><path class="cls-3" d="M162.72,139.77a13,13,0,0,0,1.3.62,14.88,14.88,0,0,0-2.16-2,.9.9,0,0,0-.83,0A5.13,5.13,0,0,0,162.72,139.77Z" transform="translate(-10.06 -11.61)"/><path class="cls-3" d="M163.18,124.79l-1.12.74a6.24,6.24,0,0,1,1.15.5A3.42,3.42,0,0,1,163.18,124.79Z" transform="translate(-10.06 -11.61)"/><path class="cls-3" d="M161.75,154.86a2,2,0,0,1,.79.41,2.33,2.33,0,0,1,.25-.91Z" transform="translate(-10.06 -11.61)"/><path class="cls-3" d="M161,140.13c.25.16.49.32.72.5a4,4,0,0,1,.42-.73Z" transform="translate(-10.06 -11.61)"/><path class="cls-4" d="M94.31,53.53c5.33-1.79,9.68-8.6,11.41-14.13.18-.57.33-1.13.45-1.67a1,1,0,0,1,2,.21c-.55,15.1,6.66,27.71,22.08,29.61,9.65-12.62,5.29-26.38-5.93-36.42-.87-.78.19-2.3,1.19-1.68.37.23.74.44,1.11.64,4.17,2.24,8.16,2.52,13,2.17,6.22-.43,10.5-.07,11.65-6.41.83-4.56-.87-6.28-3.78-9.57a106.25,106.25,0,0,0-31.2-4.66q-1.46,0-2.91,0c7.31,5.07,15.85,9.44,23.94,8.76,1.34-.12,1.4,2,.07,2.08-9.46.79-19.27-4.75-27.37-10.7L108,12,120.5,41.48c.53,1.23-1.48,1.81-2,.59l-12.7-29.92-.7.07c-.25,1.4-.52,2.68-.62,3.35-1.39,9.77-4.55,19.26-11.12,26.77-.89,1-2.4-.42-1.52-1.43,6.8-7.76,10-18.15,11-28.43-3,.38-6,.9-8.89,1.52C88.4,19.94,83.72,27.26,81.81,34.37,79.59,42.7,79.82,58.39,94.31,53.53Z" transform="translate(-10.06 -11.61)"/><path class="cls-3" d="M151.34,25.85c-1.15,6.34-5.43,6-11.65,6.41-4.86.35-8.85.07-13-2.17l-.15.26.3.21a17.86,17.86,0,0,1,3.39,3.49c5.71,2.08,14,1,19-1.27,7.89-3.58,6.65-9.55,2.72-15.06q-2.15-.76-4.35-1.44C150.47,19.57,152.17,21.29,151.34,25.85Z" transform="translate(-10.06 -11.61)"/><path class="cls-3" d="M137.46,22.51c1.33-.12,1.27-2.2-.07-2.08-8.09.68-16.63-3.7-23.94-8.76-1.12,0-2.24.08-3.36.15C118.19,17.77,128,23.31,137.46,22.51Z" transform="translate(-10.06 -11.61)"/><path class="cls-3" d="M126.52,30.35l.15-.26c-.37-.2-.74-.41-1.11-.64-1-.62-2.06.9-1.19,1.68,11.22,10,15.58,23.8,5.93,36.42l.7.08c1.33.14.85,2.17-.47,2h0a.84.84,0,0,0,1-.29c8.36-10.61,8.67-22.06.4-33-.55-.73-1.12-1.51-1.72-2.27A12.41,12.41,0,0,1,128,33C126.12,31.83,124.85,29.31,126.52,30.35Z" transform="translate(-10.06 -11.61)"/><path class="cls-3" d="M131,67.63l-.7-.08c-.09.13-.19.25-.29.38a1.12,1.12,0,0,0,.47,1.72h0C131.85,69.8,132.33,67.77,131,67.63Z" transform="translate(-10.06 -11.61)"/><path class="cls-3" d="M130,67.93c.1-.13.2-.25.29-.38-15.42-1.9-22.63-14.51-22.08-29.61a1,1,0,0,0-2-.21c-.12.54-.27,1.1-.45,1.67l.84.3c.37-1.45.86.51-.26,3.56,0,.18,0,.37,0,.57.28,14.75,10.09,24.39,24.17,25.82A1.12,1.12,0,0,1,130,67.93Z" transform="translate(-10.06 -11.61)"/><path class="cls-3" d="M126.82,30.56l-.3-.21c-1.67-1-.4,1.48,1.49,2.65a12.41,12.41,0,0,0,2.2,1.05A17.86,17.86,0,0,0,126.82,30.56Z" transform="translate(-10.06 -11.61)"/><path class="cls-3" d="M118.51,42.07c.51,1.22,2.52.64,2-.59L108,12l-2.16.19Z" transform="translate(-10.06 -11.61)"/><path class="cls-3" d="M106.56,39.7a16.58,16.58,0,0,0-.26,3.56C107.42,40.21,106.93,38.25,106.56,39.7Z" transform="translate(-10.06 -11.61)"/><path class="cls-3" d="M105.72,39.4C104,44.93,99.64,51.74,94.31,53.53,79.82,58.39,79.59,42.7,81.81,34.37,83.72,27.26,88.4,19.94,93.93,14q-1.76.38-3.5.81A55.77,55.77,0,0,0,80.32,32.36c-2.49,7.74-3,26.93,8.72,25.78,6.2-.61,12.83-7.19,15.89-12.09a14.28,14.28,0,0,0,1.37-2.79,16.58,16.58,0,0,1,.26-3.56Z" transform="translate(-10.06 -11.61)"/><path class="cls-3" d="M91.85,40.91c-.88,1,.63,2.44,1.52,1.43,6.57-7.51,9.73-17,11.12-26.77.09-.67.37-2,.62-3.35l-2.28.26C101.84,22.77,98.65,33.15,91.85,40.91Z" transform="translate(-10.06 -11.61)"/><path class="cls-3" d="M101.09,211a1.32,1.32,0,0,0,2.56.36.19.19,0,0,0,0-.08.78.78,0,0,0,0-.27.86.86,0,0,0,0-.23.25.25,0,0,0,0-.12A1.31,1.31,0,0,0,101.09,211Z" transform="translate(-10.06 -11.61)"/><path class="cls-3" d="M101.09,211a26.13,26.13,0,0,1-3.25,11.57q1.35.24,2.72.44a30.81,30.81,0,0,0,3.09-11.65A1.32,1.32,0,0,1,101.09,211Z" transform="translate(-10.06 -11.61)"/><path class="cls-3" d="M101.09,211a1.31,1.31,0,0,1,2.56-.34c-.94-14.75-12-27.08-27.38-27.08a27.81,27.81,0,0,0-25.66,17.83q1,.77,2,1.52C59.91,179.25,99.55,182.14,101.09,211Z" transform="translate(-10.06 -11.61)"/><path class="cls-3" d="M93.57,218.54l-9.71-7.67c-1.3-1-3.15.8-1.84,1.83l9.72,7.68C93,221.4,94.88,219.58,93.57,218.54Z" transform="translate(-10.06 -11.61)"/><path class="cls-3" d="M83.58,204.79l7.67-9.71c1-1.3-.8-3.14-1.83-1.83L81.74,203C80.72,204.26,82.54,206.1,83.58,204.79Z" transform="translate(-10.06 -11.61)"/><path class="cls-3" d="M75.48,210.28a1.26,1.26,0,0,0,.6.55l-.13-.09a1.43,1.43,0,0,1,.23-2.4,1.7,1.7,0,0,1,.57-1.16A1.73,1.73,0,1,1,79,209.77a1.66,1.66,0,0,1-1.31.42,1.38,1.38,0,0,1-1.65.64c2.87,2,6.55-1.71,4-4.42S73.72,207.22,75.48,210.28Z" transform="translate(-10.06 -11.61)"/><path class="cls-3" d="M77.25,208.5l.47.47a1.14,1.14,0,0,1,0,1.22,1.66,1.66,0,0,0,1.31-.42,1.73,1.73,0,1,0-2.29-2.59,1.7,1.7,0,0,0-.57,1.16A1,1,0,0,1,77.25,208.5Z" transform="translate(-10.06 -11.61)"/><path class="cls-3" d="M77.73,210.19a1.14,1.14,0,0,0,0-1.22l-.47-.47a1,1,0,0,0-1.07-.16,1.7,1.7,0,0,0,.42,1.28A1.68,1.68,0,0,0,77.73,210.19Z" transform="translate(-10.06 -11.61)"/><path class="cls-3" d="M77.73,210.19a1.68,1.68,0,0,1-1.13-.57,1.7,1.7,0,0,1-.42-1.28,1.43,1.43,0,0,0-.23,2.4l.13.09A1.38,1.38,0,0,0,77.73,210.19Z" transform="translate(-10.06 -11.61)"/><path class="cls-4" d="M52.59,202.94a106.25,106.25,0,0,0,17.94,10.89l1.9-2.4c1-1.31,2.85.54,1.83,1.83l-1.33,1.68a105.49,105.49,0,0,0,24.91,7.64A26.13,26.13,0,0,0,101.09,211C99.55,182.14,59.91,179.25,52.59,202.94Zm20.86,2.49-9.72-7.68c-1.31-1,.54-2.85,1.83-1.83l9.72,7.68C76.59,204.62,74.75,206.44,73.45,205.42Zm2.63,5.41a1.26,1.26,0,0,1-.6-.55c-1.76-3.06,2-6.69,4.63-3.87S79,212.82,76.08,210.83ZM81.74,203l7.68-9.71c1-1.31,2.85.53,1.83,1.83l-7.67,9.71C82.54,206.1,80.72,204.26,81.74,203Zm10,17.42L82,212.7c-1.31-1,.54-2.85,1.84-1.83l9.71,7.67C94.88,219.58,93,221.4,91.74,220.38Z" transform="translate(-10.06 -11.61)"/><path class="cls-3" d="M75.28,203.59l-9.72-7.68c-1.29-1-3.14.8-1.83,1.83l9.72,7.68C74.75,206.44,76.59,204.62,75.28,203.59Z" transform="translate(-10.06 -11.61)"/><path class="cls-3" d="M74.26,213.25c1-1.29-.8-3.14-1.83-1.83l-1.9,2.4q1.19.57,2.4,1.11Z" transform="translate(-10.06 -11.61)"/><path class="cls-3" d="M31.06,71.72c6.1-1.93,5.1,2.89,5.08,7.7q-.06,10.53-.11,21c0,1.65.79,7.66,0,11.66-.43,2.28-1.37,3.92-3.24,3.74L33,116c1,.59.25,2-.71,1.88l.06,0c9.46,1.75,5.73-19.58,5.75-24.57,0-4.34,3.5-24.12-3.55-25.1C31.3,67.77,26.52,71.9,24,73.32l-5.51,3.11q-.63,1.49-1.21,3C21.66,76.69,26.4,73.2,31.06,71.72Z" transform="translate(-10.06 -11.61)"/><path class="cls-4" d="M33.46,111.05a.94.94,0,0,1,.44,1l2.16.06c.76-4,0-10,0-11.66q.06-10.53.11-21c0-4.81,1-9.63-5.08-7.7-4.66,1.47-9.4,5-13.79,7.71A105.48,105.48,0,0,0,12.13,97.1ZM30.88,76.21a.88.88,0,0,1,.58.1s0,0,0,0a.82.82,0,0,1,.49.41c1.77,1.85.11,5.27-2.58,4S28.34,76,30.88,76.21Zm-8.15,2.9a.9.9,0,0,1,.56.1s0,0,0,0a.82.82,0,0,1,.49.41c1.77,1.85.11,5.27-2.58,4S20.18,78.92,22.73,79.11Zm-5,6c4.76,3.51,11.57,4.4,15.32,0,.86-1,2.61.13,1.74,1.15-4.9,5.71-12.66,4.65-18.22.55C15.49,86.1,16.64,84.36,17.72,85.16Z" transform="translate(-10.06 -11.61)"/><path class="cls-4" d="M36.06,112.13l-2.16-.06a1,1,0,0,1-1.59.72L11.71,99.32c-.21,1.2-.4,2.41-.57,3.63l21.68,12.92C34.69,116.05,35.63,114.41,36.06,112.13Z" transform="translate(-10.06 -11.61)"/><path class="cls-3" d="M16.56,86.89c5.56,4.1,13.32,5.16,18.22-.55.87-1-.88-2.16-1.74-1.15-3.75,4.37-10.56,3.48-15.32,0C16.64,84.36,15.49,86.1,16.56,86.89Z" transform="translate(-10.06 -11.61)"/><path class="cls-3" d="M33.46,111.05,12.13,97.1c-.15.74-.29,1.47-.42,2.22l20.6,13.47a1,1,0,0,0,1.59-.72A.94.94,0,0,0,33.46,111.05Z" transform="translate(-10.06 -11.61)"/><path class="cls-3" d="M33,116l-.22-.13-.28,0c-1.3-.25-1.46,1.76-.21,2C33.29,118,34,116.59,33,116Z" transform="translate(-10.06 -11.61)"/><path class="cls-3" d="M32.54,115.83l.28,0L11.14,102.95q-.19,1.36-.35,2.74c7,4.09,14.22,7.95,21.1,12a1,1,0,0,0,.44.15C31.08,117.59,31.24,115.58,32.54,115.83Z" transform="translate(-10.06 -11.61)"/><path class="cls-3" d="M29.39,80.71c2.69,1.29,4.35-2.13,2.58-4a1.12,1.12,0,0,1-1.28,1.52l-.24-.12a1.08,1.08,0,0,1,.43-1.92C28.34,76,26.67,79.42,29.39,80.71Z" transform="translate(-10.06 -11.61)"/><path class="cls-3" d="M30.45,78.13l.24.12A1.12,1.12,0,0,0,32,76.73a2.35,2.35,0,0,0-.37-.33l-.12-.08s0,0,0,0l-.1,0a2,2,0,0,0-.48-.07A1.08,1.08,0,0,0,30.45,78.13Z" transform="translate(-10.06 -11.61)"/><path class="cls-3" d="M32,76.73a.82.82,0,0,0-.49-.41l.12.08A2.35,2.35,0,0,1,32,76.73Z" transform="translate(-10.06 -11.61)"/><path class="cls-3" d="M31.46,76.31a.88.88,0,0,0-.58-.1,2,2,0,0,1,.48.07Z" transform="translate(-10.06 -11.61)"/><path class="cls-3" d="M21.22,83.62c2.69,1.28,4.35-2.14,2.58-4a1.12,1.12,0,0,1-1.28,1.52L22.28,81a1.08,1.08,0,0,1,.45-1.92C20.18,78.92,18.49,82.32,21.22,83.62Z" transform="translate(-10.06 -11.61)"/><path class="cls-3" d="M22.28,81l.24.12a1.12,1.12,0,0,0,1.28-1.52,2.36,2.36,0,0,0-.37-.33l-.12-.08s0,0,0,0l-.1,0a3.93,3.93,0,0,0-.46-.07A1.08,1.08,0,0,0,22.28,81Z" transform="translate(-10.06 -11.61)"/><path class="cls-3" d="M23.8,79.63a.82.82,0,0,0-.49-.41l.12.08A2.36,2.36,0,0,1,23.8,79.63Z" transform="translate(-10.06 -11.61)"/><path class="cls-3" d="M23.29,79.21a.9.9,0,0,0-.56-.1,3.93,3.93,0,0,1,.46.07Z" transform="translate(-10.06 -11.61)"/><path class="cls-5" d="M174.11,193.42a3.25,3.25,0,0,1,5.06-4.07c.89,1,2.55-.28,1.65-1.27-4.6-5.1-12.3,1-8.36,6.62h0C171.69,193.6,173.34,192.32,174.11,193.42Z" transform="translate(-10.06 -11.61)"/><path class="cls-5" d="M165.75,200c4.6,5.1,12.3-1,8.36-6.62.77,1.1-.88,2.38-1.65,1.28a3.25,3.25,0,0,1-5.06,4.07l0,0,0,0C168.29,199.76,166.64,201,165.75,200Z" transform="translate(-10.06 -11.61)"/><path class="cls-5" d="M174.11,193.42c-.77-1.1-2.41.18-1.65,1.28h0C173.23,195.79,174.87,194.51,174.11,193.42Z" transform="translate(-10.06 -11.61)"/><path class="cls-5" d="M159,205.38c-.77-1.1.88-2.38,1.65-1.28a3.25,3.25,0,0,1,5.07-4.07c-.89-1,.73-2.24,1.63-1.29C162.77,193.68,155.1,199.74,159,205.38Z" transform="translate(-10.06 -11.61)"/><path class="cls-5" d="M165.75,200c.89,1,2.54-.28,1.64-1.27l0,0C166.48,197.79,164.86,199,165.75,200Z" transform="translate(-10.06 -11.61)"/><path class="cls-5" d="M159,205.38a3.25,3.25,0,0,1-5.07,4.07c-.89-1-2.54.28-1.65,1.27,4.6,5.1,12.3-1,8.36-6.62C161.45,205.2,159.81,206.48,159,205.38Z" transform="translate(-10.06 -11.61)"/><path class="cls-5" d="M159,205.38c.77,1.1,2.41-.18,1.65-1.28S158.27,204.28,159,205.38Z" transform="translate(-10.06 -11.61)"/><path class="cls-5" d="M51.65,63a3.25,3.25,0,0,1,5.64,3.22c-.59,1.19,1.19,2.27,1.79,1.07,3.06-6.15-5.41-11.09-9.22-5.35h0C50.6,60.87,52.4,61.93,51.65,63Z" transform="translate(-10.06 -11.61)"/><path class="cls-5" d="M42.44,57.69c-3.06,6.15,5.41,11.09,9.22,5.35-.74,1.11-2.53.06-1.79-1.06a3.25,3.25,0,0,1-5.64-3.23h0C43.63,60,41.84,58.89,42.44,57.69Z" transform="translate(-10.06 -11.61)"/><path class="cls-5" d="M51.65,63c.74-1.12-1.05-2.18-1.79-1.06h0C49.13,63.1,50.92,64.16,51.65,63Z" transform="translate(-10.06 -11.61)"/><path class="cls-5" d="M36.8,54.47a3.25,3.25,0,0,1,5.64,3.22c.6-1.2,2.38-.13,1.79,1.06,3.05-6.14-5.42-11.08-9.22-5.35C35.75,52.29,37.54,53.35,36.8,54.47Z" transform="translate(-10.06 -11.61)"/><path class="cls-5" d="M42.44,57.69c-.59,1.19,1.19,2.26,1.79,1.06h0C44.81,57.56,43,56.5,42.44,57.69Z" transform="translate(-10.06 -11.61)"/><path class="cls-5" d="M36.8,54.47c-.74,1.11-2.53.06-1.79-1.06A3.18,3.18,0,0,1,31,54.67c-.41.55-.81,1.1-1.21,1.65A5.19,5.19,0,0,0,36.8,54.47Z" transform="translate(-10.06 -11.61)"/><path class="cls-5" d="M36.8,54.47c.74-1.12-1.05-2.18-1.79-1.06S36.06,55.58,36.8,54.47Z" transform="translate(-10.06 -11.61)"/><path class="cls-5" d="M15.15,124.68a3.25,3.25,0,0,1,5.64,3.22c-.59,1.19,1.19,2.27,1.79,1.07,3.06-6.15-5.41-11.09-9.22-5.35h0C14.1,122.51,15.89,123.56,15.15,124.68Z" transform="translate(-10.06 -11.61)"/><path class="cls-5" d="M15.15,124.68c-.74,1.11-2.53.06-1.79-1.06a3.19,3.19,0,0,1-3,1.52q.07,1,.16,2.07A5.21,5.21,0,0,0,15.15,124.68Z" transform="translate(-10.06 -11.61)"/><path class="cls-5" d="M15.15,124.68c.74-1.12-1.05-2.18-1.79-1.06h0C12.63,124.74,14.41,125.8,15.15,124.68Z" transform="translate(-10.06 -11.61)"/><path class="cls-5" d="M141.74,66.85c5.34,4.31,12-2.89,7.22-7.84h0c.93,1-.49,2.48-1.43,1.52a3.25,3.25,0,0,1-4.37,4.81C142.13,64.5,140.7,66,141.74,66.85Z" transform="translate(-10.06 -11.61)"/><path class="cls-5" d="M149,59a3.25,3.25,0,0,1,4.37-4.81h0c-1-.84.39-2.35,1.43-1.52-5.34-4.31-12,2.89-7.22,7.84C146.61,59.56,148,58,149,59Z" transform="translate(-10.06 -11.61)"/><path class="cls-5" d="M149,59h0c-.93-1-2.35.56-1.42,1.52S149.89,60,149,59Z" transform="translate(-10.06 -11.61)"/><path class="cls-5" d="M153.33,54.2c5.34,4.3,12-2.9,7.21-7.85.93,1-.49,2.49-1.43,1.52a3.25,3.25,0,0,1-4.37,4.81C155.79,53.52,154.37,55,153.33,54.2Z" transform="translate(-10.06 -11.61)"/><path class="cls-5" d="M153.32,54.2h0c1,.82,2.46-.68,1.42-1.52S152.28,53.35,153.32,54.2Z" transform="translate(-10.06 -11.61)"/><path class="cls-5" d="M160.54,46.35a3.25,3.25,0,0,1,4.37-4.81c1,.84,2.47-.67,1.43-1.52-5.34-4.31-12,2.89-7.22,7.84C158.19,46.91,159.61,45.39,160.54,46.35Z" transform="translate(-10.06 -11.61)"/><path class="cls-5" d="M160.54,46.35c-.93-1-2.35.56-1.43,1.52S161.47,47.32,160.54,46.35Z" transform="translate(-10.06 -11.61)"/><path class="cls-5" d="M29.28,170.91h0c.93,1-.49,2.48-1.43,1.52A3.21,3.21,0,0,1,28,177q.57.85,1.15,1.68A5.22,5.22,0,0,0,29.28,170.91Z" transform="translate(-10.06 -11.61)"/><path class="cls-5" d="M29.27,170.91a3.25,3.25,0,0,1,4.37-4.81h0c-1-.84.39-2.35,1.43-1.52-5.34-4.31-12,2.89-7.22,7.84C26.92,171.47,28.34,169.95,29.27,170.91Z" transform="translate(-10.06 -11.61)"/><path class="cls-5" d="M29.28,170.91h0c-.93-1-2.35.56-1.42,1.52S30.2,171.87,29.28,170.91Z" transform="translate(-10.06 -11.61)"/><path class="cls-5" d="M33.65,166.11c5.34,4.3,12-2.9,7.21-7.85.93,1-.49,2.49-1.43,1.52a3.25,3.25,0,0,1-4.37,4.81C36.11,165.42,34.69,166.93,33.65,166.11Z" transform="translate(-10.06 -11.61)"/><path class="cls-5" d="M33.64,166.1h0c1,.82,2.46-.68,1.42-1.52S32.6,165.26,33.64,166.1Z" transform="translate(-10.06 -11.61)"/><path class="cls-5" d="M40.86,158.25a3.25,3.25,0,0,1,4.37-4.81c1,.84,2.47-.67,1.43-1.52-5.34-4.31-12,2.89-7.22,7.84C38.51,158.81,39.93,157.29,40.86,158.25Z" transform="translate(-10.06 -11.61)"/><path class="cls-5" d="M40.86,158.25c-.93-1-2.35.56-1.43,1.52S41.79,159.22,40.86,158.25Z" transform="translate(-10.06 -11.61)"/><path class="cls-5" d="M216.63,100.65a3.25,3.25,0,0,1-2-6.17c1.24-.49.63-2.48-.62-2-6.38,2.53-3.39,11.86,3.27,10.15C216,103,215.33,101,216.63,100.65Z" transform="translate(-10.06 -11.61)"/><path class="cls-5" d="M219.9,110.8a5.78,5.78,0,0,0,2.37-1.67q-.31-3.83-.89-7.59a5.27,5.27,0,0,0-4.76-.88c1.29-.33,1.92,1.65.62,2h0a3.25,3.25,0,0,1,2,6.17h0C220.53,108.32,221.14,110.31,219.9,110.8Z" transform="translate(-10.06 -11.61)"/><path class="cls-5" d="M216.63,100.65c-1.3.34-.67,2.32.62,2h0C218.55,102.31,217.92,100.32,216.63,100.65Z" transform="translate(-10.06 -11.61)"/><path class="cls-5" d="M221.94,117a3.25,3.25,0,0,1-2-6.17c-1.24.49-1.86-1.49-.62-2-6.37,2.53-3.38,11.86,3.28,10.14C221.27,119.29,220.64,117.3,221.94,117Z" transform="translate(-10.06 -11.61)"/><path class="cls-5" d="M219.9,110.8c1.24-.49.63-2.48-.62-2h0C218,109.31,218.66,111.29,219.9,110.8Z" transform="translate(-10.06 -11.61)"/><path class="cls-5" d="M222.56,119h.06v0Z" transform="translate(-10.06 -11.61)"/><path class="cls-5" d="M222.63,117c0-.07,0-.14,0-.21a6.77,6.77,0,0,0-.68.14A1,1,0,0,1,222.63,117Z" transform="translate(-10.06 -11.61)"/><path class="cls-5" d="M222.64,117.91c0-.29,0-.58,0-.88a1,1,0,0,0-.69-.07c-1.3.34-.68,2.32.62,2l.06,0C222.63,118.58,222.64,118.25,222.64,117.91Z" transform="translate(-10.06 -11.61)"/><path class="cls-3" d="M62.83,168c-.49-1.23-2.51-.71-2,.53l3.71,9.23c.49,1.23,2.51.71,2-.53Z" transform="translate(-10.06 -11.61)"/><path class="cls-3" d="M50.2,171.92c-.9-1-2.37.48-1.47,1.47l6.69,7.36c.9,1,2.37-.48,1.47-1.47Z" transform="translate(-10.06 -11.61)"/><path class="cls-3" d="M45.27,175.43c-1-.92-2.45.55-1.47,1.47L51,183.72c1,.92,2.45-.55,1.47-1.47Z" transform="translate(-10.06 -11.61)"/><path class="cls-3" d="M49,186.65,40.86,181c-1.1-.76-2.12,1-1,1.81L48,188.46C49.1,189.23,50.12,187.41,49,186.65Z" transform="translate(-10.06 -11.61)"/><path class="cls-3" d="M56.25,169.5c-.69-1.15-2.51-.12-1.81,1L59.6,179c.69,1.15,2.51.12,1.81-1Z" transform="translate(-10.06 -11.61)"/><path class="cls-3" d="M91.82,73.43c.72,1.11,2.6.22,1.88-.9l-5.38-8.37c-.72-1.11-2.6-.23-1.88.9Z" transform="translate(-10.06 -11.61)"/><path class="cls-3" d="M75.49,72.13l8,6c1.07.8,2.24-.92,1.17-1.72l-8-6C75.59,69.6,74.42,71.33,75.49,72.13Z" transform="translate(-10.06 -11.61)"/><path class="cls-3" d="M71.31,76.5l8.4,5.33c1.13.72,2.3-1,1.17-1.72l-8.4-5.33C71.35,74.07,70.17,75.79,71.31,76.5Z" transform="translate(-10.06 -11.61)"/><path class="cls-3" d="M78.28,85.1l-9.09-4c-1.22-.54-1.89,1.43-.67,2l9.09,4C78.84,87.61,79.5,85.64,78.28,85.1Z" transform="translate(-10.06 -11.61)"/><path class="cls-3" d="M87.23,75.62c.9,1,2.48-.36,1.58-1.35l-6.67-7.38c-.9-1-2.48.36-1.58,1.35Z" transform="translate(-10.06 -11.61)"/><path class="cls-3" d="M155.63,188.41c0,.86,1.39.87,1.35,0S155.68,187.54,155.63,188.41Z" transform="translate(-10.06 -11.61)"/><path class="cls-3" d="M157,188.41c0,.87-1.31.86-1.35,0-.72,17.43-25.79,16.66-25.79,0s25-17.4,25.79,0c0-.86,1.39-.87,1.35,0-.42-7.73-6.17-14.24-14.24-14.24a14.23,14.23,0,0,0-.74,28.44C150.35,203,156.54,196.44,157,188.41Z" transform="translate(-10.06 -11.61)"/><path class="cls-3" d="M138.58,180.33c-.8.3-.45,1.61.36,1.3,3.51-1.34,7.86-1,9.64,2.76.37.78,1.53.1,1.16-.68C147.71,179.37,142.62,178.79,138.58,180.33Z" transform="translate(-10.06 -11.61)"/><path class="cls-3" d="M146.48,189.53a.89.89,0,0,1-1-.8.69.69,0,0,0-.28.92A.74.74,0,0,0,146.48,189.53Z" transform="translate(-10.06 -11.61)"/><path class="cls-3" d="M145.24,189.65h0a.69.69,0,0,1,.28-.92.89.89,0,0,1,.21-.69.9.9,0,1,1,.75,1.49.74.74,0,0,1-1.24.12.63.63,0,0,0,.24.24c1.59.9,3.47-1,2-2.41S144.09,188.15,145.24,189.65Z" transform="translate(-10.06 -11.61)"/><path class="cls-3" d="M146.16,188.73l.24.24a.51.51,0,0,1,.08.56.9.9,0,1,0-1-.8A.61.61,0,0,1,146.16,188.73Z" transform="translate(-10.06 -11.61)"/><path class="cls-3" d="M146.48,189.53a.51.51,0,0,0-.08-.56l-.24-.24a.61.61,0,0,0-.64,0,.89.89,0,0,0,1,.8Z" transform="translate(-10.06 -11.61)"/><path class="cls-3" d="M138.09,187.33a.89.89,0,0,1,.6,1.09.67.67,0,1,0-.6-1.09Z" transform="translate(-10.06 -11.61)"/><path class="cls-3" d="M139.1,187.3a.71.71,0,0,1-.41,1.11.9.9,0,1,1-.6-1.09.72.72,0,0,1,1,0l0,0c-1.21-1.41-3.6,0-2.63,1.69s3.37.37,2.8-1.39A.69.69,0,0,0,139.1,187.3Z" transform="translate(-10.06 -11.61)"/><path class="cls-3" d="M138.61,187.74a.89.89,0,0,0-.52-.42.57.57,0,0,0-.13.6l.17.3a.55.55,0,0,0,.56.2A.89.89,0,0,0,138.61,187.74Z" transform="translate(-10.06 -11.61)"/><path class="cls-3" d="M138.13,188.22l-.17-.3a.57.57,0,0,1,.13-.6.9.9,0,1,0,.6,1.09A.55.55,0,0,1,138.13,188.22Z" transform="translate(-10.06 -11.61)"/><path class="cls-3" d="M65,131.11a.64.64,0,0,0,.53,0l.07,0a2.11,2.11,0,0,1,.14-.25s0,0,0,0a.78.78,0,0,1-.35.22Z" transform="translate(-10.06 -11.61)"/><path class="cls-3" d="M64.68,130.41s0,0,0,.06v.06a.68.68,0,0,0,.14.42l.59-.17a.43.43,0,0,0,.34-.5.69.69,0,0,0-.5-.2A.62.62,0,0,0,64.68,130.41Z" transform="translate(-10.06 -11.61)"/><path class="cls-3" d="M65.2,129.84a1,1,0,0,1,.36.07.6.6,0,0,0-.66-.21l-.42.13a1.42,1.42,0,0,1,.13.29A.87.87,0,0,1,65.2,129.84Z" transform="translate(-10.06 -11.61)"/><path class="cls-3" d="M64.46,130.82a1.82,1.82,0,0,1-.15.27l.27-.07A.86.86,0,0,1,64.46,130.82Z" transform="translate(-10.06 -11.61)"/><path class="cls-3" d="M64.41,130.41a1,1,0,0,0-.15-.52l-29,8.7a.46.46,0,0,0-.32.62.61.61,0,0,0,.78.45L64,131.2C64.12,130.93,64.27,130.68,64.41,130.41Z" transform="translate(-10.06 -11.61)"/><path class="cls-3" d="M41.56,145.61c10.38.24,18.63-4.66,23.91-14.22a.88.88,0,0,1-.64-.13l-.07-.05-.62.18c-4.89,8.5-12.37,13-21.74,13-.57,0-14.26,0-14.5-4.12-.15-3,9.23-8.91,9.62-9.16A28,28,0,0,1,49,127c1.82-.22,12.49-.11,15.08,2.25a2,2,0,0,1,.29.34l.49-.14a.83.83,0,0,1,.83.2,3.41,3.41,0,0,0-1.29-1.78c-2.9-2.23-9.64-2.35-14.76-1.89a32.34,32.34,0,0,0-5.83,1,32.27,32.27,0,0,0-12.21,7.38c-.22.22-.52.49-.84.77-1.58,1.41-4,3.56-4.2,5.13a2.43,2.43,0,0,0,.6,1.95C29.65,145.11,38.81,145.54,41.56,145.61Z" transform="translate(-10.06 -11.61)"/><path class="cls-3" d="M41.56,145.83a27.26,27.26,0,0,0,3.39-.1c9-.81,16.15-5.78,20.88-14.52.08-.21.08-.14.11-.29a1.25,1.25,0,0,0,.1-.59,3.46,3.46,0,0,0-1.5-2.62c-4.44-3.38-17.49-2-20.83-1a32.5,32.5,0,0,0-12.28,7.44l-.84.77c-1.62,1.43-4.06,3.61-4.27,5.27a2.58,2.58,0,0,0,.66,2.13C29.54,145.33,38.78,145.78,41.56,145.83Zm24.23-15a2.11,2.11,0,0,0-.14.25l-.07,0a.64.64,0,0,1-.53,0l.41-.11a.78.78,0,0,0,.35-.22S65.79,130.8,65.79,130.82Zm-.41,0-.59.17a.68.68,0,0,1-.14-.42v-.06s0,0,0-.06a.62.62,0,0,1,.53-.34.69.69,0,0,1,.5.2A.43.43,0,0,1,65.38,130.78Zm-30.63,8.5a.88.88,0,0,0,.9.64l.18,0,28-8.4c-4.83,8.28-12.2,12.69-21.4,12.72-.14,0-14,0-14.26-3.91-.13-2.27,6.18-6.85,9.51-8.94A27.57,27.57,0,0,1,49,127.26h.17c2.2-.2,12.27-.06,14.74,2.2a2.6,2.6,0,0,1,.21.24l-28.9,8.68A.69.69,0,0,0,34.75,139.28Zm1,.38a.61.61,0,0,1-.78-.45.46.46,0,0,1,.32-.62l29-8.7a1,1,0,0,1,.15.52c-.14.27-.29.52-.43.79Zm28.7-8.84a.86.86,0,0,0,.11.2l-.27.07A1.82,1.82,0,0,0,64.46,130.82Zm0-1,.42-.13a.6.6,0,0,1,.66.21,1,1,0,0,0-.36-.07.87.87,0,0,0-.59.28A1.42,1.42,0,0,0,64.49,129.82ZM26.54,140.23c.21-1.57,2.62-3.71,4.2-5.13.32-.28.62-.54.84-.77A32.27,32.27,0,0,1,43.8,127a32.34,32.34,0,0,1,5.83-1c5.13-.46,11.86-.34,14.76,1.89a3.41,3.41,0,0,1,1.29,1.78.83.83,0,0,0-.83-.2l-.49.14a2,2,0,0,0-.29-.34C61.47,126.91,50.8,126.8,49,127a28,28,0,0,0-11.46,4.13c-.39.25-9.78,6.18-9.62,9.16.24,4.12,13.92,4.13,14.5,4.12,9.37,0,16.85-4.54,21.74-13l.62-.18.07.05a.88.88,0,0,0,.64.13c-5.28,9.55-13.53,14.46-23.91,14.22-2.75-.07-11.91-.5-14.41-3.43A2.43,2.43,0,0,1,26.54,140.23Z" transform="translate(-10.06 -11.61)"/><path class="cls-8" d="M90.43,14.82,89.8,15l.63-.15Z" transform="translate(-10.06 -11.61)"/><path class="cls-8" d="M24.17,170.82Q26,174,28,177h0Q26,174,24.17,170.82Z" transform="translate(-10.06 -11.61)"/><path class="cls-8" d="M105.11,12.22h0l.7-.07h0Z" transform="translate(-10.06 -11.61)"/><path class="cls-8" d="M147.56,16.29q2.2.67,4.35,1.44l0,0q-2.16-.76-4.35-1.44Z" transform="translate(-10.06 -11.61)"/><path class="cls-8" d="M110.08,11.81h0c1.12-.06,2.23-.12,3.36-.15h0C112.32,11.7,111.2,11.75,110.08,11.81Z" transform="translate(-10.06 -11.61)"/><path class="cls-8" d="M105.81,12.15h0L108,12h0Z" transform="translate(-10.06 -11.61)"/><path class="cls-8" d="M93.93,14h0q-1.76.38-3.5.81h0Q92.17,14.38,93.93,14Z" transform="translate(-10.06 -11.61)"/><path class="cls-8" d="M102.83,12.48h0l2.28-.26h0Z" transform="translate(-10.06 -11.61)"/></g></svg>