<svg id="Livello_1" data-name="Livello 1" xmlns="http://www.w3.org/2000/svg" viewBox="0 0 198 198"><defs><style>.cls-1{fill:#c0e4f3;}.cls-10,.cls-11,.cls-12,.cls-2,.cls-7,.cls-9{fill:none;}.cls-2{stroke:#1d1d1b;}.cls-10,.cls-11,.cls-2,.cls-9{stroke-miterlimit:10;}.cls-2,.cls-9{stroke-width:2px;}.cls-3{fill:#ef9800;}.cls-4{fill:#1d1d1b;}.cls-5{fill:#694610;}.cls-6{fill:#ac8544;}.cls-10,.cls-11,.cls-7,.cls-9{stroke:#000;}.cls-7{stroke-linecap:round;stroke-linejoin:round;}.cls-10,.cls-7{stroke-width:1.66px;}.cls-8{fill:#be6e16;}</style></defs><title>r_aquila</title><path class="cls-1" d="M42.54,91.14C40.77,89.64,40,89,40.88,89.87a11.87,11.87,0,0,0,1.66,1.27M39,118.64l-6.38.28a48.62,48.62,0,0,0,6.38-.28m3.59-27.48c5.91,5,23.26,20,31.06,23.15,0,0-22.52,3.3-34.6,4.33,18.82-.8,73.48-3.2,89.44-4.33,19.37-1.38,57.3,33.17,57.3,33.17a98.18,98.18,0,0,1-98.3,49.74,13,13,0,0,0,3.49-6.08,13.47,13.47,0,0,0,2.38.23,12.91,12.91,0,1,0-8.55-22.56A24.35,24.35,0,0,0,36.2,167.4h-.1A11.12,11.12,0,0,0,30.39,169,98,98,0,0,1,14,52.93a13.5,13.5,0,0,0,2.68-1.05A17.22,17.22,0,0,0,40,63.43,13.07,13.07,0,1,0,50.61,42.8c-.22,0-.44,0-.65,0A17.26,17.26,0,0,0,42,32.62a13.31,13.31,0,0,0,.22-2.36,13,13,0,0,0-2.44-7.61A98,98,0,0,1,187.44,55.73c-.28,0-.56,0-.85,0A12.26,12.26,0,0,0,177,60.32a19,19,0,1,0,1.88,26.16,9.88,9.88,0,0,0,17-2.65c.29.08.57.17.87.22a98.44,98.44,0,0,1-3,44.74s-47.22-19.67-56-21.88c-8-2-50.24,6.91-56.24,4.15C76,108.57,50,96.17,42.55,91.15" transform="translate(-1 -1)"/><path class="cls-2" d="M30.39,169A98,98,0,1,1,187.44,55.73a97.89,97.89,0,0,1-1.7,91.74A97.95,97.95,0,0,1,30.39,169Z" transform="translate(-1 -1)"/><path class="cls-2" d="M39,118.64c18.82-.8,73.48-3.2,89.44-4.33,19.37-1.38,57.3,33.17,57.3,33.17" transform="translate(-1 -1)"/><path class="cls-2" d="M39,118.64a48.62,48.62,0,0,1-6.38.28Z" transform="translate(-1 -1)"/><line class="cls-2" x1="37.96" y1="117.63" x2="38.01" y2="117.63"/><path class="cls-2" d="M42.55,91.15c5.91,5,23.26,20,31.06,23.15,0,0-22.52,3.3-34.6,4.33" transform="translate(-1 -1)"/><path class="cls-2" d="M42.54,91.14a11.83,11.83,0,0,1-1.66-1.27C40,89,40.77,89.64,42.54,91.14Z" transform="translate(-1 -1)"/><line class="cls-2" x1="41.54" y1="90.14" x2="41.55" y2="90.15"/><path class="cls-2" d="M193.69,128.8s-47.22-19.67-56-21.88c-8-2-50.24,6.91-56.24,4.15C76,108.57,50,96.17,42.55,91.15" transform="translate(-1 -1)"/><path class="cls-2" d="M187.44,55.73c-.28,0-.56,0-.85,0A12.26,12.26,0,0,0,177,60.32a19,19,0,1,0,1.88,26.16,9.88,9.88,0,0,0,17-2.65c.29.08.57.17.87.22" transform="translate(-1 -1)"/><path class="cls-2" d="M14,52.93a13.5,13.5,0,0,0,2.68-1.05A17.22,17.22,0,0,0,40,63.43,13.07,13.07,0,1,0,50.61,42.8c-.22,0-.44,0-.65,0A17.26,17.26,0,0,0,42,32.62a13.31,13.31,0,0,0,.22-2.36,13,13,0,0,0-2.44-7.61" transform="translate(-1 -1)"/><path class="cls-2" d="M87.45,197.21a13,13,0,0,0,3.49-6.08,13.47,13.47,0,0,0,2.38.23,12.91,12.91,0,1,0-8.55-22.56A24.35,24.35,0,0,0,36.2,167.4h-.1A11.12,11.12,0,0,0,30.39,169" transform="translate(-1 -1)"/><path class="cls-3" d="M140.73,41.75c5.22,2.32,4.79,8.06,4.36,9.49-2.2-1.83-4.83-1.89-8.67-2.26l0-.23a8,8,0,0,0,4.29-7" transform="translate(-1 -1)"/><path class="cls-4" d="M131.55,37.74c.87-.53,1.83.75,1,1.29-2.79,1.69-6.27,1.49-8.24-1.3-.6-.84.69-1.8,1.29-1a4.4,4.4,0,0,0,6,1" transform="translate(-1 -1)"/><path class="cls-5" d="M125.26,52.8c13.59,24.37-2,53.34-8.56,61.18a109.09,109.09,0,0,0-1.87-22.28l1.78-36.11L90.17,53.06l-1,37.1c0,.46-.09.91-.13,1.37a90.61,90.61,0,0,0-3.68,19.62c-3.61-5.7-10.57-17.87-10.2-33.68S85.93,50.15,89,47c0,.07-.06.15-.08.22L95.58,45l1.58,6.68,6.19-4.1L106,52.67l4.41-4.73,4.27,3.79,4.38-5.05,3.84,2.65a24.78,24.78,0,0,1,2.33,3.48" transform="translate(-1 -1)"/><path class="cls-5" d="M116.62,55.6,114.84,91.7h-.44c0-16.62-1.79-35.68-11.14-35.84-9-.15-12.51,18.12-14.08,34.29l1-37.1Z" transform="translate(-1 -1)"/><path class="cls-5" d="M114.84,91.7A109.08,109.08,0,0,1,116.7,114c-1.41,1.67-2.41,2.39-2.63,1.88-.52-1.21.35-12,.32-24.15Z" transform="translate(-1 -1)"/><path class="cls-3" d="M110,109.74a13.24,13.24,0,0,1,0,3.35,12.5,12.5,0,0,1,0-3.35" transform="translate(-1 -1)"/><path class="cls-3" d="M95.28,109.74a13.17,13.17,0,0,1,0,3.35,12.61,12.61,0,0,1,0-3.35" transform="translate(-1 -1)"/><path class="cls-6" d="M106,111.41c0-2.81-.87-5.09-1.95-5.09s-1.95,2.28-1.95,5.09.87,5.08,1.95,5.08,1.95-2.28,1.95-5.08m-12.58-5.09c-1.08,0-2,2.28-2,5.09s.87,5.08,2,5.08c.85,0,1.57-1.42,1.84-3.41.26,2,1,3.41,1.84,3.41,1.07,0,1.95-2.28,1.95-5.08s-.87-5.09-1.95-5.09c-.85,0-1.58,1.42-1.84,3.41-.27-2-1-3.41-1.84-3.41m18.42,10.17c1.07,0,1.95-2.28,1.95-5.08s-.88-5.09-1.95-5.09c-.85,0-1.58,1.42-1.84,3.41-.27-2-1-3.41-1.84-3.41-1.08,0-2,2.28-2,5.09s.88,5.08,2,5.08c.85,0,1.57-1.42,1.84-3.41.26,2,1,3.41,1.84,3.41m2.21-.64c.22.51,1.22-.2,2.63-1.88-.35,11.63-3.29,24.11-13.69,27.3a2.75,2.75,0,0,1-.82.11,3.42,3.42,0,0,1-.82-.11c-14.38-3.42-16.81-17.69-16-30.13,1,1.57,1.74,2.65,2,3.18.09.19.17,0,.24-.48.33,1.57,1,2.64,1.71,2.64,1.08,0,1.95-2.28,1.95-5.08s-.87-5.09-1.95-5.09c-.51,0-1,.51-1.32,1.35.2-4.2.49-10,1.05-16.14l.1-.33,0-1C90.75,74,94.29,55.72,103.26,55.87c9.35.15,11.09,19.22,11.14,35.84,0,12.12-.84,22.94-.32,24.15" transform="translate(-1 -1)"/><path class="cls-6" d="M95.58,45,89,47.25c0-.07.05-.15.08-.22.55-.55.87-.84.87-.84s21.16-11.68,33,3.13l-3.84-2.65-4.38,5.06-4.27-3.79L106,52.67l-2.69-5.06-6.19,4.1Z" transform="translate(-1 -1)"/><path class="cls-6" d="M127.31,47.36c-4-1.13-3.81,2.34-3.81,2.34l-.55-.38c-11.85-14.81-33-3.13-33-3.13s-.32.29-.88.84c2-5.48,8.51-9.9,10.61-11.21a12.56,12.56,0,0,1,1.2-.65c35.42-16.71,39.88,6.59,39.88,6.59a8,8,0,0,1-4.29,7l0,.23a49.24,49.24,0,0,1-9.12-1.63M132.5,39c.88-.53-.08-1.82-1-1.29a4.4,4.4,0,0,1-6-1c-.6-.84-1.89.11-1.29,1,2,2.79,5.45,3,8.24,1.3" transform="translate(-1 -1)"/><path class="cls-3" d="M87.38,111.41a10.16,10.16,0,0,1,.62-3.74c-.15,3-.25,5.21-.39,6.18a12.08,12.08,0,0,1-.24-2.45" transform="translate(-1 -1)"/><path class="cls-5" d="M87.38,114.33c-.26-.53-1-1.61-2-3.18a90.68,90.68,0,0,1,3.68-19.62c-.56,6.17-.85,11.94-1.05,16.14a10.16,10.16,0,0,0-.62,3.74,12.09,12.09,0,0,0,.24,2.45c-.07.49-.15.67-.24.48" transform="translate(-1 -1)"/><path class="cls-7" d="M89.06,91.53l.1-.33,0-1" transform="translate(-1 -1)"/><path class="cls-7" d="M116.7,114c-.35,11.63-3.29,24.11-13.69,27.3a2.78,2.78,0,0,1-.82.11,3.43,3.43,0,0,1-.82-.11c-14.38-3.42-16.81-17.69-16-30.13" transform="translate(-1 -1)"/><path class="cls-7" d="M88,107.67c.2-4.21.49-10,1.05-16.15,0-.45.08-.91.13-1.37C90.75,74,94.29,55.72,103.26,55.87c9.35.15,11.09,19.22,11.14,35.84,0,12.12-.84,22.94-.32,24.15.22.51,1.22-.2,2.63-1.88,6.59-7.84,22.15-36.81,8.56-61.18a24.91,24.91,0,0,0-2.32-3.48" transform="translate(-1 -1)"/><path class="cls-7" d="M89,47c-3.11,3.12-13.51,14.7-13.87,30.44s6.59,28,10.2,33.68c1,1.57,1.74,2.65,2,3.18.09.19.17,0,.24-.48" transform="translate(-1 -1)"/><path class="cls-7" d="M122.94,49.32l.55.38s-.23-3.48,3.81-2.34A49.28,49.28,0,0,0,136.42,49c3.84.37,6.47.43,8.67,2.26.43-1.43.86-7.17-4.36-9.49,0,0-4.47-23.3-39.88-6.58a12.26,12.26,0,0,0-1.2.65C97.56,37.13,91,41.55,89,47c0,.07-.06.15-.08.22L95.57,45l1.58,6.68,6.19-4.1L106,52.67l4.41-4.73,4.27,3.79,4.38-5.05Z" transform="translate(-1 -1)"/><path class="cls-7" d="M140.73,41.75a8,8,0,0,1-4.29,7" transform="translate(-1 -1)"/><path class="cls-8" d="M193.69,128.8a96.73,96.73,0,0,1-7.95,18.67s-37.93-34.55-57.3-33.17c-16,1.13-70.63,3.53-89.44,4.33,12.08-1,34.6-4.33,34.6-4.33-7.8-3.19-25.15-18.12-31.06-23.15,7.49,5,33.46,17.41,38.9,19.92,6,2.77,48.19-6.17,56.24-4.15,8.8,2.2,56,21.88,56,21.88" transform="translate(-1 -1)"/><path class="cls-9" d="M193.69,128.8a96.73,96.73,0,0,1-7.95,18.67s-37.93-34.55-57.3-33.17c-16,1.13-70.63,3.53-89.44,4.33,12.08-1,34.6-4.33,34.6-4.33-7.8-3.19-25.15-18.12-31.06-23.15,7.49,5,33.46,17.41,38.9,19.92,6,2.77,48.19-6.17,56.24-4.15C146.47,109.13,193.69,128.8,193.69,128.8Z" transform="translate(-1 -1)"/><path class="cls-3" d="M113.81,111.41c0,2.81-.88,5.09-1.95,5.09-.85,0-1.58-1.42-1.84-3.41a13.11,13.11,0,0,0,0-3.35c.26-2,1-3.41,1.84-3.41,1.07,0,1.95,2.28,1.95,5.09" transform="translate(-1 -1)"/><path class="cls-3" d="M110,109.74a12.5,12.5,0,0,0,0,3.35c-.27,2-1,3.41-1.84,3.41-1.08,0-2-2.28-2-5.08s.88-5.08,2-5.08c.85,0,1.57,1.42,1.84,3.41" transform="translate(-1 -1)"/><path class="cls-3" d="M104.07,106.32c1.08,0,1.95,2.28,1.95,5.09s-.87,5.08-1.95,5.08-1.95-2.28-1.95-5.08.87-5.09,1.95-5.09" transform="translate(-1 -1)"/><path class="cls-3" d="M97.12,106.32c1.07,0,1.95,2.28,1.95,5.09s-.87,5.08-1.95,5.08c-.85,0-1.58-1.42-1.84-3.41a13,13,0,0,0,0-3.35c.26-2,1-3.41,1.84-3.41" transform="translate(-1 -1)"/><path class="cls-3" d="M95.28,109.74a12.61,12.61,0,0,0,0,3.35c-.27,2-1,3.41-1.84,3.41-1.08,0-2-2.28-2-5.08s.88-5.08,2-5.08c.85,0,1.57,1.42,1.84,3.41" transform="translate(-1 -1)"/><path class="cls-3" d="M89.33,106.32c1.08,0,1.95,2.28,1.95,5.09s-.87,5.08-1.95,5.08c-.74,0-1.38-1.07-1.71-2.64.14-1,.24-3.18.39-6.18.35-.84.81-1.35,1.32-1.35" transform="translate(-1 -1)"/><path class="cls-10" d="M88,107.67c.35-.84.81-1.35,1.32-1.35,1.08,0,1.95,2.28,1.95,5.09s-.87,5.08-1.95,5.08c-.74,0-1.38-1.07-1.71-2.64a12.09,12.09,0,0,1-.24-2.45A10.15,10.15,0,0,1,88,107.67Z" transform="translate(-1 -1)"/><path class="cls-10" d="M95.28,113.08c-.27,2-1,3.41-1.84,3.41-1.08,0-2-2.28-2-5.08s.88-5.08,2-5.08c.85,0,1.57,1.42,1.84,3.41" transform="translate(-1 -1)"/><path class="cls-10" d="M95.28,109.74c.26-2,1-3.41,1.84-3.41,1.07,0,1.95,2.28,1.95,5.08s-.88,5.08-1.95,5.08c-.85,0-1.58-1.42-1.84-3.41a12.61,12.61,0,0,1,0-3.35Z" transform="translate(-1 -1)"/><ellipse class="cls-10" cx="103.07" cy="110.41" rx="1.95" ry="5.09"/><path class="cls-10" d="M110,113.08c-.27,2-1,3.41-1.84,3.41-1.08,0-2-2.28-2-5.08s.88-5.08,2-5.08c.85,0,1.57,1.42,1.84,3.41" transform="translate(-1 -1)"/><path class="cls-10" d="M110,109.74c.26-2,1-3.41,1.84-3.41,1.07,0,1.95,2.28,1.95,5.08s-.88,5.08-1.95,5.08c-.86,0-1.58-1.42-1.84-3.41a12.5,12.5,0,0,1,0-3.35Z" transform="translate(-1 -1)"/><line class="cls-11" x1="84.37" y1="116.07" x2="113.08" y2="114.86"/><line class="cls-11" x1="98.72" y1="109.45" x2="100.57" y2="109.3"/><path class="cls-12" d="M2,100A98,98,0,1,0,100,2,98,98,0,0,0,2,100" transform="translate(-1 -1)"/><path class="cls-12" d="M2,100A98,98,0,1,0,100,2,98,98,0,0,0,2,100" transform="translate(-1 -1)"/></svg>