<svg xmlns="http://www.w3.org/2000/svg" viewBox="0 0 212.6 212.6"><defs><style>.cls-1{fill:#ec0671;}.cls-2{fill:#f3973c;}.cls-3{fill:#231f20;}.cls-4{fill:#125782;}.cls-5{fill:#51c1b1;}.cls-6,.cls-7,.cls-8{fill:none;}.cls-6,.cls-7{stroke:#000;stroke-width:1.65px;}.cls-6{stroke-linecap:round;stroke-linejoin:round;}.cls-7{stroke-miterlimit:10;}.cls-9{fill:#ede64c;}.cls-10{fill:#fff;}.cls-11{fill:#07ea88;}</style></defs><title>aquilà</title><g id="sfondo"><circle class="cls-1" cx="106.3" cy="106.3" r="106.3"/></g><g id="aquila"><g id="_Gruppo_" data-name="&lt;Gruppo&gt;"><path class="cls-2" d="M156.28,65.86c5.66,2.52,5.2,8.74,4.73,10.3-2.38-2-5.24-2.05-9.41-2.45l0-.25A8.69,8.69,0,0,0,156.28,65.86Z" transform="translate(-8.58 -6.69)"/><path class="cls-3" d="M146.32,61.5c.95-.57,2,.82,1,1.4-3,1.84-6.8,1.61-8.94-1.41-.65-.92.75-2,1.4-1A4.77,4.77,0,0,0,146.32,61.5Z" transform="translate(-8.58 -6.69)"/><path class="cls-4" d="M139.5,77.84c14.74,26.43-2.13,57.86-9.28,66.36a118.36,118.36,0,0,0-2-24.16l1.93-39.16-28.68-2.76-1.08,40.24c0,.5-.09,1-.14,1.48a98.32,98.32,0,0,0-4,21.29c-3.92-6.19-11.46-19.38-11.06-36.54s11.67-29.63,15-33c0,.08-.06.16-.09.24l7.17-2.41L109,76.66l6.72-4.45,2.92,5.49,4.78-5.13,4.63,4.11,4.75-5.48L137,74.07A27,27,0,0,1,139.5,77.84Z" transform="translate(-8.58 -6.69)"/><path class="cls-4" d="M130.12,80.88,128.19,120h-.48c0-18-1.94-38.71-12.08-38.87-9.73-.16-13.57,19.66-15.27,37.19l1.08-40.24Z" transform="translate(-8.58 -6.69)"/><path class="cls-4" d="M128.19,120a118.36,118.36,0,0,1,2,24.16c-1.53,1.81-2.61,2.59-2.85,2-.56-1.32.38-13,.35-26.2Z" transform="translate(-8.58 -6.69)"/><path class="cls-2" d="M127.08,141.41c0,3-.95,5.52-2.11,5.52-.93,0-1.71-1.54-2-3.7a14.36,14.36,0,0,0,0-3.63c.28-2.16,1.06-3.7,2-3.7C126.13,135.9,127.08,138.37,127.08,141.41Z" transform="translate(-8.58 -6.69)"/><path class="cls-2" d="M123,139.6a14.36,14.36,0,0,1,0,3.63,13.56,13.56,0,0,1,0-3.63Z" transform="translate(-8.58 -6.69)"/><path class="cls-2" d="M123,139.6a13.56,13.56,0,0,0,0,3.63c-.29,2.16-1.08,3.7-2,3.7-1.17,0-2.12-2.47-2.12-5.52s.95-5.52,2.12-5.52C121.9,135.9,122.68,137.44,123,139.6Z" transform="translate(-8.58 -6.69)"/><ellipse class="cls-2" cx="107.93" cy="134.72" rx="2.11" ry="5.52"/><path class="cls-2" d="M109,135.9c1.16,0,2.11,2.47,2.11,5.52s-.95,5.52-2.11,5.52c-.93,0-1.71-1.54-2-3.7a14.23,14.23,0,0,0,0-3.63C107.26,137.44,108,135.9,109,135.9Z" transform="translate(-8.58 -6.69)"/><path class="cls-2" d="M107,139.6a14.23,14.23,0,0,1,0,3.63,13.67,13.67,0,0,1,0-3.63Z" transform="translate(-8.58 -6.69)"/><path class="cls-2" d="M107,139.6a13.67,13.67,0,0,0,0,3.63c-.29,2.16-1.08,3.7-2,3.7-1.17,0-2.12-2.47-2.12-5.52s.95-5.52,2.12-5.52C105.9,135.9,106.69,137.44,107,139.6Z" transform="translate(-8.58 -6.69)"/><path class="cls-5" d="M118.63,141.41c0-3-.94-5.52-2.11-5.52s-2.11,2.47-2.11,5.52.94,5.52,2.11,5.52S118.63,144.46,118.63,141.41ZM105,135.9c-1.17,0-2.12,2.47-2.12,5.52s.95,5.52,2.12,5.52c.92,0,1.7-1.54,2-3.7.28,2.16,1.07,3.7,2,3.7,1.16,0,2.11-2.47,2.11-5.52s-.95-5.52-2.11-5.52c-.93,0-1.71,1.54-2,3.7C106.69,137.44,105.9,135.9,105,135.9Zm20,11c1.16,0,2.11-2.47,2.11-5.52s-.95-5.52-2.11-5.52c-.93,0-1.71,1.54-2,3.7-.29-2.16-1.08-3.7-2-3.7-1.17,0-2.12,2.47-2.12,5.52s.95,5.52,2.12,5.52c.92,0,1.7-1.54,2-3.7C123.26,145.38,124,146.93,125,146.93Zm2.4-.69c.24.55,1.32-.22,2.85-2-.38,12.62-3.57,26.15-14.85,29.62a3.05,3.05,0,0,1-.89.12,3.72,3.72,0,0,1-.89-.12c-15.6-3.71-18.24-19.2-17.34-32.69,1.08,1.71,1.89,2.88,2.17,3.45.1.21.18,0,.26-.52.36,1.7,1.05,2.86,1.85,2.86,1.17,0,2.11-2.47,2.11-5.52s-.94-5.52-2.11-5.52c-.55,0-1.06.55-1.43,1.46.22-4.56.53-10.82,1.14-17.51l.11-.36,0-1.12c1.7-17.53,5.54-37.35,15.27-37.19,10.14.17,12,20.85,12.08,38.87C127.75,133.19,126.8,144.92,127.37,146.24Z" transform="translate(-8.58 -6.69)"/><path class="cls-2" d="M100.52,135.9c1.17,0,2.11,2.47,2.11,5.52s-.94,5.52-2.11,5.52c-.8,0-1.49-1.16-1.85-2.86.15-1.05.26-3.45.42-6.71C99.46,136.45,100,135.9,100.52,135.9Z" transform="translate(-8.58 -6.69)"/><path class="cls-5" d="M107.3,69.41l-7.17,2.41c0-.08.05-.16.09-.24.6-.6.95-.91.95-.91s23-12.67,35.81,3.4l-4.17-2.87-4.75,5.48-4.63-4.11-4.78,5.13-2.92-5.49L109,76.66Z" transform="translate(-8.58 -6.69)"/><path class="cls-5" d="M141.72,71.94c-4.38-1.23-4.14,2.54-4.14,2.54l-.6-.41c-12.86-16.07-35.81-3.4-35.81-3.4s-.35.31-.95.91c2.16-5.95,9.23-10.74,11.51-12.16a13.32,13.32,0,0,1,1.3-.71c38.42-18.13,43.26,7.14,43.26,7.14a8.69,8.69,0,0,1-4.65,7.6l0,.25A53.4,53.4,0,0,1,141.72,71.94Zm5.64-9c1-.58-.08-2-1-1.4a4.77,4.77,0,0,1-6.51-1.05c-.65-.92-2,.12-1.4,1C140.56,64.5,144.33,64.73,147.35,62.89Z" transform="translate(-8.58 -6.69)"/><path class="cls-2" d="M98.41,141.41a11,11,0,0,1,.68-4.05c-.16,3.26-.27,5.65-.42,6.71A13,13,0,0,1,98.41,141.41Z" transform="translate(-8.58 -6.69)"/><path class="cls-4" d="M98.41,144.58c-.29-.58-1.09-1.75-2.17-3.45a98.32,98.32,0,0,1,4-21.29c-.61,6.69-.92,13-1.14,17.51a11,11,0,0,0-.68,4.05,13,13,0,0,0,.26,2.65C98.59,144.6,98.51,144.79,98.41,144.58Z" transform="translate(-8.58 -6.69)"/><path class="cls-6" d="M100.23,119.85l.11-.36,0-1.12" transform="translate(-8.58 -6.69)"/><path class="cls-6" d="M130.22,144.2c-.38,12.62-3.57,26.15-14.85,29.62a3.05,3.05,0,0,1-.89.12,3.72,3.72,0,0,1-.89-.12c-15.6-3.71-18.24-19.2-17.34-32.69" transform="translate(-8.58 -6.69)"/><path class="cls-6" d="M99.08,137.36c.22-4.56.53-10.82,1.14-17.51,0-.49.09-1,.14-1.48,1.7-17.53,5.54-37.35,15.27-37.19,10.14.17,12,20.85,12.08,38.87,0,13.15-.91,24.88-.35,26.2.24.55,1.32-.22,2.85-2,7.15-8.51,24-39.93,9.28-66.36A27,27,0,0,0,137,74.07" transform="translate(-8.58 -6.69)"/><path class="cls-6" d="M100.21,71.58c-3.37,3.38-14.66,15.94-15,33s7.15,30.35,11.06,36.54c1.08,1.71,1.89,2.88,2.17,3.45.1.21.18,0,.26-.52" transform="translate(-8.58 -6.69)"/><path class="cls-6" d="M137,74.07l.6.41s-.25-3.77,4.14-2.54a53.4,53.4,0,0,0,9.89,1.76c4.17.4,7,.47,9.41,2.45.46-1.56.93-7.78-4.73-10.3,0,0-4.84-25.27-43.26-7.14a13.32,13.32,0,0,0-1.3.71c-2.27,1.42-9.34,6.22-11.51,12.16,0,.08-.06.16-.09.24l7.17-2.41L109,76.66l6.72-4.45,2.92,5.49,4.78-5.13,4.63,4.11,4.75-5.48Z" transform="translate(-8.58 -6.69)"/><path class="cls-7" d="M99.08,137.36c.38-.91.88-1.46,1.43-1.46,1.17,0,2.11,2.47,2.11,5.52s-.94,5.52-2.11,5.52c-.8,0-1.49-1.16-1.85-2.86a13,13,0,0,1-.26-2.65A11,11,0,0,1,99.08,137.36Z" transform="translate(-8.58 -6.69)"/><path class="cls-7" d="M107,143.23c-.29,2.16-1.08,3.7-2,3.7-1.17,0-2.12-2.47-2.12-5.52s.95-5.52,2.12-5.52c.92,0,1.7,1.54,2,3.7" transform="translate(-8.58 -6.69)"/><path class="cls-7" d="M107,139.6c.28-2.16,1.07-3.7,2-3.7,1.16,0,2.11,2.47,2.11,5.52s-.95,5.52-2.11,5.52c-.93,0-1.71-1.54-2-3.7a13.67,13.67,0,0,1,0-3.63Z" transform="translate(-8.58 -6.69)"/><ellipse class="cls-7" cx="107.93" cy="134.72" rx="2.11" ry="5.52"/><path class="cls-7" d="M123,143.23c-.29,2.16-1.08,3.7-2,3.7-1.17,0-2.12-2.47-2.12-5.52s.95-5.52,2.12-5.52c.92,0,1.7,1.54,2,3.7" transform="translate(-8.58 -6.69)"/><path class="cls-7" d="M123,139.6c.28-2.16,1.06-3.7,2-3.7,1.16,0,2.11,2.47,2.11,5.52s-.95,5.52-2.11,5.52c-.93,0-1.71-1.54-2-3.7a13.56,13.56,0,0,1,0-3.63Z" transform="translate(-8.58 -6.69)"/><path class="cls-6" d="M156.28,65.86a8.69,8.69,0,0,1-4.65,7.6" transform="translate(-8.58 -6.69)"/></g></g><g id="disegni"><path class="cls-8" d="M192.17,77a12.89,12.89,0,0,0,4.69-.32,4.47,4.47,0,0,0-1.72-.54c-1.76-.18-3.52.16-5.27.12a26.94,26.94,0,0,1-4.91-.62,30.55,30.55,0,0,1-5.31-1.6,15.14,15.14,0,0,0,1.41.66A36.08,36.08,0,0,0,192.17,77Z" transform="translate(-8.58 -6.69)"/><path class="cls-8" d="M202.27,95.76c1.58-.45,4.46-2.39,4.73-4.38-2,1-4,1.89-6.09,2.79-1.31.57-2.87,1.4-4.47,2.06.46,0,.94.07,1.41.06A17.33,17.33,0,0,0,202.27,95.76Z" transform="translate(-8.58 -6.69)"/><path class="cls-8" d="M77.75,63.15,98.38,57l-.15-.17c-1.76-1.61-9-1.71-10.52-1.57h-.12a19.67,19.67,0,0,0-8.11,2.93c-2.38,1.49-6.88,4.76-6.79,6.38.15,2.79,10.08,2.79,10.18,2.79,6.57,0,11.83-3.17,15.28-9.08l-20,6-.13,0a.63.63,0,0,1-.64-.46A.49.49,0,0,1,77.75,63.15Z" transform="translate(-8.58 -6.69)"/><path class="cls-8" d="M204,66.51a4.64,4.64,0,0,0,.85,2.18,10.61,10.61,0,0,0-.09-4,36.16,36.16,0,0,0-3.58-11.29c-.28-.51-.58-1-.91-1.5a31.16,31.16,0,0,1,2.14,5C203.48,60.11,203.43,63.22,204,66.51Z" transform="translate(-8.58 -6.69)"/><path class="cls-8" d="M212.71,74.67c.37-.2.58-.84.7-1.63q-.47-1.17-1-2.33C212.38,72.32,212.33,74.89,212.71,74.67Z" transform="translate(-8.58 -6.69)"/><path class="cls-8" d="M35.07,145.11a1,1,0,0,1-2,.28c-1.07-5.27-3.73-8.62-7.62-12.22-4.58-4.23-7.25-7.6-12.66-4.1a9.73,9.73,0,0,0-2.58,2.29,105.76,105.76,0,0,0,19.24,44.82c-.79-10.87-2.67-25.7-11.05-33.24-1-.9.48-2.37,1.47-1.47,8,7.21,10.39,20.35,11.38,31.27l14.06-31.92c.54-1.22,2.33-.16,1.8,1.05L33.45,172.8c1.52-1.06,3.19-2,3.9-2.55,8.06-5.68,17.15-9.88,27.12-10.23,1.34,0,1.34,2,0,2.08-12.45.43-24.09,7.31-33.1,15.57a1,1,0,0,1-.13.08c10.68,2.42,25.41,1.48,35.34-3.87,7.6-4.09,18.87-15,5.4-22.23-5.46-2.94-14.57-.81-19.63,2.18-1,.59-2.16-.85-1.26-1.64,11.38-9.94,15.62-23.83,6.45-36.37C41.75,117.46,34.7,130.06,35.07,145.11Z" transform="translate(-8.58 -6.69)"/><path class="cls-8" d="M183.34,65a26.28,26.28,0,0,0,3.53.93A17.75,17.75,0,0,0,180.6,63c-.65-.19-1.86-.47-3-.9a4.59,4.59,0,0,0,.48.39A21.58,21.58,0,0,0,183.34,65Z" transform="translate(-8.58 -6.69)"/><path class="cls-8" d="M175,149.6a1,1,0,0,1,1.15-1.73l30,19.64q2.08-3.48,3.9-7.13c-.08-1.2-.16-2.16-.16-2.68q.05-10.52.1-21c0-4.81,1-9.63-5.08-7.7-5.46,1.73-11.06,6.25-16.05,9.07s-12.31,5.35-16.42,9.28c-4.3,4.12.86,5.92,4.56,8.12l26.74,15.94q.67-1,1.32-2.05Zm29.77-16.17a.91.91,0,0,1,.68.17.82.82,0,0,1,.36.31c1.83,1.84.17,5.32-2.54,4S202.21,133.24,204.75,133.42Zm-8.17,2.9a.91.91,0,0,1,.67.16.82.82,0,0,1,.37.32c1.82,1.84.17,5.31-2.54,4S194,136.14,196.59,136.33Zm-5,6c4.76,3.51,11.58,4.4,15.33,0,.86-1,2.6.14,1.73,1.15-4.9,5.72-12.66,4.65-18.21.56C189.35,143.31,190.5,141.57,191.58,142.37Z" transform="translate(-8.58 -6.69)"/><path class="cls-8" d="M174.51,33.8c3.1.83,7.6,1.58,9.94-1.18A106.5,106.5,0,0,0,166,19.8a40.44,40.44,0,0,1-4.28.06c-2.68-.14-5.35-.34-8-.58C159.23,25.76,166.21,31.57,174.51,33.8Zm-.72-4.74c1.8,1.55,4.4,2.82,6.81,2.34,1.3-.25,1.91,1.74.6,2-3.19.63-6.41-.75-8.83-2.82C171.34,29.7,172.77,28.19,173.78,29.06Z" transform="translate(-8.58 -6.69)"/><path class="cls-8" d="M215.12,116.86a3.25,3.25,0,0,0-6.28-1.65c-2.19,6.52-11.65,3.94-10.29-2.79.27-1.31,2.27-.74,2,.57a3.25,3.25,0,0,0,6.28,1.65c2.19-6.52,11.65-3.94,10.29,2.79a3.21,3.21,0,0,0,3.73,3.91q.32-4.13.33-8.35A106.51,106.51,0,0,0,218,87.18c-.29-.12-.58-.25-.87-.39,2,3.82,2.69,8.29-1.14,11.29a18.26,18.26,0,0,1-9,4.18c-4.39.5-8.39-1.47-11.81-4a.46.46,0,0,1-.23-.19.68.68,0,0,1-.18-.42h0c0-.05,0-.1,0-.15a.77.77,0,0,1,.08-.66,8.63,8.63,0,0,1-2.8.48c-2.21-.05-4.19-3.14-5.45-4.63s-2.39-2.9-3.55-4.37L181.8,86.7c-.29-.36-.68-.59-.57-.64a2.38,2.38,0,0,1-.29-.46.76.76,0,0,1,.83-1,1.06,1.06,0,0,1,.62.41l0,0h0a1.4,1.4,0,0,0,.38.28,15.62,15.62,0,0,0,2.64.81c4,.63,8.19-.28,12.16-.86,1-.14,5.74-.28,6.21-1.49.24-.59-4.36.23-5,.32a51,51,0,0,1-10,.52c-2.86-.12-6.9-.07-9.5-1.35a5.28,5.28,0,0,1-2.14-2.5c-.94-1.88-2.66-6.41-1.66-8.31a.78.78,0,0,1,.44-.38A4.82,4.82,0,0,1,174,68.61c-.33-2.24-.34-5.82,1-7.76a.75.75,0,0,1,.23-.2,1.55,1.55,0,0,1-.28-.54c-.33-1.24,1.28-3.27,1.55-4.48.4-1.81-1.13-3.17-1.37-5a3.6,3.6,0,0,1,0-.93.75.75,0,0,1,.86-.61,9.49,9.49,0,0,1,2.36,1c1.41.87,2,1.22,3.58.58,1-.41,2.77-2.11,3.94-1.88a2.71,2.71,0,0,1,1.46,1.1,20.51,20.51,0,0,1,2,4.13A17.83,17.83,0,0,0,193,60l0-.15a24.55,24.55,0,0,0-2.53-5.54,25.47,25.47,0,0,0-2.4-3.58c-.23-.3-.52-.54-.7-.83a1,1,0,0,1-.11-.87c.52-1.73,4.78-2.06,6.17-2.12a5.43,5.43,0,0,1,4.51,1.68.64.64,0,0,1,.28-.46,2.7,2.7,0,0,1,.66-.3,107,107,0,0,0-13-13.9c-2.08,2.55-5.72,3.09-9.65,2.42-10.37-1.75-19.07-9.43-25.43-17.37a.75.75,0,0,1-.38-.5.9.9,0,0,1,.63-1.31,1.06,1.06,0,0,1,.58-.11c3.33.33,6.63.42,9.92.44a105.54,105.54,0,0,0-28.26-9.18,3.66,3.66,0,0,0,.44,1.35c3.31,6-5,11.24-9,5.67a3.25,3.25,0,0,0-5.48,3.49c3.31,6-5,11.24-9,5.67-.79-1.09,1-2.17,1.77-1.09a3.25,3.25,0,0,0,5.48-3.49c-3.31-6,5-11.23,9-5.68h0A3.25,3.25,0,0,0,132,10.73h0a5.77,5.77,0,0,1-.76-2.78A107.35,107.35,0,0,0,99,7.87,22.85,22.85,0,0,1,97.8,38.46c-9,9-22.62,8.22-31.76.17l0,0-.17-.15-.18-.21a24.63,24.63,0,0,1-6.26-16A106.78,106.78,0,0,0,39.57,38a5.31,5.31,0,0,1,5.27,6.56,3.25,3.25,0,0,0,6.28,1.66h0c2.19-6.52,11.65-3.94,10.29,2.79-.27,1.31-2.27.74-2-.57a3.25,3.25,0,0,0-6.28-1.65C50.93,53.28,41.47,50.7,42.84,44a3.25,3.25,0,0,0-6.28-1.65A5.19,5.19,0,0,1,32.33,46,105.82,105.82,0,0,0,9.89,96.29a3.93,3.93,0,0,0,.39-.27c5.29-4.4,12,2.77,7.29,7.78A3.25,3.25,0,0,0,22,108.51h0c5.29-4.4,12,2.77,7.29,7.78-.92,1-2.32-.56-1.41-1.54A3.25,3.25,0,0,0,23.46,110c-5.29,4.4-12-2.76-7.29-7.78a3.25,3.25,0,0,0-4.48-4.71,5.93,5.93,0,0,1-2.15,1.17,107,107,0,0,0,0,28.42c2.07-2.3,5.17-3.13,9.76-1.24,5,2.06,11.53,7.39,13.92,13,.15-1,.33-1.93.48-2.83C36,122.5,44.57,114.88,58,113.71a.84.84,0,0,1,.91.53c8.62,11.25,8.32,25-2.24,35.33l-.4.38a15.1,15.1,0,0,1,3-.91c5.66-1.12,15-.8,19.69,3.3,8.89,7.78-5.46,20.52-12.81,24-7.79,3.7-18.41,5.18-27,4.7-2.29-.13-4.53-.77-6.41-.59a106.11,106.11,0,0,0,73.32,38.46,1,1,0,0,1,1.32-.3,3.25,3.25,0,0,0,3.29-5.6c-5.69-3.87-.65-12.28,5.46-9.15a3.25,3.25,0,0,0,3.31-5.59h0c-5.69-3.87-.65-12.29,5.46-9.15,1.19.61.1,2.38-1.09,1.78a3.25,3.25,0,0,0-3.29,5.6c5.69,3.87.65,12.28-5.46,9.15a3.25,3.25,0,0,0-3.29,5.6,5.24,5.24,0,0,1,1.1,8l2,0A107.07,107.07,0,0,0,131.76,218l-1.23-.86c-1.09-.76-.07-2.58,1-1.81l3.11,2.16q2.65-.5,5.25-1.13l-5.43-5.11c-1-.92.5-2.39,1.47-1.47l6.34,6q1.76-.47,3.5-1l-6.38-7c-.9-1,.57-2.46,1.47-1.47l6.69,7.36a1,1,0,0,1,.25.48q1.21-.39,2.4-.81l-5.11-8.42c-.7-1.15,1.12-2.17,1.81-1l5.16,8.51a1.16,1.16,0,0,1,.11.23q1.39-.52,2.77-1.08l-3.47-8.64c-.5-1.24,1.52-1.76,2-.53l3.36,8.37a106.31,106.31,0,0,0,26.9-16.73,3.26,3.26,0,0,0-5,1.71c-2.19,6.53-11.65,3.94-10.29-2.79a3.25,3.25,0,0,0-6.28-1.65c-2.19,6.52-11.65,3.94-10.29-2.79.27-1.31,2.27-.74,2,.57a3.25,3.25,0,0,0,6.28,1.65c2.19-6.53,11.65-3.94,10.29,2.79a3.25,3.25,0,0,0,6.28,1.66h0a5.31,5.31,0,0,1,8.59-2.49,106.9,106.9,0,0,0,17.24-19.5c-10.44-6-21.44-11.71-31.22-18.64-8.28-5.87,1.32-9.68,6.7-12.71l19.82-11.2c2.52-1.43,7.3-5.55,10.59-5.1,7,1,3.57,20.77,3.55,25.11,0,1,.16,2.82.33,5a105.59,105.59,0,0,0,8.34-32.09A5.31,5.31,0,0,1,215.12,116.86ZM61.6,194.92l0,0a1,1,0,0,1-.21.47c-1.79,2.21-5.52.37-4.15-2.38S62.42,192.14,61.6,194.92ZM25.6,88.25l0,0a1,1,0,0,1-.21.47c-1.79,2.21-5.52.37-4.15-2.38S26.42,85.48,25.6,88.25ZM51.69,98.3q-6.6,1.37-13.25,2.55a.83.83,0,0,1-1-.54Q32.3,81.74,27.18,63.16a.63.63,0,0,1,0-.3.14.14,0,0,1,0-.09s0,0,0,0a.68.68,0,0,1,.55-.59C36.83,59.87,46.44,57,55.85,56.4c7.63-.46,7.33,10.63,8.81,16.51,1.17,4.65,6.8,18,2.3,21.6C63.65,97.2,55.74,97.47,51.69,98.3Zm17.24,9.28,0,0a1,1,0,0,1-.21.47c-1.79,2.21-5.52.37-4.15-2.38S69.75,104.81,68.93,107.59Zm5.33,28.67,0,0a1,1,0,0,1-.21.47c-1.79,2.21-5.52.37-4.15-2.38S75.09,133.48,74.26,136.25Zm4.67-14.67,0,0a1,1,0,0,1-.21.47c-1.79,2.21-5.52.37-4.15-2.38S79.75,118.81,78.93,121.59ZM71.86,66a1.84,1.84,0,0,1-.47-1.52c.15-1.18,1.89-2.74,3-3.76l.6-.55a23.21,23.21,0,0,1,8.77-5.31c2.38-.75,11.7-1.71,14.87.7a2.48,2.48,0,0,1,1.07,1.87.88.88,0,0,1-.07.42c0,.11,0,.06-.08.21-3.38,6.24-8.5,9.79-14.91,10.37a19.46,19.46,0,0,1-2.42.07C80.29,68.44,73.69,68.12,71.86,66ZM66.55,181c1.34-2.7,5.2-.9,4.38,1.88l0,0a1,1,0,0,1-.21.47C68.91,185.63,65.18,183.79,66.55,181Zm23.71,27.88,0,0a1,1,0,0,1-.21.47c-1.79,2.2-5.52.37-4.15-2.38S91.08,206.14,90.26,208.92Zm20.14-23.85c0,.16,0,.09-.11.3-4.8,8.86-12.07,13.9-21.17,14.73a27.92,27.92,0,0,1-3.43.1c-2.82-.06-12.19-.52-14.78-3.55a2.62,2.62,0,0,1-.67-2.16c.21-1.68,2.68-3.89,4.33-5.34.33-.3.61-.55.85-.78a32.94,32.94,0,0,1,12.45-7.54c3.38-1.07,16.61-2.43,21.11,1a3.5,3.5,0,0,1,1.52,2.66A1.07,1.07,0,0,1,110.4,185.06ZM113.51,48l0,0a1,1,0,0,1-.21.47c-1.79,2.2-5.52.37-4.15-2.38S114.33,45.19,113.51,48Zm6.67-12,0,0a1,1,0,0,1-.21.47c-1.79,2.2-5.52.37-4.15-2.38S121,33.19,120.17,36Zm10,8,0,0a1,1,0,0,1-.21.47c-1.79,2.2-5.52.37-4.15-2.38S131,41.19,130.17,44Zm55.94,129.24c1.34-2.7,5.2-.9,4.38,1.88l0,0a1,1,0,0,1-.21.47C188.47,177.79,184.75,176,186.11,173.21Zm-5.85,9,0,0a1,1,0,0,1-.21.47c-1.79,2.21-5.52.37-4.15-2.38S181.09,179.48,180.26,182.25Zm-6.15-15c1.34-2.7,5.2-.9,4.38,1.88l0,0a1,1,0,0,1-.21.47C176.47,171.79,172.75,170,174.11,167.21Zm-4.32-81.12,0,0a1,1,0,0,1-.21.47c-1.79,2.21-5.52.37-4.15-2.38S170.62,83.32,169.79,86.09Zm-2-36.45L160,55.89c-1,.84-2.13-.94-1.1-1.77l7.74-6.25C167.7,47,168.78,48.81,167.75,49.64Zm-3.37-5.85-6.62,7.43c-.89,1-2.41-.43-1.51-1.43l6.62-7.42C163.76,41.36,165.27,42.79,164.38,43.79ZM156.17,122l0,0a1,1,0,0,1-.21.47c-1.79,2.21-5.52.37-4.15-2.38S157,119.19,156.17,122Zm2.29-84.22c.68-1.15,2.52-.18,1.84,1l-5.08,8.55c-.68,1.15-2.52.18-1.84-1ZM149.26,43l4.39-8.92c.59-1.2,2.43-.22,1.84,1L151.1,44C150.5,45.16,148.67,44.18,149.26,43Zm-5.43-1.52,3-9.47c.41-1.27,2.44-.82,2,.45l-3,9.47C145.46,43.18,143.42,42.73,143.83,41.46Zm-6.9,156.13,0,0a1,1,0,0,1-.21.47c-1.79,2.21-5.52.37-4.15-2.38S137.75,194.81,136.93,197.59Zm17.73-37.81c-1.6,10.38-9.14,19.19-17,25.66a.73.73,0,0,1-.52.42h0a.89.89,0,0,1-1.25-.53,1.06,1.06,0,0,1-.16-.68c.71-8.31-.07-16.46.15-24.72.17-6.84,4.92-12.3,12.07-11.39C154,149.31,155.5,154.25,154.65,159.77Zm3.61-18.19,0,0a1,1,0,0,1-.21.47c-1.79,2.21-5.52.37-4.15-2.38S159.08,138.81,158.26,141.58Zm16.58-6.29,0,0a1,1,0,0,1-.21.47c-1.79,2.21-5.52.37-4.15-2.38S175.66,132.53,174.84,135.3Zm-7.25-11.15c-15.9-5.15-9.28-31.23,7.09-27S184,127.41,167.59,124.15Z" transform="translate(-8.58 -6.69)"/><path class="cls-8" d="M174.1,99.16c-13.73-3.53-19.31,18.66-5.93,23C182,124.9,187.82,102.68,174.1,99.16Zm-5.8,20.43c-4-1.83-7.2-6-5.51-10.57.46-1.25,2.46-.68,2,.58-1.37,3.71,1.38,6.75,4.59,8.21C170.58,118.36,169.5,120.13,168.29,119.58Z" transform="translate(-8.58 -6.69)"/><path d="M174.68,97.16c-16.37-4.24-23,21.84-7.09,27-1.31-.26-.72-2.26.58-2-13.38-4.33-7.8-26.52,5.93-23s7.87,25.74-5.93,23c1.27.41.7,2.41-.58,2C184,127.41,191.05,101.39,174.68,97.16Z" transform="translate(-8.58 -6.69)"/><path d="M168.17,122.15c-1.31-.26-1.9,1.74-.58,2C168.86,124.56,169.44,122.56,168.17,122.15Z" transform="translate(-8.58 -6.69)"/><path d="M169.37,117.8c-3.21-1.46-6-4.49-4.59-8.21.46-1.26-1.54-1.83-2-.58-1.68,4.57,1.49,8.75,5.51,10.57C169.5,120.13,170.58,118.36,169.37,117.8Z" transform="translate(-8.58 -6.69)"/><path class="cls-9" d="M168,85.26l-.23.5c-.38,1.26,1.61,1.58,2,.36A1,1,0,0,0,168,85.26Z" transform="translate(-8.58 -6.69)"/><path class="cls-9" d="M165.41,84.21c-1.37,2.75,2.36,4.58,4.15,2.38a1,1,0,0,0,.21-.47c-.41,1.22-2.39.9-2-.36l.23-.5a1,1,0,0,1,1.78.86l0,0C170.62,83.32,166.75,81.51,165.41,84.21Z" transform="translate(-8.58 -6.69)"/><path class="cls-9" d="M132.55,195.71c-1.37,2.75,2.36,4.58,4.15,2.38a1,1,0,0,0,.21-.47c-.41,1.22-2.39.9-2-.36l.23-.5a1,1,0,0,1,1.78.86l0,0C137.75,194.81,133.89,193,132.55,195.71Z" transform="translate(-8.58 -6.69)"/><path class="cls-9" d="M135.12,196.76l-.23.5c-.38,1.26,1.61,1.58,2,.36A1,1,0,0,0,135.12,196.76Z" transform="translate(-8.58 -6.69)"/><path class="cls-9" d="M178.26,169.58a1,1,0,0,0,.21-.47c-.41,1.22-2.39.9-2-.36l.23-.5a1,1,0,0,1,1.78.86l0,0c.82-2.77-3-4.58-4.38-1.88S176.47,171.79,178.26,169.58Z" transform="translate(-8.58 -6.69)"/><path class="cls-9" d="M176.69,168.25l-.23.5c-.38,1.26,1.61,1.58,2,.36A1,1,0,0,0,176.69,168.25Z" transform="translate(-8.58 -6.69)"/><path class="cls-9" d="M111.7,47.14l-.23.5c-.37,1.26,1.61,1.58,2,.36A1,1,0,0,0,111.7,47.14Z" transform="translate(-8.58 -6.69)"/><path class="cls-9" d="M109.13,46.09c-1.37,2.75,2.36,4.58,4.15,2.38a1,1,0,0,0,.21-.47c-.41,1.23-2.39.91-2-.36l.23-.5a1,1,0,0,1,1.79.86l0,0C114.33,45.19,110.46,43.39,109.13,46.09Z" transform="translate(-8.58 -6.69)"/><path class="cls-9" d="M128.37,43.14l-.23.5c-.38,1.26,1.61,1.58,2,.36A1,1,0,0,0,128.37,43.14Z" transform="translate(-8.58 -6.69)"/><path class="cls-9" d="M125.79,42.09c-1.37,2.75,2.36,4.58,4.15,2.38a1,1,0,0,0,.21-.47c-.41,1.22-2.39.9-2-.36l.23-.5a1,1,0,0,1,1.78.86l0,0C131,41.19,127.13,39.39,125.79,42.09Z" transform="translate(-8.58 -6.69)"/><path class="cls-9" d="M115.79,34.09c-1.37,2.75,2.36,4.58,4.15,2.38a1,1,0,0,0,.21-.47c-.41,1.22-2.39.9-2-.36l.23-.5a1,1,0,0,1,1.78.86l0,0C121,33.19,117.13,31.39,115.79,34.09Z" transform="translate(-8.58 -6.69)"/><path class="cls-9" d="M118.37,35.14l-.23.5c-.38,1.26,1.61,1.58,2,.36A1,1,0,0,0,118.37,35.14Z" transform="translate(-8.58 -6.69)"/><path class="cls-9" d="M151.79,120.09c-1.37,2.75,2.36,4.58,4.15,2.38a1,1,0,0,0,.21-.47c-.41,1.22-2.39.9-2-.36l.23-.5a1,1,0,0,1,1.78.86l0,0C157,119.19,153.13,117.39,151.79,120.09Z" transform="translate(-8.58 -6.69)"/><path class="cls-9" d="M154.37,121.14l-.23.5c-.38,1.26,1.61,1.58,2,.36A1,1,0,0,0,154.37,121.14Z" transform="translate(-8.58 -6.69)"/><path class="cls-9" d="M173,134.47l-.23.5c-.38,1.26,1.61,1.58,2,.36A1,1,0,0,0,173,134.47Z" transform="translate(-8.58 -6.69)"/><path class="cls-9" d="M170.46,133.42c-1.37,2.75,2.36,4.58,4.15,2.38a1,1,0,0,0,.21-.47c-.41,1.22-2.39.9-2-.36l.23-.5a1,1,0,0,1,1.78.86l0,0C175.66,132.53,171.8,130.72,170.46,133.42Z" transform="translate(-8.58 -6.69)"/><path class="cls-9" d="M156.46,140.76l-.23.5c-.38,1.26,1.61,1.58,2,.36A1,1,0,0,0,156.46,140.76Z" transform="translate(-8.58 -6.69)"/><path class="cls-9" d="M153.88,139.71c-1.37,2.75,2.36,4.58,4.15,2.38a1,1,0,0,0,.21-.47c-.41,1.22-2.39.9-2-.36l.23-.5a1,1,0,0,1,1.78.86l0,0C159.08,138.81,155.22,137,153.88,139.71Z" transform="translate(-8.58 -6.69)"/><path class="cls-9" d="M190.26,175.58a1,1,0,0,0,.21-.47c-.41,1.22-2.39.9-2-.36l.23-.5a1,1,0,0,1,1.78.86l0,0c.82-2.77-3-4.58-4.38-1.88S188.47,177.79,190.26,175.58Z" transform="translate(-8.58 -6.69)"/><path class="cls-9" d="M188.69,174.25l-.23.5c-.38,1.26,1.61,1.58,2,.36A1,1,0,0,0,188.69,174.25Z" transform="translate(-8.58 -6.69)"/><path class="cls-9" d="M178.46,181.42l-.23.5c-.38,1.26,1.61,1.58,2,.36A1,1,0,0,0,178.46,181.42Z" transform="translate(-8.58 -6.69)"/><path class="cls-9" d="M175.88,180.38c-1.37,2.75,2.36,4.58,4.15,2.38a1,1,0,0,0,.21-.47c-.41,1.22-2.39.9-2-.36l.23-.5a1,1,0,0,1,1.78.86l0,0C181.09,179.48,177.22,177.68,175.88,180.38Z" transform="translate(-8.58 -6.69)"/><path class="cls-9" d="M57.21,193c-1.37,2.75,2.36,4.58,4.15,2.38a1,1,0,0,0,.21-.47c-.41,1.22-2.39.9-2-.36l.23-.5a1,1,0,0,1,1.78.86l0,0C62.42,192.14,58.55,190.34,57.21,193Z" transform="translate(-8.58 -6.69)"/><path class="cls-9" d="M59.79,194.09l-.23.5c-.38,1.26,1.61,1.58,2,.36A1,1,0,0,0,59.79,194.09Z" transform="translate(-8.58 -6.69)"/><path class="cls-9" d="M70.7,183.42a1,1,0,0,0,.21-.47c-.41,1.22-2.39.9-2-.36l.23-.5a1,1,0,0,1,1.78.86l0,0c.82-2.77-3-4.58-4.38-1.88S68.91,185.63,70.7,183.42Z" transform="translate(-8.58 -6.69)"/><path class="cls-9" d="M69.13,182.09l-.23.5c-.38,1.26,1.61,1.58,2,.36A1,1,0,0,0,69.13,182.09Z" transform="translate(-8.58 -6.69)"/><path class="cls-9" d="M88.46,208.09l-.23.5c-.38,1.26,1.61,1.58,2,.36A1,1,0,0,0,88.46,208.09Z" transform="translate(-8.58 -6.69)"/><path class="cls-9" d="M85.88,207c-1.37,2.75,2.36,4.58,4.15,2.38a1,1,0,0,0,.21-.47c-.41,1.22-2.39.9-2-.36l.23-.5a1,1,0,0,1,1.78.86l0,0C91.08,206.14,87.22,204.34,85.88,207Z" transform="translate(-8.58 -6.69)"/><path class="cls-9" d="M23.79,87.42l-.23.5c-.38,1.26,1.61,1.58,2,.36A1,1,0,0,0,23.79,87.42Z" transform="translate(-8.58 -6.69)"/><path class="cls-9" d="M21.21,86.37c-1.37,2.75,2.36,4.58,4.15,2.38a1,1,0,0,0,.21-.47c-.41,1.22-2.39.9-2-.36l.23-.5a1,1,0,0,1,1.78.86l0,0C26.42,85.48,22.55,83.68,21.21,86.37Z" transform="translate(-8.58 -6.69)"/><path class="cls-9" d="M67.13,106.76l-.23.5c-.38,1.26,1.61,1.58,2,.36A1,1,0,0,0,67.13,106.76Z" transform="translate(-8.58 -6.69)"/><path class="cls-9" d="M64.55,105.71c-1.37,2.75,2.36,4.58,4.15,2.38a1,1,0,0,0,.21-.47c-.41,1.22-2.39.9-2-.36l.23-.5a1,1,0,0,1,1.78.86l0,0C69.75,104.81,65.89,103,64.55,105.71Z" transform="translate(-8.58 -6.69)"/><path class="cls-9" d="M77.13,120.76l-.23.5c-.38,1.26,1.61,1.58,2,.36A1,1,0,0,0,77.13,120.76Z" transform="translate(-8.58 -6.69)"/><path class="cls-9" d="M74.55,119.71c-1.37,2.75,2.36,4.58,4.15,2.38a1,1,0,0,0,.21-.47c-.41,1.22-2.39.9-2-.36l.23-.5a1,1,0,0,1,1.78.86l0,0C79.75,118.81,75.89,117,74.55,119.71Z" transform="translate(-8.58 -6.69)"/><path class="cls-9" d="M69.88,134.38c-1.37,2.75,2.36,4.58,4.15,2.38a1,1,0,0,0,.21-.47c-.41,1.22-2.39.9-2-.36l.23-.5a1,1,0,0,1,1.78.86l0,0C75.09,133.48,71.22,131.68,69.88,134.38Z" transform="translate(-8.58 -6.69)"/><path class="cls-9" d="M72.46,135.42l-.23.5c-.38,1.26,1.61,1.58,2,.36A1,1,0,0,0,72.46,135.42Z" transform="translate(-8.58 -6.69)"/><path d="M208.46,125.44c-3.29-.46-8.07,3.67-10.59,5.1L178,141.73c-5.38,3-15,6.85-6.7,12.71,9.78,6.93,20.78,12.6,31.22,18.64q.6-.87,1.18-1.75L177,155.39c-3.7-2.2-8.86-4-4.56-8.12,4.1-3.92,11.47-6.48,16.42-9.28s10.59-7.34,16.05-9.07c6.1-1.93,5.1,2.89,5.08,7.7q-.05,10.53-.1,21c0,.52.08,1.49.16,2.68q1.2-2.4,2.28-4.87c-.17-2.13-.33-3.9-.33-5C212,146.21,215.5,126.43,208.46,125.44Z" transform="translate(-8.58 -6.69)"/><path d="M203.25,137.93c2.71,1.29,4.37-2.18,2.54-4a1.11,1.11,0,0,1-1.24,1.56l-.24-.12a1.09,1.09,0,0,1,.44-1.92C202.21,133.24,200.53,136.63,203.25,137.93Z" transform="translate(-8.58 -6.69)"/><path d="M204.31,135.34l.24.12a1.11,1.11,0,0,0,1.24-1.56,2.79,2.79,0,0,0-.33-.29l0,0a.94.94,0,0,0-.21-.1,2.85,2.85,0,0,0-.47-.07A1.09,1.09,0,0,0,204.31,135.34Z" transform="translate(-8.58 -6.69)"/><path d="M205.43,133.59a.91.91,0,0,0-.68-.17,2.85,2.85,0,0,1,.47.07A.94.94,0,0,1,205.43,133.59Z" transform="translate(-8.58 -6.69)"/><path d="M205.79,133.9a.82.82,0,0,0-.36-.31l0,0A2.79,2.79,0,0,1,205.79,133.9Z" transform="translate(-8.58 -6.69)"/><path d="M197.25,136.49a.91.91,0,0,0-.67-.16,2.87,2.87,0,0,1,.47.07A1,1,0,0,1,197.25,136.49Z" transform="translate(-8.58 -6.69)"/><path d="M197.63,136.81a.82.82,0,0,0-.37-.32l0,0A2.88,2.88,0,0,1,197.63,136.81Z" transform="translate(-8.58 -6.69)"/><path d="M195.09,140.83c2.71,1.29,4.37-2.18,2.54-4a1.11,1.11,0,0,1-1.25,1.56l-.24-.12a1.09,1.09,0,0,1,.44-1.92C194,136.14,192.36,139.53,195.09,140.83Z" transform="translate(-8.58 -6.69)"/><path d="M196.14,138.25l.24.12a1.11,1.11,0,0,0,1.25-1.56,2.88,2.88,0,0,0-.33-.3l0,0a1,1,0,0,0-.2-.09,2.87,2.87,0,0,0-.47-.07A1.09,1.09,0,0,0,196.14,138.25Z" transform="translate(-8.58 -6.69)"/><path d="M175,149.6l30.09,19.68c.37-.59.73-1.18,1.09-1.78l-30-19.64A1,1,0,0,0,175,149.6Z" transform="translate(-8.58 -6.69)"/><path d="M190.43,144.11c5.55,4.1,13.31,5.16,18.21-.56.87-1-.87-2.16-1.73-1.15-3.75,4.38-10.57,3.49-15.33,0C190.5,141.57,189.35,143.31,190.43,144.11Z" transform="translate(-8.58 -6.69)"/><path d="M57.13,115.28l.42.57.48-.05a1.12,1.12,0,0,0,.91-1.55h0C58.13,113.18,56.32,114.21,57.13,115.28Z" transform="translate(-8.58 -6.69)"/><path d="M56.3,150c-4.19,1.79-4.66,4.43,0,0Z" transform="translate(-8.58 -6.69)"/><path d="M33,143.71c.33,2.59,1.43-.24,1-2.53a12,12,0,0,0-.74-2.31A18.07,18.07,0,0,0,33,143.71Z" transform="translate(-8.58 -6.69)"/><path d="M39.15,181.06c8.58.49,19.2-1,27-4.7,7.35-3.49,21.7-16.23,12.81-24-4.69-4.11-14-4.43-19.69-3.3a15.1,15.1,0,0,0-3,.91c-4.66,4.43-4.19,1.79,0,0l.4-.38c10.56-10.32,10.86-24.08,2.24-35.33a1.12,1.12,0,0,1-.91,1.55l-.48.05c9.17,12.53,4.93,26.43-6.45,36.37-.9.79.26,2.23,1.26,1.64,5.06-3,14.17-5.12,19.63-2.18,13.46,7.23,2.19,18.14-5.4,22.23-9.93,5.35-24.66,6.29-35.34,3.87a1,1,0,0,1-.5.19c.65.85,1.32,1.69,2,2.51C34.62,180.29,36.86,180.93,39.15,181.06Z" transform="translate(-8.58 -6.69)"/><path d="M12.75,129.07c5.41-3.5,8.08-.13,12.66,4.1,3.89,3.6,6.55,6.95,7.62,12.22a1,1,0,0,0,2-.28c-.37-15.05,6.67-27.65,22.47-29.27l-.42-.57c-.82-1.06,1-2.1,1.8-1.05h0a.84.84,0,0,0-.91-.53C44.57,114.88,36,122.5,33.68,136c-.15.9-.33,1.86-.48,2.83a12,12,0,0,1,.74,2.31c.47,2.29-.63,5.12-1,2.53a18.07,18.07,0,0,1,.22-4.84c-2.39-5.59-8.91-10.92-13.92-13-4.59-1.89-7.69-1.06-9.76,1.24q.28,2.13.65,4.24A9.73,9.73,0,0,1,12.75,129.07Z" transform="translate(-8.58 -6.69)"/><path d="M31.53,176.76a1.43,1.43,0,0,0,.23-.13c.49-.34,1-2.28,1.22-2.78l.46-1.05a16.57,16.57,0,0,0-2.09,1.68C31.42,175.25,31.48,176,31.53,176.76Z" transform="translate(-8.58 -6.69)"/><path d="M33.45,172.8l13.62-30.91c.53-1.21-1.26-2.28-1.8-1.05L31.21,172.75c.05.58.1,1.16.15,1.72A16.57,16.57,0,0,1,33.45,172.8Z" transform="translate(-8.58 -6.69)"/><path d="M64.47,162.11c1.34,0,1.34-2.13,0-2.08-10,.35-19.06,4.55-27.12,10.23-.71.5-2.39,1.48-3.9,2.55L33,173.85c-.22.51-.73,2.44-1.22,2.78a1.43,1.43,0,0,1-.23.13v.17a.85.85,0,0,1-.39.82l.09,0a1,1,0,0,0,.13-.08C40.39,169.42,52,162.54,64.47,162.11Z" transform="translate(-8.58 -6.69)"/><path d="M30.71,177.9l0,.05a1,1,0,0,0,.5-.19l-.09,0A1,1,0,0,1,30.71,177.9Z" transform="translate(-8.58 -6.69)"/><path d="M29.63,176.33l1.57-3.58c-1-10.92-3.36-24.06-11.38-31.27-1-.89-2.47.57-1.47,1.47,8.38,7.54,10.26,22.37,11.05,33.24l.19.26S29.62,176.37,29.63,176.33Z" transform="translate(-8.58 -6.69)"/><path d="M30.51,175.66c-.36,1.18.4,1.38,1,1.1-.05-.74-.11-1.51-.17-2.28A3.19,3.19,0,0,0,30.51,175.66Z" transform="translate(-8.58 -6.69)"/><path d="M29.6,176.45c.32.42.64.84,1,1.26a1.18,1.18,0,0,1,.44,0l.16,0a.85.85,0,0,0,.39-.82v-.17c-.62.27-1.38.08-1-1.1a3.19,3.19,0,0,1,.85-1.18c0-.57-.1-1.14-.15-1.72l-1.57,3.58S29.61,176.41,29.6,176.45Z" transform="translate(-8.58 -6.69)"/><path d="M30.56,177.71l.15.2a1,1,0,0,0,.45-.16l-.16,0A1.18,1.18,0,0,0,30.56,177.71Z" transform="translate(-8.58 -6.69)"/><path class="cls-9" d="M132,10.72h0c-.64-1.17,1.13-2.27,1.77-1.09a3.66,3.66,0,0,1-.44-1.35l-2.09-.35A5.77,5.77,0,0,0,132,10.72Z" transform="translate(-8.58 -6.69)"/><path class="cls-9" d="M132,10.73a3.25,3.25,0,0,1-5.48,3.49h0c.78,1.09-1,2.17-1.77,1.09,4,5.57,12.33.36,9-5.67C134.37,10.8,132.61,11.9,132,10.73Z" transform="translate(-8.58 -6.69)"/><path class="cls-9" d="M132,10.72h0c.65,1.17,2.41.08,1.77-1.09S131.31,9.55,132,10.72Z" transform="translate(-8.58 -6.69)"/><path class="cls-9" d="M126.47,14.21c-4-5.55-12.32-.35-9,5.68-.64-1.17,1.13-2.27,1.77-1.09a3.25,3.25,0,0,1,5.48-3.49C123.92,14.22,125.69,13.14,126.47,14.21Z" transform="translate(-8.58 -6.69)"/><path class="cls-9" d="M126.48,14.22h0c-.79-1.06-2.55,0-1.77,1.1S127.26,15.3,126.48,14.22Z" transform="translate(-8.58 -6.69)"/><path class="cls-9" d="M117.45,19.89A3.25,3.25,0,0,1,112,23.38c-.78-1.08-2.56,0-1.77,1.09,4,5.56,12.33.36,9-5.67C119.87,20,118.1,21.06,117.45,19.89Z" transform="translate(-8.58 -6.69)"/><path class="cls-9" d="M117.45,19.89c.65,1.18,2.42.08,1.77-1.09S116.81,18.72,117.45,19.89Z" transform="translate(-8.58 -6.69)"/><path class="cls-9" d="M176.74,195.08h0c.42-1.27,2.43-.71,2,.57a3.26,3.26,0,0,1,5-1.71l1.55-1.34A5.31,5.31,0,0,0,176.74,195.08Z" transform="translate(-8.58 -6.69)"/><path class="cls-9" d="M176.74,195.09a3.25,3.25,0,0,1-6.28-1.66c-.27,1.31-2.27.74-2-.57-1.36,6.73,8.1,9.31,10.29,2.79C178.32,196.91,176.32,196.35,176.74,195.09Z" transform="translate(-8.58 -6.69)"/><path class="cls-9" d="M176.74,195.08h0c-.41,1.27,1.58,1.82,2,.56S177.17,193.81,176.74,195.08Z" transform="translate(-8.58 -6.69)"/><path class="cls-9" d="M170.46,193.42c1.36-6.73-8.1-9.31-10.29-2.79.43-1.27,2.43-.71,2,.56a3.25,3.25,0,0,1,6.28,1.65C168.72,191.54,170.72,192.12,170.46,193.42Z" transform="translate(-8.58 -6.69)"/><path class="cls-9" d="M170.46,193.42c.27-1.31-1.74-1.88-2-.57S170.19,194.74,170.46,193.42Z" transform="translate(-8.58 -6.69)"/><path class="cls-9" d="M160.17,190.64a3.25,3.25,0,0,1-6.28-1.65c.26-1.31-1.74-1.88-2-.57-1.36,6.73,8.1,9.31,10.29,2.79C161.75,192.47,159.74,191.91,160.17,190.64Z" transform="translate(-8.58 -6.69)"/><path class="cls-9" d="M160.17,190.64c-.42,1.27,1.58,1.83,2,.56S160.59,189.37,160.17,190.64Z" transform="translate(-8.58 -6.69)"/><path class="cls-9" d="M217.13,117.42c-.27,1.31-2.27.74-2-.57a5.31,5.31,0,0,0,5.55,6.55c.07-.69.13-1.38.18-2.07A3.21,3.21,0,0,1,217.13,117.42Z" transform="translate(-8.58 -6.69)"/><path class="cls-9" d="M206.84,114.64c.43-1.27,2.43-.71,2,.56a3.25,3.25,0,0,1,6.28,1.65c.26-1.31,2.27-.74,2,.57C218.49,110.69,209,108.11,206.84,114.64Z" transform="translate(-8.58 -6.69)"/><path class="cls-9" d="M215.12,116.86c-.27,1.31,1.74,1.88,2,.57S215.39,115.54,215.12,116.86Z" transform="translate(-8.58 -6.69)"/><path class="cls-9" d="M206.84,114.64a3.25,3.25,0,0,1-6.28-1.65c.26-1.31-1.74-1.88-2-.57-1.36,6.73,8.1,9.31,10.29,2.79C208.41,116.47,206.41,115.91,206.84,114.64Z" transform="translate(-8.58 -6.69)"/><path class="cls-9" d="M206.84,114.64c-.42,1.27,1.58,1.83,2,.56S207.26,113.37,206.84,114.64Z" transform="translate(-8.58 -6.69)"/><path class="cls-9" d="M53.12,46.76a3.25,3.25,0,0,1,6.28,1.65c-.27,1.31,1.74,1.88,2,.57,1.36-6.73-8.1-9.31-10.29-2.79h0C51.55,44.92,53.55,45.48,53.12,46.76Z" transform="translate(-8.58 -6.69)"/><path class="cls-9" d="M42.84,44c-1.36,6.73,8.1,9.31,10.29,2.79-.42,1.26-2.42.71-2-.56a3.25,3.25,0,0,1-6.28-1.66C44.57,45.85,42.57,45.28,42.84,44Z" transform="translate(-8.58 -6.69)"/><path class="cls-9" d="M53.12,46.76c.43-1.27-1.58-1.83-2-.57h0C50.7,47.47,52.7,48,53.12,46.76Z" transform="translate(-8.58 -6.69)"/><path class="cls-9" d="M36.55,42.32A3.25,3.25,0,0,1,42.84,44c.26-1.31,2.27-.74,2,.57A5.31,5.31,0,0,0,39.57,38q-1.65,1.65-3.22,3.38A.89.89,0,0,1,36.55,42.32Z" transform="translate(-8.58 -6.69)"/><path class="cls-9" d="M42.84,44c-.27,1.31,1.74,1.88,2,.57S43.1,42.66,42.84,44Z" transform="translate(-8.58 -6.69)"/><path class="cls-9" d="M36.55,42.32a1.07,1.07,0,0,1-1.57.57Q33.63,44.43,32.33,46A5.19,5.19,0,0,0,36.55,42.32Z" transform="translate(-8.58 -6.69)"/><path class="cls-9" d="M36.35,41.36c-.46.5-.91,1-1.36,1.53a1.07,1.07,0,0,0,1.57-.57A.89.89,0,0,0,36.35,41.36Z" transform="translate(-8.58 -6.69)"/><path class="cls-9" d="M120.51,196.5a3.25,3.25,0,0,1,3.29-5.6c1.19.61,2.28-1.17,1.09-1.78-6.11-3.13-11.15,5.28-5.46,9.15h0C118.32,197.52,119.4,195.74,120.51,196.5Z" transform="translate(-8.58 -6.69)"/><path class="cls-9" d="M115,205.65c6.11,3.13,11.15-5.28,5.46-9.15,1.1.75,0,2.51-1.07,1.79a3.25,3.25,0,0,1-3.31,5.59C117.33,204.48,116.24,206.26,115,205.65Z" transform="translate(-8.58 -6.69)"/><path class="cls-9" d="M120.51,196.5c-1.11-.76-2.19,1-1.08,1.77h0C120.55,199,121.61,197.24,120.51,196.5Z" transform="translate(-8.58 -6.69)"/><path class="cls-9" d="M111.76,211.25a3.25,3.25,0,0,1,3.29-5.6c-1.19-.61-.1-2.38,1.09-1.78-6.11-3.13-11.15,5.28-5.46,9.15C109.57,212.28,110.65,210.49,111.76,211.25Z" transform="translate(-8.58 -6.69)"/><path class="cls-9" d="M115,205.65c1.19.61,2.28-1.16,1.09-1.78S113.86,205,115,205.65Z" transform="translate(-8.58 -6.69)"/><path class="cls-9" d="M111.76,211.25c1.1.75,0,2.53-1.09,1.78a3.25,3.25,0,0,1-3.29,5.6,1,1,0,0,0-1.32.3q3.37.28,6.8.34A5.24,5.24,0,0,0,111.76,211.25Z" transform="translate(-8.58 -6.69)"/><path class="cls-9" d="M111.76,211.25c-1.11-.76-2.19,1-1.09,1.78S112.86,212,111.76,211.25Z" transform="translate(-8.58 -6.69)"/><path class="cls-9" d="M23.46,110a3.25,3.25,0,0,1,4.48,4.71c-.91,1,.49,2.51,1.41,1.54,4.7-5-2-12.18-7.29-7.78h0C23.08,107.64,24.49,109.17,23.46,110Z" transform="translate(-8.58 -6.69)"/><path class="cls-9" d="M16.17,102.26c-4.7,5,2,12.18,7.29,7.78-1,.85-2.43-.66-1.42-1.52a3.25,3.25,0,0,1-4.46-4.72C16.66,104.77,15.26,103.23,16.17,102.26Z" transform="translate(-8.58 -6.69)"/><path class="cls-9" d="M23.46,110c1-.86-.38-2.39-1.41-1.53h0C21,109.37,22.44,110.88,23.46,110Z" transform="translate(-8.58 -6.69)"/><path class="cls-9" d="M11.69,97.55a3.25,3.25,0,0,1,4.48,4.71c.92-1,2.32.56,1.41,1.54,4.69-5-2-12.18-7.29-7.78C11.31,95.16,12.73,96.69,11.69,97.55Z" transform="translate(-8.58 -6.69)"/><path class="cls-9" d="M16.17,102.26c-.91,1,.49,2.51,1.41,1.54S17.09,101.28,16.17,102.26Z" transform="translate(-8.58 -6.69)"/><path class="cls-9" d="M10.29,96a3.93,3.93,0,0,1-.39.27q-.19,1.21-.35,2.43a5.93,5.93,0,0,0,2.15-1.17C10.67,98.4,9.25,96.88,10.29,96Z" transform="translate(-8.58 -6.69)"/><path class="cls-9" d="M11.69,97.55c1-.86-.38-2.39-1.41-1.53S10.67,98.4,11.69,97.55Z" transform="translate(-8.58 -6.69)"/><path d="M151.51,202.83l3.47,8.64,1.91-.8-3.36-8.37C153,201.07,151,201.59,151.51,202.83Z" transform="translate(-8.58 -6.69)"/><path d="M140.9,206.23c-.9-1-2.37.48-1.47,1.47l6.38,7,2-.64a1,1,0,0,0-.25-.48Z" transform="translate(-8.58 -6.69)"/><path d="M134.49,211.21l5.43,5.11q1.2-.29,2.39-.61l-6.34-6C135,208.82,133.51,210.29,134.49,211.21Z" transform="translate(-8.58 -6.69)"/><path d="M130.53,217.1l1.23.86q1.46-.23,2.9-.51l-3.11-2.16C130.46,214.52,129.43,216.33,130.53,217.1Z" transform="translate(-8.58 -6.69)"/><path d="M146.94,203.81c-.69-1.14-2.51-.12-1.81,1l5.11,8.42,2-.71a1.16,1.16,0,0,0-.11-.23Z" transform="translate(-8.58 -6.69)"/><path d="M160,55.89l7.74-6.25c1-.83-.05-2.61-1.09-1.77l-7.74,6.25C157.89,54.95,159,56.73,160,55.89Z" transform="translate(-8.58 -6.69)"/><path d="M155.22,47.27l5.08-8.55c.69-1.15-1.16-2.13-1.84-1l-5.08,8.56C152.7,47.45,154.54,48.43,155.22,47.27Z" transform="translate(-8.58 -6.69)"/><path d="M151.1,44l4.4-8.93c.59-1.2-1.25-2.18-1.84-1L149.26,43C148.67,44.18,150.5,45.16,151.1,44Z" transform="translate(-8.58 -6.69)"/><path d="M145.86,41.91l3-9.47c.41-1.27-1.62-1.72-2-.45l-3,9.47C143.42,42.73,145.46,43.18,145.86,41.91Z" transform="translate(-8.58 -6.69)"/><path d="M157.76,51.21l6.62-7.43c.89-1-.62-2.43-1.51-1.43l-6.62,7.42C155.36,50.78,156.87,52.21,157.76,51.21Z" transform="translate(-8.58 -6.69)"/><path d="M99,58a.46.46,0,0,0,.38,0l.05,0a1.4,1.4,0,0,1,.1-.18v0a.57.57,0,0,1-.25.16Z" transform="translate(-8.58 -6.69)"/><path d="M98.78,57.47l0,0v0a.49.49,0,0,0,.1.3l.42-.12a.31.31,0,0,0,.24-.36.49.49,0,0,0-.36-.14A.44.44,0,0,0,98.78,57.47Z" transform="translate(-8.58 -6.69)"/><path d="M99.15,57.06a.68.68,0,0,1,.26.05.43.43,0,0,0-.47-.15l-.3.09a1.13,1.13,0,0,1,.09.21A.62.62,0,0,1,99.15,57.06Z" transform="translate(-8.58 -6.69)"/><path d="M98.62,57.76a1.21,1.21,0,0,1-.11.19l.19-.05A.7.7,0,0,1,98.62,57.76Z" transform="translate(-8.58 -6.69)"/><path d="M98.59,57.47a.73.73,0,0,0-.11-.37L77.8,63.31a.32.32,0,0,0-.23.44.44.44,0,0,0,.56.32l20.15-6C98.38,57.84,98.49,57.66,98.59,57.47Z" transform="translate(-8.58 -6.69)"/><path d="M99.34,58.17a.63.63,0,0,1-.46-.09l0,0-.44.13c-3.49,6.07-8.83,9.29-15.52,9.31-.41,0-10.18,0-10.35-2.94-.11-2.13,6.59-6.36,6.87-6.54a20,20,0,0,1,8.18-2.95c1.3-.16,8.92-.08,10.77,1.61a1.44,1.44,0,0,1,.21.24l.35-.1a.59.59,0,0,1,.59.14,2.45,2.45,0,0,0-.92-1.27C96.5,54.08,91.69,54,88,54.32a23.11,23.11,0,0,0-4.16.68,23,23,0,0,0-8.72,5.27c-.16.16-.37.35-.6.55-1.13,1-2.85,2.54-3,3.66A1.73,1.73,0,0,0,72,65.87c1.79,2.09,8.33,2.4,10.29,2.45C89.68,68.49,95.57,65,99.34,58.17Z" transform="translate(-8.58 -6.69)"/><path d="M84.69,68.41C91.1,67.83,96.22,64.28,99.6,58c.06-.15.06-.1.08-.21a.88.88,0,0,0,.07-.42,2.48,2.48,0,0,0-1.07-1.87c-3.17-2.41-12.49-1.45-14.87-.7A23.21,23.21,0,0,0,75,60.15l-.6.55c-1.16,1-2.9,2.58-3,3.76A1.84,1.84,0,0,0,71.86,66c1.83,2.14,8.43,2.46,10.41,2.5A19.46,19.46,0,0,0,84.69,68.41ZM99.57,57.76a1.4,1.4,0,0,0-.1.18l-.05,0A.46.46,0,0,1,99,58l.29-.08a.57.57,0,0,0,.25-.16Zm-.29,0-.42.12a.49.49,0,0,1-.1-.3v0l0,0a.44.44,0,0,1,.38-.24.49.49,0,0,1,.36.14A.31.31,0,0,1,99.28,57.73ZM77.41,63.8a.63.63,0,0,0,.64.46l.13,0,20-6c-3.45,5.91-8.71,9.06-15.28,9.08-.1,0-10,0-10.18-2.79-.09-1.62,4.41-4.89,6.79-6.38a19.67,19.67,0,0,1,8.11-2.93h.12c1.57-.14,8.76,0,10.52,1.57l.15.17-20.63,6.2A.49.49,0,0,0,77.41,63.8Zm.72.27a.44.44,0,0,1-.56-.32.32.32,0,0,1,.23-.44L98.48,57.1a.73.73,0,0,1,.11.37c-.1.19-.21.37-.31.56Zm20.49-6.31a.7.7,0,0,0,.08.14l-.19.05A1.21,1.21,0,0,0,98.62,57.76Zm0-.71.3-.09a.43.43,0,0,1,.47.15.68.68,0,0,0-.26-.05.62.62,0,0,0-.42.2A1.13,1.13,0,0,0,98.64,57.05ZM71.55,64.48c.15-1.12,1.87-2.65,3-3.66.23-.2.44-.39.6-.55A23,23,0,0,1,83.87,55,23.11,23.11,0,0,1,88,54.32c3.66-.33,8.47-.24,10.54,1.35a2.45,2.45,0,0,1,.92,1.27.59.59,0,0,0-.59-.14l-.35.1a1.44,1.44,0,0,0-.21-.24c-1.85-1.69-9.47-1.77-10.77-1.61A20,20,0,0,0,79.39,58c-.28.18-7,4.41-6.87,6.54.17,2.94,9.94,2.95,10.35,2.94,6.69,0,12-3.24,15.52-9.31l.44-.13,0,0a.63.63,0,0,0,.46.09C95.57,65,89.68,68.49,82.27,68.32c-2,0-8.5-.36-10.29-2.45A1.73,1.73,0,0,1,71.55,64.48Z" transform="translate(-8.58 -6.69)"/><path d="M214.52,85.31a20.43,20.43,0,0,0,2.63,1.48,21.59,21.59,0,0,0-1.55-2.49C215.24,84.63,214.87,85,214.52,85.31Z" transform="translate(-8.58 -6.69)"/><path d="M215.46,84.16c-.66-.44-1.6.27-1.07,1a.91.91,0,0,1,.11.16l0,0c.35-.34.72-.68,1.08-1a21.59,21.59,0,0,1,1.55,2.49c.29.14.57.27.87.39q-.23-.93-.48-1.85A19.26,19.26,0,0,1,215.46,84.16Z" transform="translate(-8.58 -6.69)"/><path d="M207,90.52a1.92,1.92,0,0,1,0,.86l.91-.43Z" transform="translate(-8.58 -6.69)"/><path d="M205.05,69l-.22-.27c0,.12-.06.25-.1.37S205,68.87,205.05,69Z" transform="translate(-8.58 -6.69)"/><path d="M199.3,48.43c-.09.29-.18.58-.26.87a1.66,1.66,0,0,1,.65-.22A2,2,0,0,1,199.3,48.43Z" transform="translate(-8.58 -6.69)"/><path d="M197.89,48.55l.44.5c.13.16.27.33.39.5l.32-.25c.08-.29.17-.58.26-.87a2,2,0,0,0,.39.65h.13l-1-1.28a2.7,2.7,0,0,0-.66.3A.64.64,0,0,0,197.89,48.55Z" transform="translate(-8.58 -6.69)"/><path d="M210.85,71.77c-.08,1.18-.42,3.5.81,4.27a1.83,1.83,0,0,0,2.48-.81s0-.1.07-.14q-.39-1-.81-2c-.12.79-.33,1.43-.7,1.63s-.34-2.36-.28-4q-.7-1.62-1.46-3.22Q211,69.63,210.85,71.77Z" transform="translate(-8.58 -6.69)"/><path d="M197.91,49c.19.71.73,1,1.22,1.53a11.1,11.1,0,0,1,1.08,1.38,18.56,18.56,0,0,0-1.49-2.32c-.12-.17-.26-.34-.39-.5l-.44-.5A.82.82,0,0,0,197.91,49Z" transform="translate(-8.58 -6.69)"/><path d="M197.31,76.52a3.8,3.8,0,0,1-.45.13l.41.21C197.18,76.82,197.49,76.46,197.31,76.52Z" transform="translate(-8.58 -6.69)"/><path d="M214.5,85.33a18.33,18.33,0,0,1,2.24,4.3c1.14,3.14.69,5.5-2,7.54a17,17,0,0,1-7.28,3.52c-3.84.64-7.36-.87-10.45-3a3.48,3.48,0,0,0-.72,0,.78.78,0,0,1-1.07.54c3.42,2.55,7.42,4.52,11.81,4a18.26,18.26,0,0,0,9-4.18c3.83-3,3.16-7.47,1.14-11.29a20.43,20.43,0,0,1-2.63-1.48Z" transform="translate(-8.58 -6.69)"/><path d="M195,96.6a.6.6,0,0,0-.18.21c.53-.16,1.06-.36,1.59-.58A2.36,2.36,0,0,0,195,96.6Z" transform="translate(-8.58 -6.69)"/><path d="M196.28,97.31a.66.66,0,0,1,0,.39,3.48,3.48,0,0,1,.72,0l-.8-.59Z" transform="translate(-8.58 -6.69)"/><path d="M196.28,97.31l-.06-.2-.09-.06c-.07.25-.15.51-.23.76a.73.73,0,0,1,.4-.11A.66.66,0,0,0,196.28,97.31Z" transform="translate(-8.58 -6.69)"/><path d="M196.16,96.94l0,.11.09.06Z" transform="translate(-8.58 -6.69)"/><path d="M196.3,97.7a.73.73,0,0,0-.4.11c.08-.25.16-.51.23-.76l-.07,0a.78.78,0,0,0-1.24.62h0c0,.07,0,.14.07.21a.71.71,0,0,0,.11.21l.11.1.12.09A.78.78,0,0,0,196.3,97.7Z" transform="translate(-8.58 -6.69)"/><path d="M195,98.05a.46.46,0,0,0,.23.19l-.12-.09Z" transform="translate(-8.58 -6.69)"/><path d="M194.82,97.63a.68.68,0,0,0,.18.42.71.71,0,0,1-.11-.21C194.87,97.77,194.84,97.7,194.82,97.63Z" transform="translate(-8.58 -6.69)"/><path d="M193.26,61l.91,0A10.12,10.12,0,0,1,193,60C193,60.38,193,61.13,193.26,61Z" transform="translate(-8.58 -6.69)"/><path d="M194.63,61a6.15,6.15,0,0,0-.11-1c-.51-3-2.45-6.16-4.12-8.66-.2-.3-1.63-1.71-1.64-2,0,.16.65-.15,1.06-.28a13.28,13.28,0,0,1,3.7-.68c3.65-.13,5.33,3.84,6.57,6.74a27.73,27.73,0,0,1,1.8,5.56c.41,2,.29,4,.61,6,.2,1.24.6,3.25,2,3.7,2,.65,2-2.56,1.94-3.75a35.75,35.75,0,0,0-3.12-12.1c-.25-.56-.51-1.11-.8-1.66q-1.06-1.54-2.17-3a8,8,0,0,1-.66-.71,1.66,1.66,0,0,0-.65.22l-.32.25a18.56,18.56,0,0,1,1.49,2.32s0,0,0,0,0,0,0,0a11.1,11.1,0,0,0-1.08-1.38c-.49-.53-1-.82-1.22-1.53a.82.82,0,0,1,0-.41,5.43,5.43,0,0,0-4.51-1.68c-1.39.06-5.65.39-6.17,2.12a1,1,0,0,0,.11.87c.18.29.47.53.7.83a25.47,25.47,0,0,1,2.4,3.58A24.55,24.55,0,0,1,193,59.81l0,.15a10.12,10.12,0,0,0,1.19,1Zm6.53-7.61a36.16,36.16,0,0,1,3.58,11.29,10.61,10.61,0,0,1,.09,4l.22.27c-.08-.09-.37.27-.32.1s.07-.25.1-.37a4.64,4.64,0,0,1-.85-2.18c-.55-3.29-.5-6.4-1.59-9.62a31.16,31.16,0,0,0-2.14-5C200.58,52.41,200.88,52.92,201.16,53.43Z" transform="translate(-8.58 -6.69)"/><path d="M187.93,66.16c.23-.43-.21-.07-.68-.17l-.38-.08A11.89,11.89,0,0,1,188.13,67C188.07,66.75,188,66.45,187.93,66.16Z" transform="translate(-8.58 -6.69)"/><path d="M185.62,50.32c.61-.11-.15-.41,0,0Z" transform="translate(-8.58 -6.69)"/><path d="M183,85.83c-.16-.2-.35-.52-.58-.78h0l0,0c-.09-.08-.13-.11-.06.06-.27.33-.54.67-.82,1a.66.66,0,0,0-.28,0,5.27,5.27,0,0,0,3.09,1.44Z" transform="translate(-8.58 -6.69)"/><path d="M196.06,97l.07,0,0-.11.06.17.8.59c.39,0,.77.07,1,.07a21.16,21.16,0,0,0,3-.23A9.35,9.35,0,0,0,205.16,96c1.82-1.36,3.87-3.62,3.18-6a.74.74,0,0,0-1-.43q-3.24,1.56-6.53,3c-1.63.72-3.27,1.42-4.94,2.05-1,.4-2.76,1.33-3.9,1.18-1-.14-2-1.52-2.6-2.19-1.24-1.34-2.4-2.76-3.55-4.18l-1.53-1.93h0a5.27,5.27,0,0,1-3.09-1.44c-.11,0,.28.28.57.64l1.25,1.59c1.16,1.47,2.33,2.94,3.55,4.37s3.24,4.58,5.45,4.63a8.63,8.63,0,0,0,2.8-.48.6.6,0,0,1,.18-.21,2.36,2.36,0,0,1,1.41-.37c1.6-.66,3.16-1.49,4.47-2.06,2-.9,4.08-1.82,6.09-2.79a1.92,1.92,0,0,0,0-.86l1,.43-.91.43c-.27,2-3.15,3.93-4.73,4.38a17.33,17.33,0,0,1-4.42.53c-.47,0-.95-.05-1.41-.06-.53.22-1.06.42-1.59.58a.77.77,0,0,0-.08.66c0,.05,0,.1,0,.15A.78.78,0,0,1,196.06,97Z" transform="translate(-8.58 -6.69)"/><path d="M181.51,86.07c.28-.33.55-.67.82-1-.07-.17,0-.14.06-.06a1.06,1.06,0,0,0-.62-.41.76.76,0,0,0-.83,1,2.38,2.38,0,0,0,.29.46A.66.66,0,0,1,181.51,86.07Z" transform="translate(-8.58 -6.69)"/><path d="M177.13,72.78A17.93,17.93,0,0,0,179.54,74a11,11,0,0,1-1.43-.89c-.6-.43-.94-.91-1.7-1a.63.63,0,0,0-.36,0,9.29,9.29,0,0,0,.83.55A2.06,2.06,0,0,0,177.13,72.78Z" transform="translate(-8.58 -6.69)"/><path class="cls-10" d="M200.36,49.8l-.54-.72h-.12A8,8,0,0,0,200.36,49.8Z" transform="translate(-8.58 -6.69)"/><path class="cls-10" d="M203.33,54.5a35.75,35.75,0,0,1,3.12,12.1c.06,1.19.1,4.4-1.94,3.75-1.41-.45-1.81-2.46-2-3.7-.32-2-.2-4-.61-6a27.73,27.73,0,0,0-1.8-5.56c-1.24-2.9-2.92-6.87-6.57-6.74a13.28,13.28,0,0,0-3.7.68c-.41.13-1.06.44-1.06.28,0,.33,1.44,1.74,1.64,2,1.67,2.5,3.61,5.65,4.12,8.66a6.15,6.15,0,0,1,.11,1,1.34,1.34,0,0,1-.5,1.15.77.77,0,0,1-.91,0,14,14,0,0,1-4.25-5c-.65-1.4-1.1-2.87-1.79-4.25a11.26,11.26,0,0,0-1.31-2.22,1.4,1.4,0,0,1-.25-.37h0c-.68.09-1.65,1-2.27,1.31a9.41,9.41,0,0,1-2.45.92c-1.78.33-2.82-.91-4.26-1.65.32,1.46,1.69,2.54,1.46,4.3a12,12,0,0,1-.83,2.74c-.11.28-1,1.73-.93,2,0,0,2.72,1,3.34,1.22,1.53.54,3.18.77,4.69,1.39a14.92,14.92,0,0,1,4.73,3.33.77.77,0,0,1,.21.89c-.62,1.14-2.58.68-3.53.47a27.14,27.14,0,0,1-6.71-2.45,27.13,27.13,0,0,1-3.23-2.42,13.11,13.11,0,0,0-.42,5.45A4.11,4.11,0,0,0,178,71.54a26.72,26.72,0,0,0,10.09,3.07c2.89.33,6.28-.73,9.06.39.72.28,1.76.93,1.64,1.87-.25,2-4.7,1.68-5.88,1.63a40,40,0,0,1-11-2,18.69,18.69,0,0,1-3.79-1.71c-.35-.22-.83-.7-1.28-1-.09,1.59,1,4.31,1.44,5.44a6.29,6.29,0,0,0,1.33,2.31c1.45,1.34,5.51,1.31,7.72,1.48a66.36,66.36,0,0,0,14.39-.94c1.36-.2,4.07-.43,3.71,1.75a2.44,2.44,0,0,1-1.69,1.72,25,25,0,0,1-5.94,1.18,57.15,57.15,0,0,1-10.42,1,21.1,21.1,0,0,1-3-.29l1.53,1.93c1.15,1.42,2.31,2.84,3.55,4.18.62.67,1.62,2.05,2.6,2.19,1.14.15,2.87-.78,3.9-1.18,1.67-.63,3.31-1.33,4.94-2.05q3.29-1.45,6.53-3a.74.74,0,0,1,1,.43c.69,2.41-1.36,4.67-3.18,6A9.35,9.35,0,0,1,201,97.54a21.16,21.16,0,0,1-3,.23c-.2,0-.58,0-1-.07,3.09,2.12,6.61,3.63,10.45,3a17,17,0,0,0,7.28-3.52c2.68-2,3.13-4.4,2-7.54a18.33,18.33,0,0,0-2.24-4.3.91.91,0,0,0-.11-.16c-.53-.74.41-1.45,1.07-1a19.26,19.26,0,0,0,2.07,1.16,105.5,105.5,0,0,0-3.32-10.24s0,.1-.07.14a1.83,1.83,0,0,1-2.48.81c-1.23-.77-.89-3.09-.81-4.27q.14-2.14.12-4.28a106.22,106.22,0,0,0-8.44-14.65C202.82,53.39,203.09,53.94,203.33,54.5Z" transform="translate(-8.58 -6.69)"/><path d="M176.16,73.52a1.57,1.57,0,0,1,.63.3,1.79,1.79,0,0,1,.17-.73Z" transform="translate(-8.58 -6.69)"/><path d="M176.56,49.93l-.86.61a5.3,5.3,0,0,1,.92.36A2.63,2.63,0,0,1,176.56,49.93Z" transform="translate(-8.58 -6.69)"/><path d="M184.32,87.5h0a21.1,21.1,0,0,0,3,.29,57.15,57.15,0,0,0,10.42-1,25,25,0,0,0,5.94-1.18,2.44,2.44,0,0,0,1.69-1.72c.36-2.18-2.35-1.95-3.71-1.75a66.36,66.36,0,0,1-14.39.94c-2.21-.17-6.27-.14-7.72-1.48a6.29,6.29,0,0,1-1.33-2.31c-.44-1.13-1.53-3.85-1.44-5.44a1.57,1.57,0,0,0-.63-.3l.8-.43.17-.31a2.06,2.06,0,0,1-.25-.14,9.29,9.29,0,0,1-.83-.55.78.78,0,0,0-.44.38c-1,1.9.72,6.43,1.66,8.31a5.28,5.28,0,0,0,2.14,2.5c2.6,1.28,6.64,1.23,9.5,1.35a51,51,0,0,0,10-.52c.6-.09,5.2-.91,5-.32-.47,1.21-5.23,1.35-6.21,1.49-4,.58-8.15,1.49-12.16.86a15.62,15.62,0,0,1-2.64-.81,1.4,1.4,0,0,1-.38-.28c.23.26.42.58.58.78Z" transform="translate(-8.58 -6.69)"/><path d="M175.85,60.64a11.8,11.8,0,0,1,1.75,1.49c1.14.43,2.35.71,3,.9a17.75,17.75,0,0,1,6.27,2.88l.38.08c.47.1.91-.26.68.17.07.29.14.59.2.88a11.89,11.89,0,0,0-1.26-1.13,26.28,26.28,0,0,1-3.53-.93,21.58,21.58,0,0,1-5.26-2.46,4.59,4.59,0,0,1-.48-.39,8.22,8.22,0,0,1-1.43-.67l0,.34a2.64,2.64,0,0,0-.3.58,27.13,27.13,0,0,0,3.23,2.42,27.14,27.14,0,0,0,6.71,2.45c1,.21,2.91.67,3.53-.47a.77.77,0,0,0-.21-.89,14.92,14.92,0,0,0-4.73-3.33c-1.51-.62-3.16-.85-4.69-1.39-.62-.21-3.35-1.23-3.34-1.22-.08-.28.82-1.73.93-2a12,12,0,0,0,.83-2.74c.23-1.76-1.14-2.84-1.46-4.3a5.3,5.3,0,0,0-.92-.36l-.6.07c.24,1.85,1.77,3.21,1.37,5-.27,1.21-1.88,3.24-1.55,4.48a1.55,1.55,0,0,0,.28.54A.74.74,0,0,1,175.85,60.64Z" transform="translate(-8.58 -6.69)"/><path d="M176.56,49.93a2.63,2.63,0,0,0,.06,1c1.44.74,2.48,2,4.26,1.65a9.41,9.41,0,0,0,2.45-.92c.62-.31,1.59-1.22,2.27-1.31h0c-.15-.41.61-.11,0,0a1.4,1.4,0,0,0,.25.37,11.26,11.26,0,0,1,1.31,2.22c.69,1.38,1.14,2.85,1.79,4.25a14,14,0,0,0,4.25,5,.77.77,0,0,0,.91,0,1.34,1.34,0,0,0,.5-1.15l-.46,0-.91,0c-.22.15-.22-.6-.28-1a17.83,17.83,0,0,1-3.65-6,20.51,20.51,0,0,0-2-4.13,2.71,2.71,0,0,0-1.46-1.1c-1.17-.23-3,1.47-3.94,1.88-1.58.64-2.17.29-3.58-.58a9.49,9.49,0,0,0-2.36-1,.75.75,0,0,0-.86.61,3.6,3.6,0,0,0,0,.93l.6-.07Z" transform="translate(-8.58 -6.69)"/><path d="M175.23,62l.59.38a2.64,2.64,0,0,1,.3-.58Z" transform="translate(-8.58 -6.69)"/><path d="M176.17,61.46a8.22,8.22,0,0,0,1.43.67,11.8,11.8,0,0,0-1.75-1.49.74.74,0,0,0-.65,0A3.19,3.19,0,0,0,176.17,61.46Z" transform="translate(-8.58 -6.69)"/><path d="M176.41,72.05c.76.11,1.1.59,1.7,1a11,11,0,0,0,1.43.89,17.93,17.93,0,0,1-2.41-1.18l-.17.31a1.79,1.79,0,0,0-.17.73c.45.32.93.8,1.28,1a18.69,18.69,0,0,0,3.79,1.71,40,40,0,0,0,11,2c1.18,0,5.63.42,5.88-1.63.12-.94-.92-1.59-1.64-1.87-2.78-1.12-6.17-.06-9.06-.39A26.72,26.72,0,0,1,178,71.54a4.11,4.11,0,0,1-2.56-3.71,13.11,13.11,0,0,1,.42-5.45l-.59-.38.89-.2,0-.34a3.19,3.19,0,0,1-1-.81.75.75,0,0,0-.23.2c-1.33,1.94-1.32,5.52-1,7.76a4.82,4.82,0,0,0,2.07,3.48A.63.63,0,0,1,176.41,72.05ZM185,75.61a26.94,26.94,0,0,0,4.91.62c1.75,0,3.51-.3,5.27-.12a4.47,4.47,0,0,1,1.72.54,3.8,3.8,0,0,0,.45-.13c.18-.06-.13.3,0,.34l-.41-.21a12.89,12.89,0,0,1-4.69.32,36.08,36.08,0,0,1-11.11-2.3,15.14,15.14,0,0,1-1.41-.66A30.55,30.55,0,0,0,185,75.61Z" transform="translate(-8.58 -6.69)"/><path class="cls-10" d="M152.16,161.53c.83-3.27,1.55-8.1-1.77-10.26-5-3.23-10.95,1.27-12.12,6.08-1.26,5.2.33,11.74.14,17.11q-.15,4-.44,8C144.36,176.91,150.05,169.85,152.16,161.53Zm-4.73.79c1.52-1.82,2.75-4.44,2.25-6.84-.27-1.3,1.71-1.94,2-.62.67,3.18-.65,6.42-2.69,8.86C148.11,164.76,146.58,163.35,147.43,162.32Z" transform="translate(-8.58 -6.69)"/><path d="M149,163.72c2-2.44,3.36-5.68,2.69-8.86-.27-1.32-2.25-.68-2,.62.5,2.4-.73,5-2.25,6.84C146.58,163.35,148.11,164.76,149,163.72Z" transform="translate(-8.58 -6.69)"/><path d="M138,182.48c-.59.52-1.19,1-1.79,1.51a1.11,1.11,0,0,0-.3,1.34,1.19,1.19,0,0,0,1.25.53h0l.14-.1.38-.32a.9.9,0,0,0,.09-.34Z" transform="translate(-8.58 -6.69)"/><path d="M137.15,185.85a.73.73,0,0,0,.52-.42l-.38.32Z" transform="translate(-8.58 -6.69)"/><path d="M135.88,185.33a.89.89,0,0,0,1.25.53A1.19,1.19,0,0,1,135.88,185.33Z" transform="translate(-8.58 -6.69)"/><path d="M147.94,148.54c-7.15-.91-11.9,4.55-12.07,11.39-.22,8.26.56,16.41-.15,24.72a1.06,1.06,0,0,0,.16.68,1.11,1.11,0,0,1,.3-1.34c.6-.49,1.2-1,1.79-1.51q.29-4,.44-8c.19-5.37-1.4-11.91-.14-17.11,1.17-4.81,7.15-9.31,12.12-6.08,3.32,2.16,2.6,7,1.77,10.26-2.11,8.32-7.8,15.38-14.19,21l-.21,2.61a.9.9,0,0,1-.09.34c7.84-6.47,15.38-15.28,17-25.66C155.5,154.25,154,149.31,147.94,148.54Z" transform="translate(-8.58 -6.69)"/><path d="M109.49,185.26a.6.6,0,0,0,.54,0l.08,0a2.33,2.33,0,0,1,.14-.26s0,0,0,0a.74.74,0,0,1-.35.23Z" transform="translate(-8.58 -6.69)"/><path d="M109.13,184.55s0,0,0,.06v.06a.71.71,0,0,0,.14.43l.59-.18a.44.44,0,0,0,.35-.51.75.75,0,0,0-.51-.2A.62.62,0,0,0,109.13,184.55Z" transform="translate(-8.58 -6.69)"/><path d="M109.65,184a1.06,1.06,0,0,1,.37.07.63.63,0,0,0-.67-.21l-.42.13a2.43,2.43,0,0,1,.13.29A.92.92,0,0,1,109.65,184Z" transform="translate(-8.58 -6.69)"/><path d="M108.9,185a1.56,1.56,0,0,1-.16.28l.27-.08A.75.75,0,0,1,108.9,185Z" transform="translate(-8.58 -6.69)"/><path class="cls-10" d="M96.53,8.28A105.6,105.6,0,0,0,61.36,21.14c-.4,5.15,1.3,10.7,6,15.81C87.68,55.49,114.73,27,96.53,8.28Zm-8.27,6.55c3,.83,1.89,5.08-1,4.85h-.14a.2.2,0,0,1-.1,0,.9.9,0,0,1-.29-.1C84.06,18.18,85.22,14,88.25,14.82ZM77.09,23.9a.83.83,0,0,1,.54,0s0,0,0,0c2.93.41,3,4.82-.11,4.94S74.29,24.67,77.09,23.9Zm2.69,9.64c6.25,2.27,11.47-2.27,13.9-7.71.57-1.26,2.42-.19,1.86,1-2.8,6.26-9.16,11.32-16.3,8.73C78,35.14,78.49,33.07,79.78,33.54Z" transform="translate(-8.58 -6.69)"/><path class="cls-10" d="M79.27,192.62l29.29-8.8c-.06-.07-.13-.16-.21-.24-2.5-2.29-12.71-2.43-14.94-2.23h-.17a27.9,27.9,0,0,0-11.51,4.16c-3.38,2.11-9.77,6.76-9.64,9.06.21,4,14.31,4,14.45,4,9.33,0,16.79-4.5,21.69-12.89l-28.35,8.52-.19,0a.88.88,0,0,1-.9-.65A.69.69,0,0,1,79.27,192.62Z" transform="translate(-8.58 -6.69)"/><path d="M87.2,18.6a1.41,1.41,0,0,0,1.07-.11.92.92,0,0,0-.55-.82l-.52-.14a.9.9,0,0,0-.86.39A1.44,1.44,0,0,0,87.2,18.6Z" transform="translate(-8.58 -6.69)"/><path d="M87.2,17.53l.52.14a.92.92,0,0,1,.55.82,1.44,1.44,0,1,0-1.93-.57A.9.9,0,0,1,87.2,17.53Z" transform="translate(-8.58 -6.69)"/><path d="M88.27,18.49a1.41,1.41,0,0,1-1.07.11,1.44,1.44,0,0,1-.86-.68A1.17,1.17,0,0,0,87,19.63a.2.2,0,0,0,.1,0h.11A1.17,1.17,0,0,0,88.27,18.49Z" transform="translate(-8.58 -6.69)"/><path d="M86.67,19.53a.9.9,0,0,0,.29.1,1.17,1.17,0,0,1-.62-1.71,1.42,1.42,0,1,1,1.93.57,1.17,1.17,0,0,1-1.1,1.17h0c2.94.23,4.06-4,1-4.85S84.06,18.18,86.67,19.53Z" transform="translate(-8.58 -6.69)"/><path d="M95.54,26.88c.56-1.24-1.29-2.31-1.86-1-2.43,5.44-7.65,10-13.9,7.71-1.29-.47-1.82,1.6-.54,2.07C86.38,38.2,92.74,33.14,95.54,26.88Z" transform="translate(-8.58 -6.69)"/><path d="M108.86,184.55a1,1,0,0,0-.16-.52l-29.36,8.82a.46.46,0,0,0-.33.62.62.62,0,0,0,.8.45l28.61-8.57C108.56,185.08,108.71,184.82,108.86,184.55Z" transform="translate(-8.58 -6.69)"/><path d="M76.36,25.45a.82.82,0,0,0,.72.51h.55a1,1,0,0,0,.72-.7,1.39,1.39,0,0,0-1-.33A1.43,1.43,0,0,0,76.36,25.45Z" transform="translate(-8.58 -6.69)"/><path d="M67.36,37c-4.71-5.12-6.4-10.67-6-15.81q-1,.57-1.95,1.16a24.63,24.63,0,0,0,6.26,16C65.05,37.33,66.43,36.1,67.36,37Z" transform="translate(-8.58 -6.69)"/><path d="M67.36,37c.86,1-.4,2.33-1.32,1.68,9.14,8,22.76,8.82,31.76-.17A22.85,22.85,0,0,0,99,7.87q-1.26.19-2.5.41C114.73,27,87.68,55.49,67.36,37Z" transform="translate(-8.58 -6.69)"/><path d="M77.63,26h-.55a.82.82,0,0,1-.72-.51,1.41,1.41,0,0,0-.33,1,1.43,1.43,0,1,0,2.85-.2,1.36,1.36,0,0,0-.53-1A1,1,0,0,1,77.63,26Z" transform="translate(-8.58 -6.69)"/><path d="M76.36,25.45a1.43,1.43,0,0,1,1-.52,1.39,1.39,0,0,1,1,.33,1.1,1.1,0,0,0-.69-1.35s0,0,0,0A1.19,1.19,0,0,0,76.36,25.45Z" transform="translate(-8.58 -6.69)"/><path d="M77.66,23.91a1.1,1.1,0,0,1,.69,1.35,1.36,1.36,0,0,1,.53,1,1.43,1.43,0,1,1-2.85.2,1.41,1.41,0,0,1,.33-1,1.19,1.19,0,0,1,1.27-1.55.83.83,0,0,0-.54,0c-2.8.77-2.72,5.06.46,5S80.59,24.32,77.66,23.91Z" transform="translate(-8.58 -6.69)"/><path d="M108.83,182c-2.94-2.26-9.77-2.39-15-1.92a33.09,33.09,0,0,0-5.9,1,32.58,32.58,0,0,0-12.38,7.48c-.23.23-.53.5-.85.78-1.61,1.43-4,3.61-4.26,5.2a2.44,2.44,0,0,0,.61,2c2.54,3,11.82,3.41,14.61,3.48,10.52.24,18.88-4.73,24.23-14.41a.9.9,0,0,1-.65-.13s0,0-.07-.06l-.63.19c-4.95,8.62-12.53,13.19-22,13.22-.58,0-14.45,0-14.7-4.18-.15-3,9.36-9,9.76-9.28a28.43,28.43,0,0,1,11.61-4.19c1.85-.23,12.67-.12,15.29,2.28a2.37,2.37,0,0,1,.3.35l.5-.15a.82.82,0,0,1,.83.2A3.39,3.39,0,0,0,108.83,182Z" transform="translate(-8.58 -6.69)"/><path d="M109,181.81c-4.5-3.42-17.73-2.06-21.11-1a32.94,32.94,0,0,0-12.45,7.54c-.24.23-.52.48-.85.78-1.65,1.45-4.12,3.66-4.33,5.34a2.62,2.62,0,0,0,.67,2.16c2.59,3,12,3.49,14.78,3.55a27.92,27.92,0,0,0,3.43-.1c9.1-.83,16.37-5.87,21.17-14.73.09-.21.09-.14.11-.3a1.07,1.07,0,0,0,.1-.59A3.5,3.5,0,0,0,109,181.81Zm1.27,3.15a2.33,2.33,0,0,0-.14.26l-.08,0a.6.6,0,0,1-.54,0l.42-.11a.74.74,0,0,0,.35-.23S110.25,185,110.25,185Zm-.42,0-.59.18a.71.71,0,0,1-.14-.43v-.06s0,0,0-.06a.62.62,0,0,1,.54-.34.75.75,0,0,1,.51.2A.44.44,0,0,1,109.83,184.92Zm-31,8.62a.88.88,0,0,0,.9.65l.19,0,28.35-8.52c-4.9,8.39-12.36,12.86-21.69,12.89-.14,0-14.24,0-14.45-4-.13-2.3,6.26-6.95,9.64-9.06a27.9,27.9,0,0,1,11.51-4.16h.17c2.23-.2,12.44-.06,14.94,2.23.08.08.15.17.21.24l-29.29,8.8A.69.69,0,0,0,78.79,193.54Zm1,.38a.62.62,0,0,1-.8-.45.46.46,0,0,1,.33-.62L108.7,184a1,1,0,0,1,.16.52c-.15.27-.3.53-.44.8Zm29.09-9a.75.75,0,0,0,.11.2l-.27.08A1.56,1.56,0,0,0,108.9,185Zm0-1,.42-.13a.63.63,0,0,1,.67.21,1.06,1.06,0,0,0-.37-.07.92.92,0,0,0-.59.28A2.43,2.43,0,0,0,108.93,184Zm.37-.36-.5.15a2.37,2.37,0,0,0-.3-.35c-2.62-2.4-13.44-2.51-15.29-2.28a28.43,28.43,0,0,0-11.61,4.19c-.4.25-9.91,6.26-9.76,9.28.25,4.18,14.12,4.19,14.7,4.18,9.5,0,17.08-4.6,22-13.22l.63-.19s0,0,.07.06a.9.9,0,0,0,.65.13c-5.35,9.68-13.71,14.65-24.23,14.41-2.79-.07-12.07-.51-14.61-3.48a2.44,2.44,0,0,1-.61-2c.21-1.59,2.65-3.77,4.26-5.2.32-.28.62-.55.85-.78A32.58,32.58,0,0,1,88,181.05a33.09,33.09,0,0,1,5.9-1c5.2-.47,12-.34,15,1.92a3.39,3.39,0,0,1,1.3,1.8A.82.82,0,0,0,109.3,183.6Z" transform="translate(-8.58 -6.69)"/><path d="M67.36,37c-.93-.85-2.31.38-1.69,1.3l.18.21.17.15,0,0C67,39.28,68.22,37.9,67.36,37Z" transform="translate(-8.58 -6.69)"/><path d="M58.37,85.43l5,2.68a.81.81,0,0,0,.77-1.43l-5-2.68A.81.81,0,0,0,58.37,85.43Z" transform="translate(-8.58 -6.69)"/><path d="M56.37,69.05l2.69-5a.81.81,0,0,0-1.43-.77l-2.68,5A.81.81,0,0,0,56.37,69.05Z" transform="translate(-8.58 -6.69)"/><path d="M50.77,74.69l.5.36a.75.75,0,0,1,.17.46.79.79,0,1,0-1-1.14.65.65,0,0,0-.12.3A.7.7,0,0,1,50.77,74.69Z" transform="translate(-8.58 -6.69)"/><path d="M50.58,75.48a.79.79,0,0,0,.86,0,.75.75,0,0,0-.17-.46l-.5-.36a.7.7,0,0,0-.49,0A.76.76,0,0,0,50.58,75.48Z" transform="translate(-8.58 -6.69)"/><path d="M51.44,75.51a.79.79,0,0,1-.86,0,.76.76,0,0,1-.3-.81.86.86,0,0,0,0,1.5A.88.88,0,0,0,51.44,75.51Z" transform="translate(-8.58 -6.69)"/><path d="M50.24,76.17a.86.86,0,0,1,0-1.5.65.65,0,0,1,.12-.3.79.79,0,0,1,1.1-.17.77.77,0,0,1-.06,1.31.88.88,0,0,1-1.2.66.58.58,0,0,0,.15.09A1.58,1.58,0,0,0,52,73.54c-1.56-1.12-3.22,1-2.08,2.37A.78.78,0,0,0,50.24,76.17Z" transform="translate(-8.58 -6.69)"/><path class="cls-10" d="M38.69,99.38c1.48,0,4.2-1,5.18-1.18C50.35,97,57.94,96.38,64,93.79c3.29-1.4,3-1.74,2.42-5.39-.53-3.41-1.36-6.79-2.15-10.15-.88-3.71-1.83-7.41-2.81-11.09-.54-2-.88-6.36-2.25-8-2.78-3.26-12.29.24-16.41,1.11q-7,1.48-13.87,3.21,4.5,16.34,9,32.66C38.29,97.31,39.34,99.2,38.69,99.38Zm25.42-12.7a.81.81,0,0,1-.77,1.43l-5-2.68A.81.81,0,0,1,59.14,84ZM55,68.28l2.68-5a.81.81,0,0,1,1.43.77l-2.69,5A.81.81,0,0,1,55,68.28Zm-3,5.26a1.58,1.58,0,0,1-1.58,2.72.58.58,0,0,1-.15-.09.78.78,0,0,1-.35-.26C48.75,74.5,50.41,72.42,52,73.54Zm-5,1.18a.76.76,0,0,1,.09.11h0a.72.72,0,0,1,.19.45c.37,1.64-1.77,2.95-2.83,1.35S45.62,73.56,47,74.72Zm-2.37,5.49C47.55,82.84,51.49,81.47,54,79c.75-.72,1.94.38,1.18,1.1C52,83.2,47.14,84.66,43.5,81.39,42.72,80.69,43.83,79.51,44.61,80.21Zm-1.4,7.13c-.9,1.65-1.79,3.31-2.69,5a.81.81,0,0,1-1.42-.77l2.68-5A.81.81,0,0,1,43.21,87.34Zm-8.4-19.09,5,2.69A.81.81,0,0,1,39,72.36l-5-2.68A.81.81,0,0,1,34.81,68.25Z" transform="translate(-8.58 -6.69)"/><path d="M55.21,80.14c.76-.72-.43-1.82-1.18-1.1-2.54,2.43-6.48,3.8-9.42,1.17-.78-.7-1.89.48-1.11,1.18C47.14,84.66,52,83.2,55.21,80.14Z" transform="translate(-8.58 -6.69)"/><path d="M45.67,75a.78.78,0,0,1,.81,1.12.9.9,0,0,0,.78-.81l-.06-.21a.84.84,0,0,0-.13-.24h0A.86.86,0,0,0,45.67,75Z" transform="translate(-8.58 -6.69)"/><path d="M46.43,75.31a.8.8,0,0,0-.76-.33h0a.74.74,0,0,0,0,.57l.22.36a.77.77,0,0,0,.61.19A.8.8,0,0,0,46.43,75.31Z" transform="translate(-8.58 -6.69)"/><path d="M45.65,75.55a.74.74,0,0,1,0-.57.71.71,0,0,0-.33.13.79.79,0,1,0,.89,1.3.71.71,0,0,0,.26-.31.77.77,0,0,1-.61-.19Z" transform="translate(-8.58 -6.69)"/><path d="M47.26,75.29a.72.72,0,0,0-.19-.45.84.84,0,0,1,.13.24Z" transform="translate(-8.58 -6.69)"/><path d="M47.26,75.29a.9.9,0,0,1-.78.81.71.71,0,0,1-.26.31.79.79,0,1,1-.89-1.3.71.71,0,0,1,.33-.13h0a.86.86,0,0,1,1.4-.15.76.76,0,0,0-.09-.11c-1.36-1.16-3.68.2-2.55,1.92S47.63,76.93,47.26,75.29Z" transform="translate(-8.58 -6.69)"/><path d="M47.07,74.84h0Z" transform="translate(-8.58 -6.69)"/><path d="M40.52,92.31c.9-1.66,1.79-3.32,2.69-5a.81.81,0,0,0-1.43-.77l-2.68,5A.81.81,0,0,0,40.52,92.31Z" transform="translate(-8.58 -6.69)"/><path d="M39.78,70.94l-5-2.69A.81.81,0,0,0,34,69.68l5,2.68A.81.81,0,0,0,39.78,70.94Z" transform="translate(-8.58 -6.69)"/><path d="M38.69,99.38a1.5,1.5,0,0,1-.6-.1A1,1,0,0,0,38.69,99.38Z" transform="translate(-8.58 -6.69)"/><path d="M28.19,63.71l.77-.19c-.08-.27-.15-.55-.23-.82a.81.81,0,0,0-1.56,0s0,0,0,0a.14.14,0,0,0,0,.09A.83.83,0,0,0,28.19,63.71Z" transform="translate(-8.58 -6.69)"/><path d="M64.66,72.91c-1.48-5.88-1.18-17-8.81-16.51-9.41.57-19,3.47-28.13,5.75a.68.68,0,0,0-.55.59.81.81,0,0,1,1.56,0c.08.27.15.55.23.82q6.9-1.72,13.87-3.21c4.12-.87,13.63-4.37,16.41-1.11,1.37,1.6,1.71,6,2.25,8,1,3.68,1.93,7.38,2.81,11.09.79,3.36,1.62,6.74,2.15,10.15.57,3.65.87,4-2.42,5.39C57.94,96.38,50.35,97,43.87,98.2c-1,.19-3.7,1.22-5.18,1.18a1,1,0,0,1-.6-.1,1.5,1.5,0,0,0,.6.1c.65-.18-.4-2.07-.72-3.2q-4.5-16.33-9-32.66l-.77.19a.83.83,0,0,1-1-.85.63.63,0,0,0,0,.3q5.11,18.57,10.25,37.15a.83.83,0,0,0,1,.54q6.65-1.18,13.25-2.55c4.05-.83,12-1.1,15.27-3.79C71.46,90.87,65.83,77.56,64.66,72.91Z" transform="translate(-8.58 -6.69)"/><path d="M151,17.14a1.1,1.1,0,0,1,1.23.36c.48.6,1,1.2,1.47,1.79,2.67.24,5.35.44,8,.58A40.44,40.44,0,0,0,166,19.8q-2.22-1.22-4.5-2.34c-3.29,0-6.6-.11-9.92-.44A1.06,1.06,0,0,0,151,17.14Z" transform="translate(-8.58 -6.69)"/><path d="M153.75,19.29c-.5-.59-1-1.19-1.47-1.79a1.1,1.1,0,0,0-1.23-.36,1.18,1.18,0,0,0-.63,1.31,1,1,0,0,0,.09.14l.29.36a1,1,0,0,0,.37.12C152,19.15,152.89,19.21,153.75,19.29Z" transform="translate(-8.58 -6.69)"/><path d="M150.42,18.45a.75.75,0,0,0,.38.5l-.29-.36A1,1,0,0,1,150.42,18.45Z" transform="translate(-8.58 -6.69)"/><path d="M174.51,33.8c-8.29-2.23-15.27-8-20.76-14.51-.86-.08-1.73-.14-2.59-.23a1,1,0,0,1-.37-.12c6.36,7.93,15.07,15.61,25.43,17.37,3.93.66,7.57.13,9.65-2.42-.47-.43-.95-.85-1.43-1.27C182.11,35.38,177.61,34.63,174.51,33.8Z" transform="translate(-8.58 -6.69)"/><path d="M151,17.14a.9.9,0,0,0-.63,1.31A1.18,1.18,0,0,1,151,17.14Z" transform="translate(-8.58 -6.69)"/><path d="M181.19,33.4c1.32-.26.71-2.25-.6-2-2.41.47-5-.8-6.81-2.34-1-.87-2.44.65-1.42,1.52C174.78,32.65,178,34,181.19,33.4Z" transform="translate(-8.58 -6.69)"/><path class="cls-11" d="M30.16,177.85l.05,0,0,0Z" transform="translate(-8.58 -6.69)"/><path class="cls-11" d="M200.36,49.8q1.11,1.5,2.17,3a18.48,18.48,0,0,0-1.32-2.15A9.78,9.78,0,0,0,200.36,49.8Z" transform="translate(-8.58 -6.69)"/></g></svg>