<svg xmlns="http://www.w3.org/2000/svg" viewBox="0 0 212.6 212.6"><defs><style>.cls-1{fill:#1a4e80;}.cls-2{fill:none;}.cls-3{fill:#f3e500;}.cls-4{fill:#f5ccb7;}.cls-5{fill:#65beb0;}.cls-6{fill:#010101;}.cls-7{fill:#fff;}.cls-8{fill:#e9511d;}</style></defs><title>cavallhò</title><g id="livello_0" data-name="livello 0"><circle class="cls-1" cx="106.3" cy="106.3" r="106.3"/></g><g id="Livello_1" data-name="Livello 1"><path class="cls-2" d="M48.31,94l24.26-7.29-.17-.2c-2.07-1.89-10.53-2-12.37-1.85h-.14a23.13,23.13,0,0,0-9.54,3.45c-2.8,1.75-8.09,5.6-8,7.5.18,3.28,11.86,3.28,12,3.28,7.73,0,13.91-3.73,18-10.68L48.81,95.28l-.15,0a.74.74,0,0,1-.75-.54A.58.58,0,0,1,48.31,94Z" transform="translate(-14.1 -11.74)"/><path class="cls-2" d="M167.09,131.1c-.64.66-2,1.74-2,2.72-.09,1.15.94,2.82,1.39,3.83.73,1.63,1.52,3.23,2.33,4.82q1.63,3.2,3.37,6.34a.75.75,0,0,1-.38,1c-2.37.82-4.74-1.09-6.2-2.83a9.19,9.19,0,0,1-1.76-4.09,22.19,22.19,0,0,1-.4-3c0-.19,0-.57,0-1-1.95,3.2-3.25,6.79-2.4,10.58A16.92,16.92,0,0,0,165,156.6c2.18,2.57,4.57,2.88,7.64,1.57a18.32,18.32,0,0,0,4.32-2.61c.7-.57,1.47.33,1.07,1a19,19,0,0,0-1.89,4.59c-.88,3.34-.29,5.72,2.94,7.31a17,17,0,0,0,8.31,2,13.13,13.13,0,0,0,4.72-1.16,15.88,15.88,0,0,0,3-1.82c.37-.28,1.39-1,2.14-1.66-.26.08-.48.14-.6.16a28.76,28.76,0,0,1-3.15.39,11.23,11.23,0,0,1-4.86-.5c-2.18-.89-5-3-4.68-5.63a.76.76,0,0,1,1-.61q3.59,1.05,7.22,2c1.71.43,3.42.84,5.15,1.17,1,.18,2.71.76,3.67.42s1.69-1.92,2.2-2.72c1-1.56,1.9-3.17,2.79-4.79.34-.62.67-1.24,1-1.87a26,26,0,0,1-6,1.11c-3.22.28-6.51.31-9.75.32-1.35,0-3.14.17-4.39-.51a1.84,1.84,0,0,1-1-2.43c.7-1.28,3-1.06,4.22-1.05a50.73,50.73,0,0,0,17.11-2.62c1.55-.54,3-.69,3.74-2a8.71,8.71,0,0,0,.84-3.1,16.63,16.63,0,0,0,.32-4.67c-.54.5-1.09,1.25-1.51,1.6a20.53,20.53,0,0,1-3.69,2.34,35.74,35.74,0,0,1-11.9,3.8c-1.19.13-4.39.35-3.86-1.73.37-1.43,2.36-1.95,3.58-2.21,2-.44,4-.43,6-.94a28.49,28.49,0,0,0,5.45-2.11c2.82-1.41,6.69-3.3,6.36-6.95a13.52,13.52,0,0,0-.89-3.65c-.16-.4-.5-1-.34-1-.33,0-1.66,1.54-1.95,1.75-2.4,1.8-5.44,3.92-8.41,4.6-.66.15-1.7.38-2.2-.27a.77.77,0,0,1,0-.91,14.17,14.17,0,0,1,4.76-4.53c1.36-.73,2.8-1.26,4.14-2a10.56,10.56,0,0,0,2.14-1.43,1.1,1.1,0,0,1,.37-.27v0c-.13-.67-1.09-1.59-1.44-2.19a9.3,9.3,0,0,1-1.06-2.38c-.43-1.76.73-2.87,1.39-4.33-1.42.43-2.43,1.82-4.19,1.68A11.76,11.76,0,0,1,202,117a9.7,9.7,0,0,0-2.07-.82s-.85,2.78-1,3.4c-.45,1.56-.59,3.23-1.12,4.76a14.8,14.8,0,0,1-3.06,4.92.77.77,0,0,1-.88.25c-1.17-.54-.82-2.53-.67-3.49a27.55,27.55,0,0,1,2.07-6.84,27.38,27.38,0,0,1,2.22-3.38,13.21,13.21,0,0,0-5.45-.1,4.14,4.14,0,0,0-3.57,2.77A26.86,26.86,0,0,0,186,128.67c-.16,2.91,1.08,6.24.13,9.07-.25.73-.84,1.81-1.78,1.75-2.06-.14-1.95-4.6-2-5.78a40.2,40.2,0,0,1,1.33-11.11,18.57,18.57,0,0,1,1.5-3.87c.19-.36.64-.86.93-1.33-1.59,0-4.24,1.23-5.34,1.73a6.18,6.18,0,0,0-2.23,1.46c-1.26,1.52-1,5.57-1,7.79a65.72,65.72,0,0,0,1.75,14.31c.27,1.35.65,4-1.54,3.8a2.45,2.45,0,0,1-1.82-1.59A24.88,24.88,0,0,1,174.4,139a58.53,58.53,0,0,1-1.62-10.35,20.54,20.54,0,0,1,.11-3c-.61.54-1.23,1.08-1.84,1.63C169.71,128.55,168.36,129.79,167.09,131.1Z" transform="translate(-14.1 -11.74)"/><path class="cls-2" d="M195.33,123.43a27.56,27.56,0,0,0-.72,3.56,17.76,17.76,0,0,0,2.52-6.39c.16-.66.37-1.88.73-3a5.45,5.45,0,0,0-.36.5A21.73,21.73,0,0,0,195.33,123.43Z" transform="translate(-14.1 -11.74)"/><path class="cls-2" d="M213.51,93.8A3.25,3.25,0,0,0,208,97.3c3.31,6-5,11.24-9,5.67-.79-1.09,1-2.17,1.77-1.09a3.25,3.25,0,0,0,5.48-3.49c-3.31-6,5-11.23,9-5.68h0a3.25,3.25,0,0,0,5.48-3.49h0a5.19,5.19,0,0,1,.12-5.6A106.47,106.47,0,0,0,179.6,29.88c-1,9.08-8.47,17.89-19.39,16h0l-.4-.07-.36-.13s0,0-.05,0c-12.82-4.47-13.14-20.4-5.79-28.47A106.8,106.8,0,0,0,96.29,14.6a26.72,26.72,0,0,1,6.59,2.89c8.17,5.08,16.75,13.35,6.82,20.35-4.44,3.12-12.43,5.76-18.43,4.78.74.65,1.46,1.31,2.13,1.92,10.18,9.24,12,20.54,5.77,32.53a.87.87,0,0,1-1,.49c-14.1,1.2-25.53-6.43-28.55-20.87,0-.19-.08-.37-.11-.54a14.78,14.78,0,0,1-.82,3C66.6,64.52,61.32,72.23,55.34,74,44,77.31,41,58.36,42,50.29a40.61,40.61,0,0,1,.91-4.8A106.28,106.28,0,0,0,22.43,77a5.43,5.43,0,0,1-.62,4.06h0a3.25,3.25,0,0,0,5.47,3.5h0c4.08-5.54,12.3-.19,8.94,5.8-.66,1.17-2.39,0-1.73-1.15A3.25,3.25,0,0,0,29,85.73a5.34,5.34,0,0,1-9.4-1.19,105.4,105.4,0,0,0-3.29,12.35,13.14,13.14,0,0,1,4.25,1.95c7.72,5.18,12,14.53,14.22,23.24a.67.67,0,0,1,.14.6h0a.8.8,0,0,1-1,.76.92.92,0,0,1-.55-.12c-6.2-3.58-12.8-6-19.15-9.08,0,1.26-.08,2.53-.08,3.8a106.86,106.86,0,0,0,1.54,18.06,3.21,3.21,0,0,0,2.39-4h0c-1.5-6.72,7.93-9.41,10.25-2.94.45,1.26-1.56,1.81-2,.55a3.25,3.25,0,0,0-6.23,1.84,5.21,5.21,0,0,1-4,6.5,105.52,105.52,0,0,0,13.68,35.34l-4-30.25a1,1,0,0,1,.06-.5.88.88,0,0,1,.81-.69c12-1.28,24.72-3.25,36.79-2.31,9.78.77,7.42,14.82,8.26,22.55.66,6.12,5.45,24-.91,27.87-4.69,2.83-14.8,1.77-20.09,2.11-2,.13-4,.23-6,.34A106.45,106.45,0,0,0,75,214.06l-.13-.3c-1.14-2.85-4.69-12.48-2.74-16.39A2.86,2.86,0,0,1,74,195.78c1.77-.5,5.06,1,7.22,2.08l1.15.52a36,36,0,0,1,12.91,9.32,50.27,50.27,0,0,1,7.47,15.07,106.84,106.84,0,0,0,44.51-2,218.37,218.37,0,0,1-19-11.73c-7.91-5.6.49-9.32,5.94-12.29l.75-.42,19.82-11.2c2.52-1.42,7.3-5.55,10.59-5.09,7,1,3.58,20.76,3.55,25.1,0,1.39.28,4,.49,7.1A106.42,106.42,0,0,0,191,197.32a5.48,5.48,0,0,1,1.8-3.46,3.25,3.25,0,0,0-4.17-5c-5.56,4.06-11.79-3.52-6.79-8.22,1-.92,2.28.7,1.31,1.62a3.25,3.25,0,0,0,4.17,5,5.35,5.35,0,0,1,8.44,5.54A106.37,106.37,0,0,0,223.25,91.54,5.37,5.37,0,0,1,213.51,93.8Zm-12.64-8.11-9.34,3.43c-1.25.46-1.71-1.57-.47-2l9.34-3.43C201.66,83.2,202.12,85.24,200.87,85.69Zm-10.94-3.56,8.66-4.9c1.17-.66,2.14,1.18,1,1.84L190.91,84C189.74,84.64,188.77,82.79,189.93,82.13Zm8-25.73c1.34-2.7,5.2-.9,4.38,1.88l0,0a1,1,0,0,1-.21.47C200.33,61,196.61,59.16,198,56.41Zm-2.08,15c1-.87,2.45.64,1.43,1.52l-7.56,6.47c-1,.87-2.45-.64-1.43-1.51ZM194,67.92l-7,7c-.95,1-2.37-.57-1.43-1.51l7-7C193.48,65.46,194.91,67,194,67.92Zm-5.41-4.57-5.92,8c-.8,1.07-2.58,0-1.78-1.08l5.92-8C187.57,61.2,189.35,62.27,188.55,63.35Zm-8.81-10.94c1.34-2.7,5.2-.9,4.38,1.88l0,0a1,1,0,0,1-.21.47C182.1,57,178.38,55.16,179.75,52.41Zm-34.62,5.88,0,0a1,1,0,0,1-.21.47c-1.79,2.21-5.52.37-4.15-2.38S145.95,55.51,145.13,58.29ZM133.48,22.91c1.34-2.7,5.2-.9,4.38,1.88l0,0a1,1,0,0,1-.21.47C135.83,27.49,132.11,25.66,133.48,22.91Zm-11.73-7c1.34-2.7,5.2-.9,4.38,1.88l0,0a1,1,0,0,1-.21.47C124.1,20.49,120.38,18.66,121.75,15.91Zm4.61,14.37,0,0a1,1,0,0,1-.21.47c-1.79,2.21-5.52.37-4.15-2.38S127.18,27.51,126.36,30.28Zm-15.07,27.6a3.25,3.25,0,0,0,5.48-3.49c-3.31-6,5-11.23,9-5.68h0a3.25,3.25,0,0,0,5.48-3.49h0c-3.31-6,5-11.24,9-5.67.79,1.09-1,2.17-1.78,1.09A3.25,3.25,0,0,0,133,44.13c3.31,6-5,11.24-9,5.67a3.25,3.25,0,0,0-5.48,3.49c3.31,6-5,11.24-9,5.67C108.73,57.88,110.5,56.8,111.29,57.88ZM99.4,87.1c5.26-5.19,9.41-11.13,14.29-16.56,4.05-4.51,10.38-5.46,14.67-.75,3.66,4,1.81,8.18-1.93,11.41-7,6.07-17.19,7.68-26.19,7.54a.69.69,0,0,1-.64-.06.78.78,0,0,1-.46-1.07A.93.93,0,0,1,99.4,87.1Zm-32.45-14c1.34-2.7,5.2-.9,4.38,1.88l0,0a1,1,0,0,1-.21.47C69.3,77.67,65.58,75.83,66.94,73.08ZM55.44,84.22c2.8-.88,13.76-2,17.49.83a2.91,2.91,0,0,1,1.26,2.2,1,1,0,0,1-.08.49c0,.13,0,.07-.09.25-4,7.34-10,11.51-17.54,12.2a22.89,22.89,0,0,1-2.85.08c-2.33,0-10.09-.42-12.24-2.94a2.17,2.17,0,0,1-.55-1.79c.17-1.39,2.22-3.22,3.59-4.42l.71-.65A27.3,27.3,0,0,1,55.44,84.22ZM38.82,67.46l0,0a1,1,0,0,1-.21.47c-1.79,2.2-5.52.37-4.15-2.38S39.65,64.69,38.82,67.46Zm1.12,10.62c1.34-2.7,5.2-.9,4.38,1.88l0,0a1,1,0,0,1-.21.47C42.3,82.67,38.58,80.83,39.94,78.08Zm4.91,55.2,0,0a1,1,0,0,1-.21.47c-1.79,2.21-5.52.37-4.15-2.38S45.68,130.51,44.86,133.28Zm1.5-18,0,0a1,1,0,0,1-.21.47c-1.79,2.21-5.52.37-4.15-2.38S47.18,112.51,46.36,115.28Zm10.5,10.5,0,0a1,1,0,0,1-.21.47c-1.79,2.21-5.52.37-4.15-2.38S57.68,123,56.86,125.78Zm36.27,54,0,0a1,1,0,0,1-.21.47c-1.79,2.21-5.52.37-4.15-2.38S93.95,177,93.13,179.79Zm5,12,0,0a1,1,0,0,1-.21.47c-1.79,2.21-5.52.37-4.15-2.38S98.95,189,98.13,191.79Zm8.12-13.38c1.34-2.7,5.2-.9,4.38,1.88l0,0a1,1,0,0,1-.21.47C108.6,183,104.88,181.16,106.25,178.41Zm12.88,37.88,0,0a1,1,0,0,1-.21.47c-1.79,2.21-5.52.37-4.15-2.38S119.95,213.51,119.13,216.29Zm17.39-35.65a3.25,3.25,0,0,0-5.48,3.49c3.31,6-5,11.24-9,5.67a3.25,3.25,0,0,0-5.48,3.49c3.31,6-5,11.24-9,5.67-.79-1.09,1-2.17,1.77-1.09a3.25,3.25,0,0,0,5.48-3.49c-3.31-6,5-11.23,9-5.68h0a3.25,3.25,0,0,0,5.48-3.49h0c-3.31-6,5-11.24,9-5.67C139.08,180.63,137.3,181.72,136.52,180.64Zm11.62-43c.43,21.59.29,27.1-.72,28.11-.72.72-3.15,1-6,1-1.93,0-4.05-.11-6-.24-1.24-.08-1.19-1.4-1.17-1.9v-.08a29.29,29.29,0,0,1-5.56-.77c-.95-.38-1.92-.77,1.75-17.93,1.28-6,2.71-12,3.38-14.79-17.28,5.59-30.06-1.19-33.86-3.63-.21,3.33,1.22,11,2.51,17.89,2.53,13.52,3.28,18.71,1.17,19.5-.57.21-2.29.86-13.48-.22-1-.08-1.06-1.15-1.15-2.28,0-.22,0-.44-.06-.63a51.14,51.14,0,0,0-6.3-.15.86.86,0,0,1-.76-.36.89.89,0,0,1-.12-.83c.64-1.7,1.57-15.7,2.44-36.54h0a4.49,4.49,0,0,1,0-.78v-.29c-.12-.61-.36-1.45-.63-2.41-1.05-3.68-2.75-9.62-1-14.73a4,4,0,0,0-2.13,1.22c-1.66,1.85-2.14,5.61-1.37,10.87.16,1.11-.57,2.17-1.42,3.4-1.6,2.33-3.6,5.22-1.6,10,3.39,8,1.21,11.59,1.11,11.74a.88.88,0,0,1-.75.41.9.9,0,0,1-.3-.05.89.89,0,0,1-.58-.94c.27-2.26-2-5.2-4.62-8.61-4.93-6.4-11.69-15.17-5.29-26,7.56-12.76,17.49-10.2,21.86-8.21a17.59,17.59,0,0,1,3.51-1.73,10.45,10.45,0,0,1,1.72-.46A77,77,0,0,1,103,97.09c3.45.07,7.32.15,11,.1a22.83,22.83,0,0,1,5.22-3.34l.1,0c.06,0,6.61-2.19,17-12.37A17.15,17.15,0,0,0,139.41,76c1.45-3.31,3.1-7.06,7.34-8.62a33.29,33.29,0,0,1,5.87-1.48,18.53,18.53,0,0,1-2.06-6,.89.89,0,0,1,.22-.74.88.88,0,0,1,.71-.29c.25,0,6.21.45,12,6.25h.22c1-1.45,4.32-6,9.59-8.11a.89.89,0,0,1,1.21.72c0,.18.45,4.48-2.84,11.2A13.65,13.65,0,0,1,176,76.48l7.47,12.1a5.22,5.22,0,0,1,.74,3.42,8.35,8.35,0,0,1-4.5,6.31c-1.46.81-3.7,1.32-5.2.1-2.39-2-10.66-4.83-13.08-5.59-1,1.1-4.36,4.63-10.15,11.31a26.42,26.42,0,0,0-2.83,11h0c0,1.51-.12,3-.24,4.48-.06.75-.13,1.49-.17,2.24C147.87,124.26,148,130.78,148.14,137.68ZM179.56,108l0,0a1,1,0,0,1-.21.47c-1.79,2.21-5.52.37-4.15-2.38S180.38,105.18,179.56,108Zm-9.5,10,0,0a1,1,0,0,1-.21.47c-1.79,2.21-5.52.37-4.15-2.38S170.88,115.18,170.06,118Zm-14.93,53.83,0,0a1,1,0,0,1-.21.47c-1.79,2.21-5.52.37-4.15-2.38S155.95,169,155.13,171.79Zm2.55-65.71c1.34-2.7,5.2-.9,4.38,1.88l0,0a1,1,0,0,1-.21.47C160,110.66,156.31,108.83,157.67,106.08Zm10.45,65.71,0,0a1,1,0,0,1-.21.47c-1.79,2.21-5.52.37-4.15-2.38S168.95,169,168.13,171.79Zm10.5,24.5,0,0a1,1,0,0,1-.21.47c-1.79,2.21-5.52.37-4.15-2.38S179.45,193.51,178.63,196.29Zm24-18.5,0,0a1,1,0,0,1-.21.47c-1.79,2.21-5.52.37-4.15-2.38S203.45,175,202.63,177.79ZM213,137.28c1.33,1.76.44,6.27-.11,8.3a5.49,5.49,0,0,1-1.69,3.06c-2.28,1.71-6.32,2.37-9.08,3a50.5,50.5,0,0,1-9.73,1.17c-.56,0-5.43,0-5.1.52.7,1.1,5.39.47,6.3.44,4-.09,8.37.12,12.22-1.24a10.05,10.05,0,0,0,2.57-1.4,1.33,1.33,0,0,1,.61-.69.76.76,0,0,1,1,1,2.44,2.44,0,0,1-.57,1l0,0c-.32.67-.7,1.32-1.05,2-.85,1.58-1.7,3.15-2.6,4.69-1,1.74-2.42,5.19-4.66,5.62a7.44,7.44,0,0,1-1.58.1.66.66,0,0,1,0,.21c-.24,1.73-3.46,3.71-4.79,4.57a15.26,15.26,0,0,1-6,2.29,17.82,17.82,0,0,1-10.51-2.1c-3-1.54-4.43-3.74-4-7.21a16.91,16.91,0,0,1,1.14-4.12c-3.7,2.23-8.12,3.14-11.33-.51a18.23,18.23,0,0,1-4.68-8.71c-.75-4.33,1-8.42,3.31-12a.91.91,0,0,1,.57-.48l.2-.08a.81.81,0,0,1,.67,0,8.91,8.91,0,0,1-.64-2.77c-.07-2.2,2.9-4.35,4.31-5.7s2.76-2.55,4.17-3.79l1.51-1.33c.35-.31.56-.71.61-.59a2.13,2.13,0,0,1,.44-.32.75.75,0,0,1,1,.77,1.17,1.17,0,0,1-.4.67,1.32,1.32,0,0,0-.27.4,16.05,16.05,0,0,0-.66,2.69c-.4,4,.74,8.16,1.54,12.09.2,1,.6,5.72,1.84,6.13.61.2-.48-4.35-.6-4.94a51.14,51.14,0,0,1-1.08-9.9c0-2.86-.32-6.89.81-9.56a5.22,5.22,0,0,1,2.37-2.27c1.82-1,6.25-3,8.21-2.13a.78.78,0,0,1,.41.43,4.82,4.82,0,0,1,3.35-2.27c2.22-.46,5.8-.67,7.81.55a.59.59,0,0,1,.2.23,1.59,1.59,0,0,1,.54-.32c1.21-.4,3.33,1.09,4.56,1.3,2.12.35,3.5-1.87,5.86-1.71a.75.75,0,0,1,.65.83,9.06,9.06,0,0,1-.88,2.41c-.78,1.46-1.11,2.06-.37,3.6.46,1,2.26,2.65,2.1,3.83-.24,1.73-3.75,3.15-5,3.79a18.07,18.07,0,0,0-5.71,4l.13,0a24.3,24.3,0,0,0,5.38-2.84,26.27,26.27,0,0,0,3.45-2.59c.51-.45.85-1.1,1.65-.91,1.76.42,2.33,4.66,2.46,6a5.37,5.37,0,0,1-1.43,4.59A.66.66,0,0,1,213,137.28Zm7.6-26.49,0,0a1,1,0,0,1-.21.47c-1.79,2.21-5.52.37-4.15-2.38S221.45,108,220.63,110.79Z" transform="translate(-14.1 -11.74)"/><path class="cls-2" d="M195,144.12a4.66,4.66,0,0,0-2.11,1,10.45,10.45,0,0,0,3.94-.31,35.87,35.87,0,0,0,11.07-4.21c.52-.32,1-.66,1.52-1a31.13,31.13,0,0,1-4.9,2.45C201.33,143.27,198.23,143.38,195,144.12Z" transform="translate(-14.1 -11.74)"/><path class="cls-2" d="M164.89,139.68a17.26,17.26,0,0,0,.78,4.38c.55,1.56,2.64,4.33,4.65,4.48q-1.61-2.94-3.13-5.93c-.65-1.28-1.57-2.8-2.32-4.36C164.89,138.72,164.86,139.21,164.89,139.68Z" transform="translate(-14.1 -11.74)"/><path class="cls-2" d="M185.5,161.36c.61,2.33,4.51,3.55,6.44,3.6a23.69,23.69,0,0,0,4.72-.46l.23-.05c-1.91-.41-3.84-1.07-5.4-1.47Q188.49,162.22,185.5,161.36Z" transform="translate(-14.1 -11.74)"/><path class="cls-2" d="M183.86,132.92a13.33,13.33,0,0,0,.59,4.65,4.52,4.52,0,0,0,.44-1.73c.08-1.76-.36-3.5-.42-5.26a26.52,26.52,0,0,1,.34-4.94,31.23,31.23,0,0,1,1.39-5.62c-.25.55-.48,1.11-.67,1.68A36.13,36.13,0,0,0,183.86,132.92Z" transform="translate(-14.1 -11.74)"/><path class="cls-2" d="M128.44,73c-1.49-5-8.11-5.43-11.65-2.86-3.83,2.78-6.51,8.09-9.73,11.6-1.6,1.75-3.25,3.46-4.92,5.14,7.51-.08,15.41-1.56,21.6-6C126.18,79.23,129.43,76.4,128.44,73Zm-8.34,5.75c2.07-.36,4.4-1.41,5.44-3.32.56-1,2.26-.32,1.7.72a9.48,9.48,0,0,1-6.9,4.43C119.16,80.81,118.93,79,120.1,78.78Z" transform="translate(-14.1 -11.74)"/><path class="cls-2" d="M97,213.33a30.53,30.53,0,0,0-9.1-9.81c-3.57-2.5-11-6.95-13.23-5.84-3.89,1.91,2.12,16.09,2.18,16.24.19.44.39.86.6,1.29A105.4,105.4,0,0,0,90.62,220L78.46,205.35c0-.05-.07-.12-.11-.17a1,1,0,0,1,.27-1.19.76.76,0,0,1,1.13.09l13.93,16.77q3.37.87,6.83,1.52a56.3,56.3,0,0,0-3.38-8.88A.82.82,0,0,0,97,213.33Z" transform="translate(-14.1 -11.74)"/><path class="cls-2" d="M71.26,182.24c-.07-4.43-.52-8.87-.93-13.28-.46-4.87-1-9.74-1.6-14.6-.33-2.63,0-8.23-1.44-10.51-3-4.64-15.67-1.88-21.06-1.5Q37.11,143,28,144l4.4,33.57q1.6,2.36,3.32,4.62a1,1,0,0,1,.19-.77l4.29-5.85a1,1,0,0,1,1.68,1.23l-4.29,5.85a1,1,0,0,1-1.3.28q3.1,4,6.57,7.72c7.95-.26,16.8.09,24.34-1.94C71.66,187.47,71.33,187,71.26,182.24ZM39.23,157l-5.84-4.29A1,1,0,0,1,34.61,151l5.84,4.3A1,1,0,0,1,39.23,157Zm16.27,3.8c1.8,1.72-.48,4.29-2.5,3.18a2.35,2.35,0,0,1-.57-.54C51.23,161.43,53.71,159.07,55.49,160.78Zm-6.56.61a.92.92,0,0,1,.25.77c.17,2.15-2.77,3.44-3.82,1.21C44.22,161,47.41,159.67,48.93,161.39Zm9.51,8.36c-4.6,3.31-11.07,4.3-15.11-.49-.87-1,.76-2.33,1.62-1.31,3.27,3.87,8.52,2.82,12.18.18C58.22,167.35,59.53,169,58.44,169.75Zm1.77-15.14,4.29-5.84A1,1,0,0,1,66.18,150l-4.29,5.85A1,1,0,0,1,60.21,154.61Zm2.53,20.74,5.85,4.29a1,1,0,0,1-1.23,1.68L61.51,177A1,1,0,0,1,62.74,175.35Z" transform="translate(-14.1 -11.74)"/><path class="cls-3" d="M136.05,24l-.23.5c-.38,1.26,1.61,1.58,2,.36A1,1,0,0,0,136.05,24Z" transform="translate(-14.1 -11.74)"/><path class="cls-3" d="M137.63,25.28a1,1,0,0,0,.21-.47c-.41,1.22-2.39.9-2-.36l.23-.5a1,1,0,0,1,1.78.86l0,0c.82-2.77-3-4.58-4.38-1.88S135.83,27.49,137.63,25.28Z" transform="translate(-14.1 -11.74)"/><path class="cls-3" d="M125.89,18.29a1,1,0,0,0,.21-.47c-.41,1.22-2.39.9-2-.36l.23-.5a1,1,0,0,1,1.78.86l0,0c.82-2.77-3-4.58-4.38-1.88S124.1,20.49,125.89,18.29Z" transform="translate(-14.1 -11.74)"/><path class="cls-3" d="M124.32,17l-.23.5c-.38,1.26,1.61,1.58,2,.36A1,1,0,0,0,124.32,17Z" transform="translate(-14.1 -11.74)"/><path class="cls-4" d="M172.71,59.27a21.37,21.37,0,0,0-7.21,6.41,16.62,16.62,0,0,1,4.71,2.19A24.42,24.42,0,0,0,172.71,59.27Z" transform="translate(-14.1 -11.74)"/><path d="M167.3,77.83h0Z" transform="translate(-14.1 -11.74)"/><path d="M166.81,79.54c2.08.34,4.67,0,5.77-2,.55-1-1-1.89-1.53-.89a2.68,2.68,0,0,1-2.3,1.24,7.41,7.41,0,0,1-1.1,0l-.32,0h-.14C166.13,77.76,165.72,79.37,166.81,79.54Z" transform="translate(-14.1 -11.74)"/><path class="cls-4" d="M152.55,60.89a16.21,16.21,0,0,0,2.24,5.2l.26.37a61.06,61.06,0,0,1,6.79-.41A19.83,19.83,0,0,0,152.55,60.89Z" transform="translate(-14.1 -11.74)"/><path class="cls-4" d="M156.33,68a.88.88,0,0,1,.28.54l5.82-1.87-.6-.6a61.06,61.06,0,0,0-6.79.41A10.23,10.23,0,0,0,156.33,68Z" transform="translate(-14.1 -11.74)"/><path class="cls-5" d="M135.15,92.38h0a9.23,9.23,0,0,1,1.2-.72,33.77,33.77,0,0,0,9.86-9.24c.09-.15.58-1.12.91-1.77.48-1,.69-1.37.8-1.57.34-.89,3.21-8.35,5.9-10.58l.34-.26c-.16-.2-.35-.44-.53-.7a32.65,32.65,0,0,0-6.29,1.52c-3.53,1.3-4.89,4.39-6.33,7.67a18.7,18.7,0,0,1-3.56,6c-10.34,10.14-16.92,12.54-17.64,12.78a19.47,19.47,0,0,0-2.51,1.38c3.59-.32,9.71-1.07,14.22-2.69l.12,0A37.15,37.15,0,0,0,135.15,92.38Z" transform="translate(-14.1 -11.74)"/><path class="cls-4" d="M149.47,80c-.07.12-.47.91-.76,1.49-.72,1.43-.93,1.85-1.05,2a35.3,35.3,0,0,1-7.78,7.94c3.93-1,7.85-2.19,13.86-20.13a45.37,45.37,0,0,0-4.18,8.5A.83.83,0,0,1,149.47,80Z" transform="translate(-14.1 -11.74)"/><path class="cls-4" d="M129.61,162.18c.9.2,3.24.43,4.92.59-.13-5.31-.41-16.94-.45-25.16C131.38,149.26,129.27,160.12,129.61,162.18Z" transform="translate(-14.1 -11.74)"/><path class="cls-4" d="M106.83,116.46l-6.67,8.42C102.07,124.45,106.43,122.77,106.83,116.46Z" transform="translate(-14.1 -11.74)"/><path class="cls-4" d="M149.76,103.2a.83.83,0,0,1,.1-.15c7.21-8.3,10.62-11.81,10.66-11.84a.89.89,0,0,1,.87-.23c1,.28,11.2,3.59,14.23,6.07a2.55,2.55,0,0,0,2.28.12c-1.86-1.2-5.23-3.77-6.63-7.5a.89.89,0,0,1,1.66-.62c1.49,3.95,5.69,6.53,6.8,7.16a6.48,6.48,0,0,0,2.71-4.44,3.45,3.45,0,0,0-.49-2.25L174.4,77.28a.87.87,0,0,1-.11-.28A11.94,11.94,0,0,0,170,69.9a14.67,14.67,0,0,0-5.38-2.63c-.38-.09-.7-.16-1-.21S163.07,67,163,67a.89.89,0,0,1-.54-.26l-.07-.07-5.82,1.87a.87.87,0,0,1-1,1,1.12,1.12,0,0,0-.67.35,7.35,7.35,0,0,0-1.23,1.41c-6,17.94-9.93,19.12-13.86,20.13-.84.62-1.7,1.22-2.6,1.77-.41.26-.83.51-1.26.75h0a38.83,38.83,0,0,1-3.69,1.83l-.11,0h0l0,0-.15.05a37.57,37.57,0,0,1-8.41,2.42c-5.25.87-13.8.69-20.67.56a80.84,80.84,0,0,0-9.81.09,8.76,8.76,0,0,0-1.43.38,15.85,15.85,0,0,0-3.16,1.55c.41.23.65.39.65.39l-3.54,3.54a5.42,5.42,0,0,0-.67-.16c-.05.1-.12.19-.17.29-2.37,4.77-.62,10.85.53,14.87.3,1.06.56,2,.69,2.67a.86.86,0,0,1,0,.18s0,.21,0,.59a.84.84,0,0,1,0,.11c0,.09,0,.2,0,.35s0,0,0,.07v0c.16,4.85,3.86,29.78,5,37.31l.25,1.67a.82.82,0,0,1,0,.08v0c8.54.79,11,.48,11.71.27.82-1.42-.92-10.73-2.19-17.55-1.95-10.43-3.15-17.46-2.23-20v0l0-.06a.87.87,0,0,1,.17-.24l.1-.08a.85.85,0,0,1,.22-.12l.07,0h.07l.1,0a6.75,6.75,0,0,0,.88-.14l6.67-8.42c0-.38,0-.75,0-1.16a.89.89,0,0,1,.87-.9h0a.89.89,0,0,1,.88.87c.11,7.46-4.33,10.11-7.1,11,4.3,2.6,16.7,8.49,33.21,2.54l.09,0a.87.87,0,0,1,.24,0h.08a.88.88,0,0,1,.3.08h0a.88.88,0,0,1,.19.13l0,.05.05.06a.88.88,0,0,1,.13.22l0,0a.88.88,0,0,1,0,.3s0,0,0,0c-.35,5.24.29,30.44.41,35.06,5.29.33,9,.15,9.77-.24.74-1.93.44-16.89.24-26.84-.14-7.24-.27-13.49-.11-16,0-.76.11-1.52.17-2.28.12-1.43.24-2.91.24-4.35h0A27.67,27.67,0,0,1,149.76,103.2Zm17.42-25.37h.14l.32,0a7.41,7.41,0,0,0,1.1,0,2.68,2.68,0,0,0,2.3-1.24c.55-1,2.08-.11,1.53.89-1.1,2-3.69,2.37-5.77,2C165.72,79.37,166.13,77.76,167.18,77.83Z" transform="translate(-14.1 -11.74)"/><path class="cls-4" d="M83.71,159.71c1.18,0,3.14,0,5.29.18-.82-5.52-2.41-16.26-3.53-24.74C85,144.72,84.35,155.78,83.71,159.71Z" transform="translate(-14.1 -11.74)"/><path class="cls-4" d="M89.17,101.27s-.24-.16-.65-.39l-.39.25A10.14,10.14,0,0,0,85,104.65a5.42,5.42,0,0,1,.67.16Z" transform="translate(-14.1 -11.74)"/><path class="cls-5" d="M85.91,100.63c-4.25-1.64-12.35-2.83-18.7,7.88-5.79,9.76.29,17.64,5.17,24a46,46,0,0,1,3.8,5.42,21,21,0,0,0-1.7-6.19c-2.38-5.63.11-9.25,1.77-11.65.58-.84,1.18-1.72,1.12-2.14-.86-5.88-.25-10,1.8-12.31a5.91,5.91,0,0,1,4.31-1.94A11.58,11.58,0,0,1,85.91,100.63Z" transform="translate(-14.1 -11.74)"/><path d="M164.64,65.36a21.36,21.36,0,0,1,9-7.47S174,62,170.95,68.4l.16.12c.19.15.36.31.54.47,3.28-6.72,2.86-11,2.84-11.2a.89.89,0,0,0-1.21-.72c-5.27,2.09-8.63,6.66-9.59,8.11l.51,0A.86.86,0,0,1,164.64,65.36Z" transform="translate(-14.1 -11.74)"/><path d="M164.82,65.5l.23.05.45.13a21.37,21.37,0,0,1,7.21-6.41,24.42,24.42,0,0,1-2.5,8.6c.25.17.49.35.73.53C174,62,173.6,57.89,173.6,57.89a21.36,21.36,0,0,0-9,7.47A.88.88,0,0,1,164.82,65.5Z" transform="translate(-14.1 -11.74)"/><path d="M136.34,91.67h0a9.23,9.23,0,0,0-1.2.72l0,0Q135.77,92,136.34,91.67Z" transform="translate(-14.1 -11.74)"/><path d="M119.5,94.65s6.64-2.08,17.34-12.58c3.89-3.83,3.82-11.51,10.21-13.86a32.81,32.81,0,0,1,6-1.5c-.16-.25-.32-.52-.48-.82a33.29,33.29,0,0,0-5.87,1.48c-4.24,1.56-5.89,5.31-7.34,8.62a17.15,17.15,0,0,1-3.18,5.44c-10.37,10.18-16.92,12.35-17,12.37l-.1,0a22.83,22.83,0,0,0-5.22,3.34l1.45,0A21.65,21.65,0,0,1,119.5,94.65Z" transform="translate(-14.1 -11.74)"/><path d="M131.5,94.18h0c-4.51,1.63-10.62,2.38-14.22,2.69a19.47,19.47,0,0,1,2.51-1.38c.71-.24,7.3-2.63,17.64-12.78a18.7,18.7,0,0,0,3.56-6c1.44-3.27,2.79-6.37,6.33-7.67a32.65,32.65,0,0,1,6.29-1.52l-.33-.47-.22-.34a32.81,32.81,0,0,0-6,1.5c-6.38,2.35-6.31,10-10.21,13.86-10.7,10.5-17.34,12.58-17.34,12.58a21.65,21.65,0,0,0-4.14,2.5,60.58,60.58,0,0,0,7.94-.6A36,36,0,0,0,131.5,94.18Z" transform="translate(-14.1 -11.74)"/><path d="M132.17,95.81l-.18.07.15-.05Z" transform="translate(-14.1 -11.74)"/><path d="M163.64,65.26l.05-.08h-.22l.08.07Z" transform="translate(-14.1 -11.74)"/><path d="M164,65.32l.6.13.06-.09a.86.86,0,0,0-.44-.16l-.51,0-.05.08Z" transform="translate(-14.1 -11.74)"/><path d="M164.64,65.36l-.06.09.24.06A.88.88,0,0,0,164.64,65.36Z" transform="translate(-14.1 -11.74)"/><path d="M78.25,117.79c.34,2.35-6.2,5.9-3,13.57s1.18,10.92,1.18,10.92c.88-7.38-19.47-18.29-10-34.22,7-11.73,16-9.86,20.26-8.06.14-.1.26-.22.4-.32l.44-.28c-4.37-2-14.3-4.55-21.86,8.21-6.4,10.79.36,19.56,5.29,26,2.63,3.41,4.89,6.35,4.62,8.61a.89.89,0,0,0,.58.94.9.9,0,0,0,.3.05.88.88,0,0,0,.75-.41c.09-.15,2.27-3.73-1.11-11.74-2-4.74,0-7.63,1.6-10,.85-1.23,1.58-2.29,1.42-3.4-.77-5.26-.29-9,1.37-10.87a4,4,0,0,1,2.13-1.22q.17-.5.39-1C80.32,104.91,76.71,107.2,78.25,117.79Z" transform="translate(-14.1 -11.74)"/><path d="M83.49,103.66a5.91,5.91,0,0,0-4.31,1.94c-2.05,2.29-2.66,6.43-1.8,12.31.06.42-.54,1.29-1.12,2.14-1.65,2.4-4.15,6-1.77,11.65a21,21,0,0,1,1.7,6.19,46,46,0,0,0-3.8-5.42c-4.88-6.33-11-14.22-5.17-24,6.35-10.71,14.45-9.53,18.7-7.88.25-.22.53-.43.8-.63-4.28-1.8-13.31-3.67-20.26,8.06C57,124,77.37,134.9,76.48,142.28c0,0,2.06-3.25-1.18-10.92s3.29-11.22,3-13.57c-1.54-10.59,2.07-12.89,4.77-13.2.06-.14.12-.29.19-.43S83.4,103.83,83.49,103.66Z" transform="translate(-14.1 -11.74)"/><path d="M148.19,119.59c.12-1.46.25-3,.24-4.48a.88.88,0,0,1-.9.86h0c-.05,1.94-.27,3.87-.39,5.8-.41,6.69,1.22,41.83-.34,43.38-.82.83-6.09.79-10.45.52a.87.87,0,0,1-.83.76h0a.88.88,0,0,1-.88-.86c0-.17,0-.86-.05-1.91a36.24,36.24,0,0,1-5.54-.73c-1.52-.61,3-20.4,5.06-29.16,0-1.59,0-2.89.08-3.79-17.48,5.92-30.19-1-33.78-3.35a7.87,7.87,0,0,1-1,.16h-.06a.85.85,0,0,1-.19,0c-1,7,7.16,36.1,4.17,37.21-1.67.62-7.55.25-12.65-.23l-.12.06-.22,0a.88.88,0,0,1-.77-.47l0-.07a.85.85,0,0,1-.06-.14s0,0,0-.05,0,0,0-.06l-.25-1.65-.09-.59a51.68,51.68,0,0,0-6.53-.16c.82-2.19,1.75-20.14,2.22-30.56-.34-2.84-.57-5.08-.61-6.23,0,0,0,0,0-.05-.87,20.84-1.8,34.84-2.44,36.54a.89.89,0,0,0,.12.83.86.86,0,0,0,.76.36,51.14,51.14,0,0,1,6.3.15c0,.19,0,.41.06.63.09,1.13.18,2.2,1.15,2.28,11.19,1.08,12.91.43,13.48.22,2.11-.79,1.36-6-1.17-19.5-1.29-6.88-2.72-14.56-2.51-17.89,3.8,2.44,16.58,9.21,33.86,3.63-.67,2.77-2.1,8.78-3.38,14.79-3.67,17.16-2.7,17.55-1.75,17.93a29.29,29.29,0,0,0,5.56.77v.08c0,.5-.06,1.81,1.17,1.9,1.93.14,4.06.24,6,.24,2.87,0,5.29-.24,6-1,1-1,1.15-6.52.72-28.11-.14-6.9-.27-13.42-.12-15.85C148.07,121.08,148.13,120.34,148.19,119.59Z" transform="translate(-14.1 -11.74)"/><path d="M129.61,162.18c-.34-2.06,1.78-12.92,4.47-24.58,0-1.39,0-2.69,0-3.84-2.08,8.75-6.58,28.55-5.06,29.16a36.24,36.24,0,0,0,5.54.73l0-.89C132.85,162.61,130.5,162.38,129.61,162.18Z" transform="translate(-14.1 -11.74)"/><path d="M134.84,128.82a.82.82,0,0,1,.24,0A.87.87,0,0,0,134.84,128.82Z" transform="translate(-14.1 -11.74)"/><path d="M135.47,128.89a.88.88,0,0,1,.23.18l0-.05A.88.88,0,0,0,135.47,128.89Z" transform="translate(-14.1 -11.74)"/><path d="M135.88,129.35a.88.88,0,0,0-.13-.22A.88.88,0,0,1,135.88,129.35Z" transform="translate(-14.1 -11.74)"/><path d="M98.51,125.61a.86.86,0,0,1,0-.08l0,.06Z" transform="translate(-14.1 -11.74)"/><path d="M98.73,125.29l.1-.08Z" transform="translate(-14.1 -11.74)"/><path d="M134.76,128.84c-16.51,6-28.91.06-33.21-2.54a11.34,11.34,0,0,1-1.17.32c3.59,2.35,16.3,9.26,33.78,3.35,0-.12,0-.25,0-.36A.89.89,0,0,1,134.76,128.84Z" transform="translate(-14.1 -11.74)"/><path d="M135.9,129.39a.88.88,0,0,1,0,.3A.88.88,0,0,0,135.9,129.39Z" transform="translate(-14.1 -11.74)"/><path d="M146.67,115.08h0c0,1.44-.12,2.92-.24,4.35-.06.76-.13,1.52-.17,2.28-.15,2.5,0,8.75.11,16,.2,9.95.5,24.9-.24,26.84-.77.39-4.49.57-9.77.24l0,.74a.84.84,0,0,1,0,.15c4.35.27,9.62.31,10.45-.52,1.56-1.56-.07-36.7.34-43.38.12-1.94.34-3.86.39-5.8A.88.88,0,0,1,146.67,115.08Z" transform="translate(-14.1 -11.74)"/><path d="M98.46,126a.88.88,0,0,1,0-.33c-.93,2.53.28,9.56,2.23,20,1.27,6.82,3,16.12,2.19,17.55-.7.21-3.17.51-11.71-.27a.86.86,0,0,1-.54.84c5.1.48,11,.86,12.65.23,3-1.12-5.14-30.2-4.17-37.21A.87.87,0,0,1,98.46,126Z" transform="translate(-14.1 -11.74)"/><path d="M135.46,128.88a.88.88,0,0,0-.3-.08A.89.89,0,0,1,135.46,128.88Z" transform="translate(-14.1 -11.74)"/><path d="M99,125.09l.14,0h-.07Z" transform="translate(-14.1 -11.74)"/><path d="M83.71,159.71c.64-3.93,1.29-15,1.76-24.56-.24-1.83-.46-3.54-.65-5.08-.48,10.42-1.4,28.37-2.22,30.56a51.68,51.68,0,0,1,6.53.16l-.13-.9C86.85,159.71,84.88,159.69,83.71,159.71Z" transform="translate(-14.1 -11.74)"/><path d="M85.06,122.26c-.73-3.29-3.78-10.78-1.44-16.81a5.11,5.11,0,0,0-1,.12c-1.75,5.11-.06,11,1,14.73.28,1,.52,1.8.63,2.41V123A.87.87,0,0,1,85.06,122.26Z" transform="translate(-14.1 -11.74)"/><path d="M151.43,59.81s5.54.36,11,5.62a.88.88,0,0,1,.63-.27h.38c-5.78-5.79-11.73-6.23-12-6.25a.88.88,0,0,0-.71.29.89.89,0,0,0-.22.74,18.53,18.53,0,0,0,2.06,6l.93-.15A17.43,17.43,0,0,1,151.43,59.81Z" transform="translate(-14.1 -11.74)"/><path d="M171.22,69.78a12.82,12.82,0,0,1,3.93,7L182.7,89a4.32,4.32,0,0,1,.61,2.84,7.35,7.35,0,0,1-2.92,4.91.87.87,0,0,1,0,.75.89.89,0,0,1-1.19.39l-.34-.18c-1.23.56-2.8.8-3.8,0-2.8-2.29-12.72-5.58-13.91-5.91,0,0-3.35,3.42-10.62,11.8a27.21,27.21,0,0,0-2.94,10.58.88.88,0,0,1,.84.87s0,0,0,0h0a26.42,26.42,0,0,1,2.83-11c5.79-6.67,9.1-10.2,10.15-11.31,2.43.76,10.7,3.63,13.08,5.59,1.5,1.22,3.74.71,5.2-.1a8.35,8.35,0,0,0,4.5-6.31,5.22,5.22,0,0,0-.74-3.42L176,76.48A13.65,13.65,0,0,0,171.65,69c-.1.21-.2.41-.31.63A.88.88,0,0,1,171.22,69.78Z" transform="translate(-14.1 -11.74)"/><path d="M88.35,99.93a17,17,0,0,1,3-1.43,9.6,9.6,0,0,1,1.58-.42c2.54-.47,12.06.09,20.56,0a.88.88,0,0,1,.28-.77l.14-.12c-3.64,0-7.52,0-11-.1a77,77,0,0,0-10.17.12,10.45,10.45,0,0,0-1.72.46,17.59,17.59,0,0,0-3.51,1.73l.46.21A.86.86,0,0,1,88.35,99.93Z" transform="translate(-14.1 -11.74)"/><path d="M169.83,68.67c.14-.28.26-.54.39-.81a16.62,16.62,0,0,0-4.71-2.19c-.27.37-.45.64-.53.77A15.77,15.77,0,0,1,169.83,68.67Z" transform="translate(-14.1 -11.74)"/><path d="M165,66.47l4.8,2.35v0l.06-.13A15.77,15.77,0,0,0,165,66.45Z" transform="translate(-14.1 -11.74)"/><path d="M154.92,66.45s0,0,0,0H155l-.26-.37a16.21,16.21,0,0,1-2.24-5.2A19.83,19.83,0,0,1,161.83,66h.39v0a.88.88,0,0,1,.25-.59c-5.49-5.26-11-5.62-11-5.62a17.43,17.43,0,0,0,2.12,5.95l.38-.06A.88.88,0,0,1,154.92,66.45Z" transform="translate(-14.1 -11.74)"/><path d="M155.75,68.63a1.83,1.83,0,0,0-1.35.55l0,0,2.2-.71a.88.88,0,0,0-.28-.54A10.23,10.23,0,0,1,155,66.45h-.12a.88.88,0,0,1-.37.82A10.25,10.25,0,0,0,155.75,68.63Z" transform="translate(-14.1 -11.74)"/><path d="M162.44,66.64a.88.88,0,0,1-.23-.59h-.39l.6.6Z" transform="translate(-14.1 -11.74)"/><path d="M153.83,68.5c-2.69,2.23-5.56,9.69-5.9,10.58-.12.2-.33.62-.8,1.57-.32.65-.81,1.62-.91,1.77a33.77,33.77,0,0,1-9.86,9.24l.07,0a.88.88,0,0,1,1.12.32,34.74,34.74,0,0,0,9.4-9c.18-.24,1.62-3.22,1.79-3.47,0,0,3-8.09,5.67-10.29a1.83,1.83,0,0,1,1.35-.55,10.25,10.25,0,0,1-1.19-1.35.86.86,0,0,1-.39.17l-.53.08c.19.26.37.5.53.7Z" transform="translate(-14.1 -11.74)"/><path d="M135.08,92.42l.07,0h0a37.15,37.15,0,0,1-3.5,1.74l-.12,0h0a.88.88,0,0,1,1.1.47q1.11-.51,2.19-1.08A.87.87,0,0,1,135.08,92.42Z" transform="translate(-14.1 -11.74)"/><path d="M154.4,69.18c-2.66,2.2-5.67,10.29-5.67,10.29-.17.25-1.61,3.23-1.79,3.47a34.74,34.74,0,0,1-9.4,9,.83.83,0,0,1,.07.09s0,0,0,0a20.05,20.05,0,0,1,2.26-.67,35.3,35.3,0,0,0,7.78-7.94c.12-.17.33-.58,1.05-2,.29-.58.69-1.37.76-1.49a.83.83,0,0,0,.09-.19,45.37,45.37,0,0,1,4.18-8.5c.22-.67.45-1.35.68-2.06Z" transform="translate(-14.1 -11.74)"/><path d="M134.83,93.55q-1.08.58-2.19,1.08l0,0a16,16,0,0,0,2.19-1.06Z" transform="translate(-14.1 -11.74)"/><path d="M170.55,70.1a.88.88,0,0,1-.79-1.27L165,66.47l0,.07a.83.83,0,0,1-.07.08.87.87,0,0,1-.13.14l-.13.08-.16.08-.15,0-.11,0h0l-1.05,0a.88.88,0,0,1-.63-.3h0l.07.07A.89.89,0,0,0,163,67s.24,0,.61.09.59.12,1,.21A14.67,14.67,0,0,1,170,69.9a11.94,11.94,0,0,1,4.28,7.1.87.87,0,0,0,.11.28l7.55,12.23a3.45,3.45,0,0,1,.49,2.25,6.48,6.48,0,0,1-2.71,4.44l.27.15a.87.87,0,0,1,.4.44,7.35,7.35,0,0,0,2.92-4.91A4.32,4.32,0,0,0,182.7,89l-7.55-12.23a12.82,12.82,0,0,0-3.93-7A.88.88,0,0,1,170.55,70.1Z" transform="translate(-14.1 -11.74)"/><path d="M86,123.25s0,.08,0,.12a.84.84,0,0,0,0-.11c0-.38,0-.59,0-.59a.86.86,0,0,0,0-.18c-.13-.7-.39-1.62-.69-2.67-1.15-4-2.89-10.1-.53-14.87,0-.1.11-.19.17-.29h-.09a.9.9,0,0,1-.9.8c-.12,0-.23,0-.35,0-2.34,6,.71,13.52,1.44,16.81a.84.84,0,0,1,.17,0A.89.89,0,0,1,86,123.25Z" transform="translate(-14.1 -11.74)"/><path d="M175.62,97.05c-3-2.48-13.23-5.8-14.23-6.07a.89.89,0,0,0-.87.23s-3.45,3.54-10.66,11.84a.83.83,0,0,0-.1.15,27.67,27.67,0,0,0-3.09,11.87h0a.88.88,0,0,1,.88-.88h0a27.21,27.21,0,0,1,2.94-10.58c7.28-8.38,10.62-11.8,10.62-11.8,1.19.33,11.11,3.61,13.91,5.91,1,.82,2.57.58,3.8,0-.23-.13-.56-.33-1-.58A2.55,2.55,0,0,1,175.62,97.05Z" transform="translate(-14.1 -11.74)"/><path d="M88.41,100.79v0l.12.07a15.85,15.85,0,0,1,3.16-1.55,8.76,8.76,0,0,1,1.43-.38,80.84,80.84,0,0,1,9.81-.09c6.87.14,15.42.31,20.67-.56A37.57,37.57,0,0,0,132,95.88c-7,2.49-17.15,2.94-17.58,3h0a.89.89,0,0,1-.82-.55.87.87,0,0,1-.05-.22c-8.5.09-18-.46-20.56,0a9.6,9.6,0,0,0-1.58.42,17,17,0,0,0-3,1.43A.87.87,0,0,1,88.41,100.79Z" transform="translate(-14.1 -11.74)"/><path d="M153.74,71.27A7.35,7.35,0,0,1,155,69.86a1.12,1.12,0,0,1,.67-.35.87.87,0,0,0,1-1l-2.2.71C154.19,69.92,154,70.61,153.74,71.27Z" transform="translate(-14.1 -11.74)"/><path d="M132.31,95.76A38.83,38.83,0,0,0,136,93.93h0c.43-.24.85-.49,1.26-.75.9-.55,1.76-1.15,2.6-1.77a20.05,20.05,0,0,0-2.26.67.88.88,0,0,1-.42,1.14,7.48,7.48,0,0,0-1.09.65.88.88,0,0,1-1.23-.21l0,0a16,16,0,0,1-2.19,1.06v0a.88.88,0,0,1-.5,1.12h0Z" transform="translate(-14.1 -11.74)"/><path d="M88.12,101.13l.39-.25-.12-.07a.88.88,0,0,1-1.17.39l-.38-.18a10.84,10.84,0,0,0-2.41,2.78.88.88,0,0,1,.45.79s0,0,0,.06H85A10.14,10.14,0,0,1,88.12,101.13Z" transform="translate(-14.1 -11.74)"/><path d="M86.84,101c-.28-.13-.6-.26-.93-.39a11.58,11.58,0,0,0-2.42,3H84a.86.86,0,0,1,.4.13A10.84,10.84,0,0,1,86.84,101Z" transform="translate(-14.1 -11.74)"/><path d="M170.95,68.4c-.13.27-.25.53-.39.81.23.18.45.37.67.57a.88.88,0,0,0,.12-.17c.11-.21.2-.42.31-.63-.18-.16-.35-.32-.54-.47Z" transform="translate(-14.1 -11.74)"/><path d="M165.5,65.68l-.45-.13-.23-.05a.87.87,0,0,1,.14.95h0C165.06,66.32,165.23,66.05,165.5,65.68Z" transform="translate(-14.1 -11.74)"/><path d="M169.83,68.67c.24.17.49.35.72.54.14-.28.27-.54.39-.81-.24-.19-.49-.37-.73-.53C170.09,68.14,170,68.4,169.83,68.67Z" transform="translate(-14.1 -11.74)"/><path d="M165,66.47v0h0v0Z" transform="translate(-14.1 -11.74)"/><path d="M169.76,68.81v0l.79.39c-.24-.19-.48-.37-.72-.54Z" transform="translate(-14.1 -11.74)"/><path d="M164.43,66.92l-.15,0Z" transform="translate(-14.1 -11.74)"/><path d="M170.15,70a.88.88,0,0,0,1.07-.21c-.22-.2-.44-.39-.67-.57l-.79-.39A.88.88,0,0,0,170.15,70Z" transform="translate(-14.1 -11.74)"/><path d="M164.72,66.76l-.13.08Z" transform="translate(-14.1 -11.74)"/><path d="M164.85,66.62a.83.83,0,0,0,.07-.08l0-.07h0A.88.88,0,0,1,164.85,66.62Z" transform="translate(-14.1 -11.74)"/><path d="M136.82,92.42a8.4,8.4,0,0,0-1.22.73Q136.22,92.8,136.82,92.42Z" transform="translate(-14.1 -11.74)"/><path d="M135.6,93.14a8.4,8.4,0,0,1,1.22-.73l.73-.48a.88.88,0,0,0-1.12-.32l-.07,0h0q-.57.36-1.16.69l0,0-.07,0a.87.87,0,0,0-.25,1.13l.76-.4Z" transform="translate(-14.1 -11.74)"/><path d="M137.55,91.94l-.73.48c.27-.13.54-.25.81-.35,0,0,0,0,0,0A.83.83,0,0,0,137.55,91.94Z" transform="translate(-14.1 -11.74)"/><path d="M134.83,93.55l0,.07c.25-.15.5-.31.73-.47Z" transform="translate(-14.1 -11.74)"/><path d="M135.6,93.14h0c-.23.16-.47.32-.73.47l0,0a.88.88,0,0,0,1.23.21,7.48,7.48,0,0,1,1.09-.65.88.88,0,0,0,.42-1.14c-.27.1-.54.21-.81.35S136,92.91,135.6,93.14Z" transform="translate(-14.1 -11.74)"/><path d="M154,66.57c-.16-.25-.33-.52-.5-.82l-.93.15c.17.3.33.57.48.82Z" transform="translate(-14.1 -11.74)"/><path d="M113.5,98.08a70.52,70.52,0,0,0,9.94-.65,36.87,36.87,0,0,0,8.4-2.43c-7,2.51-17.47,3-17.47,3s.37-.33,1-.8l-1.45,0-.14.12A.88.88,0,0,0,113.5,98.08Z" transform="translate(-14.1 -11.74)"/><path d="M154.92,66.45a.88.88,0,0,0-1-.76l-.38.06c.17.29.34.57.5.82l.88-.11S154.92,66.46,154.92,66.45Z" transform="translate(-14.1 -11.74)"/><path d="M154.92,66.46l-.88.11c.18.27.35.5.51.71A.88.88,0,0,0,154.92,66.46Z" transform="translate(-14.1 -11.74)"/><path d="M153.64,67.53l.53-.08a.86.86,0,0,0,.39-.17c-.16-.21-.33-.45-.51-.71l-1,.15.22.34Z" transform="translate(-14.1 -11.74)"/><path d="M132.64,94.64a.88.88,0,0,0-1.1-.47h0a36,36,0,0,1-8.2,2.37,60.58,60.58,0,0,1-7.94.6c-.62.47-1,.8-1,.8s10.52-.45,17.47-3l.12,0Z" transform="translate(-14.1 -11.74)"/><path d="M132,94.95l.7-.27,0,0Z" transform="translate(-14.1 -11.74)"/><path d="M114.38,98.85h0c.43,0,10.59-.48,17.58-3l.18-.07a.88.88,0,0,0,.5-1.12v0l-.7.27-.12,0a36.87,36.87,0,0,1-8.4,2.43,70.52,70.52,0,0,1-9.94.65.87.87,0,0,0,.05.22A.89.89,0,0,0,114.38,98.85Z" transform="translate(-14.1 -11.74)"/><path d="M163.09,65.16a.88.88,0,0,0-.63.27c.21.2.42.4.63.61h.2a.86.86,0,0,1,.11-.42l.23-.37-.09,0-.08-.07h-.38Z" transform="translate(-14.1 -11.74)"/><path d="M163.29,66.1s0,0,0,0h-.2l0,0Z" transform="translate(-14.1 -11.74)"/><path d="M162.21,66h.88c-.21-.22-.42-.41-.63-.61a.88.88,0,0,0-.25.59Z" transform="translate(-14.1 -11.74)"/><path d="M162.21,66a.88.88,0,0,0,.23.59l.89-.29a.87.87,0,0,1,0-.25l-.16,0,0,0Z" transform="translate(-14.1 -11.74)"/><path d="M163.07,66.93l1.05,0h0l.11,0a.84.84,0,0,1-.95-.6l-.89.29A.88.88,0,0,0,163.07,66.93Z" transform="translate(-14.1 -11.74)"/><path d="M164.59,66.84l-.16.08Z" transform="translate(-14.1 -11.74)"/><path d="M164.85,66.62a.89.89,0,0,1-.13.14A.87.87,0,0,0,164.85,66.62Z" transform="translate(-14.1 -11.74)"/><path d="M164.16,66.08l-.34.11c.27.05.61.12,1,.22Z" transform="translate(-14.1 -11.74)"/><path d="M164.58,65.44l-.6-.13-.35-.06-.23.37a.86.86,0,0,0-.11.42l.87,0S164.31,65.84,164.58,65.44Z" transform="translate(-14.1 -11.74)"/><path d="M164.84,66.41l.13,0a.87.87,0,0,0-.14-.95l-.24-.06c-.27.4-.42.64-.42.64Z" transform="translate(-14.1 -11.74)"/><path d="M165,66.45l-.13,0,.11.06Z" transform="translate(-14.1 -11.74)"/><path d="M163.83,66.19l.34-.11-.87,0s0,0,0,0Z" transform="translate(-14.1 -11.74)"/><path d="M163.29,66.1a.87.87,0,0,0,0,.25l.5-.16Z" transform="translate(-14.1 -11.74)"/><path d="M163.71,66.84a.87.87,0,0,0,.57.1l.15,0,.16-.08.13-.08a1.58,1.58,0,0,0,.23-.29l-.11-.06c-.4-.1-.74-.17-1-.22l-.5.16A.87.87,0,0,0,163.71,66.84Z" transform="translate(-14.1 -11.74)"/><path d="M84,104.55a6.41,6.41,0,0,0-1,0q-.22.49-.39,1a5.11,5.11,0,0,1,1-.12C83.74,105.15,83.85,104.85,84,104.55Z" transform="translate(-14.1 -11.74)"/><path d="M86.71,100c.33.14.64.28.91.41.23-.16.48-.32.73-.47a.86.86,0,0,0-.34-.32l-.46-.21-.44.28C87,99.78,86.85,99.89,86.71,100Z" transform="translate(-14.1 -11.74)"/><path d="M88.41,100.79a.87.87,0,0,0-.07-.86c-.25.15-.5.31-.73.47.31.15.56.28.78.41Z" transform="translate(-14.1 -11.74)"/><path d="M84.87,104.64a7,7,0,0,0-.87-.09c-.15.3-.26.6-.38.9.12,0,.23,0,.35,0A.9.9,0,0,0,84.87,104.64Z" transform="translate(-14.1 -11.74)"/><path d="M87.23,101.2a.88.88,0,0,0,1.17-.39c-.22-.12-.47-.26-.78-.41-.28.2-.52.41-.77.61Z" transform="translate(-14.1 -11.74)"/><path d="M84.88,104.58a.88.88,0,0,0-.45-.79c-.15.25-.31.5-.43.76a7,7,0,0,1,.87.09S84.88,104.6,84.88,104.58Z" transform="translate(-14.1 -11.74)"/><path d="M86.84,101c.25-.21.49-.42.77-.61-.27-.13-.58-.27-.91-.41-.27.21-.55.41-.8.63C86.25,100.75,86.56,100.89,86.84,101Z" transform="translate(-14.1 -11.74)"/><path d="M84,103.67h-.54c-.09.17-.2.32-.28.49s-.12.29-.19.43a6.41,6.41,0,0,1,1,0c.13-.26.28-.51.43-.76A.86.86,0,0,0,84,103.67Z" transform="translate(-14.1 -11.74)"/><path d="M147.59,114.21c0,.29,0,.58,0,.88s0,.59,0,.88h0a.88.88,0,0,0,.9-.86s0,0,0,0A.88.88,0,0,0,147.59,114.21Z" transform="translate(-14.1 -11.74)"/><path d="M147.59,114.21h0a.88.88,0,0,0,0,1.77c0-.29,0-.59,0-.88S147.57,114.5,147.59,114.21Z" transform="translate(-14.1 -11.74)"/><path d="M135,133.84c0,8,.31,23.08.46,29.11l0,0-.35-29.73Z" transform="translate(-14.1 -11.74)"/><path d="M135,133.84c-.3,1.26-.59,2.51-.88,3.76,0,8.22.32,19.86.45,25.16l.43,0a1.11,1.11,0,0,1,.47.15C135.27,156.93,134.92,141.84,135,133.84Z" transform="translate(-14.1 -11.74)"/><path d="M135.7,129.06l.05.06Z" transform="translate(-14.1 -11.74)"/><path d="M135.08,128.79h0Z" transform="translate(-14.1 -11.74)"/><path d="M135.95,129.73s0,0,0,0a.88.88,0,0,1,0,.19c-.27,1.11-.55,2.24-.82,3.36l.35,29.73c.59.37.57,1.26.56,1.69v.1l.34,0C136.23,160.17,135.6,135,135.95,129.73Z" transform="translate(-14.1 -11.74)"/><path d="M135.47,128.89h0Z" transform="translate(-14.1 -11.74)"/><path d="M134.76,128.84l.08,0-.09,0Z" transform="translate(-14.1 -11.74)"/><path d="M135.9,129.39l0,0Z" transform="translate(-14.1 -11.74)"/><path d="M135.41,165.61c-.62,0,0-1.87-.54-1.92l-.32,0c0,1.06,0,1.75.05,1.91a.88.88,0,0,0,.88.86h0a.87.87,0,0,0,.83-.76l-.86-.06Z" transform="translate(-14.1 -11.74)"/><path d="M134.16,130c0,.9-.07,2.2-.08,3.79.59-2.5,1-4.1,1-4.1Z" transform="translate(-14.1 -11.74)"/><path d="M135.49,165.55l0-2.57,0,0C135.46,164.57,135.49,165.55,135.49,165.55Z" transform="translate(-14.1 -11.74)"/><path d="M135.06,129.67c-.06.89-.09,2.35-.1,4.17l.14-.6Z" transform="translate(-14.1 -11.74)"/><path d="M134.08,137.61c.29-1.25.58-2.51.88-3.76,0-1.82,0-3.28.1-4.17,0,0-.39,1.6-1,4.1C134.07,134.92,134.07,136.21,134.08,137.61Z" transform="translate(-14.1 -11.74)"/><path d="M135.41,165.61h.07v-.07s0-1-.07-2.59a1.11,1.11,0,0,0-.47-.15l-.43,0,0,.89.32,0C135.46,163.74,134.79,165.57,135.41,165.61Z" transform="translate(-14.1 -11.74)"/><path d="M135.11,133.24c.27-1.13.54-2.25.82-3.36a1,1,0,0,0,0-.49l0,0a.88.88,0,0,0-.13-.22l-.05-.06a.88.88,0,0,0-.23-.18h0a.89.89,0,0,0-.3-.08h-.08a.82.82,0,0,0-.24,0l-.08,0h0a.89.89,0,0,0-.58.77c0,.11,0,.24,0,.36l.9-.3Z" transform="translate(-14.1 -11.74)"/><path d="M136.35,164.79l-.34,0v-.1c0-.43,0-1.31-.56-1.69l0,2.57v.07l.86.06a.84.84,0,0,0,0-.15Z" transform="translate(-14.1 -11.74)"/><path d="M84.28,123.49a.87.87,0,0,1,0-.31V123a4.48,4.48,0,0,0,0,.78h0A.85.85,0,0,1,84.28,123.49Z" transform="translate(-14.1 -11.74)"/><path d="M85.79,128.3,85.71,130c1.08,8.89,3.26,23.71,4.2,30l.06,0Z" transform="translate(-14.1 -11.74)"/><path d="M85.79,128.3,90,160a1.34,1.34,0,0,1,.7,1.12c0,.27.08.64.11,1a.86.86,0,0,1,.43.55v0a.84.84,0,0,1,0,.15.82.82,0,0,0,0-.08L91,161.12c-1.13-7.52-4.83-32.45-5-37.31v0s0,0,0-.07,0-.25,0-.35a.89.89,0,0,1,0,.18.87.87,0,0,1,0,.3C85.93,125.14,85.86,126.65,85.79,128.3Z" transform="translate(-14.1 -11.74)"/><path d="M85.47,135.16c1.12,8.48,2.7,19.21,3.53,24.74l.66.06a.91.91,0,0,1,.25.05c-.93-6.25-3.12-21.07-4.2-30C85.64,131.66,85.56,133.38,85.47,135.16Z" transform="translate(-14.1 -11.74)"/><path d="M89.89,162.18c0-.32-.05-.64-.1-.89s-.12-.45-.22-.46l-.43,0,.09.59.25,1.65s0,0,0,.06A.89.89,0,0,1,89.89,162.18Z" transform="translate(-14.1 -11.74)"/><path d="M84.82,130.07c.12-2.56.21-4.66.26-6h0a.88.88,0,0,1-.8-.62.85.85,0,0,0-.07.29h0s0,0,0,.05C84.25,125,84.48,127.23,84.82,130.07Z" transform="translate(-14.1 -11.74)"/><path d="M89.58,163.35l0-.07Z" transform="translate(-14.1 -11.74)"/><path d="M85.23,124.08l-.11,0h0c.06,1.21.28,3.31.6,5.94l.08-1.74Z" transform="translate(-14.1 -11.74)"/><path d="M90.23,162.06,90,160l-.06,0,.19,1.25.12.81Z" transform="translate(-14.1 -11.74)"/><path d="M90,160l.27,2a.88.88,0,0,1,.54.09c0-.37-.06-.73-.11-1A1.34,1.34,0,0,0,90,160Z" transform="translate(-14.1 -11.74)"/><path d="M90.22,162.06l-.12-.81-.31,0c0,.24.07.56.1.89a.84.84,0,0,1,.24-.12Z" transform="translate(-14.1 -11.74)"/><path d="M86,123.85a.87.87,0,0,0,0-.3.87.87,0,0,1-.7.53l.56,4.22C85.86,126.65,85.93,125.14,86,123.85Z" transform="translate(-14.1 -11.74)"/><path d="M85.71,130c-.32-2.63-.54-4.73-.6-5.94h0c-.05,1.31-.14,3.4-.26,6,.19,1.54.41,3.26.65,5.08C85.56,133.38,85.64,131.66,85.71,130Z" transform="translate(-14.1 -11.74)"/><path d="M89.79,161.29l.31,0L89.91,160a.91.91,0,0,0-.25-.05l-.66-.06.13.9.43,0C89.67,160.84,89.74,161,89.79,161.29Z" transform="translate(-14.1 -11.74)"/><path d="M84.28,123.49a.92.92,0,0,1,.85-.56c0-.18,0-.28,0-.28s-.06-.26-.08-.39a.87.87,0,0,0-.81.71v.21A.87.87,0,0,0,84.28,123.49Z" transform="translate(-14.1 -11.74)"/><path d="M85.93,123.55a.89.89,0,0,0,0-.18s0-.09,0-.12a.89.89,0,0,0-.75-1,.84.84,0,0,0-.17,0c0,.13.06.27.08.39s0,.1,0,.28h0A.88.88,0,0,1,85.93,123.55Z" transform="translate(-14.1 -11.74)"/><path d="M85.1,123.76a3.76,3.76,0,0,1,0-.63v-.2a.92.92,0,0,0-.85.56.88.88,0,0,0,.8.62h0v-.29A.14.14,0,0,1,85.1,123.76Z" transform="translate(-14.1 -11.74)"/><path d="M85.23,124.08l-.11-.86c0,.15,0,.33,0,.54a.14.14,0,0,0,0,.05c0,.09,0,.19,0,.29h0Z" transform="translate(-14.1 -11.74)"/><path d="M85.23,124.08a.6.6,0,1,0-.1-1.16h0v.3Z" transform="translate(-14.1 -11.74)"/><path d="M85.1,123.81v.29h0C85.11,124,85.1,123.9,85.1,123.81Z" transform="translate(-14.1 -11.74)"/><path d="M85.11,123.13a3.76,3.76,0,0,0,0,.63c0-.21,0-.38,0-.54Z" transform="translate(-14.1 -11.74)"/><path d="M91.21,162.9h0v0S91.21,162.89,91.21,162.9Z" transform="translate(-14.1 -11.74)"/><path d="M89.49,163.15a.85.85,0,0,0,.06.14.88.88,0,0,1-.06-.19S89.48,163.13,89.49,163.15Z" transform="translate(-14.1 -11.74)"/><path d="M90.47,163.79h-.12a.88.88,0,0,1-.76-.44.88.88,0,0,0,.77.47l.22,0,.12-.06h-.06A.84.84,0,0,1,90.47,163.79Z" transform="translate(-14.1 -11.74)"/><path d="M91.21,162.9h0a.86.86,0,0,1-.59.83h.06A.86.86,0,0,0,91.21,162.9Z" transform="translate(-14.1 -11.74)"/><path d="M91.21,162.72v0a.86.86,0,0,0-.43-.55h0c0,.2,0,.49.07.72l.37,0s0,0,0,0A.84.84,0,0,0,91.21,162.72Z" transform="translate(-14.1 -11.74)"/><path d="M90.34,163.79h.13a.84.84,0,0,0,.16-.05l-.38,0c-.24,0-.3-.78-.36-1.51a.86.86,0,0,0-.33,1.11l0,.07A.88.88,0,0,0,90.34,163.79Z" transform="translate(-14.1 -11.74)"/><path d="M90.34,162.91l-.11-.85h0Z" transform="translate(-14.1 -11.74)"/><path d="M90.77,162.15h0a.88.88,0,0,0-.54-.09l.11.85-.13-.85h-.09a.84.84,0,0,0-.24.12c.06.73.12,1.49.36,1.51l.38,0a.86.86,0,0,0,.59-.83l-.37,0C90.81,162.64,90.79,162.35,90.77,162.15Z" transform="translate(-14.1 -11.74)"/><path d="M107.76,115.28l-.93,1.17c-.4,6.32-4.76,8-6.67,8.42l-.26.33s.25.19.67.47C102.92,125.09,107.87,122.94,107.76,115.28Z" transform="translate(-14.1 -11.74)"/><path d="M98.51,125.61v0Z" transform="translate(-14.1 -11.74)"/><path d="M99,125.09a.85.85,0,0,0-.22.12A.89.89,0,0,1,99,125.09Z" transform="translate(-14.1 -11.74)"/><path d="M98.56,125.53a.88.88,0,0,1,.17-.24A.87.87,0,0,0,98.56,125.53Z" transform="translate(-14.1 -11.74)"/><path d="M108.64,115.27a.89.89,0,0,0-.88-.87h0a.89.89,0,0,0-.87.9c0,.41,0,.78,0,1.16l.93-1.17c.11,7.66-4.84,9.81-7.19,10.4.25.17.58.38,1,.62C104.31,125.38,108.75,122.73,108.64,115.27Z" transform="translate(-14.1 -11.74)"/><path d="M99.28,125l-.1,0a.88.88,0,0,1,.71.16h0l.26-.33A6.75,6.75,0,0,1,99.28,125Z" transform="translate(-14.1 -11.74)"/><path d="M99.16,126.75a.85.85,0,0,0,.19,0h.06a7.87,7.87,0,0,0,1-.16c-.68-.44-1-.72-1-.72A4,4,0,0,0,99.16,126.75Z" transform="translate(-14.1 -11.74)"/><path d="M99.35,125.91a8.13,8.13,0,0,0,1.22-.22c-.42-.28-.65-.46-.67-.47Z" transform="translate(-14.1 -11.74)"/><path d="M99.9,125.21h0a.88.88,0,0,0-.71-.16l-.14,0a.89.89,0,0,0-.22.12l-.1.08a.88.88,0,0,0-.17.24.86.86,0,0,0,0,.08v0a.86.86,0,0,0,.65,1.12,4,4,0,0,1,.19-.85Z" transform="translate(-14.1 -11.74)"/><path d="M100.57,125.68a8.13,8.13,0,0,1-1.22.22s.35.28,1,.72a11.34,11.34,0,0,0,1.17-.32C101.15,126.07,100.82,125.86,100.57,125.68Z" transform="translate(-14.1 -11.74)"/><path d="M172.93,89a.89.89,0,0,0-1.66.63c1.41,3.73,4.77,6.3,6.63,7.5a5.13,5.13,0,0,0,.94-.4,8.56,8.56,0,0,0,.89-.57C178.62,95.58,174.42,93,172.93,89Z" transform="translate(-14.1 -11.74)"/><path d="M178.86,97.75l.34.18a.89.89,0,0,0,1.19-.39.87.87,0,0,0,0-.75,9.24,9.24,0,0,1-1.13.75Z" transform="translate(-14.1 -11.74)"/><path d="M180,96.36l-.27-.15a8.56,8.56,0,0,1-.89.57,5.13,5.13,0,0,1-.94.4c.39.25.73.45,1,.58l.41-.2a9.24,9.24,0,0,0,1.13-.75A.87.87,0,0,0,180,96.36Z" transform="translate(-14.1 -11.74)"/><path class="cls-3" d="M69.52,74.13l-.23.5c-.38,1.26,1.61,1.58,2,.36A1,1,0,0,0,69.52,74.13Z" transform="translate(-14.1 -11.74)"/><path class="cls-3" d="M71.09,75.46a1,1,0,0,0,.21-.47c-.41,1.22-2.39.9-2-.36l.23-.5a1,1,0,0,1,1.78.86l0,0c.82-2.77-3-4.58-4.38-1.88S69.3,77.67,71.09,75.46Z" transform="translate(-14.1 -11.74)"/><path class="cls-3" d="M37,66.63l-.23.5c-.38,1.26,1.61,1.58,2,.36A1,1,0,0,0,37,66.63Z" transform="translate(-14.1 -11.74)"/><path class="cls-3" d="M34.44,65.58c-1.37,2.75,2.36,4.58,4.15,2.38a1,1,0,0,0,.21-.47c-.41,1.22-2.39.9-2-.36l.23-.5a1,1,0,0,1,1.78.86l0,0C39.65,64.69,35.78,62.88,34.44,65.58Z" transform="translate(-14.1 -11.74)"/><path class="cls-3" d="M42.52,79.13l-.23.5c-.38,1.26,1.61,1.58,2,.36A1,1,0,0,0,42.52,79.13Z" transform="translate(-14.1 -11.74)"/><path class="cls-3" d="M44.09,80.46a1,1,0,0,0,.21-.47c-.41,1.22-2.39.9-2-.36l.23-.5a1,1,0,0,1,1.78.86l0,0c.82-2.77-3-4.58-4.38-1.88S42.3,82.67,44.09,80.46Z" transform="translate(-14.1 -11.74)"/><path class="cls-3" d="M216.25,108.91c-1.37,2.75,2.36,4.58,4.15,2.38a1,1,0,0,0,.21-.47c-.41,1.22-2.39.9-2-.36l.23-.5a1,1,0,0,1,1.78.86l0,0C221.45,108,217.59,106.21,216.25,108.91Z" transform="translate(-14.1 -11.74)"/><path class="cls-3" d="M218.82,110l-.23.5c-.38,1.26,1.61,1.58,2,.36A1,1,0,0,0,218.82,110Z" transform="translate(-14.1 -11.74)"/><path class="cls-3" d="M176.82,195.46l-.23.5c-.38,1.26,1.61,1.58,2,.36A1,1,0,0,0,176.82,195.46Z" transform="translate(-14.1 -11.74)"/><path class="cls-3" d="M174.25,194.41c-1.37,2.75,2.36,4.58,4.15,2.38a1,1,0,0,0,.21-.47c-.41,1.22-2.39.9-2-.36l.23-.5a1,1,0,0,1,1.78.86l0,0C179.45,193.51,175.59,191.71,174.25,194.41Z" transform="translate(-14.1 -11.74)"/><path class="cls-3" d="M198.25,175.91c-1.37,2.75,2.36,4.58,4.15,2.38a1,1,0,0,0,.21-.47c-.41,1.22-2.39.9-2-.36l.23-.5a1,1,0,0,1,1.78.86l0,0C203.45,175,199.59,173.21,198.25,175.91Z" transform="translate(-14.1 -11.74)"/><path class="cls-3" d="M200.82,177l-.23.5c-.38,1.26,1.61,1.58,2,.36A1,1,0,0,0,200.82,177Z" transform="translate(-14.1 -11.74)"/><path class="cls-3" d="M163.75,169.91c-1.37,2.75,2.36,4.58,4.15,2.38a1,1,0,0,0,.21-.47c-.41,1.22-2.39.9-2-.36l.23-.5a1,1,0,0,1,1.78.86l0,0C168.95,169,165.09,167.21,163.75,169.91Z" transform="translate(-14.1 -11.74)"/><path class="cls-3" d="M166.32,171l-.23.5c-.38,1.26,1.61,1.58,2,.36A1,1,0,0,0,166.32,171Z" transform="translate(-14.1 -11.74)"/><path class="cls-3" d="M153.32,171l-.23.5c-.38,1.26,1.61,1.58,2,.36A1,1,0,0,0,153.32,171Z" transform="translate(-14.1 -11.74)"/><path class="cls-3" d="M150.75,169.91c-1.37,2.75,2.36,4.58,4.15,2.38a1,1,0,0,0,.21-.47c-.41,1.22-2.39.9-2-.36l.23-.5a1,1,0,0,1,1.78.86l0,0C155.95,169,152.09,167.21,150.75,169.91Z" transform="translate(-14.1 -11.74)"/><path class="cls-3" d="M117.32,215.46l-.23.5c-.38,1.26,1.61,1.58,2,.36A1,1,0,0,0,117.32,215.46Z" transform="translate(-14.1 -11.74)"/><path class="cls-3" d="M114.75,214.41c-1.37,2.75,2.36,4.58,4.15,2.38a1,1,0,0,0,.21-.47c-.41,1.22-2.39.9-2-.36l.23-.5a1,1,0,0,1,1.78.86l0,0C119.95,213.51,116.09,211.71,114.75,214.41Z" transform="translate(-14.1 -11.74)"/><path class="cls-3" d="M93.75,189.91c-1.37,2.75,2.36,4.58,4.15,2.38a1,1,0,0,0,.21-.47c-.41,1.22-2.39.9-2-.36l.23-.5a1,1,0,0,1,1.78.86l0,0C98.95,189,95.09,187.21,93.75,189.91Z" transform="translate(-14.1 -11.74)"/><path class="cls-3" d="M96.32,191l-.23.5c-.38,1.26,1.61,1.58,2,.36A1,1,0,0,0,96.32,191Z" transform="translate(-14.1 -11.74)"/><path class="cls-3" d="M108.82,179.46l-.23.5c-.38,1.26,1.61,1.58,2,.36A1,1,0,0,0,108.82,179.46Z" transform="translate(-14.1 -11.74)"/><path class="cls-3" d="M110.39,180.79a1,1,0,0,0,.21-.47c-.41,1.22-2.39.9-2-.36l.23-.5a1,1,0,0,1,1.78.86l0,0c.82-2.77-3-4.58-4.38-1.88S108.6,183,110.39,180.79Z" transform="translate(-14.1 -11.74)"/><path class="cls-3" d="M91.32,179l-.23.5c-.38,1.26,1.61,1.58,2,.36A1,1,0,0,0,91.32,179Z" transform="translate(-14.1 -11.74)"/><path class="cls-3" d="M88.75,177.91c-1.37,2.75,2.36,4.58,4.15,2.38a1,1,0,0,0,.21-.47c-.41,1.22-2.39.9-2-.36l.23-.5a1,1,0,0,1,1.78.86l0,0C93.95,177,90.09,175.21,88.75,177.91Z" transform="translate(-14.1 -11.74)"/><path class="cls-3" d="M40.48,131.41c-1.37,2.75,2.36,4.58,4.15,2.38a1,1,0,0,0,.21-.47c-.41,1.22-2.39.9-2-.36l.23-.5a1,1,0,0,1,1.78.86l0,0C45.68,130.51,41.82,128.71,40.48,131.41Z" transform="translate(-14.1 -11.74)"/><path class="cls-3" d="M43.05,132.45l-.23.5c-.38,1.26,1.61,1.58,2,.36A1,1,0,0,0,43.05,132.45Z" transform="translate(-14.1 -11.74)"/><path class="cls-3" d="M44.55,114.45l-.23.5c-.38,1.26,1.61,1.58,2,.36A1,1,0,0,0,44.55,114.45Z" transform="translate(-14.1 -11.74)"/><path class="cls-3" d="M42,113.41c-1.37,2.75,2.36,4.58,4.15,2.38a1,1,0,0,0,.21-.47c-.41,1.22-2.39.9-2-.36l.23-.5a1,1,0,0,1,1.78.86l0,0C47.18,112.51,43.32,110.71,42,113.41Z" transform="translate(-14.1 -11.74)"/><path class="cls-3" d="M52.48,123.91c-1.37,2.75,2.36,4.58,4.15,2.38a1,1,0,0,0,.21-.47c-.41,1.22-2.39.9-2-.36l.23-.5a1,1,0,0,1,1.78.86l0,0C57.68,123,53.82,121.21,52.48,123.91Z" transform="translate(-14.1 -11.74)"/><path class="cls-3" d="M55.05,125l-.23.5c-.38,1.26,1.61,1.58,2,.36A1,1,0,0,0,55.05,125Z" transform="translate(-14.1 -11.74)"/><path class="cls-3" d="M160.25,107.13l-.23.5c-.38,1.26,1.61,1.58,2,.36A1,1,0,0,0,160.25,107.13Z" transform="translate(-14.1 -11.74)"/><path class="cls-3" d="M161.82,108.46A1,1,0,0,0,162,108c-.41,1.22-2.39.9-2-.36l.23-.5A1,1,0,0,1,162,108l0,0c.82-2.77-3-4.58-4.38-1.88S160,110.66,161.82,108.46Z" transform="translate(-14.1 -11.74)"/><path class="cls-3" d="M177.75,107.13l-.23.5c-.38,1.26,1.61,1.58,2,.36A1,1,0,0,0,177.75,107.13Z" transform="translate(-14.1 -11.74)"/><path class="cls-3" d="M175.17,106.08c-1.37,2.75,2.36,4.58,4.15,2.38a1,1,0,0,0,.21-.47c-.41,1.22-2.39.9-2-.36l.23-.5a1,1,0,0,1,1.78.86l0,0C180.38,105.18,176.51,103.38,175.17,106.08Z" transform="translate(-14.1 -11.74)"/><path class="cls-3" d="M168.25,117.13l-.23.5c-.38,1.26,1.61,1.58,2,.36A1,1,0,0,0,168.25,117.13Z" transform="translate(-14.1 -11.74)"/><path class="cls-3" d="M165.67,116.08c-1.37,2.75,2.36,4.58,4.15,2.38A1,1,0,0,0,170,118c-.41,1.22-2.39.9-2-.36l.23-.5A1,1,0,0,1,170,118l0,0C170.88,115.18,167,113.38,165.67,116.08Z" transform="translate(-14.1 -11.74)"/><path class="cls-3" d="M182.32,53.46l-.23.5c-.38,1.26,1.61,1.58,2,.36A1,1,0,0,0,182.32,53.46Z" transform="translate(-14.1 -11.74)"/><path class="cls-3" d="M183.89,54.79a1,1,0,0,0,.21-.47c-.41,1.22-2.39.9-2-.36l.23-.5a1,1,0,0,1,1.78.86l0,0c.82-2.77-3-4.58-4.38-1.88S182.1,57,183.89,54.79Z" transform="translate(-14.1 -11.74)"/><path class="cls-3" d="M200.55,57.45l-.23.5c-.38,1.26,1.61,1.58,2,.36A1,1,0,0,0,200.55,57.45Z" transform="translate(-14.1 -11.74)"/><path class="cls-3" d="M202.13,58.78a1,1,0,0,0,.21-.47c-.41,1.22-2.39.9-2-.36l.23-.5a1,1,0,0,1,1.78.86l0,0c.82-2.77-3-4.58-4.38-1.88S200.33,61,202.13,58.78Z" transform="translate(-14.1 -11.74)"/><path class="cls-3" d="M124.55,29.45l-.23.5c-.38,1.26,1.61,1.58,2,.36A1,1,0,0,0,124.55,29.45Z" transform="translate(-14.1 -11.74)"/><path class="cls-3" d="M122,28.41c-1.37,2.75,2.36,4.58,4.15,2.38a1,1,0,0,0,.21-.47c-.41,1.22-2.39.9-2-.36l.23-.5a1,1,0,0,1,1.78.86l0,0C127.18,27.51,123.32,25.71,122,28.41Z" transform="translate(-14.1 -11.74)"/><path class="cls-3" d="M143.32,57.46l-.23.5c-.38,1.26,1.61,1.58,2,.36A1,1,0,0,0,143.32,57.46Z" transform="translate(-14.1 -11.74)"/><path class="cls-3" d="M144.89,58.79a1,1,0,0,0,.21-.47c-.41,1.22-2.39.9-2-.36l.23-.5a1,1,0,0,1,1.78.86l0,0c.82-2.77-3-4.58-4.38-1.88S143.1,61,144.89,58.79Z" transform="translate(-14.1 -11.74)"/><path class="cls-6" d="M54.46,163.2a1,1,0,0,1-1.33-1.28,1.07,1.07,0,1,0,1.33,1.28Z" transform="translate(-14.1 -11.74)"/><path class="cls-6" d="M52.7,163.73a1.13,1.13,0,0,1,.43-1.81,1,1,0,1,1,1.33,1.28,1.13,1.13,0,0,1-1.76.53A1.12,1.12,0,0,0,53,164c2,1.11,4.3-1.45,2.5-3.18s-4.27.64-3.07,2.64A1.11,1.11,0,0,0,52.7,163.73Z" transform="translate(-14.1 -11.74)"/><path class="cls-6" d="M53.38,163a1,1,0,0,0,1.08.2.88.88,0,0,0-.13-.63l-.57-.54a.88.88,0,0,0-.63-.11A1,1,0,0,0,53.38,163Z" transform="translate(-14.1 -11.74)"/><path class="cls-6" d="M53.76,162l.57.54a.88.88,0,0,1,.13.63,1,1,0,0,0,.35-.23,1,1,0,1,0-1.68-1A.88.88,0,0,1,53.76,162Z" transform="translate(-14.1 -11.74)"/><path class="cls-6" d="M49.18,162.16a1.14,1.14,0,0,1-1.14.9,1,1,0,0,1-.38.35,1,1,0,1,1-.9-1.82,1,1,0,0,1,.46-.09,1.08,1.08,0,0,1,1.92.39,2.29,2.29,0,0,1,0,.27.92.92,0,0,0-.25-.77c-1.53-1.72-4.71-.4-3.58,2C46.41,165.61,49.35,164.32,49.18,162.16Z" transform="translate(-14.1 -11.74)"/><path class="cls-6" d="M47.23,161.5a1,1,0,0,1,.81,1.56,1.14,1.14,0,0,0,1.14-.9,2.29,2.29,0,0,0,0-.27A1.08,1.08,0,0,0,47.23,161.5Z" transform="translate(-14.1 -11.74)"/><path class="cls-6" d="M47.1,162.21a.91.91,0,0,1,.13-.71,1,1,0,0,0-.46.09,1,1,0,1,0,.9,1.82,1,1,0,0,0,.38-.35,1,1,0,0,1-.73-.36Z" transform="translate(-14.1 -11.74)"/><path class="cls-6" d="M48.12,162a1,1,0,0,0-.89-.55.91.91,0,0,0-.13.71l.22.5a1,1,0,0,0,.73.36A1,1,0,0,0,48.12,162Z" transform="translate(-14.1 -11.74)"/><path class="cls-6" d="M57.13,168.13c-3.66,2.64-8.92,3.69-12.18-.18-.86-1-2.48.28-1.62,1.31,4,4.79,10.51,3.81,15.11.49C59.53,169,58.22,167.35,57.13,168.13Z" transform="translate(-14.1 -11.74)"/><path class="cls-6" d="M40.46,155.3,34.61,151a1,1,0,0,0-1.23,1.68L39.23,157A1,1,0,0,0,40.46,155.3Z" transform="translate(-14.1 -11.74)"/><path class="cls-6" d="M68.58,179.65l-5.85-4.29A1,1,0,0,0,61.51,177l5.84,4.29A1,1,0,0,0,68.58,179.65Z" transform="translate(-14.1 -11.74)"/><path class="cls-6" d="M37.6,182.61l4.29-5.85a1,1,0,0,0-1.68-1.23l-4.29,5.85a1,1,0,0,0-.19.77l.57.74A1,1,0,0,0,37.6,182.61Z" transform="translate(-14.1 -11.74)"/><path class="cls-6" d="M61.89,155.85,66.18,150a1,1,0,0,0-1.68-1.23l-4.29,5.84A1,1,0,0,0,61.89,155.85Z" transform="translate(-14.1 -11.74)"/><path class="cls-6" d="M27,144.05l1-.1-.14-1.09a1,1,0,0,0-2-.18A1.07,1.07,0,0,0,27,144.05Z" transform="translate(-14.1 -11.74)"/><path class="cls-6" d="M70.82,190.1c6.36-3.83,1.57-21.75.91-27.87-.84-7.73,1.52-21.78-8.26-22.55-12.06-.95-24.79,1-36.79,2.31a.88.88,0,0,0-.81.69,1,1,0,0,1,2,.18L28,144q9.09-1,18.21-1.61c5.39-.38,18.1-3.14,21.06,1.5,1.46,2.28,1.11,7.88,1.44,10.51.6,4.86,1.14,9.73,1.6,14.6.41,4.41.86,8.86.93,13.28.07,4.75.4,5.23-4,6.42-7.54,2-16.39,1.68-24.34,1.94q.92,1,1.87,1.94c2-.11,4-.22,6-.34C56,191.87,66.13,192.93,70.82,190.1Z" transform="translate(-14.1 -11.74)"/><path class="cls-6" d="M27,144.05a1.07,1.07,0,0,1-1.13-1.37,1,1,0,0,0-.06.5l4,30.25q1.27,2.08,2.63,4.09L28,144Z" transform="translate(-14.1 -11.74)"/><path class="cls-6" d="M192.58,145.33c.09-.09.19-.16.28-.24l-.4-.08C192.3,145,192.68,145.24,192.58,145.33Z" transform="translate(-14.1 -11.74)"/><path class="cls-6" d="M194.42,128.08c.44.2.05-.21.13-.69l.06-.41a12.64,12.64,0,0,1-1.06,1.35Z" transform="translate(-14.1 -11.74)"/><path class="cls-6" d="M197.86,117.54a11.83,11.83,0,0,0,1.39-1.83.73.73,0,0,0-.05-.65A5.53,5.53,0,0,0,197.86,117.54Z" transform="translate(-14.1 -11.74)"/><path class="cls-6" d="M164.08,137.93l0,.08.11,0-.17.07q-.28.42-.54.85c0,.38,0,.76,0,1a22.19,22.19,0,0,0,.4,3,9.19,9.19,0,0,0,1.76,4.09c1.46,1.74,3.83,3.66,6.2,2.83a.75.75,0,0,0,.38-1q-1.75-3.14-3.37-6.34c-.81-1.59-1.61-3.19-2.33-4.82-.45-1-1.48-2.68-1.39-3.83.08-1,1.4-2.06,2-2.72,1.27-1.31,2.62-2.55,4-3.77.61-.55,1.22-1.09,1.84-1.63a5.26,5.26,0,0,1,1.27-3.17c-.05-.12-.26.29-.61.59L172,124.45c-1.41,1.24-2.81,2.5-4.17,3.79s-4.39,3.5-4.31,5.7a8.91,8.91,0,0,0,.64,2.77.69.69,0,0,1,.21.17,2.3,2.3,0,0,1,.44,1.37c.75,1.56,1.67,3.08,2.32,4.36q1.51,3,3.13,5.93a2.09,2.09,0,0,0,.85-.11l-.37,1-.48-.88c-2-.15-4.1-2.92-4.65-4.48a17.26,17.26,0,0,1-.78-4.38c0-.47,0-1,0-1.43-.25-.51-.46-1-.66-1.54a.81.81,0,0,0-.67,0l-.2.08A.78.78,0,0,1,164.08,137.93Z" transform="translate(-14.1 -11.74)"/><path class="cls-6" d="M184.6,138c-.06-.15-.1-.31-.15-.46l-.2.44C184.3,137.92,184.67,138.21,184.6,138Z" transform="translate(-14.1 -11.74)"/><path class="cls-6" d="M171.17,148.44a2.09,2.09,0,0,1-.85.11l.48.88Z" transform="translate(-14.1 -11.74)"/><path class="cls-6" d="M176.8,155.7a22.53,22.53,0,0,0-1.34,2.72,21,21,0,0,0,2.41-1.7Z" transform="translate(-14.1 -11.74)"/><path class="cls-6" d="M186.21,120a10.84,10.84,0,0,1,.75-1.37c.4-.62.86-1,.93-1.75a.74.74,0,0,0-.06-.35c-.17.26-.34.54-.5.85A19.92,19.92,0,0,0,186.21,120Z" transform="translate(-14.1 -11.74)"/><path class="cls-6" d="M185.43,160.45l-1,.61,1.09.31A2.5,2.5,0,0,1,185.43,160.45Z" transform="translate(-14.1 -11.74)"/><path class="cls-6" d="M163.34,136.75a.62.62,0,0,0-.31.16.69.69,0,0,1,.15-.1Z" transform="translate(-14.1 -11.74)"/><path class="cls-6" d="M163,136.91a.62.62,0,0,0-.26.32l.11-.18A.7.7,0,0,1,163,136.91Z" transform="translate(-14.1 -11.74)"/><path class="cls-6" d="M199.88,133.1c0,.3,0,.61,0,.91a12.07,12.07,0,0,1,1-1.26C200.49,132.85,199.72,132.89,199.88,133.1Z" transform="translate(-14.1 -11.74)"/><path class="cls-6" d="M163.4,138.21a.86.86,0,0,0-.14-.38l.77.18,0-.08a.78.78,0,0,0-.74-1.18l-.16.06a.69.69,0,0,0-.15.1.7.7,0,0,0-.14.14l-.11.18A.8.8,0,0,0,163.4,138.21Z" transform="translate(-14.1 -11.74)"/><path class="cls-6" d="M163.79,138.17a.73.73,0,0,1-.39,0,4.42,4.42,0,0,1,0,.75q.26-.43.54-.85Z" transform="translate(-14.1 -11.74)"/><path class="cls-6" d="M163.79,138.17l.19-.07L164,138l-.77-.18a.86.86,0,0,1,.14.38A.73.73,0,0,0,163.79,138.17Z" transform="translate(-14.1 -11.74)"/><path class="cls-6" d="M164.42,136.89a.69.69,0,0,0-.21-.17c.19.51.41,1,.66,1.54A2.3,2.3,0,0,0,164.42,136.89Z" transform="translate(-14.1 -11.74)"/><path class="cls-6" d="M172.9,125.7l1.6-1.42c.19-.17.5-.39.75-.63.1-.11.14-.17,0-.08l-1-.77a.68.68,0,0,0,0-.27A5.26,5.26,0,0,0,172.9,125.7Z" transform="translate(-14.1 -11.74)"/><path class="cls-6" d="M174.17,122.79l1,.77c.18-.09.13,0,0,.08a1.17,1.17,0,0,0,.4-.67.75.75,0,0,0-1-.77,2.13,2.13,0,0,0-.44.32A.68.68,0,0,1,174.17,122.79Z" transform="translate(-14.1 -11.74)"/><path class="cls-6" d="M164.15,138l-.11,0-.06.09Z" transform="translate(-14.1 -11.74)"/><path class="cls-6" d="M197.85,115.16c-.11.21-.24.4-.36.6a3.23,3.23,0,0,1,.62.28Z" transform="translate(-14.1 -11.74)"/><path class="cls-6" d="M209.32,115a4.78,4.78,0,0,1-.33,1,2.72,2.72,0,0,1,1-.13Z" transform="translate(-14.1 -11.74)"/><path class="cls-6" d="M211.87,138.22a1.68,1.68,0,0,1,.25.64,1.93,1.93,0,0,1,.63-.43Z" transform="translate(-14.1 -11.74)"/><path class="cls-6" d="M210.11,124.88c.13.57.36-.14,0,0Z" transform="translate(-14.1 -11.74)"/><path class="cls-6" d="M198.53,165.61l-.47-.78a2.49,2.49,0,0,1-.83,1A3.43,3.43,0,0,1,198.53,165.61Z" transform="translate(-14.1 -11.74)"/><path class="cls-6" d="M186.87,117.52l-.47-.78a1.65,1.65,0,0,1-.28.66A1.86,1.86,0,0,1,186.87,117.52Z" transform="translate(-14.1 -11.74)"/><path class="cls-6" d="M212.15,137.07c-.7.24-1,.79-1.45,1.31a11.16,11.16,0,0,1-1.31,1.16,18.63,18.63,0,0,0,2.7-2c.17-.16.32-.31.47-.47A1,1,0,0,0,212.15,137.07Z" transform="translate(-14.1 -11.74)"/><path class="cls-6" d="M214,132.43c-.13-1.38-.7-5.62-2.46-6-.8-.19-1.14.46-1.65.91a26.27,26.27,0,0,1-3.45,2.59,24.3,24.3,0,0,1-5.38,2.84l-.13,0a12.07,12.07,0,0,0-1,1.26c0-.3,0-.61,0-.91-.17-.22.6-.26,1-.34a18.07,18.07,0,0,1,5.71-4c1.28-.64,4.79-2.06,5-3.79.16-1.18-1.64-2.86-2.1-3.83-.74-1.54-.41-2.15.37-3.6a9.06,9.06,0,0,0,.88-2.41.75.75,0,0,0-.65-.83c-2.36-.16-3.74,2.06-5.86,1.71-1.23-.2-3.35-1.7-4.56-1.3a1.59,1.59,0,0,0-.54.32.73.73,0,0,1,.05.65,11.83,11.83,0,0,1-1.39,1.83c-.36,1.16-.58,2.39-.73,3a17.76,17.76,0,0,1-2.52,6.39l-.06.41c-.07.48.31.9-.12.69l-.87.25a12.64,12.64,0,0,0,1.06-1.35,27.56,27.56,0,0,1,.72-3.56A21.73,21.73,0,0,1,197.5,118a5.45,5.45,0,0,1,.36-.5,5.53,5.53,0,0,1,1.33-2.48.59.59,0,0,0-.2-.23c-2-1.21-5.59-1-7.81-.55a4.82,4.82,0,0,0-3.35,2.27.74.74,0,0,1,.06.35c-.07.75-.53,1.13-.93,1.75a10.84,10.84,0,0,0-.75,1.37,31.23,31.23,0,0,0-1.39,5.62,26.52,26.52,0,0,0-.34,4.94c.05,1.76.5,3.5.42,5.26a4.52,4.52,0,0,1-.44,1.73c.05.15.09.31.15.46s-.31-.12-.35,0l.2-.44a13.33,13.33,0,0,1-.59-4.65,36.13,36.13,0,0,1,1.68-11.22c.2-.57.42-1.13.67-1.68a19.92,19.92,0,0,1,1.12-2.62c.16-.31.33-.59.5-.85a.78.78,0,0,0-.41-.43c-2-.89-6.38,1.08-8.21,2.13a5.22,5.22,0,0,0-2.37,2.27c-1.13,2.67-.85,6.71-.81,9.56a51.14,51.14,0,0,0,1.08,9.9c.13.59,1.21,5.14.6,4.94-1.23-.41-1.64-5.15-1.84-6.13-.8-3.92-1.95-8-1.54-12.09A16.05,16.05,0,0,1,175,124a1.32,1.32,0,0,1,.27-.4c-.25.25-.56.46-.75.63l-1.6,1.42a20.54,20.54,0,0,0-.11,3A58.53,58.53,0,0,0,174.4,139a24.88,24.88,0,0,0,1.51,5.87,2.45,2.45,0,0,0,1.82,1.59c2.2.24,1.81-2.45,1.54-3.8a65.72,65.72,0,0,1-1.75-14.31c0-2.22-.22-6.27,1-7.79a6.18,6.18,0,0,1,2.23-1.46c1.1-.5,3.75-1.73,5.34-1.73a1.65,1.65,0,0,0,.28-.66l.47.78a1.86,1.86,0,0,0-.75-.12c-.29.47-.74,1-.93,1.33a18.57,18.57,0,0,0-1.5,3.87,40.2,40.2,0,0,0-1.33,11.11c0,1.18-.1,5.64,2,5.78.94.06,1.53-1,1.78-1.75,1-2.83-.29-6.16-.13-9.07a26.86,26.86,0,0,1,2.49-10.24,4.14,4.14,0,0,1,3.57-2.77,13.21,13.21,0,0,1,5.45.1c.12-.2.26-.39.36-.6l.25.88a3.23,3.23,0,0,0-.62-.28,27.38,27.38,0,0,0-2.22,3.38A27.55,27.55,0,0,0,193.2,126c-.15,1-.5,2.94.67,3.49a.77.77,0,0,0,.88-.25,14.8,14.8,0,0,0,3.06-4.92c.54-1.53.68-3.2,1.12-4.76.18-.62,1-3.41,1-3.4A9.7,9.7,0,0,1,202,117a11.76,11.76,0,0,0,2.78.67c1.75.14,2.76-1.25,4.19-1.68a4.78,4.78,0,0,0,.33-1l.65.83a2.72,2.72,0,0,0-1,.13c-.65,1.47-1.81,2.58-1.39,4.33a9.3,9.3,0,0,0,1.06,2.38c.35.6,1.3,1.53,1.44,2.19v0c.36-.14.13.57,0,0a1.1,1.1,0,0,0-.37.27,10.56,10.56,0,0,1-2.14,1.43c-1.34.77-2.78,1.3-4.14,2a14.17,14.17,0,0,0-4.76,4.53.77.77,0,0,0,0,.91c.5.65,1.54.42,2.2.27,3-.68,6-2.8,8.41-4.6.29-.22,1.62-1.73,1.95-1.75-.16,0,.18.65.34,1a13.52,13.52,0,0,1,.89,3.65c.33,3.64-3.54,5.54-6.36,6.95a28.49,28.49,0,0,1-5.45,2.11c-2,.52-4,.51-6,.94-1.22.27-3.21.78-3.58,2.21-.54,2.08,2.67,1.86,3.86,1.73a35.74,35.74,0,0,0,11.9-3.8,20.53,20.53,0,0,0,3.69-2.34c.42-.35,1-1.1,1.51-1.6a1.68,1.68,0,0,0-.25-.64l.88.21a1.93,1.93,0,0,0-.63.43,16.63,16.63,0,0,1-.32,4.67,8.71,8.71,0,0,1-.84,3.1c-.76,1.33-2.19,1.48-3.74,2a50.73,50.73,0,0,1-17.11,2.62c-1.18,0-3.52-.22-4.22,1.05a1.84,1.84,0,0,0,1,2.43c1.24.68,3,.51,4.39.51,3.24,0,6.52,0,9.75-.32a26,26,0,0,0,6-1.11l1.06-2c.1-.19.22-.49.36-.77a10.05,10.05,0,0,1-2.57,1.4c-3.85,1.36-8.2,1.15-12.22,1.24-.91,0-5.61.66-6.3-.44-.33-.51,4.54-.51,5.1-.52a50.5,50.5,0,0,0,9.73-1.17c2.76-.61,6.79-1.26,9.08-3a5.49,5.49,0,0,0,1.69-3.06c.55-2,1.44-6.55.11-8.3a.66.66,0,0,0-.48-.25c-.15.16-.3.32-.47.47a18.63,18.63,0,0,1-2.7,2c-.49.37-1,.71-1.52,1a35.87,35.87,0,0,1-11.07,4.21,10.45,10.45,0,0,1-3.94.31c-.09.08-.19.15-.28.24.09-.09-.28-.36-.12-.32l.4.08a4.66,4.66,0,0,1,2.11-1c3.26-.74,6.36-.86,9.51-2.13a31.13,31.13,0,0,0,4.9-2.45,11.16,11.16,0,0,0,1.31-1.16c.5-.52.75-1.08,1.45-1.31a1,1,0,0,1,.4,0A5.37,5.37,0,0,0,214,132.43Z" transform="translate(-14.1 -11.74)"/><path class="cls-6" d="M207,153.84a6,6,0,0,0,2.47-1.46c.22-.43.64-.76.18-.6l-1-1a.74.74,0,0,1-.23.28c-.15.28-.27.58-.36.77Z" transform="translate(-14.1 -11.74)"/><path class="cls-6" d="M206,155.71c-.89,1.62-1.8,3.23-2.79,4.79-.51.8-1.26,2.38-2.2,2.72s-2.72-.24-3.67-.42c-1.73-.33-3.44-.74-5.15-1.17q-3.62-.91-7.22-2a.76.76,0,0,0-1,.61c-.27,2.58,2.5,4.74,4.68,5.63a11.23,11.23,0,0,0,4.86.5,28.76,28.76,0,0,0,3.15-.39c.12,0,.34-.09.6-.16a2.49,2.49,0,0,0,.83-1l.47.78a3.43,3.43,0,0,0-1.3.25c-.75.66-1.77,1.38-2.14,1.66a15.88,15.88,0,0,1-3,1.82,13.13,13.13,0,0,1-4.72,1.16,17,17,0,0,1-8.31-2c-3.23-1.59-3.82-4-2.94-7.31a19,19,0,0,1,1.89-4.59c.4-.69-.37-1.59-1.07-1a18.32,18.32,0,0,1-4.32,2.61c-3.07,1.31-5.46,1-7.64-1.57a16.92,16.92,0,0,1-3.93-7.07c-.85-3.79.45-7.38,2.4-10.58a4.42,4.42,0,0,0,0-.75.8.8,0,0,1-.63-1c-2.34,3.56-4.06,7.64-3.31,12a18.23,18.23,0,0,0,4.68,8.71c3.21,3.65,7.63,2.73,11.33.51a22.53,22.53,0,0,1,1.34-2.72l1.07,1a21,21,0,0,1-2.41,1.7,16.91,16.91,0,0,0-1.14,4.12c-.47,3.47.92,5.68,4,7.21a17.82,17.82,0,0,0,10.51,2.1,15.26,15.26,0,0,0,6-2.29c1.34-.85,4.55-2.84,4.79-4.57a.66.66,0,0,0,0-.21,14.44,14.44,0,0,1-2.64-.34l-.23.05a23.69,23.69,0,0,1-4.72.46c-1.93,0-5.83-1.26-6.44-3.6l-1.09-.31,1-.61a2.5,2.5,0,0,0,.08.91q3,.85,6,1.62c1.56.4,3.49,1.06,5.4,1.47.67-.17,1.6-.53,2.18-.23a.82.82,0,0,1,.46.57,7.44,7.44,0,0,0,1.58-.1c2.24-.43,3.65-3.87,4.66-5.62.9-1.55,1.75-3.12,2.6-4.69.35-.65.73-1.3,1.05-2l0,0a6,6,0,0,1-2.47,1.46C206.66,154.46,206.33,155.09,206,155.71Z" transform="translate(-14.1 -11.74)"/><path class="cls-6" d="M208.64,150.82l1,1c.46-.16,0,.17-.18.6a2.44,2.44,0,0,0,.57-1,.76.76,0,0,0-1-1,1.33,1.33,0,0,0-.61.69A.74.74,0,0,0,208.64,150.82Z" transform="translate(-14.1 -11.74)"/><path class="cls-6" d="M199.08,164.23c-.58-.3-1.51.06-2.18.23a14.44,14.44,0,0,0,2.64.34A.82.82,0,0,0,199.08,164.23Z" transform="translate(-14.1 -11.74)"/><path class="cls-3" d="M29,85.73a3.25,3.25,0,0,1,5.47,3.5c-.65,1.16,1.08,2.32,1.73,1.15,3.36-6-4.86-11.34-8.94-5.8h0C28.07,83.5,29.81,84.65,29,85.73Z" transform="translate(-14.1 -11.74)"/><path class="cls-3" d="M29,85.73c-.79,1.07-2.52-.06-1.74-1.14a3.25,3.25,0,0,1-5.47-3.5h0a.86.86,0,0,1-1.13.4c-.37,1-.72,2-1.06,3.05A5.34,5.34,0,0,0,29,85.73Z" transform="translate(-14.1 -11.74)"/><path class="cls-3" d="M29,85.73c.8-1.08-.94-2.23-1.73-1.15h0C26.49,85.66,28.22,86.8,29,85.73Z" transform="translate(-14.1 -11.74)"/><path class="cls-3" d="M21.81,81.07A5.43,5.43,0,0,0,22.43,77q-.54,1.29-1,2.6A1.07,1.07,0,0,1,21.81,81.07Z" transform="translate(-14.1 -11.74)"/><path class="cls-3" d="M21.8,81.08h0a1.07,1.07,0,0,0-.42-1.46c-.24.62-.48,1.24-.71,1.87A.86.86,0,0,0,21.8,81.08Z" transform="translate(-14.1 -11.74)"/><path class="cls-3" d="M220.76,89.22h0a1.07,1.07,0,0,1,1.44-1.45q-.62-2.09-1.32-4.15A5.19,5.19,0,0,0,220.76,89.22Z" transform="translate(-14.1 -11.74)"/><path class="cls-3" d="M220.77,89.22a3.25,3.25,0,0,1-5.48,3.49h0c.78,1.09-1,2.17-1.77,1.09a5.37,5.37,0,0,0,9.74-2.26q-.32-1.26-.68-2.5A1,1,0,0,1,220.77,89.22Z" transform="translate(-14.1 -11.74)"/><path class="cls-3" d="M220.76,89.22h0a1,1,0,0,0,1.81-.18c-.12-.43-.25-.85-.38-1.27A1.07,1.07,0,0,0,220.76,89.22Z" transform="translate(-14.1 -11.74)"/><path class="cls-3" d="M206.26,98.39c-.64-1.17,1.13-2.27,1.77-1.09a3.25,3.25,0,0,1,5.48-3.49c-.78-1.08,1-2.16,1.77-1.1C211.26,87.16,203,92.35,206.26,98.39Z" transform="translate(-14.1 -11.74)"/><path class="cls-3" d="M213.51,93.8c.78,1.08,2.56,0,1.77-1.09h0C214.49,91.64,212.73,92.72,213.51,93.8Z" transform="translate(-14.1 -11.74)"/><path class="cls-3" d="M206.26,98.39a3.25,3.25,0,0,1-5.48,3.49c-.78-1.08-2.56,0-1.77,1.09,4,5.56,12.33.36,9-5.67C208.68,98.47,206.91,99.56,206.26,98.39Z" transform="translate(-14.1 -11.74)"/><path class="cls-3" d="M206.26,98.39c.65,1.18,2.42.08,1.77-1.09S205.62,97.21,206.26,98.39Z" transform="translate(-14.1 -11.74)"/><path class="cls-3" d="M133,44.13a3.25,3.25,0,0,1,5.48-3.49c.78,1.08,2.56,0,1.78-1.09-4-5.57-12.33-.36-9,5.67h0C130.62,44,132.39,43,133,44.13Z" transform="translate(-14.1 -11.74)"/><path class="cls-3" d="M124,49.8c4,5.57,12.33.36,9-5.67.64,1.17-1.12,2.26-1.77,1.09a3.25,3.25,0,0,1-5.48,3.49h0C126.57,49.8,124.79,50.88,124,49.8Z" transform="translate(-14.1 -11.74)"/><path class="cls-3" d="M133,44.13c-.65-1.18-2.42-.08-1.77,1.09h0C131.92,46.39,133.68,45.3,133,44.13Z" transform="translate(-14.1 -11.74)"/><path class="cls-3" d="M118.54,53.3A3.25,3.25,0,0,1,124,49.8c-.78-1.08,1-2.16,1.77-1.1-4-5.55-12.32-.35-9,5.68C116.12,53.21,117.89,52.12,118.54,53.3Z" transform="translate(-14.1 -11.74)"/><path class="cls-3" d="M124,49.8c.78,1.08,2.56,0,1.77-1.09h0C125,47.64,123.23,48.72,124,49.8Z" transform="translate(-14.1 -11.74)"/><path class="cls-3" d="M118.54,53.3c.64,1.17-1.13,2.27-1.77,1.09a3.25,3.25,0,0,1-5.48,3.49c-.78-1.08-2.56,0-1.77,1.09C113.53,64.53,121.85,59.33,118.54,53.3Z" transform="translate(-14.1 -11.74)"/><path class="cls-3" d="M118.54,53.3c-.65-1.18-2.42-.08-1.77,1.09S119.18,54.47,118.54,53.3Z" transform="translate(-14.1 -11.74)"/><path class="cls-3" d="M129.26,185.22h0c-.64-1.17,1.13-2.27,1.77-1.09a3.25,3.25,0,0,1,5.48-3.49c.78,1.08,2.56,0,1.78-1.09C134.27,174,126,179.19,129.26,185.22Z" transform="translate(-14.1 -11.74)"/><path class="cls-3" d="M129.27,185.22a3.25,3.25,0,0,1-5.48,3.49h0c.78,1.09-1,2.17-1.77,1.09,4,5.57,12.33.36,9-5.67C131.68,185.3,129.92,186.39,129.27,185.22Z" transform="translate(-14.1 -11.74)"/><path class="cls-3" d="M129.26,185.22h0c.65,1.17,2.41.08,1.77-1.09S128.62,184,129.26,185.22Z" transform="translate(-14.1 -11.74)"/><path class="cls-3" d="M123.78,188.71c-4-5.55-12.32-.35-9,5.68-.64-1.17,1.13-2.27,1.77-1.09A3.25,3.25,0,0,1,122,189.8C121.23,188.72,123,187.64,123.78,188.71Z" transform="translate(-14.1 -11.74)"/><path class="cls-3" d="M123.79,188.71h0c-.79-1.06-2.55,0-1.77,1.1S124.57,189.8,123.79,188.71Z" transform="translate(-14.1 -11.74)"/><path class="cls-3" d="M114.76,194.39a3.25,3.25,0,0,1-5.48,3.49c-.78-1.08-2.56,0-1.77,1.09,4,5.56,12.33.36,9-5.67C117.18,194.47,115.41,195.56,114.76,194.39Z" transform="translate(-14.1 -11.74)"/><path class="cls-3" d="M114.76,194.39c.65,1.18,2.42.08,1.77-1.09S114.12,193.21,114.76,194.39Z" transform="translate(-14.1 -11.74)"/><path class="cls-3" d="M20.14,131.59a3.25,3.25,0,0,1,6.23-1.84c.45,1.26,2.46.71,2-.55-2.32-6.46-11.75-3.77-10.25,2.94h0C17.84,130.84,19.85,130.28,20.14,131.59Z" transform="translate(-14.1 -11.74)"/><path class="cls-3" d="M20.14,131.59c.29,1.3-1.7,1.86-2,.56a3.21,3.21,0,0,1-2.39,4q.17,1,.36,2A5.21,5.21,0,0,0,20.14,131.59Z" transform="translate(-14.1 -11.74)"/><path class="cls-3" d="M20.14,131.59c-.29-1.31-2.3-.75-2,.55h0C18.44,133.45,20.43,132.89,20.14,131.59Z" transform="translate(-14.1 -11.74)"/><path class="cls-3" d="M192.84,193.86a5.48,5.48,0,0,0-1.8,3.46q1-.87,1.93-1.77A1.1,1.1,0,0,1,192.84,193.86Z" transform="translate(-14.1 -11.74)"/><path class="cls-3" d="M187.37,187.26c1.08-.79,2.39.83,1.31,1.62a3.25,3.25,0,0,1,4.17,5,.94.94,0,0,1,1.53.36q.72-.7,1.44-1.42A5.35,5.35,0,0,0,187.37,187.26Z" transform="translate(-14.1 -11.74)"/><path class="cls-3" d="M192.84,193.86a1.1,1.1,0,0,0,.13,1.69l1.4-1.33A.94.94,0,0,0,192.84,193.86Z" transform="translate(-14.1 -11.74)"/><path class="cls-3" d="M187.37,187.26a3.25,3.25,0,0,1-4.17-5c1-.92-.33-2.54-1.31-1.62-5,4.7,1.23,12.28,6.79,8.22C187.6,189.66,186.28,188.05,187.37,187.26Z" transform="translate(-14.1 -11.74)"/><path class="cls-3" d="M187.37,187.26c-1.08.79.23,2.41,1.31,1.62S188.44,186.47,187.37,187.26Z" transform="translate(-14.1 -11.74)"/><path class="cls-6" d="M200.41,83.67l-9.34,3.43c-1.24.46-.79,2.49.47,2l9.34-3.43C202.12,85.24,201.66,83.2,200.41,83.67Z" transform="translate(-14.1 -11.74)"/><path class="cls-6" d="M189.77,79.43,197.32,73c1-.87-.41-2.39-1.43-1.52l-7.56,6.47C187.32,78.78,188.75,80.3,189.77,79.43Z" transform="translate(-14.1 -11.74)"/><path class="cls-6" d="M186.93,75l7-7c.95-.95-.48-2.46-1.43-1.51l-7,7C184.56,74.39,186,75.91,186.93,75Z" transform="translate(-14.1 -11.74)"/><path class="cls-6" d="M182.63,71.34l5.92-8c.8-1.07-1-2.15-1.78-1.08l-5.92,8C180.05,71.33,181.83,72.41,182.63,71.34Z" transform="translate(-14.1 -11.74)"/><path class="cls-6" d="M199.56,79.07c1.16-.66.19-2.5-1-1.84l-8.66,4.9c-1.17.66-.19,2.5,1,1.84Z" transform="translate(-14.1 -11.74)"/><path class="cls-6" d="M73.35,87.91a.53.53,0,0,0,.45,0l.06,0a1.54,1.54,0,0,1,.12-.21s0,0,0,0a.66.66,0,0,1-.29.19Z" transform="translate(-14.1 -11.74)"/><path class="cls-6" d="M73,87.32s0,0,0,0v0a.59.59,0,0,0,.12.35l.49-.14a.36.36,0,0,0,.28-.42.57.57,0,0,0-.42-.17A.52.52,0,0,0,73,87.32Z" transform="translate(-14.1 -11.74)"/><path class="cls-6" d="M73.48,86.84a.8.8,0,0,1,.31.06.5.5,0,0,0-.55-.18l-.35.11a1.33,1.33,0,0,1,.11.25A.72.72,0,0,1,73.48,86.84Z" transform="translate(-14.1 -11.74)"/><path class="cls-6" d="M72.85,87.66a1.44,1.44,0,0,1-.13.22l.22-.06A.84.84,0,0,1,72.85,87.66Z" transform="translate(-14.1 -11.74)"/><path class="cls-6" d="M72.82,87.32a.86.86,0,0,0-.13-.43l-24.33,7.3a.38.38,0,0,0-.27.52.51.51,0,0,0,.66.38L72.45,88C72.57,87.75,72.7,87.54,72.82,87.32Z" transform="translate(-14.1 -11.74)"/><path class="cls-6" d="M41,95.56a2,2,0,0,0,.51,1.64c2.1,2.46,9.8,2.82,12.1,2.88,8.72.2,15.64-3.92,20.08-11.94a.75.75,0,0,1-.54-.11l-.06,0-.52.15c-4.11,7.14-10.39,10.93-18.26,11-.48,0-12,0-12.17-3.46-.13-2.51,7.75-7.48,8.08-7.69a23.52,23.52,0,0,1,9.62-3.47c1.53-.19,10.49-.09,12.67,1.89a1.67,1.67,0,0,1,.25.28l.41-.12a.69.69,0,0,1,.69.16,2.87,2.87,0,0,0-1.08-1.5c-2.43-1.87-8.09-2-12.4-1.59a27.24,27.24,0,0,0-4.89.8,27.07,27.07,0,0,0-10.25,6.2c-.19.19-.44.41-.71.65C43.21,92.44,41.19,94.25,41,95.56Z" transform="translate(-14.1 -11.74)"/><path class="cls-6" d="M40.83,95.54a2.17,2.17,0,0,0,.55,1.79c2.15,2.52,9.92,2.89,12.24,2.94a22.89,22.89,0,0,0,2.85-.08C64,99.5,70,95.33,74,88c.07-.18.07-.12.09-.25a1,1,0,0,0,.08-.49A2.91,2.91,0,0,0,72.92,85c-3.73-2.83-14.69-1.71-17.49-.83a27.3,27.3,0,0,0-10.32,6.25l-.71.65C43,92.32,41,94.15,40.83,95.54ZM74,87.66a1.54,1.54,0,0,0-.12.21l-.06,0a.53.53,0,0,1-.45,0l.34-.09a.66.66,0,0,0,.29-.19S74,87.65,74,87.66Zm-.34,0-.49.14a.59.59,0,0,1-.12-.35v0s0,0,0,0a.52.52,0,0,1,.45-.28.57.57,0,0,1,.42.17A.36.36,0,0,1,73.63,87.62ZM47.91,94.76a.74.74,0,0,0,.75.54l.15,0L72.3,88.22c-4.06,7-10.25,10.66-18,10.68-.12,0-11.8,0-12-3.28-.11-1.91,5.19-5.75,8-7.5a23.13,23.13,0,0,1,9.54-3.45H60c1.85-.17,10.3,0,12.38,1.85l.17.2L48.31,94A.58.58,0,0,0,47.91,94.76Zm.84.32a.51.51,0,0,1-.66-.38.38.38,0,0,1,.27-.52l24.33-7.3a.86.86,0,0,1,.13.43c-.12.22-.25.43-.37.66Zm24.1-7.42a.84.84,0,0,0,.09.17l-.22.06A1.44,1.44,0,0,0,72.85,87.66Zm0-.83.35-.11a.5.5,0,0,1,.55.18.8.8,0,0,0-.31-.06.72.72,0,0,0-.49.23A1.33,1.33,0,0,0,72.88,86.82ZM45.25,90.61a27.07,27.07,0,0,1,10.25-6.2,27.24,27.24,0,0,1,4.89-.8c4.3-.39,10-.28,12.4,1.59a2.87,2.87,0,0,1,1.08,1.5.69.69,0,0,0-.69-.16l-.41.12a1.67,1.67,0,0,0-.25-.28c-2.18-2-11.14-2.08-12.67-1.89a23.52,23.52,0,0,0-9.62,3.47c-.33.21-8.21,5.19-8.08,7.69.2,3.46,11.69,3.47,12.17,3.46,7.87,0,14.15-3.81,18.26-11L73.1,88l.06,0a.75.75,0,0,0,.54.11c-4.43,8-11.36,12.14-20.08,11.94-2.3-.06-10-.42-12.1-2.88A2,2,0,0,1,41,95.56c.18-1.32,2.2-3.12,3.53-4.3C44.81,91,45.06,90.8,45.25,90.61Z" transform="translate(-14.1 -11.74)"/><path class="cls-6" d="M78.79,204.18a.68.68,0,0,0-.12,1l12.41,15,2.16.59L79.55,204.24A.5.5,0,0,0,78.79,204.18Z" transform="translate(-14.1 -11.74)"/><path class="cls-6" d="M95.11,207.88a35.72,35.72,0,0,0-12.82-9.26c-.33-.13-.72-.32-1.15-.53-2.13-1-5.36-2.53-7-2.07a2.68,2.68,0,0,0-1.72,1.46c-1.9,3.82,1.62,13.36,2.74,16.19.08.19.16.37.24.56l1.8.83c-.16-.35-.33-.68-.48-1-.26-.58-6.17-14.55-2.07-16.57,3-1.45,13.08,5.56,13.51,5.85a31,31,0,0,1,9.17,9.9,54.35,54.35,0,0,1,3.5,9.22l1.73.31a49.26,49.26,0,0,0-3.91-9.32A35.79,35.79,0,0,0,95.11,207.88Z" transform="translate(-14.1 -11.74)"/><path class="cls-6" d="M82.39,198.38l-1.15-.52c-2.16-1-5.45-2.58-7.22-2.08a2.86,2.86,0,0,0-1.89,1.59c-1.95,3.91,1.59,13.54,2.74,16.39l.13.3.34.16c-.08-.19-.17-.37-.24-.56-1.12-2.83-4.64-12.36-2.74-16.19A2.68,2.68,0,0,1,74.09,196c1.69-.46,4.92,1.07,7,2.07.42.21.82.4,1.15.53a35.72,35.72,0,0,1,12.82,9.26,35.79,35.79,0,0,1,3.49,5.53,49.26,49.26,0,0,1,3.91,9.32l.26,0a50.27,50.27,0,0,0-7.47-15.07A36,36,0,0,0,82.39,198.38Z" transform="translate(-14.1 -11.74)"/><path class="cls-6" d="M78.62,204a1,1,0,0,0-.27,1.19c0,.05.07.12.11.17L90.62,220l.45.14-12.41-15a.68.68,0,0,1,.12-1,.5.5,0,0,1,.77.06l13.68,16.48.44.12L79.75,204.07A.76.76,0,0,0,78.62,204Z" transform="translate(-14.1 -11.74)"/><path class="cls-6" d="M76.9,213.91c-.06-.14-6.08-14.33-2.18-16.24,2.26-1.11,9.66,3.34,13.23,5.84a30.53,30.53,0,0,1,9.1,9.81.82.82,0,0,1,.09.16,56.3,56.3,0,0,1,3.38,8.88l.27.05a54.35,54.35,0,0,0-3.5-9.22,31,31,0,0,0-9.17-9.9c-.43-.29-10.53-7.3-13.51-5.85-4.1,2,1.81,16,2.07,16.57.15.36.32.7.48,1l.34.15C77.29,214.78,77.08,214.35,76.9,213.91Z" transform="translate(-14.1 -11.74)"/><path class="cls-7" d="M166.91,191.26c0-4.81,1-9.63-5.08-7.7-5.47,1.73-11.06,6.25-16,9.07-3.13,1.77-7.23,3.44-10.86,5.42a29,29,0,0,0-4.75,3.14l2.3,1.12a1.05,1.05,0,0,1,.56.18l23.56,15.41a105.53,105.53,0,0,0,10.27-4.35c0-.52-.06-1-.06-1.24Q166.86,201.79,166.91,191.26ZM161.65,188a.88.88,0,0,1,.58.1s0,0,0,0a.82.82,0,0,1,.49.41c1.77,1.85.11,5.27-2.58,4S159.11,187.87,161.65,188Zm-8.15,2.9a.9.9,0,0,1,.56.1s0,0,0,0a.82.82,0,0,1,.49.41c1.77,1.85.11,5.27-2.58,4S151,190.76,153.5,190.95Zm12,7.23c-4.9,5.72-12.66,4.65-18.21.55-1.08-.79.07-2.53,1.15-1.73,4.76,3.51,11.57,4.4,15.32,0C164.67,196,166.42,197.16,165.55,198.18Z" transform="translate(-14.1 -11.74)"/><path class="cls-6" d="M162.74,188.57a.82.82,0,0,0-.49-.41l.12.08A2.36,2.36,0,0,1,162.74,188.57Z" transform="translate(-14.1 -11.74)"/><path class="cls-6" d="M161.22,190l.24.12a1.12,1.12,0,0,0,1.28-1.52,2.36,2.36,0,0,0-.37-.33l-.12-.08s0,0,0,0l-.1,0a2,2,0,0,0-.48-.07A1.08,1.08,0,0,0,161.22,190Z" transform="translate(-14.1 -11.74)"/><path class="cls-6" d="M162.23,188.15a.88.88,0,0,0-.58-.1,2,2,0,0,1,.48.07Z" transform="translate(-14.1 -11.74)"/><path class="cls-6" d="M160.16,192.55c2.69,1.29,4.35-2.13,2.58-4a1.12,1.12,0,0,1-1.28,1.52l-.24-.12a1.08,1.08,0,0,1,.43-1.92C159.11,187.87,157.44,191.26,160.16,192.55Z" transform="translate(-14.1 -11.74)"/><path class="cls-6" d="M160.51,43.35c-1.43-.28-2.16,1.67-1.12,2.28,0,0,0,0,.05,0l.36.13.4.07h0A1.29,1.29,0,0,0,160.51,43.35Z" transform="translate(-14.1 -11.74)"/><path class="cls-6" d="M163.81,197c-3.75,4.37-10.56,3.48-15.32,0-1.08-.8-2.23.94-1.15,1.73,5.55,4.1,13.31,5.17,18.21-.55C166.42,197.16,164.67,196,163.81,197Z" transform="translate(-14.1 -11.74)"/><path class="cls-6" d="M154,27.37c-2,5.56,1.81,10.64,6.7,12.86,1.47.67,2.79-1.5,1.31-2.17-3.91-1.77-7.25-5.47-5.58-10C157,26.54,154.52,25.85,154,27.37Z" transform="translate(-14.1 -11.74)"/><path class="cls-6" d="M154.57,191.47a.82.82,0,0,0-.49-.41l.12.08A2.36,2.36,0,0,1,154.57,191.47Z" transform="translate(-14.1 -11.74)"/><path class="cls-6" d="M153.05,192.88l.24.11a1.12,1.12,0,0,0,1.28-1.52,2.36,2.36,0,0,0-.37-.33l-.12-.08s0,0,0,0l-.1,0a4,4,0,0,0-.46-.07A1.09,1.09,0,0,0,153.05,192.88Z" transform="translate(-14.1 -11.74)"/><path class="cls-6" d="M154.06,191a.9.9,0,0,0-.56-.1,4,4,0,0,1,.46.07Z" transform="translate(-14.1 -11.74)"/><path class="cls-7" d="M160.51,43.35c10,2,16.51-6.72,16.71-15a105.76,105.76,0,0,0-21-10.27C149,24.63,148.85,39.57,160.51,43.35Zm-4.12-15.27c-1.67,4.51,1.67,8.21,5.58,10,1.48.67.16,2.84-1.31,2.17-4.89-2.22-8.75-7.3-6.7-12.86C154.52,25.85,157,26.54,156.39,28.08Z" transform="translate(-14.1 -11.74)"/><path class="cls-6" d="M152,195.46c2.69,1.28,4.35-2.14,2.58-4a1.12,1.12,0,0,1-1.28,1.52l-.24-.11a1.09,1.09,0,0,1,.45-1.93C151,190.76,149.26,194.16,152,195.46Z" transform="translate(-14.1 -11.74)"/><path class="cls-6" d="M159.39,45.63c-1-.61-.31-2.56,1.12-2.28-11.66-3.78-11.47-18.71-4.28-25.29q-1.31-.47-2.63-.9C146.25,25.23,146.58,41.16,159.39,45.63Z" transform="translate(-14.1 -11.74)"/><path class="cls-6" d="M160.51,43.35a1.29,1.29,0,0,1-.3,2.5c10.92,1.92,18.34-6.89,19.39-16q-1.18-.79-2.38-1.55C177,36.63,170.47,45.33,160.51,43.35Z" transform="translate(-14.1 -11.74)"/><path class="cls-6" d="M165.36,180.07c-3.29-.46-8.07,3.67-10.59,5.09L135,196.36l-.75.42.72,1.27c3.63-2,7.73-3.65,10.86-5.42,5-2.82,10.58-7.34,16-9.07,6.1-1.93,5.1,2.89,5.08,7.7q-.06,10.53-.11,21c0,.29,0,.72.06,1.24q1.28-.62,2.54-1.28c-.21-3.06-.49-5.71-.49-7.1C168.94,200.83,172.41,181,165.36,180.07Z" transform="translate(-14.1 -11.74)"/><path class="cls-6" d="M131.88,204.22l22.23,14.55q1.24-.42,2.48-.86L133,202.49a1,1,0,1,0-1.15,1.73Z" transform="translate(-14.1 -11.74)"/><path class="cls-7" d="M131.88,204.22a1.06,1.06,0,0,1,.59-1.91l-2.3-1.12q-.42.35-.81.72c-4.3,4.11.86,5.91,4.56,8.11l16.57,9.88q1.82-.54,3.62-1.14Z" transform="translate(-14.1 -11.74)"/><path class="cls-6" d="M129.36,201.91q.39-.37.81-.72a29,29,0,0,1,4.75-3.14l-.72-1.27c-5.45,3-13.85,6.69-5.94,12.29a218.37,218.37,0,0,0,19,11.73c1.08-.28,2.15-.58,3.21-.9L133.92,210C130.22,207.82,125.06,206,129.36,201.91Z" transform="translate(-14.1 -11.74)"/><path class="cls-6" d="M98.33,75.48l-.7,0c-.07.14-.14.29-.22.43a1.14,1.14,0,0,0,.77,1.61h.07C99.57,77.44,99.67,75.36,98.33,75.48Z" transform="translate(-14.1 -11.74)"/><path class="cls-6" d="M86.78,39.62l.09-.28-1-.36c-1.1-.42-1.86,1.27-.86,1.87,12.9,7.77,19.76,20.48,12.63,34.68l.7,0c1.34-.12,1.24,2-.08,2.08h-.07a.87.87,0,0,0,1-.49c6.24-12,4.41-23.29-5.77-32.53-.67-.61-1.39-1.27-2.13-1.92A12.36,12.36,0,0,1,88.93,42C86.94,41.25,85.27,39.16,86.78,39.62Z" transform="translate(-14.1 -11.74)"/><path class="cls-6" d="M86.78,39.62c-1.51-.46.16,1.63,2.15,2.39a12.36,12.36,0,0,0,2.34.62,18.42,18.42,0,0,0-4-2.79A5.62,5.62,0,0,0,86.78,39.62Z" transform="translate(-14.1 -11.74)"/><path class="cls-6" d="M81.29,52.7c.73,1.1,2.59.16,1.85-1L66.35,26.63,64.58,27.7Q72.94,40.2,81.29,52.7Z" transform="translate(-14.1 -11.74)"/><path class="cls-6" d="M69.11,52.51a14.93,14.93,0,0,0,.41,3.65C70,53,69.23,51.19,69.11,52.51Z" transform="translate(-14.1 -11.74)"/><path class="cls-6" d="M97.41,76c.08-.14.15-.29.22-.43-15.51,1-24.94-10-27.22-25-.18-1.19-2-1-2.06.18,0,.53-.06,1.09-.13,1.67l.89.1c.12-1.32.93.51.41,3.65,0,.17.07.35.11.54,3,14.44,14.45,22.07,28.55,20.87A1.14,1.14,0,0,1,97.41,76Z" transform="translate(-14.1 -11.74)"/><path class="cls-6" d="M96.25,29.94c1.29-.36.84-2.39-.45-2C88.13,30,79.12,27.48,71.1,24q-1.16.61-2.29,1.24C77.56,29.23,87.59,32.35,96.25,29.94Z" transform="translate(-14.1 -11.74)"/><path class="cls-6" d="M54.88,56.54c-.68,1.15,1.08,2.27,1.76,1.11C61.7,49.06,63,39.13,62.57,29.28c0-.09,0-.19,0-.3q-1,.64-2,1.31C61,39.41,59.49,48.71,54.88,56.54Z" transform="translate(-14.1 -11.74)"/><path class="cls-7" d="M59.65,68.47c4.93-2.75,7.93-10.3,8.57-16.06.07-.58.11-1.14.13-1.67,0-1.16,1.88-1.37,2.06-.18,2.28,14.93,11.71,26,27.22,25,7.13-14.2.27-26.91-12.63-34.68-1-.6-.24-2.29.86-1.87l1,.36c4.6,1.5,8.62,1,13.39-.23,6-1.59,10.31-2,10.26-8.48,0-4.74-2.11-6.06-5.74-8.86A32.77,32.77,0,0,0,91.27,15.9,105.48,105.48,0,0,0,71.1,24c8,3.51,17,6.07,24.7,3.94,1.29-.36,1.74,1.67.45,2-8.66,2.41-18.69-.71-27.44-4.73q-1.24.69-2.46,1.42l16.8,25.12c.74,1.11-1.12,2-1.85,1q-8.35-12.5-16.72-25-1,.63-2,1.28c0,.11,0,.21,0,.3.46,9.85-.87,19.78-5.93,28.37-.68,1.16-2.44,0-1.76-1.11C59.49,48.71,61,39.41,60.6,30.28A106.71,106.71,0,0,0,45.8,42.48a39.81,39.81,0,0,0-2,9.5C43.17,60.59,46.33,75.95,59.65,68.47Z" transform="translate(-14.1 -11.74)"/><path class="cls-6" d="M110.52,30.63c.05,6.44-4.23,6.89-10.26,8.48-4.77,1.26-8.79,1.73-13.39.23l-.09.28a5.62,5.62,0,0,1,.53.22,18.42,18.42,0,0,1,4,2.79c6,1,14-1.66,18.43-4.78,9.93-7,1.35-15.27-6.82-20.35a26.72,26.72,0,0,0-6.59-2.89q-2.54.59-5,1.3a32.77,32.77,0,0,1,13.52,5.87C108.41,24.57,110.48,25.89,110.52,30.63Z" transform="translate(-14.1 -11.74)"/><path class="cls-6" d="M55.34,74c6-1.76,11.26-9.47,13.36-14.85a14.78,14.78,0,0,0,.82-3,14.93,14.93,0,0,1-.41-3.65l-.89-.1c-.64,5.76-3.64,13.31-8.57,16.06C46.33,75.95,43.17,60.59,43.8,52a39.81,39.81,0,0,1,2-9.5q-1.49,1.48-2.93,3a40.61,40.61,0,0,0-.91,4.8C41,58.36,44,77.31,55.34,74Z" transform="translate(-14.1 -11.74)"/><path class="cls-6" d="M34.93,122.67a.67.67,0,0,0-.14-.6c0,.13.08.27.11.4A.75.75,0,0,1,34.93,122.67Z" transform="translate(-14.1 -11.74)"/><path class="cls-6" d="M34.54,121.85l-2-1.14c.19.66.37,1.33.54,2a1,1,0,0,0,.91.74,1.06,1.06,0,0,0,1-.76h0a.75.75,0,0,0,0-.2c0-.13-.07-.27-.11-.4A.79.79,0,0,0,34.54,121.85Z" transform="translate(-14.1 -11.74)"/><path class="cls-6" d="M34,123.44a.8.8,0,0,0,1-.76A1.06,1.06,0,0,1,34,123.44Z" transform="translate(-14.1 -11.74)"/><path class="cls-6" d="M19.91,105.57c.51,1.07,2.21.37,1.7-.71a9.58,9.58,0,0,0-5.79-5.37c-.11.6-.2,1.2-.3,1.81A7.8,7.8,0,0,1,19.91,105.57Z" transform="translate(-14.1 -11.74)"/><path class="cls-7" d="M32.53,120.71c-2.07-7.21-5.6-14.42-11.48-19.22A14.24,14.24,0,0,0,16,98.6c-.05.3-.11.59-.16.89a9.58,9.58,0,0,1,5.79,5.37c.51,1.08-1.19,1.78-1.7.71a7.8,7.8,0,0,0-4.39-4.28,106.55,106.55,0,0,0-1.16,11c3.61,2.09,8.32,3.22,11.91,5.05Q29.44,119,32.53,120.71Z" transform="translate(-14.1 -11.74)"/><path class="cls-6" d="M32.53,120.71l2,1.14a.79.79,0,0,1,.25.22c-2.25-8.71-6.5-18.06-14.22-23.24a13.14,13.14,0,0,0-4.25-1.95c-.12.57-.22,1.14-.33,1.72a14.24,14.24,0,0,1,5.06,2.89C26.93,106.29,30.46,113.5,32.53,120.71Z" transform="translate(-14.1 -11.74)"/><path class="cls-6" d="M34,123.44a1,1,0,0,1-.91-.74c-.17-.66-.35-1.33-.54-2q-3.09-1.74-6.26-3.36c-3.59-1.84-8.3-3-11.91-5.05,0,.65-.06,1.3-.08,1.95,6.35,3.11,12.95,5.5,19.15,9.08A.92.92,0,0,0,34,123.44Z" transform="translate(-14.1 -11.74)"/><path class="cls-6" d="M99.59,88.68a.69.69,0,0,0,.64.06h-.4A.83.83,0,0,1,99.59,88.68Z" transform="translate(-14.1 -11.74)"/><path class="cls-6" d="M99.59,88.68a.83.83,0,0,0,.24.06h.4a.86.86,0,0,0,.29-.19c.54-.54,1.08-1.09,1.62-1.64-.69,0-1.37,0-2,0a1,1,0,0,0-1,.7A1.06,1.06,0,0,0,99.59,88.68Z" transform="translate(-14.1 -11.74)"/><path class="cls-6" d="M99.59,88.68a1.06,1.06,0,0,1-.46-1.07A.78.78,0,0,0,99.59,88.68Z" transform="translate(-14.1 -11.74)"/><path class="cls-6" d="M100.09,86.92c.68,0,1.36,0,2,0,1.67-1.69,3.32-3.4,4.92-5.14,3.22-3.51,5.9-8.83,9.73-11.6,3.54-2.57,10.16-2.17,11.65,2.86,1,3.37-2.26,6.2-4.7,7.93-6.19,4.39-14.1,5.87-21.6,6-.54.54-1.07,1.1-1.62,1.64a.86.86,0,0,1-.29.19c9,.14,19.14-1.46,26.19-7.54,3.74-3.23,5.59-7.4,1.93-11.41-4.29-4.72-10.62-3.76-14.67.75-4.88,5.44-9,11.37-14.29,16.56a.93.93,0,0,0-.26.52A1,1,0,0,1,100.09,86.92Z" transform="translate(-14.1 -11.74)"/><path class="cls-6" d="M127.23,76.18c.57-1-1.13-1.75-1.7-.72-1,1.91-3.37,3-5.44,3.32-1.16.2-.94,2,.24,1.83A9.48,9.48,0,0,0,127.23,76.18Z" transform="translate(-14.1 -11.74)"/><path class="cls-8" d="M193,195.55q-1,.9-1.93,1.77c0,.05,0,.1,0,.16q1-.92,2-1.86Z" transform="translate(-14.1 -11.74)"/><path class="cls-8" d="M45.8,42.48l.08-.23q-1.5,1.48-3,3l-.06.22Q44.31,44,45.8,42.48Z" transform="translate(-14.1 -11.74)"/></g></svg>