<svg xmlns="http://www.w3.org/2000/svg" viewBox="0 0 212.6 212.6"><defs><style>.cls-1{fill:#ec0671;}.cls-2{fill:none;}.cls-3{fill:#53c0b0;}.cls-4{fill:#fff;}.cls-5,.cls-6{fill:#ebe64d;stroke:#000;stroke-width:2px;}.cls-5{stroke-miterlimit:10;}.cls-6{stroke-linecap:round;stroke-linejoin:round;}</style></defs><title>delfinò</title><g id="sfondo"><circle class="cls-1" cx="106.3" cy="106.3" r="106.3"/></g><g id="disegni"><path class="cls-2" d="M93.36,213c.46-1.25,2.46-.68,2,.58a5.3,5.3,0,0,0,.38,4.61,106.77,106.77,0,0,0,15.29,1.5c3-6.11,1.64-14.49-6.35-16.54-9.09-2.34-14.61,6.61-13.4,14.18l2,.41A7.07,7.07,0,0,1,93.36,213Z" transform="translate(-7.48 -7.07)"/><path class="cls-2" d="M59.4,185.47a.72.72,0,0,1,1.42-.3l5,23.06q1.86.94,3.76,1.82c1.42-1.47,2.64-3,3.16-3.54L83,196.16c2.36-2.37,5.21-4.26,1.25-6.29-3.54-1.81-8.52-2.31-12.36-3.35s-8.7-3.37-12.64-3.43c-4.13-.06-2.46,3.35-1.71,6.24L62,206.19q1.08.6,2.17,1.18ZM82,192a.59.59,0,0,1,.17.23h0a.6.6,0,0,1,.08.48c0,1.8-2.51,2.71-3.22.75S80.87,190.67,82,192Zm-5.45-2.54a.61.61,0,0,1,.16.22h0a.6.6,0,0,1,.08.48c0,1.8-2.51,2.71-3.22.75S75.42,188.11,76.58,189.49Zm-5.45.51c.64,4.06,3.57,7.83,7.56,7.49.92-.08,1.22,1.34.29,1.42-5.21.44-8.53-3.88-9.27-8.61C69.57,189.38,71,189.09,71.13,190Z" transform="translate(-7.48 -7.07)"/><path class="cls-2" d="M41.14,36.44c2.41.66,1.62,4-.68,4a1.06,1.06,0,0,1-.28-.06,1.1,1.1,0,0,1-.48-.15,2.09,2.09,0,0,1-1-2.06c-.82.82-1.62,1.66-2.42,2.5h0c1.16,1.78-.72,4.24-2.68,3a106.75,106.75,0,0,0-9.25,12.32L34.49,70c.89,1.22,3,3,2.28,3.53,1.8-.62,4.62-3.09,5.72-3.75,7.23-4.4,16.1-8.52,22.25-14.37,3.33-3.17,2.81-3.43.48-7.57-2.17-3.86-4.69-7.56-7.15-11.23-2.12-3.16-4.29-6.28-6.48-9.39a106.87,106.87,0,0,0-11.08,9.2A2.22,2.22,0,0,1,41.14,36.44ZM35.81,64.16a1,1,0,0,1-2.06-.28l1-7.19A1,1,0,0,1,36.8,57ZM54.45,45.8l7.19,1a1,1,0,0,1-.29,2.06l-7.18-1A1,1,0,0,1,54.45,45.8Zm-8.37-3.67c.58-1.21,2.5-.41,1.92.8C45.54,48,40.32,52,34.48,49.69a1,1,0,0,1,.8-1.92C40,49.62,44.12,46.19,46.08,42.13Z" transform="translate(-7.48 -7.07)"/><path class="cls-2" d="M115.75,177.8c-1.9-2.79-5-6.54-8.86-5.48-5.71,1.57-6.31,9-3.48,13.1,3.05,4.39,9,7.54,12.9,11.25,1.94,1.85,3.83,3.75,5.7,5.67C122.08,193.86,120.58,184.9,115.75,177.8Zm-2.55,4.07c-.36-2.35-1.5-5-3.63-6.22-1.15-.66-.31-2.56.85-1.9,2.83,1.61,4.37,4.75,4.85,7.9C115.48,183,113.41,183.19,113.21,181.87Z" transform="translate(-7.48 -7.07)"/><path class="cls-2" d="M138.15,120.63c-5.4-10.48-22.27-1.66-17.56,9C126.52,139.76,143.55,131.11,138.15,120.63Zm-12.38-1.58c1-.4,1.79,1.16.75,1.56-3.06,1.2-3.43,4.59-2.56,7.39.33,1.06-1.37,1.37-1.7.32C121.16,124.82,122,120.54,125.76,119.06Z" transform="translate(-7.48 -7.07)"/><path class="cls-2" d="M22.3,149.67c-.1.54-.16,1.09-.21,1.64a36.15,36.15,0,0,0,1.2,11.28A13.41,13.41,0,0,0,25,166.95a4.53,4.53,0,0,0,0-1.8c-.36-1.73-1.23-3.3-1.73-5a26.66,26.66,0,0,1-.9-4.86A31.11,31.11,0,0,1,22.3,149.67Z" transform="translate(-7.48 -7.07)"/><path class="cls-2" d="M165.49,22.42q0-1,0-1.93a105.68,105.68,0,0,0-20.6-8.78,22.42,22.42,0,0,0-5.42,3.48c-3,2.86.6,4.11,3.17,5.64l20.6,12.28C166.84,33.48,165.48,24.23,165.49,22.42ZM162.91,31,141.24,16.8a.72.72,0,0,1,.8-1.2l21.67,14.18A.72.72,0,0,1,162.91,31Z" transform="translate(-7.48 -7.07)"/><path class="cls-2" d="M200,154.27c-9.26,2.62-21.14,3.4-19.63-8.66.67-5.38,4.1-13.07,8.87-16.84-1,.11-1.95.19-2.86.28-13.68,1.31-23.28-4.94-27.95-17.62a.85.85,0,0,1,.29-1c8.59-11.26,21.94-14.58,34.67-7.1l.48.29a15,15,0,0,1-1.65-2.62c-2.57-5.17-4.72-14.26-2-19.87,5.17-10.62,21.24-.12,26.53,6.06l.14.17a105.58,105.58,0,0,0-10.14-25.56,20.66,20.66,0,0,1-12.08,6.49,19,19,0,0,1-3,.2c-2.42,0-10.49-.22-12.64-3.46a3.25,3.25,0,0,1-.52-2.34c.23-1.83,2.42-4.32,3.88-5.94l.76-.88a30.47,30.47,0,0,1,10.95-8.57,15.17,15.17,0,0,1,2.35-.71,106.81,106.81,0,0,0-29.22-25.08c.43,5.58.75,14-4.27,13.06l0,0a.74.74,0,0,1-.31-.1c-7.89-4.7-16.41-8.93-23.9-14.24-5.75-4.07.92-6.72,4.65-8.83l.1-.06a105.79,105.79,0,0,0-16.72-3.42,3.45,3.45,0,0,0,.45,1.91c3.31,6-5,11.24-9,5.67h0a3.25,3.25,0,0,0-5.48,3.49c3.31,6-5,11.24-9,5.67-.79-1.09,1-2.17,1.77-1.09A3.25,3.25,0,0,0,110.92,20c-3.31-6,5-11.23,9-5.68h0a3.25,3.25,0,0,0,5.48-3.49h0a5.63,5.63,0,0,1-.74-3.24,107.31,107.31,0,0,0-29,1c.16,1,.29,1.92.39,2.74l.21,1.45a38.51,38.51,0,0,1-.87,17.58c-1.23,3.85-8.94,16.34-15.53,17a4.89,4.89,0,0,1-3.75-1.18,2,2,0,0,1-.54-.64,1.72,1.72,0,0,1-.23-.37C69.92,33.39,69.54,23,74.24,14.68a106,106,0,0,0-20.68,11.1c.87,1.54,1.71,3,2.54,4.2C59.6,35,72.35,48.51,68.59,54.91c-2.78,4.72-12.17,8.61-16.66,11.43q-7.33,4.61-14.78,9a1.07,1.07,0,0,1-1.46-.2L23.13,57.84A105.71,105.71,0,0,0,11.47,84.42a15,15,0,0,1,4.06-.57c8.8,0,15.07,7.1,15.52,15.53-.47,8.75-7.22,15.95-16.33,15.48a15.24,15.24,0,0,1-7.23-2.27c0,.26,0,.52,0,.79a106.06,106.06,0,0,0,6.7,37.21,9,9,0,0,1,.92-1c1.51-1.47,5.29-4.48,7.41-4.12a.73.73,0,0,1,.5.31,4.78,4.78,0,0,1,2.68-3c2-1,5.44-2.1,7.69-1.43a.67.67,0,0,1,.25.16,1.62,1.62,0,0,1,.44-.43c1.08-.69,3.5.22,4.74.11,2.14-.19,2.92-2.69,5.25-3.13a.75.75,0,0,1,.84.63,8.81,8.81,0,0,1-.25,2.56c-.39,1.6-.55,2.27.55,3.58.69.82,2.85,2,3,3.18a2.74,2.74,0,0,1-.69,1.84,21.34,21.34,0,0,1-3.23,3.09,18,18,0,0,0-4.54,5.28l.13-.07a24.29,24.29,0,0,0,4.5-4.1A24.8,24.8,0,0,0,47,150.61c.18-.27.31-.57.49-.81a1,1,0,0,1,.88-.48c1.81,0,3.43,3.92,3.9,5.22a5.37,5.37,0,0,1-.22,4.81.66.66,0,0,1,.52.13c1.72,1.36,2,6,2,8.06a5.47,5.47,0,0,1-.88,3.39c-1.78,2.23-5.52,3.88-8,5.15a50.87,50.87,0,0,1-9.12,3.58,29.65,29.65,0,0,0-4.65,1.53l.41.48c1.52.2,4.88-1.17,5.64-1.38,3.87-1.1,8.13-2,11.52-4.27a10.06,10.06,0,0,0,2.13-2,1.33,1.33,0,0,1,.43-.83.75.75,0,0,1,1.2.67A2.4,2.4,0,0,1,53,175a.19.19,0,0,0,0,.07c-.15.73-.35,1.45-.53,2.17-.42,1.74-.86,3.47-1.34,5.19-.54,1.94-1,5.63-3.1,6.61a7,7,0,0,1-1.5.5,1,1,0,0,1,0,.19c.15,1.19-1.06,2.87-2.17,4.17A106.62,106.62,0,0,0,60,205.1a188.67,188.67,0,0,1-4.8-19c-1.23-6.94,5.38-4.14,9.51-3L80,187.22c1.94.53,6.32.82,7.72,2.65,3,3.93-8.37,12-10.5,14.14-1.1,1.1-3.43,4.2-6,6.79a105.45,105.45,0,0,0,17.95,6c-.87-8.7,5.6-18.42,16.08-15.71,9.14,2.37,11,11.51,7.95,18.57h.58a106.69,106.69,0,0,0,22-2.29,3.22,3.22,0,0,0-2.11-2.29c-6.43-2.44-3.49-11.79,3.18-10.17h0a3.25,3.25,0,0,0,1.9-6.21h0c-6.43-2.45-3.48-11.8,3.19-10.17,1.3.32.65,2.3-.65,2a3.25,3.25,0,0,0-1.9,6.21c6.43,2.44,3.48,11.8-3.19,10.17h0a3.25,3.25,0,0,0-1.9,6.21,5.22,5.22,0,0,1,3.47,3.84,105.56,105.56,0,0,0,23.94-8.69,20,20,0,0,1-11.1-17,.23.23,0,0,1,0-.12.59.59,0,0,1,0-.13v-.06a.57.57,0,0,1,0-.19c.68-10.63,8.93-19.32,20-18.75a19.23,19.23,0,0,1,17.92,16.92,106.25,106.25,0,0,0,27.09-45.16C211.21,148.46,205.92,152.59,200,154.27ZM31.33,83.9c1.34-2.7,5.2-.9,4.38,1.88l0,0a1,1,0,0,1-.21.47C33.68,88.48,30,86.65,31.33,83.9ZM20.56,139.34,15.08,131c-.73-1.11.89-2.42,1.63-1.3L22.18,138C22.92,139.15,21.29,140.45,20.56,139.34Zm4.59-3.28-4.2-9c-.57-1.22,1.35-2,1.91-.82l4.2,9C27.62,136.46,25.71,137.27,25.14,136.06Zm5.17-1.13-3.48-9.32c-.47-1.25,1.44-2.08,1.91-.82l3.48,9.32C32.7,135.36,30.78,136.18,30.31,134.93Zm4.51,0-1.63-9.81c-.22-1.32,1.84-1.6,2.06-.28l1.63,9.81C37.11,135.92,35,136.2,34.83,134.88Zm5.91-31.28,0,0a1,1,0,0,1-.21.47c-1.79,2.2-5.52.37-4.15-2.38S41.56,100.83,40.74,103.6Zm25.62,24.12c1.34-2.7,5.2-.9,4.38,1.88l0,0a1,1,0,0,1-.21.47C68.72,132.31,65,130.47,66.36,127.72ZM45.83,83.9c1.34-2.7,5.2-.9,4.38,1.88l0,0a1,1,0,0,1-.21.47C48.18,88.48,44.46,86.65,45.83,83.9Zm8.08,39.64c-6.1-.68-7.64-5.6-6.87-11.14C48.49,102,55.91,93.05,63.66,86.47a.75.75,0,0,1,.48-.39.9.9,0,0,1,1.33.59,1.06,1.06,0,0,1,.13.57c-.59,8.33.3,16.47.21,24.72C65.73,118.81,61.07,124.34,53.9,123.53Zm11.84,46.22c-2-2.27,1.17-5.15,3.42-3.32h0a1,1,0,0,1,.36.39C70.88,169.34,67.76,172.07,65.75,169.75Zm13.12-1.41c-2-2.28,1.17-5.15,3.42-3.32h0a1,1,0,0,1,.36.39C84,167.93,80.89,170.67,78.87,168.35Zm8.78-7.56c-.75,1.11-2.38-.18-1.63-1.29a3.25,3.25,0,0,0-5.17-3.93c-4.52,5.19-12.27-.82-8.44-6.51a3.25,3.25,0,0,0-5.17-3.93c-4.52,5.19-12.28-.82-8.44-6.51.75-1.11,2.38.18,1.63,1.29a3.25,3.25,0,0,0,5.17,3.93c4.52-5.18,12.26.81,8.45,6.5h0a3.25,3.25,0,0,0,5.17,3.93h0C83.73,149.09,91.48,155.09,87.65,160.79Zm1.72,23.06c-2-2.27,1.17-5.15,3.42-3.32l0,0a1,1,0,0,1,.36.39C94.51,183.43,91.38,186.17,89.37,183.85Zm71.76-48.29c1.34-2.7,5.2-.9,4.38,1.88l0,0a1,1,0,0,1-.21.47C163.49,140.14,159.76,138.31,161.13,135.56Zm17-56c1.34-2.7,5.2-.9,4.38,1.88l0,0a1,1,0,0,1-.21.47C180.49,84.14,176.76,82.31,178.13,79.56Zm-8.92-32.28c1.34-2.7,5.2-.9,4.38,1.88l0,0a1,1,0,0,1-.21.47C171.56,51.86,167.84,50,169.21,47.28Zm-5.58,43.45c1.34-2.7,5.2-.9,4.38,1.88l0,0a1,1,0,0,1-.21.47C166,95.31,162.26,93.48,163.63,90.73Zm-.89-35.12,0,0a1,1,0,0,1-.21.47c-1.79,2.2-5.52.37-4.15-2.38S163.56,52.83,162.74,55.6Zm-6.38-15.38c1.34-2.7,5.2-.9,4.38,1.88l0,0a1,1,0,0,1-.21.47C158.72,44.81,155,43,156.36,40.22Zm-7.68,10.16-7.93,6c-1.07.81-2.28-.89-1.21-1.69l7.93-6C148.54,47.88,149.74,49.58,148.68,50.39Zm-3-5.76L139,52c-.89,1-2.51-.31-1.62-1.31L144,43.31C144.92,42.31,146.54,43.62,145.65,44.62ZM140,38.76c.81-1.07,2.43.25,1.62,1.31l-6,7.91c-.82,1.07-2.43-.25-1.62-1.31ZM129,44.14l4.81-8.71c.65-1.17,2.55-.33,1.91.84L130.87,45C130.22,46.14,128.31,45.31,129,44.14Zm-.72,55,0,0a1,1,0,0,1-.21.47c-1.79,2.2-5.52.37-4.15-2.38S129.06,96.33,128.24,99.1ZM122.56,25.4c1.34-2.7,5.2-.9,4.38,1.88l0,0a1,1,0,0,1-.21.47C124.92,30,121.19,28.15,122.56,25.4Zm-17.7,14.33c1.34-2.7,5.2-.9,4.38,1.88l0,0a1,1,0,0,1-.21.47C107.22,44.31,103.49,42.48,104.86,39.72Zm18,166.06a1.07,1.07,0,0,1-.66-.34c-5.75-6.05-12.36-10.88-18.4-16.51-5-4.68-5.94-11.85-.52-16.6,4.62-4,9.29-1.86,12.86,2.44,6.71,8.09,8.29,19.59,7.94,29.75a.78.78,0,0,1-.08.75A.87.87,0,0,1,122.81,205.78ZM119,130.42c-5.6-12.72,14.26-23,20.69-10.53S126.06,142.39,119,130.42Zm22.3-71,8.8-4.64c1.18-.62,1.91,1.33.73,1.95l-8.8,4.64C140.87,62,140.15,60.08,141.32,59.46Zm.62,40.33c-1.14-.7.08-2.38,1.22-1.69a3.25,3.25,0,0,0,3.7-5.34c-5.38-4.29.28-12.29,6.14-8.72h0a3.25,3.25,0,0,0,3.71-5.33h0c-5.38-4.29.29-12.3,6.14-8.71,1.14.7-.08,2.39-1.22,1.69A3.25,3.25,0,0,0,157.92,77c5.38,4.29-.28,12.3-6.14,8.71h0a3.25,3.25,0,0,0-3.71,5.34C153.46,95.38,147.79,103.38,141.94,99.8Zm8.86,30.76c1.34-2.7,5.2-.9,4.38,1.88l0,0a1,1,0,0,1-.21.47C153.15,135.14,149.43,133.31,150.79,130.56Zm-3.44-17.34c1.34-2.7,5.2-.9,4.38,1.88l0,0a1,1,0,0,1-.21.47C149.72,117.81,146,116,147.36,113.22Zm6,30.83c1.34-2.7,5.2-.9,4.38,1.88l0,0a1,1,0,0,1-.21.47C155.72,148.64,152,146.81,153.36,144.06Zm20.1,8.64a3.25,3.25,0,0,0-5.48,3.5c3.31,6-5,11.24-9,5.67h0a3.25,3.25,0,0,0-5.47,3.5c3.31,6-5,11.24-9,5.67-.79-1.09,1-2.17,1.77-1.09a3.25,3.25,0,0,0,5.48-3.49c-3.31-6,5-11.23,9-5.68h0a3.25,3.25,0,0,0,5.48-3.49h0c-3.31-6,5-11.24,9-5.67C176,152.69,174.24,153.77,173.46,152.69ZM185,166.1l0,0a1,1,0,0,1-.21.47c-1.79,2.2-5.52.37-4.15-2.38S185.83,163.33,185,166.1Zm8.73,8,0,0a1,1,0,0,1-.21.47c-1.79,2.2-5.52.37-4.15-2.38S194.56,171.33,193.74,174.1Zm5.5-10.5,0,0a1,1,0,0,1-.21.47c-1.79,2.2-5.52.37-4.15-2.38S200.06,160.83,199.24,163.6Z" transform="translate(-7.48 -7.07)"/><path class="cls-2" d="M32,150.51a27.64,27.64,0,0,0,.19,3.66,17.66,17.66,0,0,0,.83-6.85c0-.68-.11-1.93,0-3.15a4.29,4.29,0,0,0-.23.59A21.87,21.87,0,0,0,32,150.51Z" transform="translate(-7.48 -7.07)"/><path class="cls-2" d="M43.62,189.94l.21-.1c-1.33.05-2.68,0-3.92,0L41.13,191C42,190.66,42.81,190.31,43.62,189.94Z" transform="translate(-7.48 -7.07)"/><path class="cls-2" d="M10.94,86.39q-.61,2.34-1.12,4.72L15,95.18c.74.58-.31,1.62-1,1L9.5,92.71a106.63,106.63,0,0,0-2,18.16c8.06,4.91,21.4,1,22.07-11.49C29,88.5,18.88,84.14,10.94,86.39Zm3.45,14.26L10,106.15c-.59.74-1.62-.3-1-1l4.35-5.5C13.94,98.87,15,99.92,14.39,100.65Zm1-1.42h0a.7.7,0,0,1-.26-.26c-1-1.73,1.13-3.79,2.62-2.19S17,100.47,15.35,99.23Zm3.28-4.4L23,89.32c.58-.74,1.62.3,1,1l-4.35,5.5C19.08,96.6,18.05,95.56,18.63,94.82Zm5.66,9.86-5.5-4.35c-.74-.58.3-1.62,1-1l5.5,4.35C26.07,104.23,25,105.26,24.29,104.68Z" transform="translate(-7.48 -7.07)"/><path class="cls-2" d="M36.86,170.64A4.53,4.53,0,0,0,35,172.11a10.35,10.35,0,0,0,3.75-1.3,35.75,35.75,0,0,0,9.66-6.86c.41-.43.81-.87,1.18-1.34a31.32,31.32,0,0,1-4.1,3.57C42.8,168.21,39.83,169.1,36.86,170.64Z" transform="translate(-7.48 -7.07)"/><path class="cls-2" d="M191.35,88c-1.4,6,3,14.28,7.26,18.37.84.81-.25,2.31-1.25,1.65-12.58-8.37-27.1-8.81-36.79,3.33,5.71,14.82,19.72,18.31,34.14,14,1.12-.33,1.86,1.37.8,1.9-4.81,2.42-7.34,5.86-9.79,10.56-2.88,5.53-5.43,9-.63,13.29,3.53,3.16,5.9,2.52,10.41,1.72,8-1.42,15.48-6.62,21.31-13.29a106.13,106.13,0,0,0,2.59-14.32C210.54,128.83,201,134.06,197,142c-.6,1.2-2.41.16-1.81-1,4.42-8.78,14.84-14.33,24.43-18.14,0-.48.09-1,.12-1.46l-31.86-4.78c-1.32-.2-.77-2.21.54-2l31.45,4.72c0-.46,0-.91.06-1.37-.66-.61-1.23-1.13-1.59-1.43-7.6-6.29-14-14-17-23.48-.4-1.28,1.61-1.82,2-.55,2.83,9.12,9.19,16.78,16.66,22.8,0-.64,0-1.28,0-1.92a106.8,106.8,0,0,0-2.14-21.32,36.61,36.61,0,0,0-3.72-4.69C208.28,81.11,194.79,73.1,191.35,88Z" transform="translate(-7.48 -7.07)"/><path class="cls-2" d="M49.49,110.6c-.78,3.29-1.43,8.12,1.93,10.24,5,3.16,10.93-1.43,12-6.26,1.18-5.21-.5-11.73-.39-17.11.06-2.68.18-5.36.34-8C57.09,95.1,51.48,102.25,49.49,110.6Zm4.72-.86c-1.5,1.85-2.69,4.48-2.15,6.88.29,1.3-1.68,2-2,.65-.72-3.18.56-6.43,2.56-8.91C53.49,107.32,55.05,108.7,54.21,109.74Z" transform="translate(-7.48 -7.07)"/><path d="M65.47,86.67a.9.9,0,0,0-1.33-.59A1.17,1.17,0,0,1,65.47,86.67Z" transform="translate(-7.48 -7.07)"/><path d="M64.14,86.08a.75.75,0,0,0-.48.39l.35-.3Z" transform="translate(-7.48 -7.07)"/><path d="M63.4,89.43c.58-.52,1.16-1,1.74-1.52a1.1,1.1,0,0,0,.32-1.24,1.17,1.17,0,0,0-1.33-.59l-.13.09-.35.3a1,1,0,0,0-.11.37C63.49,87.7,63.45,88.57,63.4,89.43Z" transform="translate(-7.48 -7.07)"/><path d="M65.81,112c.09-8.25-.8-16.39-.21-24.72a1.06,1.06,0,0,0-.13-.57,1.1,1.1,0,0,1-.32,1.24c-.59.49-1.17,1-1.74,1.52-.16,2.68-.29,5.36-.34,8-.12,5.38,1.57,11.89.39,17.11-1.09,4.82-7,9.42-12,6.26-3.36-2.12-2.71-7-1.93-10.24,2-8.35,7.6-15.5,13.91-21.17.05-.86.09-1.73.15-2.59a1,1,0,0,1,.11-.37C55.91,93.05,48.49,102,47,112.39c-.77,5.54.77,10.45,6.87,11.14C61.07,124.34,65.73,118.81,65.81,112Z" transform="translate(-7.48 -7.07)"/><path d="M52.65,108.36c-2,2.48-3.28,5.73-2.56,8.91.29,1.31,2.27.64,2-.65-.54-2.4.65-5,2.15-6.88C55.05,108.7,53.49,107.32,52.65,108.36Z" transform="translate(-7.48 -7.07)"/><path d="M124,204.52a1,1,0,0,0-.21-.32c-.6-.63-1.21-1.24-1.81-1.86,0,.78,0,1.55-.05,2.32a1.1,1.1,0,0,0,.85,1.12,1.22,1.22,0,0,0,1.13-.51A.93.93,0,0,0,124,205C124,204.84,124,204.68,124,204.52Z" transform="translate(-7.48 -7.07)"/><path d="M122.81,205.78a.87.87,0,0,0,1.13-.51A1.22,1.22,0,0,1,122.81,205.78Z" transform="translate(-7.48 -7.07)"/><path d="M124,204.52c0,.16,0,.32,0,.47a.93.93,0,0,1-.07.27A.78.78,0,0,0,124,204.52Z" transform="translate(-7.48 -7.07)"/><path d="M122,204.66c0-.77,0-1.54.05-2.32-1.87-1.92-3.76-3.83-5.7-5.67-3.89-3.71-9.84-6.86-12.9-11.25-2.83-4.06-2.23-11.53,3.48-13.1,3.83-1.05,7,2.69,8.86,5.48,4.83,7.1,6.33,16.06,6.26,24.54.6.62,1.21,1.23,1.81,1.86a1,1,0,0,1,.21.32c.36-10.16-1.23-21.66-7.94-29.75-3.57-4.3-8.24-6.48-12.86-2.44-5.42,4.75-4.49,11.92.52,16.6,6,5.63,12.65,10.46,18.4,16.51a1.07,1.07,0,0,0,.66.34A1.1,1.1,0,0,1,122,204.66Z" transform="translate(-7.48 -7.07)"/><path d="M110.43,173.75c-1.17-.66-2,1.24-.85,1.9,2.13,1.21,3.28,3.87,3.63,6.22.2,1.32,2.27,1.1,2.07-.22C114.8,178.49,113.26,175.36,110.43,173.75Z" transform="translate(-7.48 -7.07)"/><path d="M105.25,201.1c-10.49-2.71-17,7-16.08,15.71l2.1.47c-1.2-7.57,4.31-16.52,13.4-14.18,8,2.05,9.34,10.43,6.35,16.54l2.18,0C116.22,212.61,114.39,203.46,105.25,201.1Z" transform="translate(-7.48 -7.07)"/><path d="M95.36,213.53c.46-1.26-1.54-1.83-2-.58a7.07,7.07,0,0,0-.09,4.74l2.47.45A5.3,5.3,0,0,1,95.36,213.53Z" transform="translate(-7.48 -7.07)"/><path d="M119,130.42c-.57-1,1-1.7,1.56-.75-4.71-10.7,12.16-19.52,17.56-9s-11.63,19.13-17.56,9c.45,1-1.11,1.77-1.56.75,7,12,27.12,2,20.69-10.53S113.42,117.7,119,130.42Z" transform="translate(-7.48 -7.07)"/><path d="M120.59,129.67c-.56-1-2.13-.22-1.56.75S121,130.69,120.59,129.67Z" transform="translate(-7.48 -7.07)"/><path d="M124,128c-.87-2.8-.5-6.19,2.56-7.39,1-.41.29-2-.75-1.56-3.77,1.48-4.61,5.77-3.52,9.27C122.58,129.38,124.28,129.07,124,128Z" transform="translate(-7.48 -7.07)"/><path class="cls-3" d="M171.78,48.33l-.23.5c-.38,1.27,1.61,1.58,2,.36A1,1,0,0,0,171.78,48.33Z" transform="translate(-7.48 -7.07)"/><path class="cls-3" d="M173.36,49.66a1,1,0,0,0,.21-.47c-.41,1.22-2.39.91-2-.36l.23-.5a1,1,0,0,1,1.78.86l0,0c.82-2.77-3-4.58-4.38-1.88S171.56,51.86,173.36,49.66Z" transform="translate(-7.48 -7.07)"/><path class="cls-3" d="M158.94,41.27l-.23.5c-.38,1.27,1.61,1.58,2,.36A1,1,0,0,0,158.94,41.27Z" transform="translate(-7.48 -7.07)"/><path class="cls-3" d="M160.51,42.6a1,1,0,0,0,.21-.47c-.41,1.22-2.39.91-2-.36l.23-.5a1,1,0,0,1,1.78.86l0,0c.82-2.77-3-4.58-4.38-1.88S158.72,44.81,160.51,42.6Z" transform="translate(-7.48 -7.07)"/><path class="cls-3" d="M109,42.1a1,1,0,0,0,.21-.47c-.41,1.22-2.39.91-2-.36l.23-.5a1,1,0,0,1,1.78.86l0,0c.82-2.77-3-4.58-4.38-1.88S107.22,44.31,109,42.1Z" transform="translate(-7.48 -7.07)"/><path class="cls-3" d="M107.44,40.77l-.23.5c-.38,1.27,1.61,1.58,2,.36A1,1,0,0,0,107.44,40.77Z" transform="translate(-7.48 -7.07)"/><path class="cls-3" d="M126.71,27.78a1,1,0,0,0,.21-.47c-.41,1.22-2.39.91-2-.36l.23-.5a1,1,0,0,1,1.78.86l0,0c.82-2.77-3-4.58-4.38-1.88S124.92,30,126.71,27.78Z" transform="translate(-7.48 -7.07)"/><path class="cls-3" d="M125.13,26.45l-.23.5c-.38,1.27,1.61,1.58,2,.36A1,1,0,0,0,125.13,26.45Z" transform="translate(-7.48 -7.07)"/><path class="cls-3" d="M33.9,84.95l-.23.5c-.38,1.27,1.61,1.58,2,.36A1,1,0,0,0,33.9,84.95Z" transform="translate(-7.48 -7.07)"/><path class="cls-3" d="M35.47,86.28a1,1,0,0,0,.21-.47c-.41,1.22-2.39.91-2-.36l.23-.5a1,1,0,0,1,1.78.86l0,0c.82-2.77-3-4.58-4.38-1.88S33.68,88.48,35.47,86.28Z" transform="translate(-7.48 -7.07)"/><path class="cls-3" d="M50,86.28a1,1,0,0,0,.21-.47c-.41,1.22-2.39.91-2-.36l.23-.5a1,1,0,0,1,1.78.86l0,0c.82-2.77-3-4.58-4.38-1.88S48.18,88.48,50,86.28Z" transform="translate(-7.48 -7.07)"/><path class="cls-3" d="M48.4,84.95l-.23.5c-.38,1.27,1.61,1.58,2,.36A1,1,0,0,0,48.4,84.95Z" transform="translate(-7.48 -7.07)"/><path class="cls-3" d="M36.36,101.72c-1.37,2.75,2.36,4.58,4.15,2.38a1,1,0,0,0,.21-.47c-.41,1.22-2.39.91-2-.36l.23-.5a1,1,0,0,1,1.78.86l0,0C41.56,100.83,37.7,99,36.36,101.72Z" transform="translate(-7.48 -7.07)"/><path class="cls-3" d="M38.94,102.77l-.23.5c-.38,1.27,1.61,1.58,2,.36A1,1,0,0,0,38.94,102.77Z" transform="translate(-7.48 -7.07)"/><path class="cls-3" d="M160.94,54.77l-.23.5c-.38,1.27,1.61,1.58,2,.36A1,1,0,0,0,160.94,54.77Z" transform="translate(-7.48 -7.07)"/><path class="cls-3" d="M158.36,53.72c-1.37,2.75,2.36,4.58,4.15,2.38a1,1,0,0,0,.21-.47c-.41,1.22-2.39.91-2-.36l.23-.5a1,1,0,0,1,1.78.86l0,0C163.56,52.83,159.7,51,158.36,53.72Z" transform="translate(-7.48 -7.07)"/><path class="cls-3" d="M157.51,146.44a1,1,0,0,0,.21-.47c-.41,1.22-2.39.9-2-.36l.23-.5a1,1,0,0,1,1.78.86l0,0c.82-2.77-3-4.58-4.38-1.88S155.72,148.64,157.51,146.44Z" transform="translate(-7.48 -7.07)"/><path class="cls-3" d="M155.94,145.11l-.23.5c-.38,1.26,1.61,1.58,2,.36A1,1,0,0,0,155.94,145.11Z" transform="translate(-7.48 -7.07)"/><path class="cls-3" d="M194.86,161.72c-1.37,2.75,2.36,4.58,4.15,2.38a1,1,0,0,0,.21-.47c-.41,1.22-2.39.91-2-.36l.23-.5a1,1,0,0,1,1.78.86l0,0C200.06,160.83,196.2,159,194.86,161.72Z" transform="translate(-7.48 -7.07)"/><path class="cls-3" d="M197.44,162.77l-.23.5c-.38,1.27,1.61,1.58,2,.36A1,1,0,0,0,197.44,162.77Z" transform="translate(-7.48 -7.07)"/><path class="cls-3" d="M154.94,132.94a1,1,0,0,0,.21-.47c-.41,1.22-2.39.91-2-.36l.23-.5a1,1,0,0,1,1.78.86l0,0c.82-2.77-3-4.58-4.38-1.88S153.15,135.14,154.94,132.94Z" transform="translate(-7.48 -7.07)"/><path class="cls-3" d="M153.37,131.61l-.23.5c-.38,1.26,1.61,1.58,2,.36A1,1,0,0,0,153.37,131.61Z" transform="translate(-7.48 -7.07)"/><path class="cls-3" d="M167.78,93.11a1,1,0,0,0,.21-.47c-.41,1.22-2.39.91-2-.36l.23-.5a1,1,0,0,1,1.78.86l0,0c.82-2.77-3-4.58-4.38-1.88S166,95.31,167.78,93.11Z" transform="translate(-7.48 -7.07)"/><path class="cls-3" d="M166.21,91.78l-.23.5c-.38,1.27,1.61,1.58,2,.36A1,1,0,0,0,166.21,91.78Z" transform="translate(-7.48 -7.07)"/><path class="cls-3" d="M123.86,97.22c-1.37,2.75,2.36,4.58,4.15,2.38a1,1,0,0,0,.21-.47c-.41,1.22-2.39.91-2-.36l.23-.5a1,1,0,0,1,1.78.86l0,0C129.06,96.33,125.2,94.52,123.86,97.22Z" transform="translate(-7.48 -7.07)"/><path class="cls-3" d="M126.44,98.27l-.23.5c-.38,1.27,1.61,1.58,2,.36A1,1,0,0,0,126.44,98.27Z" transform="translate(-7.48 -7.07)"/><path class="cls-3" d="M68.94,128.77l-.23.5c-.38,1.27,1.61,1.58,2,.36A1,1,0,0,0,68.94,128.77Z" transform="translate(-7.48 -7.07)"/><path class="cls-3" d="M70.51,130.1a1,1,0,0,0,.21-.47c-.41,1.22-2.39.91-2-.36l.23-.5a1,1,0,0,1,1.78.86l0,0c.82-2.77-3-4.58-4.38-1.88S68.72,132.31,70.51,130.1Z" transform="translate(-7.48 -7.07)"/><path class="cls-3" d="M149.94,114.27l-.23.5c-.38,1.27,1.61,1.58,2,.36A1,1,0,0,0,149.94,114.27Z" transform="translate(-7.48 -7.07)"/><path class="cls-3" d="M151.51,115.6a1,1,0,0,0,.21-.47c-.41,1.22-2.39.91-2-.36l.23-.5a1,1,0,0,1,1.78.86l0,0c.82-2.77-3-4.58-4.38-1.88S149.72,117.81,151.51,115.6Z" transform="translate(-7.48 -7.07)"/><path class="cls-3" d="M165.28,137.94a1,1,0,0,0,.21-.47c-.41,1.22-2.39.91-2-.36l.23-.5a1,1,0,0,1,1.78.86l0,0c.82-2.77-3-4.58-4.38-1.88S163.49,140.14,165.28,137.94Z" transform="translate(-7.48 -7.07)"/><path class="cls-3" d="M163.71,136.61l-.23.5c-.38,1.26,1.61,1.58,2,.36A1,1,0,0,0,163.71,136.61Z" transform="translate(-7.48 -7.07)"/><path class="cls-3" d="M182.28,81.94a1,1,0,0,0,.21-.47c-.41,1.22-2.39.91-2-.36l.23-.5a1,1,0,0,1,1.78.86l0,0c.82-2.77-3-4.58-4.38-1.88S180.49,84.14,182.28,81.94Z" transform="translate(-7.48 -7.07)"/><path class="cls-3" d="M180.71,80.61l-.23.5c-.38,1.27,1.61,1.58,2,.36A1,1,0,0,0,180.71,80.61Z" transform="translate(-7.48 -7.07)"/><path class="cls-3" d="M189.36,172.22c-1.37,2.75,2.36,4.58,4.15,2.38a1,1,0,0,0,.21-.47c-.41,1.22-2.39.91-2-.36l.23-.5a1,1,0,0,1,1.78.86l0,0C194.56,171.33,190.7,169.52,189.36,172.22Z" transform="translate(-7.48 -7.07)"/><path class="cls-3" d="M191.94,173.27l-.23.5c-.38,1.27,1.61,1.58,2,.36A1,1,0,0,0,191.94,173.27Z" transform="translate(-7.48 -7.07)"/><path class="cls-3" d="M183.21,165.28l-.23.5c-.38,1.27,1.61,1.58,2,.36A1,1,0,0,0,183.21,165.28Z" transform="translate(-7.48 -7.07)"/><path class="cls-3" d="M180.63,164.22c-1.37,2.75,2.36,4.59,4.15,2.38a1,1,0,0,0,.21-.47c-.41,1.22-2.39.91-2-.36l.23-.5a1,1,0,0,1,1.78.86l0,0C185.83,163.33,182,161.53,180.63,164.22Z" transform="translate(-7.48 -7.07)"/><path class="cls-3" d="M69.18,166.44c1,.84-.07,2.57-1.1,1.74l-.38-.41c-.54-1,.7-1.82,1.47-1.33h0c-2.24-1.83-5.39,1-3.42,3.32s5.14-.41,3.79-2.92A1,1,0,0,0,69.18,166.44Z" transform="translate(-7.48 -7.07)"/><path class="cls-3" d="M67.71,167.78l.38.41c1,.84,2.1-.9,1.1-1.74C68.4,166,67.17,166.77,67.71,167.78Z" transform="translate(-7.48 -7.07)"/><path d="M29.59,99.38c.05.94,1.52.95,1.47,0S29.64,98.44,29.59,99.38Z" transform="translate(-7.48 -7.07)"/><path d="M29.59,99.38c.05-.94,1.52-.94,1.47,0-.45-8.43-6.72-15.53-15.52-15.53a15,15,0,0,0-4.06.57c-.19.65-.36,1.31-.53,2C18.88,84.14,29,88.5,29.59,99.38Z" transform="translate(-7.48 -7.07)"/><path d="M31.05,99.38c.05.94-1.42.94-1.47,0-.68,12.52-14,16.4-22.07,11.49,0,.57,0,1.15,0,1.72a15.24,15.24,0,0,0,7.23,2.27C23.83,115.32,30.58,108.13,31.05,99.38Z" transform="translate(-7.48 -7.07)"/><path d="M13.93,96.21c.73.58,1.78-.45,1-1L9.82,91.11q-.17.8-.33,1.6Z" transform="translate(-7.48 -7.07)"/><path d="M19.83,99.3c-.73-.58-1.78.45-1,1l5.5,4.35c.73.58,1.78-.45,1-1Z" transform="translate(-7.48 -7.07)"/><path d="M13.36,99.61,9,105.11c-.58.73.45,1.78,1,1l4.35-5.5C15,99.92,13.94,98.87,13.36,99.61Z" transform="translate(-7.48 -7.07)"/><path d="M19.67,95.86,24,90.36c.58-.73-.45-1.78-1-1l-4.35,5.5C18.05,95.56,19.08,96.6,19.67,95.86Z" transform="translate(-7.48 -7.07)"/><path d="M15.09,99a.7.7,0,0,0,.26.26.81.81,0,0,1,.13-1.34,1,1,0,1,1,.88,1,.76.76,0,0,1-1,.31h0c1.64,1.24,3.81-.9,2.36-2.45S14.09,97.23,15.09,99Z" transform="translate(-7.48 -7.07)"/><path d="M16.35,98.91a1,1,0,0,1-.88-1,.81.81,0,0,0-.13,1.34A.76.76,0,0,0,16.35,98.91Z" transform="translate(-7.48 -7.07)"/><path d="M16.09,98l.26.26a.66.66,0,0,1,0,.69,1,1,0,0,0,.75-.23,1,1,0,1,0-1.63-.8A.57.57,0,0,1,16.09,98Z" transform="translate(-7.48 -7.07)"/><path d="M15.72,98.59a1,1,0,0,0,.63.32.66.66,0,0,0,0-.69L16.09,98a.57.57,0,0,0-.61-.08A1,1,0,0,0,15.72,98.59Z" transform="translate(-7.48 -7.07)"/><path d="M39.7,40.22a1.1,1.1,0,0,0,.48.15,1.11,1.11,0,0,1-.57-1.78,1,1,0,0,1,0-.44,1,1,0,1,1,2,.54,1,1,0,0,1-.2.37,1.13,1.13,0,0,1-1.2,1.31,1.06,1.06,0,0,0,.28.06c2.31,0,3.09-3.33.68-4a2.22,2.22,0,0,0-.63-.08q-.93.89-1.84,1.79A2.09,2.09,0,0,0,39.7,40.22Z" transform="translate(-7.48 -7.07)"/><path d="M41.38,39.06a1,1,0,0,1-1.77-.47,1.11,1.11,0,0,0,.57,1.78A1.13,1.13,0,0,0,41.38,39.06Z" transform="translate(-7.48 -7.07)"/><path d="M40.33,39.4a1,1,0,0,0,1-.34.88.88,0,0,0-.42-.49l-.76-.21a.84.84,0,0,0-.6.23A1,1,0,0,0,40.33,39.4Z" transform="translate(-7.48 -7.07)"/><path d="M41,38.57a.88.88,0,0,1,.42.49,1,1,0,0,0,.2-.37,1,1,0,1,0-2-.54,1,1,0,0,0,0,.44.84.84,0,0,1,.6-.23Z" transform="translate(-7.48 -7.07)"/><polygon points="28.77 33.59 28.77 33.59 28.76 33.59 28.77 33.59"/><path d="M35.56,41.41a1,1,0,0,1,.12.59,1.14,1.14,0,0,0,.57-1.33h0Z" transform="translate(-7.48 -7.07)"/><path d="M36.25,40.67A1.14,1.14,0,0,1,35.67,42a1,1,0,0,1-.16.49,1,1,0,0,1-1.22.33l-.72.81C35.52,44.91,37.41,42.45,36.25,40.67Z" transform="translate(-7.48 -7.07)"/><path d="M35.56,41.41,35,42a1,1,0,0,0,.71-.05A1,1,0,0,0,35.56,41.41Z" transform="translate(-7.48 -7.07)"/><path d="M35,42l-.68.77a1,1,0,0,0,1.22-.33,1,1,0,0,0,.16-.49A1,1,0,0,1,35,42Z" transform="translate(-7.48 -7.07)"/><path d="M35.28,47.77a1,1,0,0,0-.8,1.92C40.32,52,45.54,48,48,42.92c.58-1.21-1.34-2-1.92-.8C44.12,46.19,40,49.62,35.28,47.77Z" transform="translate(-7.48 -7.07)"/><path d="M54.17,47.86l7.18,1a1,1,0,0,0,.29-2.06l-7.19-1A1,1,0,0,0,54.17,47.86Z" transform="translate(-7.48 -7.07)"/><path d="M34.74,56.69l-1,7.19a1,1,0,0,0,2.06.28l1-7.19A1,1,0,0,0,34.74,56.69Z" transform="translate(-7.48 -7.07)"/><path d="M36.77,73.49a2.22,2.22,0,0,1-.75.15A1.25,1.25,0,0,0,36.77,73.49Z" transform="translate(-7.48 -7.07)"/><path d="M37.15,75.37q7.44-4.43,14.78-9c4.49-2.82,13.88-6.7,16.66-11.43C72.35,48.51,59.6,35,56.1,30c-.83-1.2-1.67-2.66-2.54-4.2q-1,.68-2,1.39c2.19,3.11,4.36,6.23,6.48,9.39,2.47,3.68,5,7.37,7.15,11.23,2.33,4.14,2.84,4.4-.48,7.57-6.16,5.85-15,10-22.25,14.38-1.09.67-3.92,3.13-5.72,3.75a1.25,1.25,0,0,1-.75.15,2.22,2.22,0,0,0,.75-.15c.72-.51-1.4-2.31-2.28-3.53l-10.16-14q-.61.94-1.19,1.9L35.69,75.17A1.07,1.07,0,0,0,37.15,75.37Z" transform="translate(-7.48 -7.07)"/><path d="M165.49,22.42c0,1.8,1.35,11.06-2.25,10.69l.17.1c.7.41.18,1.37-.49,1.31l0,0c5,.93,4.7-7.48,4.27-13.06l-1.73-1Q165.5,21.46,165.49,22.42Z" transform="translate(-7.48 -7.07)"/><path d="M138.71,20.17c7.49,5.31,16,9.54,23.9,14.24a.74.74,0,0,0,.31.1c-.86-.2-.76-1.59.14-1.43l.18,0-20.6-12.28c-2.57-1.53-6.15-2.78-3.17-5.64a22.42,22.42,0,0,1,5.42-3.48l-1.43-.43-.1.06C139.63,13.45,133,16.1,138.71,20.17Z" transform="translate(-7.48 -7.07)"/><path d="M163.41,33.21l-.17-.1-.18,0c-.9-.17-1,1.22-.14,1.43C163.59,34.58,164.11,33.62,163.41,33.21Z" transform="translate(-7.48 -7.07)"/><path d="M163.71,29.78,142,15.6a.72.72,0,0,0-.8,1.2L162.91,31A.72.72,0,0,0,163.71,29.78Z" transform="translate(-7.48 -7.07)"/><path d="M77.24,204c2.13-2.13,13.5-10.22,10.5-14.14C86.33,188,82,187.75,80,187.22l-15.26-4.14c-4.14-1.12-10.74-3.92-9.51,3a188.67,188.67,0,0,0,4.8,19l1.92,1.1-4.38-16.86c-.75-2.89-2.42-6.3,1.71-6.24,3.94.06,8.84,2.4,12.64,3.43s8.82,1.54,12.36,3.35c4,2,1.11,3.92-1.25,6.29L72.71,206.51c-.52.52-1.74,2.07-3.16,3.54l1.67.74C73.8,208.22,76.14,205.12,77.24,204Z" transform="translate(-7.48 -7.07)"/><path d="M82.29,192.75a.6.6,0,0,0-.08-.48h0a.69.69,0,0,1,.07.18A1.92,1.92,0,0,1,82.29,192.75Z" transform="translate(-7.48 -7.07)"/><path d="M80.85,192.74l.06.18a.77.77,0,0,0,1.38-.17,1.92,1.92,0,0,0,0-.3.69.69,0,0,0-.07-.18A1.9,1.9,0,0,0,82,192,.75.75,0,0,0,80.85,192.74Z" transform="translate(-7.48 -7.07)"/><path d="M82.29,192.75a.77.77,0,0,1-1.38.17l-.06-.18A.75.75,0,0,1,82,192c-1.16-1.37-3.67-.51-3,1.47S82.29,194.56,82.29,192.75Z" transform="translate(-7.48 -7.07)"/><path d="M82,192a1.9,1.9,0,0,1,.17.23A.59.59,0,0,0,82,192Z" transform="translate(-7.48 -7.07)"/><path d="M76.58,189.49a2.13,2.13,0,0,1,.16.22A.61.61,0,0,0,76.58,189.49Z" transform="translate(-7.48 -7.07)"/><path d="M75.4,190.19l.06.17a.77.77,0,0,0,1.38-.16,2,2,0,0,0,0-.31.68.68,0,0,0-.07-.19,2.13,2.13,0,0,0-.16-.22A.75.75,0,0,0,75.4,190.19Z" transform="translate(-7.48 -7.07)"/><path d="M76.83,190.21a.77.77,0,0,1-1.37.16l-.06-.17a.75.75,0,0,1,1.18-.7c-1.16-1.38-3.68-.53-3,1.46S76.84,192,76.83,190.21Z" transform="translate(-7.48 -7.07)"/><path d="M76.83,190.21a.6.6,0,0,0-.08-.48h0a.68.68,0,0,1,.07.19A2,2,0,0,1,76.83,190.21Z" transform="translate(-7.48 -7.07)"/><path d="M59.4,185.47l4.73,21.9,1.67.87-5-23.06A.72.72,0,0,0,59.4,185.47Z" transform="translate(-7.48 -7.07)"/><path d="M79,198.91c.93-.08.62-1.49-.29-1.42-4,.33-6.93-3.43-7.56-7.49-.14-.92-1.56-.62-1.42.3C70.46,195,73.78,199.35,79,198.91Z" transform="translate(-7.48 -7.07)"/><path d="M158.68,110.4l0,0c-.8,1.05.67,2.52,1.49,1.46l.44-.55c-.06-.15-.12-.3-.18-.45A1.12,1.12,0,0,0,158.68,110.4Z" transform="translate(-7.48 -7.07)"/><path d="M193.82,103.58c2.82,3.58,5.5,3.33,0,0Z" transform="translate(-7.48 -7.07)"/><path d="M191.23,127.46a12,12,0,0,0-2,1.32,18.12,18.12,0,0,0,4.72-1.06C196.34,126.72,193.32,126.4,191.23,127.46Z" transform="translate(-7.48 -7.07)"/><path d="M195.53,152.8c-4.51.8-6.88,1.44-10.41-1.72-4.8-4.3-2.25-7.76.63-13.29,2.45-4.7,5-8.14,9.79-10.56,1.05-.53.31-2.24-.8-1.9-14.42,4.31-28.43.83-34.14-14l-.44.55c-.81,1.07-2.29-.41-1.49-1.46l0,0a.85.85,0,0,0-.29,1c4.67,12.68,14.26,18.93,27.95,17.62.91-.09,1.88-.17,2.86-.28a12,12,0,0,1,2-1.32c2.09-1.06,5.11-.73,2.69.26a18.12,18.12,0,0,1-4.72,1.06c-4.77,3.77-8.19,11.46-8.87,16.84-1.51,12.05,10.38,11.27,19.63,8.66,6-1.69,11.25-5.81,15.71-10.54q.62-2.09,1.16-4.22C211,146.19,203.53,151.39,195.53,152.8Z" transform="translate(-7.48 -7.07)"/><path d="M190.18,81.09c-2.73,5.61-.58,14.7,2,19.87a15,15,0,0,0,1.65,2.62c5.5,3.33,2.82,3.58,0,0l-.48-.29c-12.72-7.48-26.07-4.16-34.67,7.1a1.12,1.12,0,0,1,1.72.49c.06.15.12.3.18.45,9.68-12.14,24.21-11.7,36.79-3.33,1,.66,2.08-.83,1.25-1.65C194.4,102.27,190,94,191.35,88c3.44-14.89,16.93-6.88,22.87-.63a36.61,36.61,0,0,1,3.72,4.69q-.49-2.39-1.08-4.73l-.14-.17C211.42,81,195.35,70.47,190.18,81.09Z" transform="translate(-7.48 -7.07)"/><path d="M188.46,114.61c-1.31-.2-1.86,1.81-.54,2l31.86,4.78c.05-.69.09-1.38.13-2.07Z" transform="translate(-7.48 -7.07)"/><path d="M203.4,92.5c-.4-1.28-2.41-.74-2,.55,3,9.53,9.4,17.19,17,23.48.36.3.93.83,1.59,1.43q.06-1.33.08-2.66C212.58,109.28,206.22,101.62,203.4,92.5Z" transform="translate(-7.48 -7.07)"/><path d="M195.22,141c-.6,1.19,1.2,2.23,1.81,1,4-8,13.5-13.2,22.39-16.84q.13-1.16.23-2.34C210.06,126.67,199.65,132.21,195.22,141Z" transform="translate(-7.48 -7.07)"/><path d="M53,174.36c.4-.26.09.15,0,.61a2.4,2.4,0,0,0,.28-1.1.75.75,0,0,0-1.2-.67,1.33,1.33,0,0,0-.43.83.64.64,0,0,0,.15-.34Z" transform="translate(-7.48 -7.07)"/><path d="M52.64,160.66l-.91,0a1.3,1.3,0,0,1,.4.55A1.93,1.93,0,0,1,52.64,160.66Z" transform="translate(-7.48 -7.07)"/><path d="M50.94,177A6,6,0,0,0,53,175c.1-.46.41-.87,0-.61l-1.21-.67a.64.64,0,0,1-.15.34c-.07.3-.11.62-.16.82C51.29,175.58,51.11,176.31,50.94,177Z" transform="translate(-7.48 -7.07)"/><path d="M50.64,161.13a9.39,9.39,0,0,1-1,1.44,18.23,18.23,0,0,0,1.73-2.12,6,6,0,0,0,.36-.52c.13-.2.24-.39.35-.58a1,1,0,0,0-.39.14C51.09,159.9,51,160.5,50.64,161.13Z" transform="translate(-7.48 -7.07)"/><path d="M46.68,148.2c.27.56.33-.24,0,0Z" transform="translate(-7.48 -7.07)"/><path d="M45.89,189.06c-.64-.14-1.45.44-2.06.78.41,0,.81,0,1.21-.09a10.9,10.9,0,0,0,1.44-.24A.81.81,0,0,0,45.89,189.06Z" transform="translate(-7.48 -7.07)"/><path d="M45.7,190.54l-.64-.64a2.56,2.56,0,0,1-.55,1.21A3.32,3.32,0,0,1,45.7,190.54Z" transform="translate(-7.48 -7.07)"/><path d="M43.43,138.83a3.63,3.63,0,0,1-.08,1,2.66,2.66,0,0,1,.92-.35Z" transform="translate(-7.48 -7.07)"/><path d="M38.85,158.74c.08.29.16.58.25.87a13.87,13.87,0,0,1,.63-1.46C39.34,158.34,38.64,158.57,38.85,158.74Z" transform="translate(-7.48 -7.07)"/><path d="M34.85,172.41a2.92,2.92,0,0,1,.19-.3l-.38,0C34.49,172.13,34.92,172.29,34.85,172.41Z" transform="translate(-7.48 -7.07)"/><path d="M39.1,159.61l.13.44a6,6,0,0,0,.92-.4c2.71-1.41,5.12-4.22,7-6.57a14.76,14.76,0,0,1,1.42-2.17c-.07.11.38.58.61.91a13.57,13.57,0,0,1,1.78,3.31c1.24,3.44-2,6.25-4.41,8.32a28.33,28.33,0,0,1-4.74,3.41c-1.77,1-3.73,1.49-5.53,2.41-1.11.57-2.91,1.56-2.91,3,0,2.15,3.06,1.13,4.17.71a35.65,35.65,0,0,0,10.56-6.67,20.1,20.1,0,0,0,3-3.19c.32-.44.66-1.32,1-1.93a1.3,1.3,0,0,0-.4-.55l-.34-.23a18.23,18.23,0,0,1-1.73,2.12,9.39,9.39,0,0,0,1-1.44c.35-.63.45-1.23,1.07-1.64a1,1,0,0,1,.39-.14,5.37,5.37,0,0,0,.22-4.81c-.47-1.3-2.09-5.26-3.9-5.22a1,1,0,0,0-.88.48c-.18.24-.31.54-.49.81A24.8,24.8,0,0,1,44.37,154a24.29,24.29,0,0,1-4.5,4.1l-.13.07h0A13.87,13.87,0,0,0,39.1,159.61Zm9.35,4.34a35.75,35.75,0,0,1-9.66,6.86,10.35,10.35,0,0,1-3.75,1.3,2.92,2.92,0,0,0-.19.3c.07-.11-.36-.28-.19-.28l.38,0a4.53,4.53,0,0,1,1.82-1.47c3-1.54,5.94-2.43,8.67-4.46a31.32,31.32,0,0,0,4.1-3.57C49.26,163.08,48.86,163.52,48.45,163.95Z" transform="translate(-7.48 -7.07)"/><path d="M33,144.17a12.56,12.56,0,0,0,.88-2.11.76.76,0,0,0-.22-.62,3.59,3.59,0,0,0-.49,1.29A8.21,8.21,0,0,0,33,144.17Z" transform="translate(-7.48 -7.07)"/><path d="M32.38,141.88a5,5,0,0,1-.19.67,2.73,2.73,0,0,1,.65.11Z" transform="translate(-7.48 -7.07)"/><path d="M32.3,155.24c.47.09,0-.21-.06-.7,0-.12,0-.25,0-.37a12.13,12.13,0,0,1-.69,1.54Z" transform="translate(-7.48 -7.07)"/><path d="M36,182.36c3.13-.82,6.3-1.67,9.35-2.75A26.85,26.85,0,0,0,50.94,177c.17-.72.35-1.45.52-2.18,0-.2.09-.52.16-.82a10.06,10.06,0,0,1-2.13,2c-3.39,2.28-7.65,3.17-11.52,4.27-.76.22-4.12,1.58-5.64,1.38.37.44.74.89,1.12,1.33A23.94,23.94,0,0,0,36,182.36Z" transform="translate(-7.48 -7.07)"/><path d="M51.39,160.45l.34.23.91,0a1.93,1.93,0,0,0-.51.57,16.45,16.45,0,0,1,.87,4.61A8.66,8.66,0,0,1,53,169c-.4,1.48-1.75,2-3.11,2.9a50.88,50.88,0,0,1-15.9,6.83,9.32,9.32,0,0,0-3.09,1.1l1.06,1.31a29.65,29.65,0,0,1,4.65-1.53,50.87,50.87,0,0,0,9.12-3.58c2.51-1.27,6.25-2.92,8-5.15a5.47,5.47,0,0,0,.88-3.39c0-2.1-.26-6.7-2-8.06a.66.66,0,0,0-.52-.13c-.11.19-.22.38-.35.58A6,6,0,0,1,51.39,160.45Z" transform="translate(-7.48 -7.07)"/><path d="M33,144.17c-.06,1.22,0,2.47,0,3.15a17.66,17.66,0,0,1-.83,6.85c0,.12,0,.25,0,.37.05.49.53.79.06.7l-.79.47a12.13,12.13,0,0,0,.69-1.54,27.64,27.64,0,0,1-.19-3.66,21.87,21.87,0,0,1,.74-5.75,4.29,4.29,0,0,1,.23-.59,8.21,8.21,0,0,1,.17-1.44l-.31-.07a2.73,2.73,0,0,0-.65-.11,26.2,26.2,0,0,0-1.32,3.83,27.54,27.54,0,0,0-.28,7.14c.09,1,.25,3,1.52,3.21a.78.78,0,0,0,.79-.47,15,15,0,0,0,1.72-5.52c.13-1.62-.15-3.27-.11-4.9,0-.64.16-3.56.15-3.55a10.2,10.2,0,0,1,2.2.28,11.87,11.87,0,0,0,2.86,0c1.73-.31,2.35-1.93,3.63-2.7a3.63,3.63,0,0,0,.08-1l.84.64a2.66,2.66,0,0,0-.92.35c-.25,1.59-1.11,3-.25,4.56a9.13,9.13,0,0,0,1.62,2c.49.5,1.65,1.15,2,1.77h0c.33-.24.27.56,0,0a1.22,1.22,0,0,0-.29.36,10.8,10.8,0,0,1-1.71,1.92c-1.1,1.09-2.36,2-3.5,3a14.17,14.17,0,0,0-3.47,5.57.78.78,0,0,0,.25.88,1.35,1.35,0,0,0,1.27.11l-.13-.44c-.09-.29-.17-.58-.25-.87s.49-.4.88-.59h0a18,18,0,0,1,4.54-5.28,21.34,21.34,0,0,0,3.23-3.09,2.74,2.74,0,0,0,.69-1.84c-.14-1.19-2.3-2.36-3-3.18-1.1-1.31-.94-2-.55-3.58a8.81,8.81,0,0,0,.25-2.56.75.75,0,0,0-.84-.63c-2.33.44-3.11,2.94-5.25,3.13-1.24.11-3.66-.8-4.74-.11a1.62,1.62,0,0,0-.44.43.76.76,0,0,1,.22.62A12.56,12.56,0,0,1,33,144.17Z" transform="translate(-7.48 -7.07)"/><path d="M43.62,189.94c-.81.37-1.64.72-2.48,1l1.21,1.13q.82-.32,1.62-.68c.11,0,.31-.17.54-.31a2.56,2.56,0,0,0,.55-1.21l0-.15c-.4,0-.8.07-1.21.09Z" transform="translate(-7.48 -7.07)"/><path d="M50.94,177l-.51,2c-.46,1.79-.93,3.58-1.5,5.34-.29.9-.62,2.62-1.45,3.18s-2.68.46-3.65.52c-1.76.12-3.52.15-5.28.16h-.19c.51.51,1,1,1.54,1.52,1.24,0,2.6.09,3.92,0,.61-.34,1.42-.92,2.06-.78a.81.81,0,0,1,.59.45A7,7,0,0,0,48,189c2.06-1,2.56-4.67,3.1-6.61.48-1.72.92-3.45,1.34-5.19.18-.72.38-1.44.53-2.17a.19.19,0,0,1,0-.07A6,6,0,0,1,50.94,177Z" transform="translate(-7.48 -7.07)"/><path d="M25.29,167.35a3.53,3.53,0,0,1-.27-.4,4,4,0,0,1-.07.46C25,167.31,25.4,167.5,25.29,167.35Z" transform="translate(-7.48 -7.07)"/><path d="M46.53,189.7a1,1,0,0,0,0-.19,10.9,10.9,0,0,1-1.44.24l0,.15.64.64a3.32,3.32,0,0,0-1.19.57c-.41.61-.95,1.27-1.32,1.73l1.17,1C45.47,192.57,46.67,190.89,46.53,189.7Z" transform="translate(-7.48 -7.07)"/><path d="M22.68,147a19.05,19.05,0,0,0-.38,2.64,11.55,11.55,0,0,1,.41-1.64,3.76,3.76,0,0,0,.46-1.92.59.59,0,0,0-.15-.33c-.1.29-.19.61-.27,1C22.73,146.79,22.7,146.9,22.68,147Z" transform="translate(-7.48 -7.07)"/><path d="M22.71,148a11.55,11.55,0,0,0-.41,1.64,19.05,19.05,0,0,1,.38-2.64l-.34-.08a1.81,1.81,0,0,0-.75.06c-.16.53-.47,1.13-.57,1.53a19.07,19.07,0,0,0-.48,4.13A40.31,40.31,0,0,0,22,163.72c.31,1.14,1.32,5.49,3.35,5.1.92-.17,1.23-1.36,1.28-2.13.21-3-1.83-5.9-2.4-8.75a26.92,26.92,0,0,1-.16-10.54,4.14,4.14,0,0,1,2.76-3.58,13.11,13.11,0,0,1,5.31-1.27,5,5,0,0,0,.19-.67l.46.78.31.07a3.59,3.59,0,0,1,.49-1.29.67.67,0,0,0-.25-.16c-2.25-.67-5.66.43-7.69,1.43a4.78,4.78,0,0,0-2.68,3,.59.59,0,0,1,.15.33A3.76,3.76,0,0,1,22.71,148ZM25,165.15a4.53,4.53,0,0,1,0,1.8,3.53,3.53,0,0,0,.27.4c.11.15-.32,0-.34.06a4,4,0,0,0,.07-.46,13.41,13.41,0,0,1-1.73-4.36,36.15,36.15,0,0,1-1.2-11.28c.05-.55.11-1.1.21-1.64a31.11,31.11,0,0,0,.09,5.63,26.66,26.66,0,0,0,.9,4.86C23.79,161.85,24.66,163.42,25,165.15Z" transform="translate(-7.48 -7.07)"/><path d="M22.34,146.92l-.65-.64a1.54,1.54,0,0,1-.1.7A1.81,1.81,0,0,1,22.34,146.92Z" transform="translate(-7.48 -7.07)"/><path d="M15.06,152a6.26,6.26,0,0,1,1.8-2c.93-.76,3.19-2.63,4.73-3a1.54,1.54,0,0,0,.1-.7l.65.64.34.08c0-.1,0-.2.07-.3.08-.34.17-.66.27-1a.73.73,0,0,0-.5-.31c-2.12-.36-5.9,2.65-7.41,4.12a9,9,0,0,0-.92,1c.24.64.48,1.27.73,1.9A2.77,2.77,0,0,1,15.06,152Z" transform="translate(-7.48 -7.07)"/><path class="cls-4" d="M38.55,188.28c1.76,0,3.52,0,5.28-.16,1-.06,2.81.06,3.65-.52s1.16-2.28,1.45-3.18c.57-1.76,1-3.55,1.5-5.34l.51-2a26.85,26.85,0,0,1-5.55,2.58c-3.05,1.08-6.22,1.93-9.35,2.75a23.94,23.94,0,0,1-2.58.64q2.36,2.72,4.91,5.28Z" transform="translate(-7.48 -7.07)"/><path class="cls-4" d="M42.35,192.09l.84.75c.37-.46.91-1.12,1.32-1.73-.23.14-.43.26-.54.31Q43.17,191.77,42.35,192.09Z" transform="translate(-7.48 -7.07)"/><path class="cls-4" d="M33.95,178.78a50.88,50.88,0,0,0,15.9-6.83c1.36-.91,2.71-1.42,3.11-2.9a8.66,8.66,0,0,0,0-3.21,16.45,16.45,0,0,0-.87-4.61c-.39.61-.73,1.49-1,1.93a20.1,20.1,0,0,1-3,3.19A35.65,35.65,0,0,1,37.53,173c-1.11.42-4.16,1.44-4.17-.71,0-1.48,1.8-2.47,2.91-3,1.8-.92,3.76-1.41,5.53-2.41a28.33,28.33,0,0,0,4.74-3.41c2.38-2.07,5.65-4.88,4.41-8.32a13.57,13.57,0,0,0-1.78-3.31c-.23-.33-.68-.8-.61-.91a14.76,14.76,0,0,0-1.42,2.17c-1.87,2.35-4.28,5.16-7,6.57a6,6,0,0,1-.92.4,1.35,1.35,0,0,1-1.27-.11.78.78,0,0,1-.25-.88,14.17,14.17,0,0,1,3.47-5.57c1.14-1,2.4-1.92,3.5-3a10.8,10.8,0,0,0,1.71-1.92,1.22,1.22,0,0,1,.29-.36h0c-.3-.62-1.46-1.27-2-1.77a9.13,9.13,0,0,1-1.62-2c-.86-1.6,0-3,.25-4.56-1.28.77-1.9,2.39-3.63,2.7a11.87,11.87,0,0,1-2.86,0,10.2,10.2,0,0,0-2.2-.28s-.13,2.91-.15,3.55c0,1.63.24,3.28.11,4.9a15,15,0,0,1-1.72,5.52.78.78,0,0,1-.79.47c-1.27-.24-1.43-2.25-1.52-3.21a27.54,27.54,0,0,1,.28-7.14,26.2,26.2,0,0,1,1.32-3.83,13.11,13.11,0,0,0-5.31,1.27,4.14,4.14,0,0,0-2.76,3.58,26.92,26.92,0,0,0,.16,10.54c.57,2.85,2.61,5.76,2.4,8.75-.05.77-.36,2-1.28,2.13-2,.39-3-4-3.35-5.1a40.31,40.31,0,0,1-1.51-11.08,19.07,19.07,0,0,1,.48-4.13c.1-.4.41-1,.57-1.53-1.54.4-3.8,2.27-4.73,3a6.26,6.26,0,0,0-1.8,2,2.77,2.77,0,0,0-.15.51,106.19,106.19,0,0,0,15.95,27.39A9.32,9.32,0,0,1,33.95,178.78Z" transform="translate(-7.48 -7.07)"/><path class="cls-3" d="M79.21,154.28h0c.88-1,2.52.28,1.63,1.29A3.25,3.25,0,0,1,86,159.5c-.75,1.11.88,2.4,1.63,1.29C91.48,155.09,83.73,149.09,79.21,154.28Z" transform="translate(-7.48 -7.07)"/><path class="cls-3" d="M79.2,154.28A3.25,3.25,0,0,1,74,150.34h0c-.75,1.11-2.38-.18-1.63-1.29-3.83,5.7,3.92,11.7,8.44,6.51C80,156.57,78.33,155.29,79.2,154.28Z" transform="translate(-7.48 -7.07)"/><path class="cls-3" d="M79.21,154.28h0c-.88,1,.76,2.29,1.64,1.29S80.08,153.27,79.21,154.28Z" transform="translate(-7.48 -7.07)"/><path class="cls-3" d="M74,150.33c3.82-5.69-3.93-11.69-8.45-6.5.88-1,2.52.28,1.64,1.29a3.25,3.25,0,0,1,5.17,3.93C73.15,147.95,74.77,149.23,74,150.33Z" transform="translate(-7.48 -7.07)"/><path class="cls-3" d="M74,150.34h0c.73-1.11-.89-2.39-1.64-1.28S73.29,151.45,74,150.34Z" transform="translate(-7.48 -7.07)"/><path class="cls-3" d="M65.6,143.83a3.25,3.25,0,0,1-5.17-3.93c.75-1.11-.88-2.4-1.63-1.29-3.83,5.69,3.92,11.7,8.44,6.51C66.35,146.13,64.71,144.85,65.6,143.83Z" transform="translate(-7.48 -7.07)"/><path class="cls-3" d="M65.6,143.83c-.88,1,.76,2.3,1.64,1.29S66.47,142.82,65.6,143.83Z" transform="translate(-7.48 -7.07)"/><path class="cls-3" d="M166.21,157.28h0c-.64-1.17,1.13-2.27,1.77-1.09a3.25,3.25,0,0,1,5.48-3.5c.78,1.08,2.56,0,1.78-1.09C171.21,146,162.9,151.24,166.21,157.28Z" transform="translate(-7.48 -7.07)"/><path class="cls-3" d="M166.21,157.28a3.25,3.25,0,0,1-5.48,3.49h0c.78,1.09-1,2.17-1.77,1.09h0c4,5.56,12.33.36,9-5.67C168.62,157.36,166.86,158.45,166.21,157.28Z" transform="translate(-7.48 -7.07)"/><path class="cls-3" d="M166.21,157.28h0c.65,1.17,2.41.08,1.77-1.09S165.56,156.1,166.21,157.28Z" transform="translate(-7.48 -7.07)"/><path class="cls-3" d="M160.72,160.76c-4-5.55-12.32-.35-9,5.68-.64-1.17,1.13-2.27,1.77-1.09a3.25,3.25,0,0,1,5.47-3.5C158.18,160.77,159.94,159.7,160.72,160.76Z" transform="translate(-7.48 -7.07)"/><path class="cls-3" d="M160.73,160.77h0c-.79-1.06-2.54,0-1.77,1.1h0C159.74,162.94,161.51,161.86,160.73,160.77Z" transform="translate(-7.48 -7.07)"/><path class="cls-3" d="M151.7,166.44a3.25,3.25,0,0,1-5.48,3.49c-.78-1.08-2.56,0-1.77,1.09,4,5.57,12.33.36,9-5.67C154.12,166.52,152.35,167.62,151.7,166.44Z" transform="translate(-7.48 -7.07)"/><path class="cls-3" d="M151.7,166.44c.65,1.18,2.42.08,1.77-1.09S151.06,165.27,151.7,166.44Z" transform="translate(-7.48 -7.07)"/><path class="cls-3" d="M125.42,10.87h0c-.64-1.17,1.13-2.27,1.77-1.09a3.45,3.45,0,0,1-.45-1.91l-2.06-.24A5.63,5.63,0,0,0,125.42,10.87Z" transform="translate(-7.48 -7.07)"/><path class="cls-3" d="M125.43,10.87a3.25,3.25,0,0,1-5.48,3.49h0c.78,1.09-1,2.17-1.77,1.09h0c4,5.57,12.33.36,9-5.67C127.84,10.95,126.07,12,125.43,10.87Z" transform="translate(-7.48 -7.07)"/><path class="cls-3" d="M125.42,10.87h0c.65,1.17,2.41.08,1.77-1.09S124.78,9.69,125.42,10.87Z" transform="translate(-7.48 -7.07)"/><path class="cls-3" d="M119.94,14.35c-4-5.55-12.32-.35-9,5.68-.64-1.17,1.13-2.27,1.77-1.09a3.25,3.25,0,0,1,5.48-3.49C117.39,14.37,119.15,13.29,119.94,14.35Z" transform="translate(-7.48 -7.07)"/><path class="cls-3" d="M119.95,14.36h0c-.79-1.06-2.55,0-1.77,1.1h0C119,16.53,120.73,15.45,119.95,14.36Z" transform="translate(-7.48 -7.07)"/><path class="cls-3" d="M110.92,20a3.25,3.25,0,0,1-5.48,3.49c-.78-1.08-2.56,0-1.77,1.09,4,5.57,12.33.36,9-5.67C113.34,20.12,111.57,21.21,110.92,20Z" transform="translate(-7.48 -7.07)"/><path class="cls-3" d="M110.92,20c.65,1.18,2.42.08,1.77-1.09S110.28,18.86,110.92,20Z" transform="translate(-7.48 -7.07)"/><path class="cls-3" d="M139.42,196.72a3.25,3.25,0,0,1,1.9-6.21c1.3.32,1.95-1.66.65-2-6.67-1.62-9.62,7.73-3.19,10.17h0C137.53,198.23,138.17,196.25,139.42,196.72Z" transform="translate(-7.48 -7.07)"/><path class="cls-3" d="M136.24,206.89h0c6.67,1.63,9.62-7.73,3.19-10.17,1.25.47.61,2.45-.64,2a3.25,3.25,0,0,1-1.9,6.21h0C138.18,205.23,137.54,207.21,136.24,206.89Z" transform="translate(-7.48 -7.07)"/><path class="cls-3" d="M139.42,196.72c-1.26-.48-1.89,1.51-.64,2h0C140,199.17,140.67,197.2,139.42,196.72Z" transform="translate(-7.48 -7.07)"/><path class="cls-3" d="M134.34,213.11a3.25,3.25,0,0,1,1.9-6.21c-1.29-.32-.65-2.29.64-2-6.66-1.62-9.61,7.73-3.18,10.17C132.45,214.61,133.08,212.63,134.34,213.11Z" transform="translate(-7.48 -7.07)"/><path class="cls-3" d="M136.24,206.89h0c1.3.32,1.95-1.66.64-2h0C135.59,204.61,134.94,206.57,136.24,206.89Z" transform="translate(-7.48 -7.07)"/><path class="cls-3" d="M134.34,213.11c1.25.47.61,2.46-.64,2a3.22,3.22,0,0,1,2.11,2.29l2-.44A5.22,5.22,0,0,0,134.34,213.11Z" transform="translate(-7.48 -7.07)"/><path class="cls-3" d="M134.34,213.11c-1.26-.48-1.89,1.51-.64,2S135.59,213.58,134.34,213.11Z" transform="translate(-7.48 -7.07)"/><path class="cls-3" d="M157.92,77a3.25,3.25,0,0,1,3.71-5.34c1.14.7,2.36-1,1.22-1.69-5.86-3.58-11.52,4.42-6.14,8.71h0C155.66,77.89,156.88,76.2,157.92,77Z" transform="translate(-7.48 -7.07)"/><path class="cls-3" d="M151.79,85.75h0c5.86,3.58,11.52-4.42,6.14-8.71,1,.83-.16,2.52-1.21,1.69A3.25,3.25,0,0,1,153,84.06h0C154.14,84.76,152.92,86.45,151.79,85.75Z" transform="translate(-7.48 -7.07)"/><path class="cls-3" d="M157.92,77c-1-.84-2.26.86-1.22,1.69h0C157.76,79.56,159,77.87,157.92,77Z" transform="translate(-7.48 -7.07)"/><path class="cls-3" d="M148.08,91.09a3.25,3.25,0,0,1,3.71-5.34h0c-1.14-.7.08-2.38,1.21-1.69-5.85-3.58-11.51,4.42-6.14,8.72C145.82,91.94,147,90.25,148.08,91.09Z" transform="translate(-7.48 -7.07)"/><path class="cls-3" d="M151.79,85.75c1.14.7,2.36-1,1.22-1.69h0C151.86,83.37,150.64,85.05,151.79,85.75Z" transform="translate(-7.48 -7.07)"/><path class="cls-3" d="M148.08,91.09c1,.83-.17,2.53-1.22,1.69a3.25,3.25,0,0,1-3.7,5.34c-1.14-.7-2.36,1-1.22,1.69C147.79,103.38,153.46,95.38,148.08,91.09Z" transform="translate(-7.48 -7.07)"/><path class="cls-3" d="M148.08,91.09c-1.05-.84-2.26.86-1.22,1.69S149.12,91.92,148.08,91.09Z" transform="translate(-7.48 -7.07)"/><path d="M142.06,61.41l8.8-4.64c1.17-.62.45-2.57-.73-1.95l-8.8,4.64C140.15,60.08,140.87,62,142.06,61.41Z" transform="translate(-7.48 -7.07)"/><path d="M139,52l6.63-7.42c.89-1-.72-2.31-1.62-1.31l-6.63,7.42C136.5,51.73,138.12,53,139,52Z" transform="translate(-7.48 -7.07)"/><path d="M135.61,48l6-7.91c.81-1.06-.8-2.38-1.62-1.31l-6,7.91C133.18,47.74,134.79,49.05,135.61,48Z" transform="translate(-7.48 -7.07)"/><path d="M130.87,45l4.81-8.71c.65-1.17-1.26-2-1.91-.84L129,44.14C128.31,45.31,130.22,46.14,130.87,45Z" transform="translate(-7.48 -7.07)"/><path d="M140.75,56.39l7.93-6c1.07-.81-.14-2.5-1.21-1.69l-7.93,6C138.47,55.51,139.68,57.2,140.75,56.39Z" transform="translate(-7.48 -7.07)"/><path class="cls-4" d="M163.94,207.11q3.84-2.06,7.49-4.42c-4.46.52-9-.94-11.12-5.44-.49-1.05,1.06-2,1.55-.91,2.38,5.07,8.19,5.48,12.89,3.69a.75.75,0,0,1,.6,0,106.76,106.76,0,0,0,11.55-9.51c-.45-21.85-33.52-22.71-34.47.45C152.83,199.76,157.85,205.09,163.94,207.11Zm14.13-16.89c1.3,2.29-1.9,4.16-3.51,2.27a.33.33,0,0,1,0-.08.83.83,0,0,1-.18-.32C173.57,189.74,176.76,187.93,178.07,190.23ZM166,189a.92.92,0,0,1,.33.32v0c1.5,2-1.11,4.65-3,2.89S163.88,187.78,166,189Z" transform="translate(-7.48 -7.07)"/><path d="M175.83,191.22l.23.4a.78.78,0,0,1-.16.81,1.22,1.22,0,0,0,.93-.1,1.21,1.21,0,1,0-1.74-1.39A.76.76,0,0,1,175.83,191.22Z" transform="translate(-7.48 -7.07)"/><path d="M175.19,191.86a1.25,1.25,0,0,0,.71.57.78.78,0,0,0,.16-.81l-.23-.4a.76.76,0,0,0-.74-.28A1.19,1.19,0,0,0,175.19,191.86Z" transform="translate(-7.48 -7.07)"/><path d="M175.9,192.43a1.25,1.25,0,0,1-.71-.57,1.19,1.19,0,0,1-.1-.92.91.91,0,1,0,.81,1.49Z" transform="translate(-7.48 -7.07)"/><path d="M174.51,192.42a1,1,0,0,1,.58-1.48,1.2,1.2,0,1,1,1.74,1.39,1.22,1.22,0,0,1-.93.1,1,1,0,0,1-1.39,0,.33.33,0,0,0,0,.08c1.61,1.89,4.81,0,3.51-2.27s-4.5-.49-3.74,1.87A.83.83,0,0,0,174.51,192.42Z" transform="translate(-7.48 -7.07)"/><path d="M174.75,200c-4.7,1.79-10.51,1.38-12.89-3.69-.49-1.05-2-.14-1.55.91,2.1,4.5,6.66,6,11.12,5.44q2-1.28,3.91-2.65A.75.75,0,0,0,174.75,200Z" transform="translate(-7.48 -7.07)"/><path d="M164.65,189.48a.7.7,0,0,0,.12.74l.33.33a.79.79,0,0,0,.85,0,1.15,1.15,0,0,0-.4-.78A1.17,1.17,0,0,0,164.65,189.48Z" transform="translate(-7.48 -7.07)"/><path d="M164.65,189.48a1.17,1.17,0,0,1,.9.29,1.15,1.15,0,0,1,.4.78.94.94,0,0,0,.39-1.22v0A1,1,0,0,0,164.65,189.48Z" transform="translate(-7.48 -7.07)"/><path d="M165.1,190.54l-.33-.33a.7.7,0,0,1-.12-.74,1.14,1.14,0,0,0-.8.41,1.21,1.21,0,0,0,1.82,1.58,1.22,1.22,0,0,0,.28-.92A.79.79,0,0,1,165.1,190.54Z" transform="translate(-7.48 -7.07)"/><path d="M166.34,189.33a.94.94,0,0,1-.39,1.22,1.22,1.22,0,0,1-.28.92,1.21,1.21,0,0,1-1.82-1.58,1.14,1.14,0,0,1,.8-.41,1,1,0,0,1,1.68-.17A.92.92,0,0,0,166,189c-2.12-1.21-4.63,1.4-2.67,3.23S167.84,191.33,166.34,189.33Z" transform="translate(-7.48 -7.07)"/><path d="M152.43,191a.92.92,0,0,1-1.78.25,20,20,0,0,0,11.1,17q1.1-.56,2.19-1.14C157.85,205.09,152.83,199.76,152.43,191Z" transform="translate(-7.48 -7.07)"/><path d="M170.66,172c-11.08-.57-19.33,8.12-20,18.75a.92.92,0,0,1,1.78.25c1-23.16,34-22.29,34.47-.45q.85-.81,1.69-1.63A19.23,19.23,0,0,0,170.66,172Z" transform="translate(-7.48 -7.07)"/><path d="M152.43,191a.92.92,0,0,0-1.78-.25.57.57,0,0,0,0,.19V191a.59.59,0,0,0,0,.13.23.23,0,0,0,0,.12A.92.92,0,0,0,152.43,191Z" transform="translate(-7.48 -7.07)"/><path class="cls-3" d="M82.3,165c1,.84-.07,2.57-1.1,1.74l-.37-.41c-.54-1,.7-1.82,1.47-1.33h0c-2.24-1.83-5.39,1-3.42,3.32s5.14-.41,3.79-2.92A1,1,0,0,0,82.3,165Z" transform="translate(-7.48 -7.07)"/><path class="cls-3" d="M80.83,166.37l.38.41c1,.84,2.1-.89,1.1-1.74C81.53,164.55,80.29,165.37,80.83,166.37Z" transform="translate(-7.48 -7.07)"/><path class="cls-3" d="M91.33,181.87l.38.41c1,.84,2.09-.89,1.1-1.74C92,180,90.79,180.87,91.33,181.87Z" transform="translate(-7.48 -7.07)"/><path class="cls-3" d="M92.8,180.54c1,.84-.07,2.57-1.1,1.74l-.37-.41c-.54-1,.7-1.82,1.47-1.33l0,0c-2.24-1.83-5.39,1-3.42,3.32s5.14-.41,3.79-2.91A1,1,0,0,0,92.8,180.54Z" transform="translate(-7.48 -7.07)"/><path class="cls-4" d="M180.11,62.72c.07,4.32,12.23,3.92,12.35,3.92a19.14,19.14,0,0,0,13.46-6.31q-1.43-2.47-3-4.85L186.84,62l-.16,0c-.38.06-.68-.29-.77-.69a.86.86,0,0,1,.44-1L202,54q-2.09-3.1-4.39-6a23,23,0,0,0-8.9,4.6C185.7,55,180.06,60.21,180.11,62.72Z" transform="translate(-7.48 -7.07)"/><path d="M186.11,61.31c.06.34.33.62.67.47l16-6.53-.69-1-15.7,6.41A.57.57,0,0,0,186.11,61.31Z" transform="translate(-7.48 -7.07)"/><path d="M192.45,66.88c-.5,0-12.46.4-12.55-4.15-.05-3.29,8.32-10.11,8.67-10.4a23.43,23.43,0,0,1,8.83-4.6l-.77-1a16.34,16.34,0,0,0-2.46.73A30.25,30.25,0,0,0,183.29,56c-.2.25-.47.56-.76.88-1.42,1.61-3.59,4-3.82,5.79a3.06,3.06,0,0,0,.47,2.14c2.11,3.17,10.1,3.39,12.5,3.39a20.2,20.2,0,0,0,14.93-6.65l-.57-1A19.32,19.32,0,0,1,192.45,66.88Z" transform="translate(-7.48 -7.07)"/><path d="M183.16,55.84l-.76.88c-1.46,1.63-3.65,4.11-3.88,5.94A3.25,3.25,0,0,0,179,65c2.16,3.24,10.22,3.48,12.64,3.46a19,19,0,0,0,3-.2,20.66,20.66,0,0,0,12.08-6.49l-.11-.2a20.2,20.2,0,0,1-14.93,6.65c-2.4,0-10.39-.22-12.5-3.39a3.06,3.06,0,0,1-.47-2.14c.23-1.74,2.39-4.18,3.82-5.79.29-.32.55-.62.76-.88a30.25,30.25,0,0,1,10.88-8.51,16.34,16.34,0,0,1,2.46-.73l-.18-.22a15.17,15.17,0,0,0-2.35.71A30.47,30.47,0,0,0,183.16,55.84Z" transform="translate(-7.48 -7.07)"/><path d="M179.9,62.74c.09,4.55,12.05,4.18,12.55,4.15A19.32,19.32,0,0,0,206,60.53l-.12-.21a19.14,19.14,0,0,1-13.46,6.31c-.12,0-12.28.4-12.35-3.92,0-2.51,5.59-7.75,8.56-10.15a23,23,0,0,1,8.9-4.6l-.17-.22a23.43,23.43,0,0,0-8.83,4.6C188.21,52.63,179.85,59.44,179.9,62.74Z" transform="translate(-7.48 -7.07)"/><path d="M185.91,61.4c.09.4.38.75.77.69l.16,0,16.1-6.58-.14-.21-16,6.53c-.35.15-.61-.13-.67-.47a.57.57,0,0,1,.3-.69l15.7-6.41L202,54l-15.61,6.38A.86.86,0,0,0,185.91,61.4Z" transform="translate(-7.48 -7.07)"/><path d="M77.85,45,89,11.95a.72.72,0,0,0-.41-.86c-.38-.22-.87-.2-1,.25L76.7,43.58c.18.37.33.74.51,1.11A1.76,1.76,0,0,0,77.85,45Z" transform="translate(-7.48 -7.07)"/><path class="cls-4" d="M76.53,43.15l10.8-32a1.53,1.53,0,0,1,.1-.18.94.94,0,0,1,1.29-.17,1.1,1.1,0,0,1,.61,1.27l-11.16,33,.39,0c4,0,11.22-8.51,12.55-10.59a.53.53,0,0,0,.1-.16,28.51,28.51,0,0,0,3.68-13.63,61.74,61.74,0,0,0-.71-11.9,105.47,105.47,0,0,0-16.3,4.41C71.89,21.17,71.44,31.45,76.53,43.15Z" transform="translate(-7.48 -7.07)"/><path d="M77.26,45.91a.82.82,0,0,1-.33.24.56.56,0,0,0,.68-.36l.16-.48a2.26,2.26,0,0,1-.39-.17A1,1,0,0,1,77.26,45.91Z" transform="translate(-7.48 -7.07)"/><path d="M76.59,44l-.11.3a1,1,0,0,1,.28.08A2.65,2.65,0,0,1,76.59,44Z" transform="translate(-7.48 -7.07)"/><path d="M76.45,45.94A.62.62,0,0,0,77,45.7a.73.73,0,0,0,0-.78s0,0,0-.08l-.06-.05a1.19,1.19,0,0,0-.53-.28l-.24.67A.65.65,0,0,0,76.45,45.94Z" transform="translate(-7.48 -7.07)"/><path d="M75.87,45.54a1,1,0,0,1,0-.51l.17-.46a.58.58,0,0,0-.37.46s0,.06,0,.1a2.33,2.33,0,0,1,.16.36S75.85,45.53,75.87,45.54Z" transform="translate(-7.48 -7.07)"/><path d="M75.46,44.67a.81.81,0,0,1,.58-.43s.08,0,.11,0l.24-.7c-5.18-11.75-4.86-22.08,1-30q-1.32.48-2.63,1C69.89,22.68,70.11,33,75.46,44.67Z" transform="translate(-7.48 -7.07)"/><path d="M95.19,20.88a29,29,0,0,1-3.71,13.74c-1,1.78-8.6,10.85-12.85,10.84a3,3,0,0,1-.55-.06l-.2.55a.76.76,0,0,1-.78.53,4.6,4.6,0,0,0,2.74.57C84.16,46.66,89,41,92.09,36.14a30.12,30.12,0,0,0,3.07-5.9A38.13,38.13,0,0,0,96,12.78c-.07-.41-.14-.91-.21-1.45-.11-.8-.23-1.72-.39-2.67l-1,.18A66.49,66.49,0,0,1,95.19,20.88Z" transform="translate(-7.48 -7.07)"/><path d="M75.4,45.16a1.72,1.72,0,0,0,.23.37,2,2,0,0,0,.54.64,4.89,4.89,0,0,0,3.75,1.18c6.59-.63,14.3-13.12,15.53-17a38.51,38.51,0,0,0,.87-17.58l-.21-1.45c-.1-.82-.23-1.77-.39-2.74l-.28,0c.16.95.28,1.87.39,2.67.07.54.14,1,.21,1.45a38.13,38.13,0,0,1-.88,17.46,30.12,30.12,0,0,1-3.07,5.9C89,41,84.16,46.66,79.84,47a4.6,4.6,0,0,1-2.74-.57.76.76,0,0,0,.78-.53l.2-.55a3,3,0,0,0,.55.06c4.25,0,11.81-9.06,12.85-10.84a29,29,0,0,0,3.71-13.74,66.49,66.49,0,0,0-.73-12l-.28.05a61.74,61.74,0,0,1,.71,11.9,28.51,28.51,0,0,1-3.68,13.63.53.53,0,0,1-.1.16c-1.33,2.08-8.5,10.6-12.55,10.59l-.39,0,11.16-33a1.1,1.1,0,0,0-.61-1.27.94.94,0,0,0-1.29.17,1.53,1.53,0,0,0-.1.18l-10.8,32c-5.08-11.7-4.64-22,1.35-29.85l-.52.19c-5.82,8-6.15,18.29-1,30l-.24.7s-.07,0-.11,0a.81.81,0,0,0-.58.43c-5.34-11.68-5.56-22-.73-30.18l-.49.2C69.54,23,69.92,33.39,75.4,45.16Zm2.21.63a.56.56,0,0,1-.68.36.82.82,0,0,0,.33-.24,1,1,0,0,0,.12-.77,2.26,2.26,0,0,0,.39.17Zm10-34.45c.14-.45.63-.47,1-.25a.72.72,0,0,1,.41.86L77.85,45a1.76,1.76,0,0,1-.64-.36c-.18-.37-.33-.74-.51-1.11ZM76.59,44a2.65,2.65,0,0,0,.17.38,1,1,0,0,0-.28-.08Zm-.43,1.22.24-.67a1.19,1.19,0,0,1,.53.28l.06.05s0,.07,0,.08a.73.73,0,0,1,0,.78.62.62,0,0,1-.55.24A.65.65,0,0,1,76.16,45.18ZM75.68,45a.58.58,0,0,1,.37-.46l-.17.46a1,1,0,0,0,0,.51s0,0,0,0a2.33,2.33,0,0,0-.16-.36S75.67,45.07,75.68,45Z" transform="translate(-7.48 -7.07)"/><path d="M28.74,124.79c-.47-1.26-2.38-.43-1.91.82l3.48,9.32c.47,1.26,2.38.43,1.91-.82Z" transform="translate(-7.48 -7.07)"/><path d="M22.86,126.22c-.56-1.21-2.48-.4-1.91.82l4.2,9c.56,1.21,2.48.4,1.91-.82Z" transform="translate(-7.48 -7.07)"/><path d="M16.71,129.73c-.74-1.12-2.36.19-1.63,1.3l5.48,8.31c.74,1.12,2.36-.19,1.63-1.3Z" transform="translate(-7.48 -7.07)"/><path d="M33.19,125.07l1.63,9.81c.22,1.32,2.28,1,2.06-.28l-1.63-9.81C35,123.46,33,123.74,33.19,125.07Z" transform="translate(-7.48 -7.07)"/></g><g id="delfino"><path class="cls-5" d="M115.64,91.19c13.41-4,18-8.28,19.7-10.56s7.08-5,7.71-5.71a3.65,3.65,0,0,0,1.07-3.23,3.08,3.08,0,0,0-2.78-2.76c-1.43,0-2.57-.29-8.56-10s-24.84-6-24.84-6c-14.84,3.71-23.69,17.7-23.69,17.7S64.83,70.92,64,75.2s14.84,8.56,14.84,8.56-6,26.26,2.28,49.67,26.83,27.69,34,29.69,12.85,20.55,18.84,18.55-1.43-17.41-1.43-20.84S143.9,150,141,143.71c-1.64-3.62-5.42-1.43-8.28.29s-11.13,13.13-21.7,7.14-6.28-32.26-6.28-32.26,0-.4.12-1.08c3.6,1.17,8.35,2.24,9.39.15,1.33-2.66-4.34-9.4-7-12.39C108.93,99.42,111.58,93.09,115.64,91.19Z" transform="translate(-7.48 -7.07)"/><path class="cls-6" d="M118.78,68a6.61,6.61,0,0,0,8.45-1.36" transform="translate(-7.48 -7.07)"/><path class="cls-5" d="M84.24,70.64s-4.7,9.48-5.42,13.13" transform="translate(-7.48 -7.07)"/><path class="cls-5" d="M107.26,105.55s-2.07,8.23-2.35,12.24" transform="translate(-7.48 -7.07)"/></g></svg>