<svg xmlns="http://www.w3.org/2000/svg" viewBox="0 0 212.6 212.6"><defs><style>.cls-1{fill:#60c0af;}.cls-2{fill:#e61474;}.cls-3{fill:#231f20;}.cls-4,.cls-5{fill:none;}.cls-4{stroke:#010101;stroke-linecap:round;stroke-linejoin:round;stroke-width:1.43px;}.cls-6{fill:#ede70c;}.cls-7{fill:#010101;}.cls-8{fill:#fff;}.cls-9{fill:#ddab26;}</style></defs><title>lupò</title><g id="sfondo"><circle class="cls-1" cx="106.3" cy="106.3" r="106.3"/></g><g id="lupo"><path class="cls-2" d="M140,146s28.82,1.27,18.37,15.84S143.5,171.06,146.68,179c0,0-7.29-2.22-6.34-9.82s11.09-12.67,7.29-14.25-5.7-8.55-7.92-6Z" transform="translate(-5.89 -7.88)"/><path class="cls-2" d="M96.23,112.45l25.42,12.83s-17.34.48-13.54,19.72c0,0-8.81.66-10.71,8.5C96.38,157.67,96.23,112.45,96.23,112.45Z" transform="translate(-5.89 -7.88)"/><path class="cls-2" d="M103.52,70.53c14.82-1.21,1.42,5,1.42,5Z" transform="translate(-5.89 -7.88)"/><path class="cls-2" d="M100,64.25c14-7.56,3.21,4.3,3.21,4.3Z" transform="translate(-5.89 -7.88)"/><path class="cls-2" d="M135,153c-7.2,2.28-40,.8-46.32.46a1.11,1.11,0,0,1-1-.87c-1.18-6.48,4.12-12.81,1.35-28,0,0-2.32-13.51-2.68-13.44-1.19.23-4.39-.61-3.19-2S88,98.44,87.21,98.72c-.38.14-5,3.27-4.29,2.32s3.59-11.87,2.64-10S81.12,94.14,81,94.17c.14-.31,4.83-10.39,4.52-13.32A48.27,48.27,0,0,0,82.77,70c-4.86-7.38-3.35-13.47-3.35-13.47,1.93-2.89,4.42,0,6.22,2.24a9.79,9.79,0,0,0,6.73,3.63c.78.07,1.5.09,2,.09a5.75,5.75,0,0,1,2.6.57c6.84,3.39,7.61,12.17,7.68,14.79a11.18,11.18,0,0,0,.23,2c1.07,5.35,7.93,24.31,21.89,36.17C140.2,127.42,143,150.48,135,153Zm-37.56.47c1.9-7.84,10.71-8.5,10.71-8.5-3.8-19.24,13.54-19.72,13.54-19.72L96.23,112.45S96.38,157.67,97.4,153.51ZM95.13,73.18c.92.07.91-1.36,0-1.43-2.15-.15-3.3-2.05-3.27-4.07a.71.71,0,0,0-1.43,0A5.14,5.14,0,0,0,95.13,73.18Z" transform="translate(-5.89 -7.88)"/><path class="cls-3" d="M95.13,73.18a5.14,5.14,0,0,1-4.7-5.5.71.71,0,0,1,1.43,0c0,2,1.13,3.92,3.27,4.07C96,71.82,96,73.25,95.13,73.18Z" transform="translate(-5.89 -7.88)"/><path class="cls-4" d="M104.94,75.51s13.4-6.19-1.42-5" transform="translate(-5.89 -7.88)"/><path class="cls-4" d="M103.2,68.55S114,56.69,100,64.25" transform="translate(-5.89 -7.88)"/><path class="cls-4" d="M81,94.18h0c.11,0,3.61-1.22,4.55-3.09s-1.92,9-2.64,10,3.92-2.18,4.29-2.32c.77-.29-2.88,9-4.07,10.45s2,2.26,3.19,2c.37-.07,2.68,13.44,2.68,13.44,2.77,15.16-2.53,21.5-1.35,28a1.11,1.11,0,0,0,1,.88c6.33.34,39.12,1.82,46.32-.46,8.06-2.56,5.24-25.62-8.16-37-14-11.85-20.82-30.82-21.89-36.17a11.18,11.18,0,0,1-.23-2c-.07-2.62-.84-11.4-7.68-14.79a5.75,5.75,0,0,0-2.6-.57c-.55,0-1.26,0-2-.09a9.79,9.79,0,0,1-6.73-3.63" transform="translate(-5.89 -7.88)"/><path class="cls-4" d="M85.63,58.81c-1.8-2.23-4.29-5.13-6.22-2.24,0,0-1.51,6.09,3.35,13.47a48.27,48.27,0,0,1,2.77,10.81c.31,2.93-4.38,13-4.52,13.32" transform="translate(-5.89 -7.88)"/><path class="cls-4" d="M121.65,125.28s-17.34.48-13.54,19.72c0,0-8.81.66-10.71,8.5-1,4.16-1.17-41.05-1.17-41.05" transform="translate(-5.89 -7.88)"/><path class="cls-4" d="M140,146s28.82,1.27,18.37,15.84S143.5,171.06,146.68,179c0,0-7.29-2.22-6.34-9.82s11.09-12.67,7.29-14.25-5.7-8.55-7.92-6" transform="translate(-5.89 -7.88)"/><path class="cls-4" d="M79.4,61.62s4.23,7.41,6.93,7.49" transform="translate(-5.89 -7.88)"/></g><g id="disegni"><path class="cls-5" d="M143.6,106.35c-5.6,1.92-5.74,9.42-2.67,13.29,3.32,4.19,9.45,7,13.57,10.43,2.05,1.73,4.06,3.51,6,5.31-.46-8.47-2.5-17.32-7.76-24.11C150.71,108.6,147.36,105.06,143.6,106.35Zm6.89,9.14c-.5-2.32-1.81-4.9-4-6-1.19-.59-.47-2.54.73-2,2.92,1.43,4.66,4.47,5.33,7.58C152.83,116.45,150.78,116.79,150.5,115.49Z" transform="translate(-5.89 -7.88)"/><path class="cls-5" d="M181.83,62.55a13,13,0,0,0,.58,4.67,4.3,4.3,0,0,0,.45-1.75c.08-1.76-.36-3.5-.41-5.26a25.43,25.43,0,0,1,.34-4.93,31.06,31.06,0,0,1,1.33-5.48c-.23.5-.43,1-.61,1.53A35.84,35.84,0,0,0,181.83,62.55Z" transform="translate(-5.89 -7.88)"/><path class="cls-5" d="M163.64,73.69c.55,1.57,2.65,4.34,4.65,4.48-1.08-2-2.12-3.93-3.13-5.92-.65-1.28-1.57-2.79-2.32-4.35,0,.47,0,1,0,1.41A17.11,17.11,0,0,0,163.64,73.69Z" transform="translate(-5.89 -7.88)"/><path class="cls-5" d="M198.88,62.39l.13,0A21.07,21.07,0,0,0,203.65,60l-.49-.83A15.25,15.25,0,0,0,198.88,62.39Z" transform="translate(-5.89 -7.88)"/><path class="cls-5" d="M183.47,91c.62,2.34,4.52,3.55,6.45,3.6a24.12,24.12,0,0,0,4.72-.46l.22,0c-1.9-.41-3.83-1.08-5.38-1.48C187.47,92.11,185.46,91.58,183.47,91Z" transform="translate(-5.89 -7.88)"/><path class="cls-5" d="M19.65,124.13a1,1,0,0,1-2,.28c-1.07-5.27-3.73-8.62-7.62-12.22-1.46-1.35-2.72-2.61-3.95-3.58q-.14,2.77-.15,5.58,0,4.11.31,8.15c6.58,7.46,8.67,19.38,9.58,29.44l14.06-31.92c.54-1.22,2.33-.16,1.8,1.05L18,151.81c1.52-1.06,3.19-2,3.9-2.55C30,143.58,39.08,139.38,49,139c1.34,0,1.34,2,0,2.08C36.6,141.55,25,148.43,16,156.69a1,1,0,0,1-.13.09c10.67,2.42,25.41,1.48,35.34-3.87,7.6-4.09,18.87-15,5.4-22.23-5.46-2.94-14.57-.81-19.63,2.18-1,.59-2.16-.85-1.26-1.64,11.38-9.94,15.62-23.84,6.45-36.37C26.32,96.47,19.28,109.07,19.65,124.13Z" transform="translate(-5.89 -7.88)"/><path class="cls-5" d="M143,23.62c-3.07,1.42-7.27,3.9-6.86,7.84.62,5.89,7.89,7.7,12.35,5.58,4.83-2.29,8.91-7.65,13.21-10.88q2.32-1.75,4.69-3.42c-1.14-.68-2.29-1.34-3.45-2C156.17,20.17,149.18,20.76,143,23.62Zm3.59,3.17c-2.38,0-5.18.66-6.73,2.57-.84,1-2.58-.11-1.74-1.15,2.05-2.53,5.4-3.54,8.58-3.49C148.07,24.73,147.95,26.81,146.61,26.79Z" transform="translate(-5.89 -7.88)"/><path class="cls-5" d="M103.14,220.09l.07-.09a1,1,0,0,1,1.79.23c2.38.16,4.78.25,7.2.25a107.37,107.37,0,0,0,12.48-.73.93.93,0,0,1,.73-.08q4.23-.52,8.36-1.37c-.14-1.62-.29-3.24-.44-4.85-.46-4.87-1-9.74-1.6-14.6-.33-2.63,0-8.23-1.44-10.51-3-4.64-15.67-1.88-21.06-1.5q-9.12.64-18.21,1.61l4,30.66Q99,219.74,103.14,220.09Zm20.06-21,4.29-5.84a1,1,0,0,1,1.68,1.23l-4.29,5.85A1,1,0,0,1,123.19,199.09Zm-4.71,6.17c1.8,1.72-.48,4.29-2.5,3.18a2.35,2.35,0,0,1-.57-.54C114.21,205.9,116.69,203.54,118.48,205.25Zm-6.56.61a.91.91,0,0,1,.25.77c.17,2.16-2.77,3.44-3.82,1.21C107.21,205.46,110.39,204.14,111.92,205.86Zm-4,6.56c3.27,3.87,8.52,2.82,12.18.18,1.09-.78,2.4.84,1.31,1.62-4.6,3.31-11.07,4.3-15.11-.49C105.45,212.7,107.07,211.4,107.93,212.42ZM97.6,195.48l5.84,4.29a1,1,0,0,1-1.23,1.68l-5.84-4.29A1,1,0,0,1,97.6,195.48Z" transform="translate(-5.89 -7.88)"/><path class="cls-5" d="M21.61,81.17c9,0,16.18-4.34,20.9-12.42L15.2,77,15,77a.86.86,0,0,1-.87-.63.67.67,0,0,1,.46-.89L42.83,67a2.48,2.48,0,0,0-.2-.23c-2.41-2.2-12.24-2.34-14.39-2.15h-.16a26.9,26.9,0,0,0-11.09,4l-1.23.8a105.51,105.51,0,0,0-4.27,10.65A47.84,47.84,0,0,0,21.61,81.17Z" transform="translate(-5.89 -7.88)"/><path class="cls-5" d="M14,154.84c-.67-9-2.13-20.59-7.37-28.53A105.61,105.61,0,0,0,14,154.84Z" transform="translate(-5.89 -7.88)"/><path class="cls-5" d="M192.95,73.76a4.67,4.67,0,0,0-2.14,1,10.4,10.4,0,0,0,4-.31,35.78,35.78,0,0,0,11.07-4.22,16.77,16.77,0,0,0,1.45-1,32,32,0,0,1-4.83,2.41C199.31,72.9,196.2,73,192.95,73.76Z" transform="translate(-5.89 -7.88)"/><path class="cls-5" d="M193.3,53.06a28,28,0,0,0-.72,3.58,18,18,0,0,0,2.52-6.42c.1-.46.25-1.21.45-2l-.22-.27A22.66,22.66,0,0,0,193.3,53.06Z" transform="translate(-5.89 -7.88)"/><path class="cls-5" d="M192,124.75c5.17-10.09,16.24-13.91,26.49-11.17A106,106,0,0,0,211,74.86l-.09.35a5.51,5.51,0,0,1-1.69,3.06c-2.29,1.71-6.32,2.37-9.08,3a49.72,49.72,0,0,1-9.73,1.17c-.56,0-5.42,0-5.1.53.7,1.09,5.39.46,6.3.44,4-.1,8.38.12,12.23-1.24a10.11,10.11,0,0,0,2.56-1.4h0A1.29,1.29,0,0,1,207,80a.76.76,0,0,1,1,1,2.46,2.46,0,0,1-.57,1l0,0c-.32.67-.7,1.32-1,2-.85,1.58-1.71,3.15-2.61,4.69-1,1.74-2.42,5.19-4.66,5.62a7.4,7.4,0,0,1-1.58.12.4.4,0,0,1,0,.19c-.24,1.72-3.46,3.71-4.79,4.56a15.24,15.24,0,0,1-6,2.29,17.75,17.75,0,0,1-10.51-2.1c-3-1.53-4.42-3.74-4-7.21A17.15,17.15,0,0,1,173.43,88c-3.69,2.23-8.11,3.14-11.32-.51a18.12,18.12,0,0,1-4.68-8.71c-.75-4.32,1-8.4,3.31-12h0a.49.49,0,0,1,.23-.32l0,0,.13-.07.14-.05.22-.09a.82.82,0,0,1,.65,0,8.93,8.93,0,0,1-.62-2.75c-.07-2.21,2.9-4.36,4.32-5.71s2.75-2.54,4.16-3.79l1.51-1.33c.34-.31.56-.72.6-.6a2.32,2.32,0,0,1,.45-.32.76.76,0,0,1,1,.77,1.13,1.13,0,0,1-.38.65s0,0,0,0l0,0a1.16,1.16,0,0,0-.21.35,16.21,16.21,0,0,0-.66,2.68c-.4,4,.74,8.17,1.55,12.09.19,1,.6,5.71,1.83,6.12.61.21-.48-4.34-.6-4.94a51.41,51.41,0,0,1-1.08-9.9c0-2.86-.32-6.89.81-9.56a5.2,5.2,0,0,1,2.38-2.28c1.82-1,6.25-3,8.2-2.12a.68.68,0,0,1,.41.42,4.8,4.8,0,0,1,3.35-2.27,18.11,18.11,0,0,1,2.52-.32A106.93,106.93,0,0,0,176,29.14a2.78,2.78,0,0,1-.06.3l0,0a1,1,0,0,1-.21.47c-1.79,2.21-5.52.37-4.15-2.38a2.43,2.43,0,0,1,.86-1q-2-1.36-4-2.63c-5.67,4.23-10.76,9-16.35,13.35-5.43,4.18-12.66,3.93-16.46-2.2-3.23-5.21-.32-9.47,4.5-12.29,5.53-3.22,12-4.36,18.45-4.31A105.87,105.87,0,0,0,112.19,7.88c-3,0-6,.13-8.93.38a25.44,25.44,0,0,1,1,3.2l.06.24c0,.1,0,.2,0,.3,1.19,12.26-6.6,23.7-19.37,25.11A22.24,22.24,0,0,1,61.24,20.86,106.45,106.45,0,0,0,46,31a5.27,5.27,0,0,1,3.59,8h0a3.21,3.21,0,0,0,5.36,3.54h0c4.12-5.42,12.17,0,8.76,5.87-.67,1.15-2.36,0-1.7-1.17a3.21,3.21,0,0,0-5.36-3.54c-4.12,5.42-12.16,0-8.76-5.87a3.21,3.21,0,0,0-5.36-3.54,5.54,5.54,0,0,1-2.67,2A106.64,106.64,0,0,0,17,66.75,28.9,28.9,0,0,1,22.9,64.1c3.25-1,16-2.34,20.34,1a3.39,3.39,0,0,1,1.46,2.56,1.2,1.2,0,0,1-.1.57c0,.15,0,.08-.11.29C39.88,77,32.87,81.87,24.1,82.66a26.54,26.54,0,0,1-3.31.1A46.38,46.38,0,0,1,11,81.57,105.84,105.84,0,0,0,6.2,106c4.54,2.53,9.55,7.09,11.58,11.83.15-1,.33-1.93.48-2.83,2.33-13.55,10.88-21.16,24.35-22.33a.84.84,0,0,1,.91.52c8.62,11.26,8.33,25-2.24,35.34l-.4.38a15.09,15.09,0,0,1,3-.91c5.66-1.12,15-.8,19.69,3.3,8.89,7.78-5.46,20.52-12.81,24-7.79,3.7-18.41,5.18-27,4.7-2.79-.16-5.53-1.08-7.6-.34A106.33,106.33,0,0,0,29.56,181a3.44,3.44,0,0,0-.45-2c-3.3-6,5-11.22,9-5.69l0,0a3.25,3.25,0,0,0,5.48-3.49h0c-3.31-6,5-11.24,9-5.67.79,1.09-1,2.17-1.78,1.09a3.25,3.25,0,0,0-5.48,3.49c3.31,6-5,11.24-9,5.67A3.25,3.25,0,0,0,30.89,178a5.25,5.25,0,0,1,.25,5,106.92,106.92,0,0,0,11.4,11.53c-1-4.38-1.48-9.42-.1-12.1a3.26,3.26,0,0,1,2.19-1.82,1.11,1.11,0,0,1,.56,0c.15,0,.08,0,.29,0,8.9,3,14.68,8.85,16.89,17.07a26,26,0,0,1,.64,3.14,49.27,49.27,0,0,1,.59,7.92,105.54,105.54,0,0,0,29.28,10L88.8,187.65a1,1,0,0,1,.06-.5.88.88,0,0,1,.81-.69c12-1.28,24.72-3.25,36.79-2.31,9.78.77,7.42,14.82,8.26,22.55.26,2.38,1.14,6.55,1.75,11a105.71,105.71,0,0,0,34.87-15.18,12.58,12.58,0,0,1-7.24-5l0,0-.17-.24-.14-.28s0,0,0,0c-7.38-14.66,15.29-28.5,24-14.14a13.29,13.29,0,0,1,1.71,4.3,106.67,106.67,0,0,0,13.06-17,3.26,3.26,0,0,0-5.48.37c-3.51,5.92-12.22,1.41-9.48-4.88a3.25,3.25,0,0,0-5.8-2.93c-3.51,5.92-12.22,1.41-9.48-4.88.54-1.23,2.37-.25,1.84,1a3.25,3.25,0,0,0,5.8,2.93c3.51-5.92,12.21-1.42,9.48,4.87h0a3.25,3.25,0,0,0,5.79,2.94h0a5.27,5.27,0,0,1,8.41-1.19,106.18,106.18,0,0,0,5.67-11,22.31,22.31,0,0,1-7.54-2.24A22.81,22.81,0,0,1,192,124.75Zm-16.22-85c1.34-2.7,5.2-.9,4.38,1.88l0,0a1,1,0,0,1-.21.47C178.13,44.3,174.4,42.47,175.77,39.72Zm-14.9-.83c1.34-2.7,5.2-.9,4.38,1.88l0,0a1,1,0,0,1-.21.47C163.23,43.47,159.5,41.64,160.87,38.89Zm-119.39,12,0,0a1,1,0,0,1-.21.47c-1.79,2.21-5.52.37-4.15-2.38S42.3,48.16,41.48,50.93Zm23.35,119.7h0a1,1,0,0,1-.5.13c-2.84,0-3.82-4-.83-4.71S67.49,169.48,64.83,170.63ZM81.61,191.2l-9.29,3.55c-1.25.48-2.09-1.43-.83-1.91l9.29-3.55C82,188.82,82.87,190.72,81.61,191.2Zm-2.52-36.52h0a1,1,0,0,1-.49.13c-2.84,0-3.82-4-.83-4.71S81.75,153.53,79.09,154.68ZM76.52,163c2.93-.7,4,3.42,1.37,4.57h0a1,1,0,0,1-.49.13C74.51,167.73,73.53,163.69,76.52,163ZM71.3,106.89c1.34-2.7,5.2-.9,4.38,1.88l0,0a1,1,0,0,1-.21.47C73.66,111.48,69.93,109.65,71.3,106.89ZM59,99.44l0,0a1,1,0,0,1-.21.47c-1.79,2.2-5.52.37-4.15-2.38S59.84,96.66,59,99.44Zm7.1,22.5,0,0a1,1,0,0,1-.21.47c-1.79,2.21-5.52.37-4.15-2.38S66.94,119.17,66.12,121.94Zm-5-32h0l-.34-.06-.28-.1-.05,0c-15.48-5.39-8.83-31.07,7.42-26.87S77.22,92.72,61.1,89.9ZM67,183.12l8.27-5.54c1.11-.74,2.42.88,1.31,1.62l-8.27,5.54C67.21,185.48,65.9,183.86,67,183.12Zm3.31,4.56,9-4.26c1.21-.58,2,1.33.84,1.91l-9,4.26C69.94,190.17,69.11,188.26,70.32,187.68Zm10.36,16.71-9.95.09c-1.34,0-1.08-2.05.24-2.07l9.95-.09C82.25,202.31,82,204.38,80.67,204.39Zm1-6.68-9.8,1.71a1,1,0,0,1-.3-2.06l9.8-1.71C82.69,195.42,83,197.48,81.67,197.71Zm46.1-180c1.34-2.7,5.2-.9,4.38,1.88l0,0a1,1,0,0,1-.21.47C130.13,22.3,126.4,20.47,127.77,17.72Zm-3,58.89c1.34-2.7,5.2-.9,4.38,1.88l0,0a1,1,0,0,1-.21.47C127.14,81.19,123.42,79.36,124.78,76.61Zm-.2,17.5,0,0a1,1,0,0,1-.21.47c-1.79,2.21-5.52.37-4.15-2.38S125.41,91.33,124.59,94.1ZM123.1,66c-1.06.82-2.11-1-1.06-1.79l7.87-6.08c1.06-.82,2.11,1,1.06,1.79Zm4.63-12-6.78,7.28c-.91,1-2.4-.48-1.48-1.46l6.78-7.28C127.16,51.58,128.64,53,127.73,54Zm-4-5.16-5.26,8.44c-.71,1.14-2.53.12-1.82-1l5.26-8.44C122.64,46.71,124.46,47.73,123.75,48.87ZM119,45.07l-4.59,8.83c-.62,1.19-2.43.17-1.82-1l4.59-8.83C117.83,42.87,119.65,43.89,119,45.07ZM116.15,27.6l0,0a1,1,0,0,1-.21.47c-1.79,2.21-5.52.37-4.15-2.38S117,24.82,116.15,27.6Zm-5.28-12.71c1.34-2.7,5.2-.9,4.38,1.88l0,0a1,1,0,0,1-.21.47C113.23,19.47,109.5,17.64,110.87,14.89Zm-3.64,36.36,3.24-9.41c.44-1.26,2.46-.77,2,.5l-3.24,9.4C108.82,53,106.79,52.52,107.23,51.25ZM94.15,48.93l0,0a1,1,0,0,1-.21.47c-1.79,2.21-5.52.37-4.15-2.38S95,46.16,94.15,48.93Zm34.09,118.52a3.21,3.21,0,0,0-6.25,1.5c1.14,6.71-8.31,8.88-10.27,2.38a3.21,3.21,0,0,0-6.25,1.5c1.14,6.71-8.31,8.88-10.27,2.38-.38-1.27,1.63-1.71,2-.44a3.21,3.21,0,0,0,6.25-1.5c-1.14-6.71,8.3-8.88,10.27-2.39h0a3.21,3.21,0,0,0,6.25-1.49h0c-1.14-6.71,8.31-8.89,10.27-2.38C130.63,168.28,128.62,168.71,128.24,167.45Zm7,13.32,0,0a1,1,0,0,1-.21.47c-1.79,2.21-5.52.37-4.15-2.38S136.07,178,135.25,180.77Zm3.22-98.95A3.25,3.25,0,0,0,141.35,76c-5.95-3.45-1.53-12.2,4.78-9.52h0A3.25,3.25,0,0,0,149,60.65h0c-6-3.46-1.53-12.21,4.79-9.52,1.23.52.27,2.37-1,1.85A3.25,3.25,0,0,0,150,58.8c6,3.46,1.53,12.21-4.79,9.52a3.25,3.25,0,0,0-2.88,5.82c6,3.45,1.53,12.21-4.79,9.52C136.28,83.14,137.25,81.29,138.47,81.82Zm7.67,125.78,0,0a1,1,0,0,1-.21.47c-1.79,2.21-5.52.37-4.15-2.38S147,204.82,146.15,207.6Zm9.77-16.83,0,0a1,1,0,0,1-.21.47c-1.79,2.21-5.52.37-4.15-2.38S156.74,188,155.92,190.77Zm5.64-52a1.07,1.07,0,0,1-.69-.29c-6.12-5.68-13-10.09-19.39-15.34-5.29-4.36-6.67-11.46-1.55-16.53,4.36-4.32,9.16-2.44,13,1.63,7.2,7.66,9.49,19,9.77,29.2a.78.78,0,0,1,0,.75A.87.87,0,0,1,161.56,138.76Zm11.92-27.16,0,0a1,1,0,0,1-.21.47c-1.79,2.21-5.52.37-4.15-2.38S174.3,108.82,173.48,111.6Zm5.1,14.5,0,0a1,1,0,0,1-.21.47c-1.79,2.21-5.52.37-4.15-2.38S179.41,123.33,178.59,126.1Zm8.67-12,0,0a1,1,0,0,1-.21.47c-1.79,2.21-5.52.37-4.15-2.38S188.07,111.33,187.25,114.1Z" transform="translate(-5.89 -7.88)"/><path class="cls-5" d="M216.17,132.25a1,1,0,0,1-.64.18c-2.85.4-4.18-3.7-1.32-4.74a2.25,2.25,0,0,1,3.16,1.91,107,107,0,0,0,1.1-13.89c-23.47-7.51-38.29,26-15.71,37.54a22.19,22.19,0,0,0,7.36,2.34,105.53,105.53,0,0,0,7-24.42A2.7,2.7,0,0,1,216.17,132.25Zm-7.84,12.06c-3.12.13-3.36-4.25-.49-4.93h.06a1.08,1.08,0,0,1,.48,0C211.28,139.83,211.46,144.18,208.33,144.32Zm2.31-20.41c-6.64-.24-10.22,5.68-10.87,11.61-.15,1.37-2.24.92-2.09-.43.75-6.81,5.25-13.58,12.84-13.3C211.89,121.82,212,124,210.64,123.9Z" transform="translate(-5.89 -7.88)"/><path class="cls-6" d="M61.74,120.06c-1.37,2.75,2.36,4.58,4.15,2.38a1,1,0,0,0,.21-.47c-.41,1.22-2.39.9-2-.36l.23-.5a1,1,0,0,1,1.78.86l0,0C66.94,119.17,63.08,117.36,61.74,120.06Z" transform="translate(-5.89 -7.88)"/><path class="cls-6" d="M64.31,121.11l-.23.5c-.38,1.26,1.6,1.58,2,.36A1,1,0,0,0,64.31,121.11Z" transform="translate(-5.89 -7.88)"/><path class="cls-6" d="M75.66,108.81c-.41,1.22-2.39.9-2-.36l.23-.5a1,1,0,0,1,1.78.86l0,0c.82-2.77-3-4.58-4.38-1.88s2.36,4.58,4.15,2.38A1,1,0,0,0,75.66,108.81Z" transform="translate(-5.89 -7.88)"/><path class="cls-6" d="M73.88,107.94l-.23.5c-.38,1.26,1.6,1.58,2,.36A1,1,0,0,0,73.88,107.94Z" transform="translate(-5.89 -7.88)"/><path class="cls-6" d="M39.68,50.1l-.23.5c-.38,1.26,1.6,1.58,2,.36A1,1,0,0,0,39.68,50.1Z" transform="translate(-5.89 -7.88)"/><path class="cls-6" d="M37.1,49.05c-1.37,2.75,2.36,4.58,4.15,2.38a1,1,0,0,0,.21-.47c-.41,1.22-2.39.9-2-.36l.23-.5a1,1,0,0,1,1.78.86l0,0C42.3,48.16,38.44,46.35,37.1,49.05Z" transform="translate(-5.89 -7.88)"/><path class="cls-6" d="M57.21,98.61l-.23.5c-.38,1.26,1.6,1.58,2,.36A1,1,0,0,0,57.21,98.61Z" transform="translate(-5.89 -7.88)"/><path class="cls-6" d="M54.63,97.56c-1.37,2.75,2.36,4.58,4.15,2.38a1,1,0,0,0,.21-.47c-.41,1.22-2.39.9-2-.36l.23-.5a1,1,0,0,1,1.78.86l0,0C59.84,96.66,56,94.86,54.63,97.56Z" transform="translate(-5.89 -7.88)"/><path class="cls-6" d="M89.77,47.05c-1.37,2.75,2.36,4.58,4.15,2.38a1,1,0,0,0,.21-.47c-.41,1.22-2.39.9-2-.36l.23-.5a1,1,0,0,1,1.78.86l0,0C95,46.16,91.11,44.35,89.77,47.05Z" transform="translate(-5.89 -7.88)"/><path class="cls-6" d="M92.35,48.1l-.23.5c-.38,1.26,1.6,1.58,2,.36A1,1,0,0,0,92.35,48.1Z" transform="translate(-5.89 -7.88)"/><path class="cls-6" d="M114.35,26.77l-.23.5c-.38,1.26,1.6,1.58,2,.36A1,1,0,0,0,114.35,26.77Z" transform="translate(-5.89 -7.88)"/><path class="cls-6" d="M111.77,25.72c-1.37,2.75,2.36,4.58,4.15,2.38a1,1,0,0,0,.21-.47c-.41,1.22-2.39.9-2-.36l.23-.5a1,1,0,0,1,1.78.86l0,0C117,24.82,113.11,23,111.77,25.72Z" transform="translate(-5.89 -7.88)"/><path class="cls-6" d="M130.35,18.77l-.23.5c-.38,1.26,1.6,1.58,2,.36A1,1,0,0,0,130.35,18.77Z" transform="translate(-5.89 -7.88)"/><path class="cls-6" d="M131.92,20.1a1,1,0,0,0,.21-.47c-.41,1.22-2.39.9-2-.36l.23-.5a1,1,0,0,1,1.78.86l0,0c.82-2.77-3-4.58-4.38-1.88S130.13,22.3,131.92,20.1Z" transform="translate(-5.89 -7.88)"/><path class="cls-6" d="M115,17.27a1,1,0,0,0,.21-.47c-.41,1.22-2.39.9-2-.36l.23-.5a1,1,0,0,1,1.78.86l0,0c.82-2.77-3-4.58-4.38-1.88S113.23,19.47,115,17.27Z" transform="translate(-5.89 -7.88)"/><path class="cls-6" d="M113.45,15.94l-.23.5c-.38,1.26,1.6,1.58,2,.36A1,1,0,0,0,113.45,15.94Z" transform="translate(-5.89 -7.88)"/><path class="cls-6" d="M165,41.27a1,1,0,0,0,.21-.47c-.41,1.22-2.39.9-2-.36l.23-.5a1,1,0,0,1,1.78.86l0,0c.82-2.77-3-4.58-4.38-1.88S163.23,43.47,165,41.27Z" transform="translate(-5.89 -7.88)"/><path class="cls-6" d="M163.45,39.94l-.23.5c-.38,1.26,1.6,1.58,2,.36A1,1,0,0,0,163.45,39.94Z" transform="translate(-5.89 -7.88)"/><path class="cls-6" d="M179.92,42.1a1,1,0,0,0,.21-.47c-.41,1.22-2.39.9-2-.36l.23-.5a1,1,0,0,1,1.78.86l0,0c.82-2.77-3-4.58-4.38-1.88S178.13,44.3,179.92,42.1Z" transform="translate(-5.89 -7.88)"/><path class="cls-6" d="M178.35,40.77l-.23.5c-.38,1.26,1.6,1.58,2,.36A1,1,0,0,0,178.35,40.77Z" transform="translate(-5.89 -7.88)"/><path class="cls-6" d="M171.54,27.56c-1.37,2.75,2.36,4.58,4.15,2.38a1,1,0,0,0,.21-.47c-.41,1.22-2.39.9-2-.36l.23-.5a.94.94,0,0,1,.65-.36q-1.17-.85-2.37-1.68A2.43,2.43,0,0,0,171.54,27.56Z" transform="translate(-5.89 -7.88)"/><path class="cls-6" d="M175.9,29.47l0,0a2.78,2.78,0,0,0,.06-.3l-.09-.07A.92.92,0,0,1,175.9,29.47Z" transform="translate(-5.89 -7.88)"/><path class="cls-6" d="M174.77,28.25a.94.94,0,0,0-.65.36l-.23.5c-.38,1.26,1.6,1.58,2,.36a.92.92,0,0,0,0-.4" transform="translate(-5.89 -7.88)"/><path class="cls-6" d="M169.1,109.72c-1.37,2.75,2.36,4.58,4.15,2.38a1,1,0,0,0,.21-.47c-.41,1.22-2.39.9-2-.36l.23-.5a1,1,0,0,1,1.78.86l0,0C174.3,108.82,170.44,107,169.1,109.72Z" transform="translate(-5.89 -7.88)"/><path class="cls-6" d="M171.68,110.77l-.23.5c-.38,1.26,1.6,1.58,2,.36A1,1,0,0,0,171.68,110.77Z" transform="translate(-5.89 -7.88)"/><path class="cls-6" d="M182.87,112.22c-1.37,2.75,2.36,4.58,4.15,2.38a1,1,0,0,0,.21-.47c-.41,1.22-2.39.9-2-.36l.23-.5a1,1,0,0,1,1.78.86l0,0C188.07,111.33,184.21,109.53,182.87,112.22Z" transform="translate(-5.89 -7.88)"/><path class="cls-6" d="M185.45,113.27l-.23.5c-.38,1.26,1.6,1.58,2,.36A1,1,0,0,0,185.45,113.27Z" transform="translate(-5.89 -7.88)"/><path class="cls-6" d="M174.2,124.22c-1.37,2.75,2.36,4.58,4.15,2.38a1,1,0,0,0,.21-.47c-.41,1.22-2.39.9-2-.36l.23-.5a1,1,0,0,1,1.78.86l0,0C179.41,123.33,175.54,121.53,174.2,124.22Z" transform="translate(-5.89 -7.88)"/><path class="cls-6" d="M176.78,125.27l-.23.5c-.38,1.26,1.6,1.58,2,.36A1,1,0,0,0,176.78,125.27Z" transform="translate(-5.89 -7.88)"/><path class="cls-6" d="M120.2,92.22c-1.37,2.75,2.36,4.58,4.15,2.38a1,1,0,0,0,.21-.47c-.41,1.22-2.39.9-2-.36l.23-.5a1,1,0,0,1,1.78.86l0,0C125.41,91.33,121.54,89.53,120.2,92.22Z" transform="translate(-5.89 -7.88)"/><path class="cls-6" d="M122.78,93.27l-.23.5c-.38,1.26,1.6,1.58,2,.36A1,1,0,0,0,122.78,93.27Z" transform="translate(-5.89 -7.88)"/><path class="cls-6" d="M128.93,79a1,1,0,0,0,.21-.47c-.41,1.22-2.39.9-2-.36l.23-.5a1,1,0,0,1,1.78.86l0,0c.82-2.77-3-4.58-4.38-1.88S127.14,81.19,128.93,79Z" transform="translate(-5.89 -7.88)"/><path class="cls-6" d="M127.36,77.66l-.23.5c-.38,1.26,1.6,1.58,2,.36A1,1,0,0,0,127.36,77.66Z" transform="translate(-5.89 -7.88)"/><path class="cls-6" d="M78.56,154.82a1,1,0,0,0,.49-.13c-1.2.47-2.22-1.26-1-1.78l.53-.15a1,1,0,0,1,.48,1.92h0c2.66-1.15,1.56-5.27-1.37-4.57S75.72,154.86,78.56,154.82Z" transform="translate(-5.89 -7.88)"/><path class="cls-6" d="M78.57,152.76l-.53.15c-1.21.52-.19,2.24,1,1.78A1,1,0,0,0,78.57,152.76Z" transform="translate(-5.89 -7.88)"/><path class="cls-6" d="M77.37,165.63l-.53.15c-1.21.52-.19,2.25,1,1.78A1,1,0,0,0,77.37,165.63Z" transform="translate(-5.89 -7.88)"/><path class="cls-6" d="M77.35,167.69a1,1,0,0,0,.49-.13c-1.2.47-2.23-1.26-1-1.78l.53-.15a1,1,0,0,1,.48,1.92h0c2.66-1.15,1.56-5.27-1.37-4.57S74.51,167.73,77.35,167.69Z" transform="translate(-5.89 -7.88)"/><path class="cls-6" d="M144.35,206.77l-.23.5c-.38,1.26,1.6,1.58,2,.36A1,1,0,0,0,144.35,206.77Z" transform="translate(-5.89 -7.88)"/><path class="cls-6" d="M141.77,205.72c-1.37,2.75,2.36,4.58,4.15,2.38a1,1,0,0,0,.21-.47c-.41,1.22-2.39.9-2-.36l.23-.5a1,1,0,0,1,1.78.86l0,0C147,204.82,143.11,203,141.77,205.72Z" transform="translate(-5.89 -7.88)"/><path class="cls-6" d="M154.12,189.94l-.23.5c-.38,1.26,1.6,1.58,2,.36A1,1,0,0,0,154.12,189.94Z" transform="translate(-5.89 -7.88)"/><path class="cls-6" d="M151.54,188.89c-1.37,2.75,2.36,4.58,4.15,2.38a1,1,0,0,0,.21-.47c-.41,1.22-2.39.9-2-.36l.23-.5a1,1,0,0,1,1.78.86l0,0C156.74,188,152.88,186.19,151.54,188.89Z" transform="translate(-5.89 -7.88)"/><path class="cls-6" d="M133.45,179.94l-.23.5c-.38,1.26,1.6,1.58,2,.36A1,1,0,0,0,133.45,179.94Z" transform="translate(-5.89 -7.88)"/><path class="cls-6" d="M130.87,178.89c-1.37,2.75,2.36,4.58,4.15,2.38a1,1,0,0,0,.21-.47c-.41,1.22-2.39.9-2-.36l.23-.5a1,1,0,0,1,1.78.86l0,0C136.07,178,132.21,176.19,130.87,178.89Z" transform="translate(-5.89 -7.88)"/><path class="cls-6" d="M63.46,166.06c-3,.71-2,4.75.83,4.71a1,1,0,0,0,.5-.13c-1.2.47-2.23-1.26-1-1.78l.53-.15a1,1,0,0,1,.48,1.92h0C67.49,169.48,66.4,165.36,63.46,166.06Z" transform="translate(-5.89 -7.88)"/><path class="cls-6" d="M64.31,168.72l-.53.15c-1.21.52-.19,2.25,1,1.78A1,1,0,0,0,64.31,168.72Z" transform="translate(-5.89 -7.88)"/><path class="cls-7" d="M117.44,207.67a1,1,0,0,1-1.33-1.28,1.07,1.07,0,1,0,1.33,1.28Z" transform="translate(-5.89 -7.88)"/><path class="cls-7" d="M115.68,208.2a1.13,1.13,0,0,1,.43-1.81,1,1,0,0,1,.22-.36,1,1,0,1,1,1.46,1.41,1,1,0,0,1-.35.23,1.13,1.13,0,0,1-1.76.53,1.12,1.12,0,0,0,.29.23c2,1.11,4.3-1.45,2.5-3.18s-4.27.64-3.07,2.64A1.13,1.13,0,0,0,115.68,208.2Z" transform="translate(-5.89 -7.88)"/><path class="cls-7" d="M116.36,207.47a1,1,0,0,0,1.08.2.87.87,0,0,0-.13-.63l-.57-.54a.87.87,0,0,0-.63-.11A1,1,0,0,0,116.36,207.47Z" transform="translate(-5.89 -7.88)"/><path class="cls-7" d="M116.75,206.5l.57.54a.87.87,0,0,1,.13.63,1,1,0,0,0,.35-.23,1,1,0,1,0-1.46-1.41,1,1,0,0,0-.22.36A.87.87,0,0,1,116.75,206.5Z" transform="translate(-5.89 -7.88)"/><path class="cls-7" d="M110.22,206a1,1,0,0,1,.81,1.56,1.14,1.14,0,0,0,1.14-.9,2.19,2.19,0,0,0,0-.27A1.08,1.08,0,0,0,110.22,206Z" transform="translate(-5.89 -7.88)"/><path class="cls-7" d="M112.17,206.63a1.14,1.14,0,0,1-1.14.9,1,1,0,0,1-.38.35,1,1,0,1,1-.9-1.82,1,1,0,0,1,.46-.09,1.08,1.08,0,0,1,1.92.39,2.19,2.19,0,0,1,0,.27.91.91,0,0,0-.25-.77c-1.53-1.72-4.71-.4-3.58,2C109.4,210.08,112.34,208.79,112.17,206.63Z" transform="translate(-5.89 -7.88)"/><path class="cls-7" d="M111.11,206.52a1,1,0,0,0-.89-.55.91.91,0,0,0-.13.71l.22.5a.56.56,0,1,0,.81-.65Z" transform="translate(-5.89 -7.88)"/><path class="cls-7" d="M110.08,206.68a.91.91,0,0,1,.13-.71,1,1,0,0,0-.46.09,1,1,0,1,0,.9,1.82,1,1,0,0,0,.38-.35,1,1,0,0,1-.73-.36Z" transform="translate(-5.89 -7.88)"/><path class="cls-7" d="M121.42,214.22c1.09-.78-.22-2.4-1.31-1.62-3.66,2.64-8.92,3.69-12.18-.18-.86-1-2.48.28-1.62,1.31C110.35,218.52,116.83,217.54,121.42,214.22Z" transform="translate(-5.89 -7.88)"/><path class="cls-7" d="M96.37,197.16l5.84,4.29a1,1,0,0,0,1.23-1.68l-5.84-4.29A1,1,0,0,0,96.37,197.16Z" transform="translate(-5.89 -7.88)"/><path class="cls-7" d="M124.67,219.74l.73-.08A.93.93,0,0,0,124.67,219.74Z" transform="translate(-5.89 -7.88)"/><path class="cls-7" d="M103.2,220l-.07.09,1.85.14A1,1,0,0,0,103.2,220Z" transform="translate(-5.89 -7.88)"/><path class="cls-7" d="M124.87,200.32l4.29-5.85a1,1,0,0,0-1.68-1.23l-4.29,5.84A1,1,0,0,0,124.87,200.32Z" transform="translate(-5.89 -7.88)"/><path class="cls-7" d="M90,188.52l1-.1-.14-1.09a1,1,0,0,0-2-.18A1.07,1.07,0,0,0,90,188.52Z" transform="translate(-5.89 -7.88)"/><path class="cls-7" d="M126.46,184.16c-12.06-.95-24.79,1-36.79,2.31a.88.88,0,0,0-.81.69,1,1,0,0,1,2,.18l.14,1.09q9.09-1,18.21-1.61c5.39-.38,18.1-3.14,21.06,1.5,1.46,2.28,1.11,7.88,1.44,10.51.6,4.86,1.14,9.73,1.6,14.6.15,1.61.3,3.23.44,4.85q1.36-.28,2.71-.6c-.61-4.43-1.49-8.6-1.75-11C133.88,199,136.23,184.92,126.46,184.16Z" transform="translate(-5.89 -7.88)"/><path class="cls-7" d="M91,188.42l-1,.1a1.07,1.07,0,0,1-1.13-1.37,1,1,0,0,0-.06.5l4.07,31.07,2.15.37Z" transform="translate(-5.89 -7.88)"/><path class="cls-7" d="M40.87,129c-4.19,1.79-4.66,4.43,0,0Z" transform="translate(-5.89 -7.88)"/><path class="cls-7" d="M17.56,122.72c.33,2.59,1.43-.24,1-2.53a12.07,12.07,0,0,0-.74-2.31A18.08,18.08,0,0,0,17.56,122.72Z" transform="translate(-5.89 -7.88)"/><path class="cls-7" d="M23.72,160.07c8.58.49,19.2-1,27-4.7,7.35-3.49,21.7-16.23,12.81-24-4.69-4.11-14-4.43-19.69-3.3a15.09,15.09,0,0,0-3,.91c-4.66,4.43-4.19,1.79,0,0l.4-.38c10.57-10.32,10.86-24.08,2.24-35.34a1.12,1.12,0,0,1-.91,1.56l-.48.05c9.17,12.53,4.93,26.43-6.45,36.37-.9.79.26,2.23,1.26,1.64,5.06-3,14.17-5.12,19.63-2.18,13.46,7.23,2.19,18.14-5.4,22.23-9.93,5.35-24.67,6.29-35.34,3.87a1,1,0,0,1-1,.13q.62,1.42,1.29,2.82C18.19,159,20.93,159.91,23.72,160.07Z" transform="translate(-5.89 -7.88)"/><path class="cls-7" d="M10,112.18c3.89,3.6,6.55,6.95,7.62,12.22a1,1,0,0,0,2-.28c-.37-15.05,6.68-27.65,22.47-29.27l-.42-.57c-.81-1.06,1-2.1,1.8-1.05h0a.84.84,0,0,0-.91-.52c-13.46,1.17-22,8.79-24.35,22.33-.15.9-.33,1.85-.48,2.83a12.07,12.07,0,0,1,.74,2.31c.47,2.29-.63,5.12-1,2.53a18.08,18.08,0,0,1,.22-4.84c-2-4.75-7-9.31-11.58-11.83q-.1,1.27-.16,2.55C7.26,109.58,8.52,110.84,10,112.18Z" transform="translate(-5.89 -7.88)"/><path class="cls-7" d="M41.7,94.29l.42.57.48-.05a1.12,1.12,0,0,0,.91-1.56h0C42.7,92.19,40.89,93.22,41.7,94.29Z" transform="translate(-5.89 -7.88)"/><path class="cls-7" d="M18,151.81,31.64,120.9c.54-1.21-1.26-2.28-1.8-1.05L15.78,151.76c.05.58.1,1.16.15,1.72A16.57,16.57,0,0,1,18,151.81Z" transform="translate(-5.89 -7.88)"/><path class="cls-7" d="M16.1,155.77a1.43,1.43,0,0,0,.23-.13c.49-.34,1-2.28,1.22-2.78l.46-1.05a16.57,16.57,0,0,0-2.09,1.68C16,154.26,16.05,155,16.1,155.77Z" transform="translate(-5.89 -7.88)"/><path class="cls-7" d="M49,141.12c1.34,0,1.34-2.13,0-2.08-10,.35-19.06,4.55-27.12,10.23-.71.5-2.39,1.49-3.9,2.55l-.46,1.05c-.22.51-.73,2.44-1.22,2.78a1.43,1.43,0,0,1-.23.13v.17a.85.85,0,0,1-.39.82l.09,0a1,1,0,0,0,.13-.09C25,148.43,36.6,141.55,49,141.12Z" transform="translate(-5.89 -7.88)"/><path class="cls-7" d="M14.83,156.89v0a1,1,0,0,0,1-.13l-.09,0A1.11,1.11,0,0,1,14.83,156.89Z" transform="translate(-5.89 -7.88)"/><path class="cls-7" d="M14,154.84l.23.57,0-.07,1.58-3.58c-.92-10.05-3-22-9.58-29.44.1,1.33.23,2.66.38,4C11.82,134.24,13.28,145.82,14,154.84Z" transform="translate(-5.89 -7.88)"/><path class="cls-7" d="M14.19,155.41c.2.47.41.94.61,1.41a1.2,1.2,0,0,1,.76-.1l.16,0a.85.85,0,0,0,.39-.82v-.17c-.62.27-1.38.08-1-1.1a3.19,3.19,0,0,1,.85-1.18c0-.57-.1-1.14-.15-1.72l-1.58,3.58Z" transform="translate(-5.89 -7.88)"/><path class="cls-7" d="M15.08,154.67c-.36,1.18.4,1.38,1,1.1-.05-.74-.11-1.51-.17-2.28A3.19,3.19,0,0,0,15.08,154.67Z" transform="translate(-5.89 -7.88)"/><path class="cls-7" d="M14.8,156.82l0,.06a1.11,1.11,0,0,0,.9-.13l-.16,0A1.2,1.2,0,0,0,14.8,156.82Z" transform="translate(-5.89 -7.88)"/><path class="cls-6" d="M150,58.8A3.25,3.25,0,0,1,152.86,53c1.23.52,2.19-1.33,1-1.85-6.32-2.68-10.75,6.07-4.79,9.52h0C147.87,60,148.82,58.13,150,58.8Z" transform="translate(-5.89 -7.88)"/><path class="cls-6" d="M145.19,68.32c6.32,2.69,10.75-6.07,4.79-9.52,1.15.67.21,2.52-1,1.85a3.25,3.25,0,0,1-2.88,5.82h0C147.38,67,146.42,68.84,145.19,68.32Z" transform="translate(-5.89 -7.88)"/><path class="cls-6" d="M150,58.8c-1.16-.67-2.11,1.18-1,1.85h0C150.19,61.32,151.14,59.47,150,58.8Z" transform="translate(-5.89 -7.88)"/><path class="cls-6" d="M142.31,74.14a3.25,3.25,0,0,1,2.88-5.82c-1.23-.52-.28-2.36.95-1.85-6.31-2.67-10.73,6.07-4.78,9.52C140.2,75.32,141.15,73.47,142.31,74.14Z" transform="translate(-5.89 -7.88)"/><path class="cls-6" d="M145.19,68.32c1.23.52,2.19-1.33,1-1.85h0C144.92,66,144,67.8,145.19,68.32Z" transform="translate(-5.89 -7.88)"/><path class="cls-6" d="M137.52,83.67c6.32,2.68,10.74-6.07,4.79-9.52,1.16.67.21,2.52-1,1.85a3.25,3.25,0,0,1-2.88,5.82C137.25,81.29,136.28,83.14,137.52,83.67Z" transform="translate(-5.89 -7.88)"/><path class="cls-6" d="M142.31,74.14c-1.16-.67-2.11,1.18-1,1.85S143.47,74.81,142.31,74.14Z" transform="translate(-5.89 -7.88)"/><path class="cls-6" d="M195.25,169.54h0c.68-1.15,2.52-.18,1.84,1a3.26,3.26,0,0,1,5.48-.37q.55-.89,1.09-1.79A5.27,5.27,0,0,0,195.25,169.54Z" transform="translate(-5.89 -7.88)"/><path class="cls-6" d="M195.24,169.54a3.25,3.25,0,0,1-5.79-2.94h0c-.54,1.23-2.37.25-1.84-1-2.74,6.29,6,10.8,9.48,4.88C196.41,171.66,194.57,170.7,195.24,169.54Z" transform="translate(-5.89 -7.88)"/><path class="cls-6" d="M195.25,169.54h0c-.68,1.15,1.16,2.12,1.84,1S195.93,168.39,195.25,169.54Z" transform="translate(-5.89 -7.88)"/><path class="cls-6" d="M189.45,166.6c2.73-6.29-6-10.79-9.48-4.87.68-1.15,2.53-.18,1.84,1a3.25,3.25,0,0,1,5.8,2.93C188.14,164.41,190,165.38,189.45,166.6Z" transform="translate(-5.89 -7.88)"/><path class="cls-6" d="M189.45,166.61h0c.52-1.22-1.31-2.19-1.84-1S188.91,167.84,189.45,166.61Z" transform="translate(-5.89 -7.88)"/><path class="cls-6" d="M180,161.73a3.25,3.25,0,0,1-5.8-2.93c.53-1.22-1.3-2.2-1.84-1-2.74,6.29,6,10.8,9.48,4.88C181.13,163.85,179.29,162.88,180,161.73Z" transform="translate(-5.89 -7.88)"/><path class="cls-6" d="M180,161.73c-.68,1.16,1.16,2.12,1.84,1S180.65,160.58,180,161.73Z" transform="translate(-5.89 -7.88)"/><path class="cls-6" d="M45.39,168.82a3.25,3.25,0,0,1,5.48-3.49c.78,1.08,2.56,0,1.78-1.09-4-5.57-12.33-.36-9,5.67h0C43,168.73,44.74,167.64,45.39,168.82Z" transform="translate(-5.89 -7.88)"/><path class="cls-6" d="M36.36,174.49c4,5.57,12.33.36,9-5.67.64,1.17-1.13,2.27-1.77,1.09a3.25,3.25,0,0,1-5.48,3.49l0,0,0,0C38.92,174.49,37.14,175.57,36.36,174.49Z" transform="translate(-5.89 -7.88)"/><path class="cls-6" d="M45.39,168.82c-.65-1.18-2.42-.08-1.78,1.09h0C44.26,171.08,46,170,45.39,168.82Z" transform="translate(-5.89 -7.88)"/><path class="cls-6" d="M30.89,178a3.25,3.25,0,0,1,5.48-3.49c-.78-1.08,1-2.15,1.76-1.11-4-5.53-12.31-.33-9,5.69C28.47,177.9,30.24,176.8,30.89,178Z" transform="translate(-5.89 -7.88)"/><path class="cls-6" d="M36.36,174.49c.78,1.08,2.56,0,1.77-1.09l0,0C37.33,172.34,35.58,173.41,36.36,174.49Z" transform="translate(-5.89 -7.88)"/><path class="cls-6" d="M30.89,178c.64,1.17-1.13,2.27-1.78,1.09a3.44,3.44,0,0,1,.45,2q.78,1,1.58,1.9A5.25,5.25,0,0,0,30.89,178Z" transform="translate(-5.89 -7.88)"/><path class="cls-6" d="M30.89,178c-.65-1.18-2.42-.08-1.78,1.09S31.53,179.15,30.89,178Z" transform="translate(-5.89 -7.88)"/><path class="cls-6" d="M120,169.39h0c-.22-1.3,1.79-1.75,2-.44a3.21,3.21,0,0,1,6.25-1.5c.38,1.26,2.39.83,2-.44C128.29,160.5,118.84,162.68,120,169.39Z" transform="translate(-5.89 -7.88)"/><path class="cls-6" d="M120,169.39a3.21,3.21,0,0,1-6.25,1.49h0c.38,1.27-1.63,1.71-2,.44,2,6.5,11.41,4.33,10.27-2.38C122.21,170.25,120.2,170.7,120,169.39Z" transform="translate(-5.89 -7.88)"/><path class="cls-6" d="M120,169.39h0c.22,1.31,2.23.86,2-.45S119.76,168.08,120,169.39Z" transform="translate(-5.89 -7.88)"/><path class="cls-6" d="M113.73,170.88c-2-6.49-11.4-4.32-10.27,2.39-.22-1.3,1.79-1.75,2-.44a3.21,3.21,0,0,1,6.25-1.5C111.34,170.06,113.34,169.63,113.73,170.88Z" transform="translate(-5.89 -7.88)"/><path class="cls-6" d="M113.73,170.88h0c-.39-1.25-2.39-.81-2,.45S114.11,172.15,113.73,170.88Z" transform="translate(-5.89 -7.88)"/><path class="cls-6" d="M103.46,173.27a3.21,3.21,0,0,1-6.25,1.5c-.38-1.26-2.39-.83-2,.44,2,6.5,11.41,4.33,10.27-2.38C105.7,174.13,103.69,174.58,103.46,173.27Z" transform="translate(-5.89 -7.88)"/><path class="cls-6" d="M103.46,173.27c.23,1.31,2.23.86,2-.44S103.24,172,103.46,173.27Z" transform="translate(-5.89 -7.88)"/><path class="cls-6" d="M56.63,43.73A3.21,3.21,0,0,1,62,47.27c-.66,1.14,1,2.31,1.7,1.17,3.41-5.87-4.64-11.29-8.76-5.87h0C55.74,41.51,57.44,42.67,56.63,43.73Z" transform="translate(-5.89 -7.88)"/><path class="cls-6" d="M47.88,37.86c-3.41,5.87,4.64,11.29,8.76,5.87-.8,1.05-2.5-.11-1.7-1.16A3.21,3.21,0,0,1,49.57,39h0C48.91,40.17,47.21,39,47.88,37.86Z" transform="translate(-5.89 -7.88)"/><path class="cls-6" d="M56.63,43.73c.8-1.06-.9-2.22-1.7-1.17h0C54.13,43.62,55.83,44.78,56.63,43.73Z" transform="translate(-5.89 -7.88)"/><path class="cls-6" d="M42.52,34.32a3.21,3.21,0,0,1,5.36,3.54c.66-1.14,2.35,0,1.7,1.16A5.27,5.27,0,0,0,46,31q-1.65,1.32-3.26,2.7A.94.94,0,0,1,42.52,34.32Z" transform="translate(-5.89 -7.88)"/><path class="cls-6" d="M47.88,37.86c-.66,1.14,1,2.31,1.7,1.16h0C50.23,37.88,48.54,36.71,47.88,37.86Z" transform="translate(-5.89 -7.88)"/><path class="cls-6" d="M42.52,34.32a1,1,0,0,1-.93.41q-.88.78-1.74,1.58A5.54,5.54,0,0,0,42.52,34.32Z" transform="translate(-5.89 -7.88)"/><path class="cls-6" d="M42.72,33.71l-1.14,1a1,1,0,0,0,.93-.41A.94.94,0,0,0,42.72,33.71Z" transform="translate(-5.89 -7.88)"/><path class="cls-7" d="M80.92,202.32l-9.95.09c-1.33,0-1.58,2.08-.24,2.07l9.95-.09C82,204.38,82.25,202.31,80.92,202.32Z" transform="translate(-5.89 -7.88)"/><path class="cls-7" d="M72.32,194.75l9.29-3.55c1.25-.48.42-2.39-.83-1.91l-9.29,3.55C70.23,193.32,71.07,195.23,72.32,194.75Z" transform="translate(-5.89 -7.88)"/><path class="cls-7" d="M71.15,189.59l9-4.26c1.21-.57.38-2.48-.84-1.91l-9,4.26C69.11,188.26,69.94,190.17,71.15,189.59Z" transform="translate(-5.89 -7.88)"/><path class="cls-7" d="M75.27,177.58,67,183.12c-1.11.74.2,2.36,1.31,1.62l8.27-5.54C77.7,178.46,76.38,176.84,75.27,177.58Z" transform="translate(-5.89 -7.88)"/><path class="cls-7" d="M81.37,195.65l-9.8,1.71a1,1,0,0,0,.3,2.06l9.8-1.71C83,197.48,82.69,195.42,81.37,195.65Z" transform="translate(-5.89 -7.88)"/><path class="cls-7" d="M129.92,58.15,122,64.23c-1,.81,0,2.61,1.06,1.79L131,59.94C132,59.13,131,57.33,129.92,58.15Z" transform="translate(-5.89 -7.88)"/><path class="cls-7" d="M118.49,57.31l5.26-8.44c.71-1.14-1.11-2.15-1.82-1l-5.26,8.44C116,57.43,117.79,58.45,118.49,57.31Z" transform="translate(-5.89 -7.88)"/><path class="cls-7" d="M114.44,53.9,119,45.07c.62-1.19-1.2-2.21-1.82-1l-4.59,8.83C112,54.07,113.82,55.09,114.44,53.9Z" transform="translate(-5.89 -7.88)"/><path class="cls-7" d="M109.25,51.75l3.24-9.4c.44-1.26-1.59-1.76-2-.5l-3.24,9.41C106.79,52.52,108.82,53,109.25,51.75Z" transform="translate(-5.89 -7.88)"/><path class="cls-7" d="M120.95,61.3,127.73,54c.91-1-.57-2.44-1.48-1.46l-6.78,7.28C118.55,60.82,120,62.29,120.95,61.3Z" transform="translate(-5.89 -7.88)"/><path class="cls-7" d="M202.76,153.25c-22.58-11.57-7.76-45,15.71-37.54,0-.51,0-1,0-1.54,0-.2,0-.4,0-.6-10.25-2.74-21.32,1.08-26.49,11.17a22.81,22.81,0,0,0,9.8,30.4,22.31,22.31,0,0,0,7.54,2.24c.27-.6.53-1.2.79-1.8A22.19,22.19,0,0,1,202.76,153.25Z" transform="translate(-5.89 -7.88)"/><path class="cls-7" d="M210.53,121.77c-7.59-.27-12.09,6.49-12.84,13.3-.15,1.35,1.94,1.8,2.09.43.65-5.93,4.23-11.85,10.87-11.61C212,124,211.89,121.82,210.53,121.77Z" transform="translate(-5.89 -7.88)"/><path class="cls-7" d="M216.38,130.58a1.42,1.42,0,0,1-1.83.77,1.15,1.15,0,0,0,1,1.08h.12A1.18,1.18,0,0,0,216.38,130.58Z" transform="translate(-5.89 -7.88)"/><path class="cls-7" d="M214.21,127.69c-2.86,1-1.53,5.14,1.32,4.74a1.15,1.15,0,0,1-1-1.08,1.42,1.42,0,1,1,1.83-.77,1.18,1.18,0,0,1-.73,1.84h-.12a1,1,0,0,0,.64-.18,2.7,2.7,0,0,0,1-1.08q.13-.78.24-1.57A2.25,2.25,0,0,0,214.21,127.69Z" transform="translate(-5.89 -7.88)"/><path class="cls-7" d="M215,130.45l.51-.17a.81.81,0,0,1,.84.29,1.43,1.43,0,1,0-1.83.77A1,1,0,0,1,215,130.45Z" transform="translate(-5.89 -7.88)"/><path class="cls-7" d="M215.59,131.35a1.42,1.42,0,0,0,.79-.77.81.81,0,0,0-.84-.29l-.51.17a1,1,0,0,0-.48.9A1.41,1.41,0,0,0,215.59,131.35Z" transform="translate(-5.89 -7.88)"/><path class="cls-7" d="M207.2,140.83a1.42,1.42,0,0,1,2-.06,1.06,1.06,0,1,0-2,.06Z" transform="translate(-5.89 -7.88)"/><path class="cls-7" d="M208.38,139.35a1.08,1.08,0,0,0-.48,0,1.13,1.13,0,0,1,1.27,1.39,1.43,1.43,0,1,1-2,.06,1.14,1.14,0,0,1,.7-1.45h-.06c-2.87.69-2.63,5.07.49,4.93S211.28,139.83,208.38,139.35Z" transform="translate(-5.89 -7.88)"/><path class="cls-7" d="M208.5,141.41l-.54,0a.91.91,0,0,1-.75-.62,1.43,1.43,0,1,0,2-.06A.86.86,0,0,1,208.5,141.41Z" transform="translate(-5.89 -7.88)"/><path class="cls-7" d="M207.2,140.83a.91.91,0,0,0,.75.62l.54,0a.86.86,0,0,0,.68-.64,1.42,1.42,0,0,0-2,.06Z" transform="translate(-5.89 -7.88)"/><path class="cls-7" d="M208.23,68.57l0-.1c-.27.24-.54.48-.83.7C207.66,69,207.94,68.77,208.23,68.57Z" transform="translate(-5.89 -7.88)"/><path class="cls-7" d="M206.61,80.45l1,1c.47-.16,0,.17-.18.61a2.46,2.46,0,0,0,.57-1,.76.76,0,0,0-1-1,1.29,1.29,0,0,0-.61.68A.64.64,0,0,0,206.61,80.45Z" transform="translate(-5.89 -7.88)"/><path class="cls-7" d="M205,83.47A5.91,5.91,0,0,0,207.43,82c.22-.44.65-.77.18-.61l-1-1a.64.64,0,0,1-.22.28h0c-.14.28-.26.58-.36.76Z" transform="translate(-5.89 -7.88)"/><path class="cls-7" d="M197.86,62.74c0,.3,0,.6,0,.91a10.57,10.57,0,0,1,1-1.26C198.46,62.48,197.69,62.52,197.86,62.74Z" transform="translate(-5.89 -7.88)"/><path class="cls-7" d="M201.44,58.24a14,14,0,0,0-4.76,4.52.77.77,0,0,0,0,.92,1.32,1.32,0,0,0,1.21.42l0-.45c0-.31,0-.61,0-.91-.17-.22.6-.26,1-.35a15.25,15.25,0,0,1,4.29-3.23c-.28-.46-.56-.91-.85-1.36C202,57.94,201.72,58.08,201.44,58.24Z" transform="translate(-5.89 -7.88)"/><path class="cls-7" d="M197,93.86c-.57-.31-1.52.07-2.19.23.4.09.8.16,1.2.22a14.54,14.54,0,0,0,1.45.14A.77.77,0,0,0,197,93.86Z" transform="translate(-5.89 -7.88)"/><path class="cls-7" d="M196.51,95.24l-.47-.78a2.47,2.47,0,0,1-.82,1A3.47,3.47,0,0,1,196.51,95.24Z" transform="translate(-5.89 -7.88)"/><path class="cls-7" d="M192.52,57l.06-.37A15.76,15.76,0,0,1,191.52,58l.87-.25C192.83,57.91,192.45,57.5,192.52,57Z" transform="translate(-5.89 -7.88)"/><path class="cls-7" d="M192.58,56.64a28,28,0,0,1,.72-3.58,22.66,22.66,0,0,1,2-5.12l-.88-1.1a10.15,10.15,0,0,0-1.2,1.93,27.46,27.46,0,0,0-2.07,6.84c-.15,1-.5,2.94.67,3.49a.77.77,0,0,0,.88-.26,14.75,14.75,0,0,0,3.06-4.91c.46-1.35.64-2.78,1-4.16q-.6-.78-1.21-1.56c-.2.8-.34,1.55-.45,2A18,18,0,0,1,192.58,56.64Zm-.19,1.07-.87.25a15.76,15.76,0,0,0,1.06-1.31l-.06.37C192.45,57.5,192.83,57.91,192.39,57.71Z" transform="translate(-5.89 -7.88)"/><path class="cls-7" d="M190.55,75l.26-.24-.37-.08C190.27,74.6,190.65,74.87,190.55,75Z" transform="translate(-5.89 -7.88)"/><path class="cls-7" d="M198.67,71.34c-2,.52-4,.51-6,.94-1.22.27-3.21.78-3.58,2.22-.54,2.07,2.67,1.86,3.86,1.73a35.81,35.81,0,0,0,11.89-3.8,20.5,20.5,0,0,0,3.69-2.34,3.29,3.29,0,0,0,.25-.24l-.59-1.27c-.29.2-.58.41-.87.59.28-.22.56-.45.83-.7l-.59-1.2a27.61,27.61,0,0,1-3.48,2A28.86,28.86,0,0,1,198.67,71.34Zm7.17-1.15a35.78,35.78,0,0,1-11.07,4.22,10.4,10.4,0,0,1-4,.31l-.26.24c.1-.09-.28-.36-.11-.32l.37.08a4.67,4.67,0,0,1,2.14-1c3.25-.74,6.36-.86,9.51-2.14a32,32,0,0,0,4.83-2.41A16.77,16.77,0,0,1,205.84,70.19Z" transform="translate(-5.89 -7.88)"/><path class="cls-7" d="M198.88,62.39a10.57,10.57,0,0,0-1,1.26l0,.45a4.68,4.68,0,0,0,1-.16,18.1,18.1,0,0,0,5.57-2.59c-.26-.46-.53-.91-.8-1.36A21.07,21.07,0,0,1,199,62.36Z" transform="translate(-5.89 -7.88)"/><path class="cls-7" d="M209.77,73.16a8.88,8.88,0,0,1-.84,3.11c-.76,1.33-2.19,1.48-3.74,2a50.79,50.79,0,0,1-17.11,2.63c-1.18,0-3.52-.23-4.22,1.05a1.84,1.84,0,0,0,1,2.43c1.25.68,3,.51,4.39.51,3.24,0,6.52,0,9.75-.32a25.78,25.78,0,0,0,6-1.11l1.05-2c.1-.18.22-.48.36-.76a10.11,10.11,0,0,1-2.56,1.4c-3.85,1.36-8.2,1.14-12.23,1.24-.91,0-5.6.65-6.3-.44-.32-.51,4.54-.51,5.1-.53a49.72,49.72,0,0,0,9.73-1.17c2.76-.6,6.79-1.26,9.08-3a5.51,5.51,0,0,0,1.69-3.06l.09-.35q-.52-1.3-1.07-2.59C209.85,72.61,209.8,72.92,209.77,73.16Z" transform="translate(-5.89 -7.88)"/><path class="cls-7" d="M185.17,47.31a17.76,17.76,0,0,0-1,2.46,10.63,10.63,0,0,1,.8-1.48c.4-.62.86-1,.93-1.75a.7.7,0,0,0-.06-.35,9.59,9.59,0,0,0-.5.85C185.25,47.13,185.21,47.22,185.17,47.31Z" transform="translate(-5.89 -7.88)"/><path class="cls-7" d="M184.11,47a1.82,1.82,0,0,1,.74.13l-.47-.78A1.73,1.73,0,0,1,184.11,47Z" transform="translate(-5.89 -7.88)"/><path class="cls-7" d="M183.4,90.08l-1,.61,1.09.31A2.55,2.55,0,0,1,183.4,90.08Z" transform="translate(-5.89 -7.88)"/><path class="cls-7" d="M182.57,67.66c-.06-.15-.11-.29-.16-.44,0,.14-.11.27-.18.42C182.27,67.55,182.65,67.84,182.57,67.66Z" transform="translate(-5.89 -7.88)"/><path class="cls-7" d="M204,85.34c-.89,1.61-1.8,3.23-2.79,4.79-.51.79-1.26,2.37-2.2,2.72s-2.72-.24-3.67-.42c-1.73-.33-3.44-.74-5.15-1.17q-3.63-.91-7.22-2a.75.75,0,0,0-1,.61c-.28,2.58,2.5,4.74,4.68,5.63a11.41,11.41,0,0,0,4.86.5,27.6,27.6,0,0,0,3.15-.39c.12,0,.34-.08.59-.15h0a2.47,2.47,0,0,0,.82-1l0-.15c-.4-.06-.8-.13-1.2-.22l-.22,0a24.12,24.12,0,0,1-4.72.46c-1.93-.05-5.83-1.26-6.45-3.6l-1.09-.31,1-.61a2.55,2.55,0,0,0,.07.92c2,.58,4,1.11,6,1.61,1.55.4,3.48,1.07,5.38,1.48.67-.16,1.62-.54,2.19-.23a.77.77,0,0,1,.46.59,7.4,7.4,0,0,0,1.58-.12c2.24-.43,3.65-3.88,4.66-5.62.9-1.54,1.76-3.11,2.61-4.69.35-.65.73-1.3,1-2l0,0A5.91,5.91,0,0,1,205,83.47C204.64,84.1,204.3,84.72,204,85.34Z" transform="translate(-5.89 -7.88)"/><path class="cls-7" d="M185.8,46.19a.7.7,0,0,1,.06.35c-.07.76-.53,1.13-.93,1.75a10.63,10.63,0,0,0-.8,1.48,17.76,17.76,0,0,1,1-2.46l-.32-.16a1.82,1.82,0,0,0-.74-.13c-.29.47-.75,1-.94,1.34a18.58,18.58,0,0,0-1.5,3.87,40.43,40.43,0,0,0-1.33,11.11c0,1.18-.09,5.64,2,5.78.94.06,1.53-1,1.77-1.75,1-2.83-.29-6.16-.13-9.07a26.91,26.91,0,0,1,2.5-10.24A4.15,4.15,0,0,1,190,45.29a20.6,20.6,0,0,1,2.93-.23q-.63-.74-1.28-1.46a18.11,18.11,0,0,0-2.52.32A4.8,4.8,0,0,0,185.8,46.19Zm-3,9.09a25.43,25.43,0,0,0-.34,4.93c0,1.76.49,3.5.41,5.26a4.3,4.3,0,0,1-.45,1.75c0,.15.1.29.16.44s-.3-.11-.34,0c.07-.15.13-.28.18-.42a13,13,0,0,1-.58-4.67,35.84,35.84,0,0,1,1.68-11.22c.18-.51.38-1,.61-1.53A31.06,31.06,0,0,0,182.79,55.28Z" transform="translate(-5.89 -7.88)"/><path class="cls-7" d="M174.77,85.33A23.74,23.74,0,0,0,173.43,88a19.59,19.59,0,0,0,2.41-1.69Z" transform="translate(-5.89 -7.88)"/><path class="cls-7" d="M196,94.46l.47.78a3.47,3.47,0,0,0-1.29.25h0c-.75.66-1.76,1.38-2.13,1.65A15.45,15.45,0,0,1,190,99a13,13,0,0,1-4.71,1.16,16.86,16.86,0,0,1-8.31-2c-3.23-1.59-3.82-4-2.94-7.31A19.08,19.08,0,0,1,176,86.22c.4-.69-.36-1.6-1.06-1l-.15.12h0l1.07,1A19.59,19.59,0,0,1,173.43,88a17.15,17.15,0,0,0-1.14,4.13c-.46,3.47.92,5.68,4,7.21a17.75,17.75,0,0,0,10.51,2.1,15.24,15.24,0,0,0,6-2.29c1.33-.85,4.55-2.84,4.79-4.56a.4.4,0,0,0,0-.19,14.54,14.54,0,0,1-1.45-.14Z" transform="translate(-5.89 -7.88)"/><path class="cls-7" d="M172.14,52.43l1.05.76c.17-.09.14,0,.06.06a1.13,1.13,0,0,0,.38-.65.76.76,0,0,0-1-.77,2.32,2.32,0,0,0-.45.32S172.16,52.28,172.14,52.43Z" transform="translate(-5.89 -7.88)"/><path class="cls-7" d="M170.88,55.32a19.61,19.61,0,0,0-.12,3,58.52,58.52,0,0,0,1.61,10.34,25.09,25.09,0,0,0,1.51,5.87,2.46,2.46,0,0,0,1.82,1.59c2.2.23,1.81-2.45,1.54-3.8A65.64,65.64,0,0,1,175.49,58c0-2.23-.22-6.28,1-7.8a6.39,6.39,0,0,1,2.23-1.46c1.1-.5,3.76-1.74,5.35-1.74a1.73,1.73,0,0,0,.27-.65l.47.78.32.16c0-.09.08-.18.13-.27a9.59,9.59,0,0,1,.5-.85.68.68,0,0,0-.41-.42c-1.95-.89-6.38,1.08-8.2,2.12a5.2,5.2,0,0,0-2.38,2.28c-1.13,2.67-.85,6.7-.81,9.56a51.41,51.41,0,0,0,1.08,9.9c.12.6,1.21,5.15.6,4.94-1.23-.41-1.64-5.15-1.83-6.12-.81-3.92-2-8-1.55-12.09a16.21,16.21,0,0,1,.66-2.68,1.16,1.16,0,0,1,.21-.35c-.24.22-.52.42-.7.58Z" transform="translate(-5.89 -7.88)"/><path class="cls-7" d="M172.47,53.91c.18-.16.46-.36.7-.58l0,0s0,0,0,0,.11-.15-.06-.06l-1.05-.76c0-.15,0-.24,0-.28a5.22,5.22,0,0,0-1.25,3.17Z" transform="translate(-5.89 -7.88)"/><path class="cls-7" d="M169.14,78.07a1.9,1.9,0,0,1-.85.1l.48.88C168.89,78.73,169,78.4,169.14,78.07Z" transform="translate(-5.89 -7.88)"/><path class="cls-7" d="M169.61,193.93c-1.29-3.28-1.15-7.37,2.42-9.08,1.21-.58.17-2.39-1-1.81-4.39,2.1-5,7.31-3.41,11.42C168.08,195.69,170.1,195.18,169.61,193.93Z" transform="translate(-5.89 -7.88)"/><path class="cls-8" d="M173.68,200.89a106.82,106.82,0,0,0,13.92-11.81,10.42,10.42,0,0,0-1.61-5.24c-7.4-12.1-26.85-.06-20.27,12.37A10.46,10.46,0,0,0,173.68,200.89ZM171,183c1.2-.58,2.24,1.23,1,1.81-3.57,1.71-3.71,5.8-2.42,9.08.49,1.25-1.53,1.76-2,.53C166,190.35,166.61,185.14,171,183Z" transform="translate(-5.89 -7.88)"/><path class="cls-7" d="M165.72,196.22c-.69-1-2.26-.24-1.95.74,0,0,0,0,0,0l.14.28.17.24,0,0A1.06,1.06,0,0,0,165.72,196.22Z" transform="translate(-5.89 -7.88)"/><path class="cls-7" d="M163.77,197c-.31-1,1.26-1.74,1.95-.74-6.58-12.43,12.87-24.47,20.27-12.37a10.42,10.42,0,0,1,1.61,5.24q1-1,1.91-2a13.29,13.29,0,0,0-1.71-4.3C179.06,168.46,156.39,182.3,163.77,197Z" transform="translate(-5.89 -7.88)"/><path class="cls-7" d="M165.72,196.22a1.06,1.06,0,0,1-1.62,1.29,12.58,12.58,0,0,0,7.24,5q1.19-.79,2.35-1.62A10.46,10.46,0,0,1,165.72,196.22Z" transform="translate(-5.89 -7.88)"/><path class="cls-7" d="M162.39,66.52a.59.59,0,0,0-.23-.19c.2.52.43,1,.68,1.56A2.33,2.33,0,0,0,162.39,66.52Z" transform="translate(-5.89 -7.88)"/><path class="cls-7" d="M162.12,67.67l-.11,0-.06.09Z" transform="translate(-5.89 -7.88)"/><path class="cls-7" d="M162.06,67.56a.36.36,0,0,0-.05.08l.11,0-.17.06c-.19.28-.37.56-.54.85,0,.39,0,.76,0,1a24.47,24.47,0,0,0,.4,3,9.42,9.42,0,0,0,1.76,4.1c1.46,1.74,3.83,3.65,6.2,2.83a.76.76,0,0,0,.38-1c-1.17-2.09-2.29-4.21-3.38-6.34-.81-1.59-1.6-3.19-2.33-4.82-.45-1-1.48-2.68-1.39-3.83.08-1,1.4-2.06,2-2.72,1.26-1.31,2.61-2.55,4-3.77l1.85-1.64a5.22,5.22,0,0,1,1.25-3.17c0-.12-.26.29-.6.6L170,54.08c-1.41,1.25-2.81,2.5-4.16,3.79s-4.39,3.5-4.32,5.71a8.93,8.93,0,0,0,.62,2.75.59.59,0,0,1,.23.19,2.33,2.33,0,0,1,.45,1.37c-.25-.52-.48-1-.68-1.56a.82.82,0,0,0-.65,0l-.22.09A.77.77,0,0,1,162.06,67.56Zm3.1,4.69c1,2,2,4,3.13,5.92a1.9,1.9,0,0,0,.85-.1c-.12.33-.25.66-.37,1l-.48-.88c-2-.14-4.1-2.91-4.65-4.48a17.11,17.11,0,0,1-.77-4.38c0-.46,0-.94,0-1.41C163.59,69.46,164.51,71,165.16,72.25Z" transform="translate(-5.89 -7.88)"/><path class="cls-7" d="M161.76,67.8a.73.73,0,0,1-.38.05,5.65,5.65,0,0,1,0,.73c.17-.29.35-.57.54-.85Z" transform="translate(-5.89 -7.88)"/><path class="cls-8" d="M176.53,50.22c-1.26,1.52-1,5.57-1,7.8a65.64,65.64,0,0,0,1.75,14.31c.27,1.35.66,4-1.54,3.8a2.46,2.46,0,0,1-1.82-1.59,25.09,25.09,0,0,1-1.51-5.87,58.52,58.52,0,0,1-1.61-10.34,19.61,19.61,0,0,1,.12-3L169,57c-1.35,1.22-2.7,2.46-4,3.77-.64.66-2,1.74-2,2.72-.09,1.15.94,2.82,1.39,3.83.73,1.63,1.52,3.23,2.33,4.82,1.09,2.13,2.21,4.25,3.38,6.34a.76.76,0,0,1-.38,1c-2.37.82-4.74-1.09-6.2-2.83a9.42,9.42,0,0,1-1.76-4.1,24.47,24.47,0,0,1-.4-3c0-.2,0-.57,0-1-2,3.2-3.25,6.8-2.4,10.59a17,17,0,0,0,3.93,7.06c2.19,2.57,4.57,2.88,7.64,1.57a19,19,0,0,0,4.18-2.48l.15-.12c.7-.58,1.46.33,1.06,1a19.08,19.08,0,0,0-1.88,4.58c-.88,3.34-.29,5.72,2.94,7.31a16.86,16.86,0,0,0,8.31,2A13,13,0,0,0,190,99a15.45,15.45,0,0,0,3-1.82c.37-.27,1.38-1,2.13-1.65-.25.07-.47.13-.59.15a27.6,27.6,0,0,1-3.15.39,11.41,11.41,0,0,1-4.86-.5c-2.18-.89-5-3.05-4.68-5.63a.75.75,0,0,1,1-.61q3.59,1.05,7.22,2c1.71.43,3.42.84,5.15,1.17,1,.18,2.71.76,3.67.42s1.69-1.93,2.2-2.72c1-1.56,1.9-3.18,2.79-4.79.34-.62.68-1.24,1-1.87a25.78,25.78,0,0,1-6,1.11c-3.23.28-6.51.31-9.75.32-1.35,0-3.14.17-4.39-.51a1.84,1.84,0,0,1-1-2.43c.7-1.28,3-1.06,4.22-1.05a50.79,50.79,0,0,0,17.11-2.63c1.55-.53,3-.68,3.74-2a8.88,8.88,0,0,0,.84-3.11c0-.24.08-.54.14-.88q-.52-1.22-1.08-2.43a3.29,3.29,0,0,1-.25.24,20.5,20.5,0,0,1-3.69,2.34A35.81,35.81,0,0,1,193,76.23c-1.19.13-4.4.34-3.86-1.73.37-1.44,2.36-2,3.58-2.22,2-.43,4-.42,6-.94a28.86,28.86,0,0,0,5.45-2.11,27.61,27.61,0,0,0,3.48-2q-1.49-3-3.15-5.92a18.1,18.1,0,0,1-5.57,2.59,4.68,4.68,0,0,1-1,.16,1.32,1.32,0,0,1-1.21-.42.77.77,0,0,1,0-.92,14,14,0,0,1,4.76-4.52c.29-.16.58-.3.88-.44q-2.6-4.15-5.56-8c-.34,1.38-.51,2.82-1,4.16a14.75,14.75,0,0,1-3.06,4.91.77.77,0,0,1-.88.26c-1.17-.55-.82-2.54-.67-3.49a27.46,27.46,0,0,1,2.07-6.84,10.15,10.15,0,0,1,1.2-1.93q-.74-.9-1.5-1.78a20.6,20.6,0,0,0-2.93.23,4.15,4.15,0,0,0-3.57,2.77,26.91,26.91,0,0,0-2.5,10.24c-.16,2.91,1.09,6.24.13,9.07-.24.74-.83,1.81-1.77,1.75-2.06-.14-2-4.6-2-5.78a40.43,40.43,0,0,1,1.33-11.11,18.58,18.58,0,0,1,1.5-3.87c.19-.36.65-.87.94-1.34-1.59,0-4.25,1.24-5.35,1.74A6.39,6.39,0,0,0,176.53,50.22Z" transform="translate(-5.89 -7.88)"/><path class="cls-7" d="M161.38,67.85a.93.93,0,0,0-.15-.4l.78.19a.36.36,0,0,1,.05-.08.77.77,0,0,0-.77-1.17.48.48,0,0,0-.27.12l0,0-.12.14a1.8,1.8,0,0,0-.11.18h0A.81.81,0,0,0,161.38,67.85Z" transform="translate(-5.89 -7.88)"/><path class="cls-7" d="M161.76,67.8l.19-.07.06-.09-.78-.19a.93.93,0,0,1,.15.4A.73.73,0,0,0,161.76,67.8Z" transform="translate(-5.89 -7.88)"/><path class="cls-7" d="M161.15,66.44l-.13.07a.48.48,0,0,1,.27-.12Z" transform="translate(-5.89 -7.88)"/><path class="cls-7" d="M161,66.54a.49.49,0,0,0-.23.32,1.8,1.8,0,0,1,.11-.18Z" transform="translate(-5.89 -7.88)"/><path class="cls-7" d="M174.76,85.32a19,19,0,0,1-4.18,2.48c-3.07,1.31-5.45,1-7.64-1.57A17,17,0,0,1,159,79.17c-.85-3.79.45-7.39,2.4-10.59a5.65,5.65,0,0,0,0-.73.81.81,0,0,1-.64-1c-2.34,3.56-4.06,7.64-3.31,12a18.12,18.12,0,0,0,4.68,8.71c3.21,3.65,7.63,2.74,11.32.51a23.74,23.74,0,0,1,1.34-2.72Z" transform="translate(-5.89 -7.88)"/><path class="cls-7" d="M102.23,12a1.06,1.06,0,0,0,2.07,0c0-.1,0-.2,0-.3l-.06-.24C103.87,10.42,102.09,10.8,102.23,12Z" transform="translate(-5.89 -7.88)"/><path class="cls-7" d="M97.24,19l-8.7-4.84c-1.16-.64-2.38,1-1.21,1.69q4.34,2.43,8.69,4.84C97.18,21.32,98.41,19.64,97.24,19Z" transform="translate(-5.89 -7.88)"/><path class="cls-7" d="M83.43,13.44,83,13.13a.81.81,0,0,0-.88,0,1.37,1.37,0,0,0,.51,1,1.35,1.35,0,0,0,1,.31A.94.94,0,0,0,83.43,13.44Z" transform="translate(-5.89 -7.88)"/><path class="cls-7" d="M82.12,13.15a.81.81,0,0,1,.88,0l.43.31a.94.94,0,0,1,.17,1,1.35,1.35,0,0,0,1-.5,1.39,1.39,0,0,0-.19-2,1.36,1.36,0,0,0-.48-.26l-1.42.4-.06,0A1.41,1.41,0,0,0,82.12,13.15Z" transform="translate(-5.89 -7.88)"/><path class="cls-7" d="M83.6,14.41a1.35,1.35,0,0,1-1-.31,1.37,1.37,0,0,1-.51-1,1.15,1.15,0,0,0,.13,1.92l.07,0,0,0A1.12,1.12,0,0,0,83.6,14.41Z" transform="translate(-5.89 -7.88)"/><path class="cls-8" d="M85.24,11.33c1.9,1.85-.43,5-2.87,3.79l0,0-.07,0a.83.83,0,0,1-.42-.3,2.6,2.6,0,0,1-.52-2.33,105.59,105.59,0,0,0-18.18,7.42C68.42,43.62,104.91,37,102.23,12a23.5,23.5,0,0,0-1.09-3.59A105.84,105.84,0,0,0,85.24,11.33Zm-4,5.95L76.41,26c-.65,1.17-2.33-.05-1.69-1.21l4.83-8.7C80.2,14.9,81.89,16.13,81.24,17.28ZM96,20.68q-4.35-2.41-8.69-4.84c-1.17-.65,0-2.33,1.21-1.69L97.24,19C98.41,19.64,97.18,21.32,96,20.68Z" transform="translate(-5.89 -7.88)"/><path class="cls-7" d="M82.12,13.15a1.41,1.41,0,0,1,.31-1l.06,0-1.18.35a2.6,2.6,0,0,0,.52,2.33.83.83,0,0,0,.42.3A1.15,1.15,0,0,1,82.12,13.15Z" transform="translate(-5.89 -7.88)"/><path class="cls-7" d="M84.39,11.95a1.39,1.39,0,0,1,.19,2,1.35,1.35,0,0,1-1,.5,1.12,1.12,0,0,1-1.23.71c2.44,1.16,4.77-1.94,2.87-3.79l-1.33.36A1.36,1.36,0,0,1,84.39,11.95Z" transform="translate(-5.89 -7.88)"/><path class="cls-7" d="M79.55,16.07l-4.83,8.7c-.64,1.16,1,2.38,1.69,1.21l4.83-8.7C81.89,16.13,80.2,14.9,79.55,16.07Z" transform="translate(-5.89 -7.88)"/><path class="cls-7" d="M84.93,37.11C97.7,35.7,105.49,24.26,104.3,12a1.06,1.06,0,0,1-2.07,0c2.69,24.93-33.8,31.58-39.1,7.82l-1.88,1A22.24,22.24,0,0,0,84.93,37.11Z" transform="translate(-5.89 -7.88)"/><path class="cls-7" d="M102.23,12c-.14-1.24,1.64-1.62,2-.58a25.44,25.44,0,0,0-1-3.2l-2.12.19A23.5,23.5,0,0,1,102.23,12Z" transform="translate(-5.89 -7.88)"/><path class="cls-7" d="M61.33,87.85c-1.18-.23-1.78,1.36-.91,1.87l.05,0,.28.1.34.06h0A1.06,1.06,0,0,0,61.33,87.85Z" transform="translate(-5.89 -7.88)"/><path class="cls-7" d="M62.53,83.49c-3.21-1.45-6-4.49-4.59-8.2.47-1.26-1.54-1.83-2-.58-1.68,4.56,1.49,8.74,5.51,10.57C62.66,85.83,63.75,84,62.53,83.49Z" transform="translate(-5.89 -7.88)"/><path class="cls-8" d="M67.26,64.85c-13.73-3.53-19.31,18.66-5.93,23C75.13,90.59,81,68.38,67.26,64.85ZM61.45,85.28c-4-1.83-7.19-6-5.51-10.57.46-1.25,2.47-.68,2,.58C56.57,79,59.32,82,62.53,83.49,63.75,84,62.66,85.83,61.45,85.28Z" transform="translate(-5.89 -7.88)"/><path class="cls-7" d="M67.84,62.85c-16.25-4.2-22.9,21.48-7.42,26.87-.87-.51-.27-2.1.91-1.87-13.38-4.34-7.8-26.53,5.93-23s7.87,25.74-5.93,23a1.06,1.06,0,0,1-.23,2C77.22,92.72,84.09,67.06,67.84,62.85Z" transform="translate(-5.89 -7.88)"/><path class="cls-7" d="M45.34,181.95a1.74,1.74,0,0,1,.27.1l-.11-.23Z" transform="translate(-5.89 -7.88)"/><path class="cls-7" d="M45.35,181l.17.36a.59.59,0,0,0-.09-.5l-.05-.06-.26-.09s0,0,0,0A.7.7,0,0,1,45.35,181Z" transform="translate(-5.89 -7.88)"/><path class="cls-7" d="M45.77,182.33c-.27-.08-.53-.19-.8-.27a1,1,0,0,0-.46.22L55.4,204l1.77,1.1Z" transform="translate(-5.89 -7.88)"/><path class="cls-7" d="M45.15,181.1a.4.4,0,0,0-.52-.23.65.65,0,0,0-.1.5.57.57,0,0,0,.4.44l0,0H45a.65.65,0,0,0,.37-.2Z" transform="translate(-5.89 -7.88)"/><path class="cls-8" d="M61.37,200.3c-1.52-8.55-6.82-14.69-15.3-17.85l11.48,22.92q2.23,1.34,4.53,2.57A53.62,53.62,0,0,0,61.37,200.3Z" transform="translate(-5.89 -7.88)"/><path class="cls-8" d="M44.34,182.45l-.19.23c-1.54,2.41-.45,10.35.17,13.3A106.75,106.75,0,0,0,55,203.82Z" transform="translate(-5.89 -7.88)"/><path class="cls-7" d="M44.31,181.42a.81.81,0,0,1,0-.35.55.55,0,0,0-.09.65l.18.37a1.89,1.89,0,0,1,.25-.17A.79.79,0,0,1,44.31,181.42Z" transform="translate(-5.89 -7.88)"/><path class="cls-7" d="M62.8,200.85c-1.46-9.69-7.35-16.57-17.09-19.93a.83.83,0,0,1,0,.62.46.46,0,0,1,0,.07l.27.55c8.69,3.17,14.1,9.39,15.64,18.1a49.58,49.58,0,0,1,.73,7.8l1.08.57A51.22,51.22,0,0,0,62.8,200.85Z" transform="translate(-5.89 -7.88)"/><path class="cls-7" d="M44,182.57a1.9,1.9,0,0,1,.27-.33L44,181.8a.76.76,0,0,1,0-.8,3.23,3.23,0,0,0-1.45,1.49c-1.4,2.68-.83,7.82.18,12.22l1.23,1C43.41,192.56,42.44,185,44,182.57Z" transform="translate(-5.89 -7.88)"/><path class="cls-7" d="M63,200.82a26,26,0,0,0-.64-3.14c-2.21-8.22-8-14.08-16.89-17.07-.21,0-.14,0-.29,0a1.11,1.11,0,0,0-.56,0,3.26,3.26,0,0,0-2.19,1.82c-1.38,2.67-.87,7.72.1,12.1l.27.23c-1-4.39-1.58-9.54-.18-12.22A3.23,3.23,0,0,1,44.08,181a.76.76,0,0,0,0,.8l.21.44a1.9,1.9,0,0,0-.27.33c-1.52,2.39-.56,10,.07,13.18l.27.23c-.62-3-1.71-10.89-.17-13.3l.19-.23L55,203.82l.36.23-10.9-21.77a1,1,0,0,1,.46-.22c.27.08.53.19.8.27l11.41,22.82.37.22L46.07,182.45c8.48,3.16,13.78,9.3,15.3,17.85a53.62,53.62,0,0,1,.71,7.64l.22.12a49.58,49.58,0,0,0-.73-7.8c-1.54-8.71-7-14.93-15.64-18.1l-.27-.55a.46.46,0,0,0,0-.07.83.83,0,0,0,0-.62c9.74,3.36,15.63,10.24,17.09,19.93a51.22,51.22,0,0,1,.58,7.78l.22.12A49.27,49.27,0,0,0,63,200.82ZM45.12,180.71l.26.09.05.06a.59.59,0,0,1,.09.5l-.17-.36a.7.7,0,0,0-.27-.29S45.11,180.72,45.12,180.71Zm-.71,1.38-.18-.37a.55.55,0,0,1,.09-.65.81.81,0,0,0,0,.35.79.79,0,0,0,.35.5A1.89,1.89,0,0,0,44.41,182.09Zm.57-.26,0,0a.57.57,0,0,1-.4-.44.65.65,0,0,1,.1-.5.4.4,0,0,1,.52.23l.26.52a.65.65,0,0,1-.37.2Zm.36.12.16-.13.11.23A1.74,1.74,0,0,0,45.34,181.95Z" transform="translate(-5.89 -7.88)"/><path class="cls-7" d="M44.32,68.34a2,2,0,0,1,.14-.25s0,0,0,0a.77.77,0,0,1-.34.22l-.4.11a.62.62,0,0,0,.52,0Z" transform="translate(-5.89 -7.88)"/><path class="cls-7" d="M44.39,67.56a.67.67,0,0,0-.49-.19.61.61,0,0,0-.52.33s0,0,0,.05v.06a.68.68,0,0,0,.14.41l.57-.17A.42.42,0,0,0,44.39,67.56Z" transform="translate(-5.89 -7.88)"/><path class="cls-7" d="M44.24,67.21A.59.59,0,0,0,43.6,67l-.41.12a1.53,1.53,0,0,1,.12.29.85.85,0,0,1,.57-.27A.93.93,0,0,1,44.24,67.21Z" transform="translate(-5.89 -7.88)"/><path class="cls-7" d="M43,68.36l.26-.07a.93.93,0,0,1-.11-.19A1.66,1.66,0,0,1,43,68.36Z" transform="translate(-5.89 -7.88)"/><path class="cls-7" d="M43,67.19,14.68,75.69a.44.44,0,0,0-.31.6.59.59,0,0,0,.76.44l27.57-8.26c.14-.26.29-.51.42-.77A1,1,0,0,0,43,67.19Z" transform="translate(-5.89 -7.88)"/><path class="cls-7" d="M16.86,68.42a27.33,27.33,0,0,1,11.19-4c1.78-.22,12.2-.11,14.73,2.2a1.92,1.92,0,0,1,.29.33l.48-.14a.81.81,0,0,1,.81.19,3.35,3.35,0,0,0-1.26-1.74c-2.83-2.17-9.41-2.3-14.42-1.85a31.64,31.64,0,0,0-5.69.93,28.77,28.77,0,0,0-6.12,2.79q-.47.95-.92,1.91Z" transform="translate(-5.89 -7.88)"/><path class="cls-7" d="M20.79,82.54C30.93,82.77,39,78,44.14,68.66a.86.86,0,0,1-.63-.12l-.07-.05-.6.18C38.07,77,30.77,81.37,21.61,81.39a45.57,45.57,0,0,1-10.2-1.1c-.12.36-.23.72-.35,1.07A47.12,47.12,0,0,0,20.79,82.54Z" transform="translate(-5.89 -7.88)"/><path class="cls-7" d="M24.1,82.66c8.77-.79,15.77-5.65,20.4-14.18.08-.21.08-.14.11-.29a1.2,1.2,0,0,0,.1-.57,3.39,3.39,0,0,0-1.46-2.56c-4.34-3.3-17.09-2-20.34-1A28.9,28.9,0,0,0,17,66.75l-.18.37A28.77,28.77,0,0,1,23,64.32a31.64,31.64,0,0,1,5.69-.93c5-.45,11.59-.33,14.42,1.85A3.35,3.35,0,0,1,44.35,67a.81.81,0,0,0-.81-.19l-.48.14a1.92,1.92,0,0,0-.29-.33c-2.53-2.31-13-2.42-14.73-2.2a27.33,27.33,0,0,0-11.19,4l-.92.6-.19.4,1.23-.8a26.9,26.9,0,0,1,11.09-4h.16c2.15-.19,12-.06,14.39,2.15a2.48,2.48,0,0,1,.2.23L14.61,75.47a.67.67,0,0,0-.46.89A.86.86,0,0,0,15,77l.18,0,27.32-8.21C37.8,76.84,30.6,81.15,21.61,81.17a47.84,47.84,0,0,1-10.13-1.1l-.07.21a45.57,45.57,0,0,0,10.2,1.1c9.15,0,16.46-4.43,21.23-12.74l.6-.18.07.05a.86.86,0,0,0,.63.12C39,78,30.93,82.77,20.79,82.54a47.12,47.12,0,0,1-9.73-1.18l-.07.21a46.38,46.38,0,0,0,9.8,1.19A26.54,26.54,0,0,0,24.1,82.66Zm18.59-14.2L15.13,76.73a.59.59,0,0,1-.76-.44.44.44,0,0,1,.31-.6L43,67.19a1,1,0,0,1,.15.5C43,68,42.83,68.21,42.69,68.47Zm.32-.11a1.66,1.66,0,0,0,.15-.26.93.93,0,0,0,.11.19Zm.18-1.23L43.6,67a.59.59,0,0,1,.64.21.93.93,0,0,0-.36-.07.85.85,0,0,0-.57.27A1.53,1.53,0,0,0,43.19,67.13Zm.3,1.1a.68.68,0,0,1-.14-.41v-.06s0,0,0-.05a.61.61,0,0,1,.52-.33.67.67,0,0,1,.49.19.42.42,0,0,1-.33.49Zm.25.16.4-.11a.77.77,0,0,0,.34-.22s0,0,0,0a2,2,0,0,0-.14.25l-.07,0A.62.62,0,0,1,43.73,68.38Z" transform="translate(-5.89 -7.88)"/><path class="cls-7" d="M140.08,22.79c-4.83,2.82-7.74,7.07-4.5,12.29,3.8,6.13,11,6.38,16.46,2.2,5.59-4.3,10.68-9.11,16.35-13.35l-2-1.2q-2.37,1.68-4.69,3.42c-4.3,3.23-8.38,8.59-13.21,10.88-4.47,2.13-11.74.31-12.35-5.58-.41-3.95,3.79-6.43,6.86-7.84,6.17-2.85,13.15-3.45,19.94-2.86q-2.18-1.19-4.43-2.28C152.07,18.43,145.61,19.57,140.08,22.79Z" transform="translate(-5.89 -7.88)"/><path class="cls-7" d="M146.72,24.71c-3.18,0-6.53,1-8.58,3.49-.85,1,.9,2.18,1.74,1.15,1.55-1.91,4.35-2.6,6.73-2.57C147.95,26.81,148.07,24.73,146.72,24.71Z" transform="translate(-5.89 -7.88)"/><path class="cls-7" d="M160.64,137.69c0-.77,0-1.54-.09-2.31-2-1.8-4-3.58-6-5.31-4.12-3.46-10.25-6.24-13.57-10.43-3.07-3.87-2.94-11.37,2.67-13.29,3.75-1.29,7.11,2.25,9.18,4.92,5.26,6.78,7.31,15.64,7.76,24.11.64.58,1.29,1.16,1.92,1.75a1,1,0,0,1,.22.3c-.27-10.16-2.57-21.54-9.77-29.2-3.83-4.07-8.63-6-13-1.63-5.12,5.07-3.74,12.18,1.55,16.53,6.37,5.25,13.27,9.65,19.39,15.34a1.07,1.07,0,0,0,.69.29A1.11,1.11,0,0,1,160.64,137.69Z" transform="translate(-5.89 -7.88)"/><path class="cls-7" d="M162.69,137.43c0,.16,0,.32,0,.47a.93.93,0,0,1-.05.28A.78.78,0,0,0,162.69,137.43Z" transform="translate(-5.89 -7.88)"/><path class="cls-7" d="M161.56,138.76a.87.87,0,0,0,1.09-.58A1.22,1.22,0,0,1,161.56,138.76Z" transform="translate(-5.89 -7.88)"/><path class="cls-7" d="M162.69,137.43a1,1,0,0,0-.22-.3c-.63-.59-1.28-1.16-1.92-1.75,0,.77.08,1.55.09,2.31a1.11,1.11,0,0,0,.92,1.07,1.22,1.22,0,0,0,1.09-.58.93.93,0,0,0,.05-.28C162.71,137.74,162.7,137.59,162.69,137.43Z" transform="translate(-5.89 -7.88)"/><path class="cls-7" d="M147.22,107.55c-1.2-.59-1.92,1.36-.73,2,2.2,1.08,3.51,3.66,4,6,.28,1.31,2.33,1,2.05-.35C151.87,112,150.14,109,147.22,107.55Z" transform="translate(-5.89 -7.88)"/><path class="cls-9" d="M175.89,29.07" transform="translate(-5.89 -7.88)"/><path class="cls-9" d="M174.77,28.25" transform="translate(-5.89 -7.88)"/><path class="cls-9" d="M14.79,156.88l.05,0v0Z" transform="translate(-5.89 -7.88)"/><path class="cls-9" d="M217.37,129.6q-.11.79-.24,1.57A2.74,2.74,0,0,0,217.37,129.6Z" transform="translate(-5.89 -7.88)"/></g></svg>