<svg xmlns="http://www.w3.org/2000/svg" viewBox="0 0 212.6 212.69"><defs><style>.cls-1{fill:#ede64c;}.cls-2{fill:#f4c4b1;}.cls-3{fill:#231f20;}.cls-4,.cls-5{fill:none;}.cls-4{stroke:#000;stroke-linecap:round;stroke-linejoin:round;stroke-width:2.18px;}.cls-6{fill:#51c1b1;}.cls-7{fill:#fff;}.cls-8{fill:#3aaf3a;}</style></defs><title>medusà</title><g id="sfondo"><circle class="cls-1" cx="106.3" cy="106.39" r="106.3"/></g><g id="medusa"><path class="cls-2" d="M146.66,80.88a132.56,132.56,0,0,1,1.77,22.93c-1.46,7.07-33.27,6.94-33.27,6.94H114s-31.8.13-33.27-6.94a132.12,132.12,0,0,1,1.76-22.93A31.64,31.64,0,0,1,87,69.51a32.24,32.24,0,0,1,10-10,43.59,43.59,0,0,1,17.49-3.8h.3a43.54,43.54,0,0,1,17.48,3.8,32.18,32.18,0,0,1,10,10A31.5,31.5,0,0,1,146.66,80.88Zm-9,5.51c1,.94,2.59-.6,1.54-1.54-6.37-5.73-15-3-20.7,2.2-1,.94.5,2.49,1.54,1.54C124.76,84.28,132.2,81.52,137.63,86.39ZM126.92,99.19l-25.4.47S114.1,106.18,126.92,99.19ZM108.38,88.6c1,.94,2.58-.6,1.54-1.54-5.68-5.16-14.32-7.93-20.7-2.2-1,.94.5,2.48,1.54,1.54C96.21,81.52,103.64,84.28,108.38,88.6Z" transform="translate(-8.3 -8.18)"/><path class="cls-2" d="M140.63,173.47l0,0a1.25,1.25,0,0,1-2-.91c-.17-2.63-.79-11.41-1.87-14.22l-10.08-32c-.51-1.46-1.09-2.89-1.72-4.31-1.26-2.81-3.44-8.17-3.32-11.37l4.75-.12s9.22,34.14,11.44,39.58l.37,1.18a53.9,53.9,0,0,1,2.37,13.44l.39,8.08A.83.83,0,0,1,140.63,173.47Z" transform="translate(-8.3 -8.18)"/><path class="cls-3" d="M137.63,86.39c-5.43-4.87-12.87-2.11-17.61,2.2-1,.94-2.58-.6-1.54-1.54,5.68-5.17,14.32-7.93,20.7-2.2C140.22,85.8,138.68,87.33,137.63,86.39Z" transform="translate(-8.3 -8.18)"/><path class="cls-2" d="M101.52,99.65l25.4-.47C114.1,106.18,101.52,99.65,101.52,99.65Z" transform="translate(-8.3 -8.18)"/><path class="cls-2" d="M117.26,110.75l-1.79,13.94a34.3,34.3,0,0,0-.29,4.65l.1,19.13s-.77,12.44-4.19,17c0,0-2.09,1.1-1.76-1.21,0,0,2.64-6.61,2.31-12l-1.08-19.86a23.76,23.76,0,0,1,0-2.78l1.11-18.83Z" transform="translate(-8.3 -8.18)"/><path class="cls-2" d="M100.88,110.48l4.87.32s-5.22,21.77-8.27,27.11a41.3,41.3,0,0,0-3.8,12.68l-.41,2.72a1.4,1.4,0,0,1-.89,1.16,1,1,0,0,1-1-.2,1.45,1.45,0,0,1-.45-1.32l1.21-8.18a17.24,17.24,0,0,1,1-3.7C94.93,136.18,102,112,100.88,110.48Z" transform="translate(-8.3 -8.18)"/><path class="cls-3" d="M89.23,84.85c6.38-5.73,15-3,20.7,2.2,1,.94-.5,2.49-1.54,1.54-4.74-4.31-12.18-7.08-17.61-2.2C89.73,87.33,88.18,85.8,89.23,84.85Z" transform="translate(-8.3 -8.18)"/><path class="cls-4" d="M115.15,110.75s31.81.13,33.27-6.94a132.56,132.56,0,0,0-1.77-22.93,31.5,31.5,0,0,0-4.41-11.38,32.18,32.18,0,0,0-10-10,43.54,43.54,0,0,0-17.48-3.8h-.3A43.59,43.59,0,0,0,97,59.55a32.24,32.24,0,0,0-10,10,31.64,31.64,0,0,0-4.41,11.38,132.12,132.12,0,0,0-1.76,22.93c1.46,7.07,33.27,6.94,33.27,6.94Z" transform="translate(-8.3 -8.18)"/><path class="cls-4" d="M140.63,173.47l0,0a1.25,1.25,0,0,1-2-.91c-.17-2.63-.79-11.41-1.87-14.22l-10.08-32c-.51-1.46-1.09-2.89-1.72-4.31-1.26-2.81-3.44-8.17-3.32-11.37l4.75-.12s9.22,34.14,11.44,39.58l.37,1.18a53.9,53.9,0,0,1,2.37,13.44l.39,8.08A.83.83,0,0,1,140.63,173.47Z" transform="translate(-8.3 -8.18)"/><path class="cls-4" d="M92.1,144.77a17.24,17.24,0,0,1,1-3.7c1.86-4.88,8.93-29,7.81-30.58l4.87.32s-5.22,21.77-8.27,27.11a41.3,41.3,0,0,0-3.8,12.68l-.41,2.72a1.4,1.4,0,0,1-.89,1.16,1,1,0,0,1-1-.2,1.45,1.45,0,0,1-.45-1.32Z" transform="translate(-8.3 -8.18)"/><path class="cls-4" d="M111.1,165.43s-2.09,1.1-1.76-1.21c0,0,2.64-6.61,2.31-12l-1.08-19.86a23.76,23.76,0,0,1,0-2.78l1.11-18.83h5.58l-1.79,13.94a34.3,34.3,0,0,0-.29,4.65l.1,19.13S114.52,160.92,111.1,165.43Z" transform="translate(-8.3 -8.18)"/><path class="cls-4" d="M101.52,99.65s12.58,6.53,25.4-.47" transform="translate(-8.3 -8.18)"/></g><g id="disegni"><path class="cls-5" d="M40.76,162.79a5.46,5.46,0,0,0-2.76.44,12.29,12.29,0,0,0,4.66.89,42.9,42.9,0,0,0,14.14-1.35c.68-.2,1.36-.42,2-.69a38,38,0,0,1-6.39,1.27C48.39,163.82,44.76,163,40.76,162.79Z" transform="translate(-8.3 -8.18)"/><path class="cls-5" d="M81.49,192.84q0-7.23.07-14.46c0-3.3.7-6.62-3.49-5.29-3.75,1.19-7.6,4.29-11,6.23s-8.46,3.68-11.28,6.37.59,4.07,3.13,5.58l20.37,12.14C82.83,203.78,81.48,194.62,81.49,192.84ZM78,176.18a.59.59,0,0,1,.28,0h0a.59.59,0,0,1,.39.28c1.26,1.26.12,3.65-1.74,2.77S76.22,176,78,176.18Zm-5.61,2a.59.59,0,0,1,.27,0h0a.6.6,0,0,1,.39.28c1.25,1.27.12,3.65-1.75,2.76S70.61,178,72.38,178.17Zm-3.48,4.15c3.27,2.41,8,3,10.53,0,.59-.69,1.79.09,1.19.79-3.36,3.93-8.7,3.2-12.51.38C67.37,183,68.16,181.77,68.9,182.32Zm10,19-21.43-14a.72.72,0,0,1,.79-1.19l21.43,14A.72.72,0,0,1,78.93,201.31Z" transform="translate(-8.3 -8.18)"/><path class="cls-5" d="M47.76,139a30.54,30.54,0,0,0-2,3.9,21.09,21.09,0,0,0,5-6.62c.39-.72,1-2.07,1.83-3.3a6.44,6.44,0,0,0-.59.48A25.58,25.58,0,0,0,47.76,139Z" transform="translate(-8.3 -8.18)"/><path class="cls-5" d="M31.47,146.3a15.68,15.68,0,0,0-.81,5.6,5.46,5.46,0,0,0,1.07-1.9c.66-2,.7-4.16,1.19-6.21a31.53,31.53,0,0,1,2-5.6,37.78,37.78,0,0,1,3.19-5.81c-.39.48-.76,1-1.11,1.48A43.33,43.33,0,0,0,31.47,146.3Z" transform="translate(-8.3 -8.18)"/><path class="cls-5" d="M96,218.91a.49.49,0,0,1,.34-.65l20.63-6.2-.15-.17c-1.76-1.61-9-1.71-10.52-1.57h-.12a19.67,19.67,0,0,0-8.11,2.93c-1.88,1.17-5.06,3.45-6.28,5.16q2.27.5,4.57.9A.67.67,0,0,1,96,218.91Z" transform="translate(-8.3 -8.18)"/><path class="cls-5" d="M125.49,189.14c1.84,1.5,4.69,3.39,7,1.92,3.53-2.2,2.44-7.34-.27-9.5-2.93-2.34-7.55-3.27-10.91-5-1.67-.85-3.32-1.75-5-2.67C118,179.61,120.83,185.34,125.49,189.14Zm.9-3.24a6,6,0,0,0,3.68,3.46c.91.21.72,1.66-.19,1.45a7.51,7.51,0,0,1-4.83-4.34C124.64,185.61,126,185.05,126.38,185.9Z" transform="translate(-8.3 -8.18)"/><path class="cls-5" d="M44.7,93.71l24.92-7.49-.18-.2c-2.13-1.95-10.81-2.07-12.71-1.9h-.14a23.75,23.75,0,0,0-9.8,3.54c-2.88,1.8-8.31,5.75-8.2,7.71.18,3.37,12.18,3.37,12.3,3.37,7.94,0,14.29-3.83,18.46-11L45.22,95l-.16,0a.76.76,0,0,1-.77-.55A.59.59,0,0,1,44.7,93.71Z" transform="translate(-8.3 -8.18)"/><path class="cls-5" d="M163.52,104.69l22.66,11.4a1.85,1.85,0,0,0,0-.27c-.2-2.8-6.27-8.71-7.73-9.86l-.11-.09a23.16,23.16,0,0,0-9.31-4.06c-3.24-.65-9.74-1.5-11,0-2.13,2.51,6.37,10.55,6.45,10.63,5.64,5.3,12.69,6.87,20.42,4.6L163,106l-.13-.09a.74.74,0,0,1-.18-.91A.58.58,0,0,1,163.52,104.69Z" transform="translate(-8.3 -8.18)"/><path class="cls-5" d="M116.77,213.35l-20,6h-.1a106.49,106.49,0,0,0,12.41,1.37A18.08,18.08,0,0,0,116.77,213.35Z" transform="translate(-8.3 -8.18)"/><path class="cls-5" d="M196,61.45a16.81,16.81,0,0,0,6.3-6.9A106.88,106.88,0,0,0,181.5,32a21,21,0,0,0-3.32,1.57C159.91,46.45,178,73,196,61.45Zm-7.63-9.22,0,0a.89.89,0,0,1,.18-.34c1.52-1.83,4.63-.18,3.45,2.06S187.71,54.52,188.4,52.23ZM182.82,43c.46-2.54,3.87-1.85,4,.49a.82.82,0,0,1-.09.42h0C185.9,46.21,182.38,45.47,182.82,43Zm-5.64.16c.59-.94,2.13-.15,1.54.79-2.88,4.55-.2,9.46,3.69,12.34.9.66-.27,1.94-1.16,1.28C176.79,54.28,173.89,48.36,177.18,43.17Z" transform="translate(-8.3 -8.18)"/><path class="cls-5" d="M171.26,175.55a1.05,1.05,0,0,1-.85-1.19c.06-.34.13-.69.19-1q4.47-23.81,8.93-47.59a1,1,0,0,1,.17-.41l0,0a.2.2,0,0,1,0-.06.88.88,0,0,1,1-.34c11.8,2.51,24.51,4.59,35.68,9.24a7.93,7.93,0,0,1,2.4,1.52,107.06,107.06,0,0,0-.48-44.37c-1.87.84-4.33-.81-3.18-3.13a2.19,2.19,0,0,1,2.08-1.32,105.78,105.78,0,0,0-14-30.9,18.16,18.16,0,0,1-6.29,7,18.48,18.48,0,0,1-25.27-5.55c-5.59-8.74-2.53-19.47,5.55-25.27A21,21,0,0,1,180,30.79a106.49,106.49,0,0,0-10.28-7.12,21.39,21.39,0,0,1-15.29,8.38,23.5,23.5,0,0,1-2.92.08c-2.39,0-10.37-.43-12.58-3a2.2,2.2,0,0,1-.56-1.83c.18-1.43,2.28-3.31,3.68-4.54l.72-.67a28.07,28.07,0,0,1,10.6-6.41l.14,0a105.79,105.79,0,0,0-32.66-7.17,5.2,5.2,0,0,1-1.15,6.11,3.25,3.25,0,0,0,4.36,4.82c5.4-4.27,11.91,3.06,7.1,8-.94,1-2.3-.62-1.37-1.57A3.25,3.25,0,0,0,125.46,21c-5.39,4.26-11.89-3-7.11-7.94l0,0a3.15,3.15,0,0,0,0-4.66c-1.25,0-2.49-.07-3.75-.07h-.73a5.15,5.15,0,0,1-6.28.23,106.16,106.16,0,0,0-17.41,2.59A20.08,20.08,0,0,1,84.71,14c1,.24,1.9.5,2.78.74,13.28,3.54,20.1,12.74,20.06,26.25a.82.82,0,0,1-.6.85s0,0,0,0c-12,7.58-25.66,6-35-5.41L71.6,36a15,15,0,0,1,.64,3c.61,5.74-.55,15-5.06,19.32-8.54,8.15-20-7.29-22.76-14.92a43.46,43.46,0,0,1-1.88-7,106.93,106.93,0,0,0-12,13C45,54.85,37.87,79.15,22,76a13.12,13.12,0,0,1-5.22-3.11q-1.28,3-2.38,6.11a5.2,5.2,0,0,1-1.19,6,3.25,3.25,0,0,0,4.36,4.82c5.4-4.27,11.91,3.06,7.1,8-.94,1-2.3-.62-1.37-1.57a3.25,3.25,0,0,0-4.36-4.82,5.23,5.23,0,0,1-7.85-1.15,107,107,0,0,0-.27,47.44c1.29-.76,2.69-1.37,3.65-1.89,2-1.07,4-2.07,6-3.06l2.18-1.06c.49-.25.86-.65.9-.51a2.54,2.54,0,0,1,.6-.22.91.91,0,0,1,1,1.22,1.33,1.33,0,0,1-.61.61l0,0,0,0a1.76,1.76,0,0,0-.43.37,19,19,0,0,0-1.61,2.9c-1.75,4.54-1.74,9.68-2.06,14.47-.08,1.18-1.12,6.8.17,7.66.65.43.84-5.17.88-5.9a61.27,61.27,0,0,1,1.91-11.8,55.12,55.12,0,0,1,2.42-8.09,12.61,12.61,0,0,1,1.55-2.71,6.31,6.31,0,0,1,3.47-1.87c2.44-.63,8.18-1.5,10.17.15a1,1,0,0,1,.34.61,5.84,5.84,0,0,1,4.59-1.55c2.72.18,6.91,1.07,8.86,3.12a.58.58,0,0,1,.16.32,1.84,1.84,0,0,1,.71-.19c1.53-.08,3.51,2.32,4.87,3,2,.92,4-.5,6.17-.35a4,4,0,0,1,1.15.23.89.89,0,0,1,.49,1.16,10.59,10.59,0,0,1-1.78,2.51c-1.37,1.44-1.94,2-1.58,4,.23,1.26,1.78,3.78,1.21,5.1a3.48,3.48,0,0,1-1.9,1.54,26.23,26.23,0,0,1-5.12,1.24,21.41,21.41,0,0,0-7.87,2.77h.17A29.59,29.59,0,0,0,58.53,150a32.07,32.07,0,0,0,4.81-1.9c.31-.16.6-.37.9-.52a1.29,1.29,0,0,1,1.29,0c1.9,1,1.21,6.13.93,7.77a6.44,6.44,0,0,1-3.11,4.86.76.76,0,0,1,.47.44c1,2.46-1.5,7.39-2.78,9.57a6.59,6.59,0,0,1-2.93,3,11.73,11.73,0,0,1-3.11.69,56.92,56.92,0,0,1-8.33-.14A60.62,60.62,0,0,1,35.06,172c-.66-.17-6.28-1.72-6.07-1,.46,1.49,6.09,2.25,7.15,2.52,4.68,1.17,9.64,2.8,14.53,2.45a12,12,0,0,0,3.39-.79h0a1.62,1.62,0,0,1,.94-.62h.06a.91.91,0,0,1,.79,1.43,2.78,2.78,0,0,1-1,1l0,0c-.59.67-1.23,1.3-1.85,1.94-1.48,1.56-3,3.1-4.5,4.6-1.72,1.69-4.45,5.23-7.18,5a9.13,9.13,0,0,1-1.85-.37.53.53,0,0,1-.06.23,2.59,2.59,0,0,1-.54.76,106.13,106.13,0,0,0,51.84,29,18.18,18.18,0,0,1,2.36-2.36l.6-.55a23.21,23.21,0,0,1,8.77-5.31c2.38-.75,11.7-1.71,14.87.7a2.48,2.48,0,0,1,1.07,1.87.87.87,0,0,1-.07.42c0,.11,0,.06-.08.21a20.42,20.42,0,0,1-6.88,7.67c1.08,0,2.17.05,3.26.05a107.1,107.1,0,0,0,16.72-1.31,14.11,14.11,0,0,1-4.74-10,.5.5,0,0,1,0-.12c0-.08,0-.17,0-.25s0-.24,0-.35C128.47,190.41,158.4,191,158,210a17,17,0,0,1-.13,1.73,106.18,106.18,0,0,0,18.47-10.58,3.18,3.18,0,0,0-3.79.28c-5.39,4.26-11.89-3-7.11-7.93l0,0a3.25,3.25,0,0,0-4.35-4.82h0c-5.4,4.27-11.92-3.06-7.1-8,.94-1,2.3.62,1.37,1.57a3.25,3.25,0,0,0,4.36,4.82c5.4-4.27,11.91,3.06,7.1,8a3.25,3.25,0,0,0,4.36,4.82,5.17,5.17,0,0,1,6.86,0,106.93,106.93,0,0,0,18.16-17.18c-3.08-1-6-2-8.22-2.6Q179.59,177.91,171.26,175.55ZM106,16.51l0,0a1,1,0,0,1-.21.47c-1.79,2.21-5.52.37-4.15-2.38S106.86,13.74,106,16.51ZM17.73,123.67l-6-7.93c-.81-1.06.73-2.47,1.54-1.4l6,7.92C20.07,123.32,18.54,124.73,17.73,123.67Zm4.36-3.58-4.78-8.72c-.65-1.18,1.21-2.12,1.85-.95l4.79,8.72C24.59,120.32,22.73,121.26,22.09,120.09Zm5.09-1.47-4.09-9.07c-.55-1.22,1.3-2.17,1.86-.94L29,117.67C29.58,118.89,27.72,119.84,27.17,118.62Zm185-15.48c1.34-2.7,5.21-.9,4.38,1.88l0,0a1,1,0,0,1-.21.47C214.51,107.72,210.79,105.89,212.15,103.13Zm-10.42-37L207,74.63c.7,1.13-1,2.39-1.66,1.25l-5.23-8.46C199.37,66.28,201,65,201.73,66.16ZM207,93.51l0,0a1,1,0,0,1-.21.47c-1.79,2.21-5.52.37-4.15-2.38S207.86,90.74,207,93.51Zm-10-24.21L201,78.44c.53,1.23-1.41,2-1.94.77l-3.93-9.14C194.58,68.83,196.52,68.08,197.05,69.31Zm-5.2,1,3.21,9.42c.43,1.27-1.5,2-1.94.76L189.91,71C189.48,69.78,191.42,69,191.85,70.28Zm-2,26.46a3.25,3.25,0,0,0,4.36,4.82c5.4-4.27,11.91,3.06,7.1,8a3.25,3.25,0,0,0,4.36,4.82c5.4-4.27,11.91,3.06,7.1,8-.94,1-2.3-.62-1.37-1.57A3.25,3.25,0,0,0,207,115.9c-5.39,4.26-11.89-3-7.11-7.93l0,0a3.25,3.25,0,0,0-4.35-4.82h0c-5.4,4.27-11.92-3.06-7.1-8C189.44,94.21,190.8,95.79,189.86,96.74Zm-26.45-37.1c1.34-2.7,5.2-.9,4.38,1.88l0,0a1,1,0,0,1-.21.47C165.78,64.22,162.05,62.39,163.42,59.64Zm-8.27-14c1.34-2.7,5.2-.9,4.38,1.88l0,0a1,1,0,0,1-.21.47C157.51,50.22,153.78,48.39,155.15,45.63ZM161,73.88c9.66-.58,19.06,4.48,26.41,10.27a.66.66,0,0,1,.48.4.81.81,0,0,1-.24,1.23.1.1,0,0,1-.05,0,1,1,0,0,1-.52.23c-7.62,1-14.8,3.27-22.27,4.69-6.19,1.18-12-2-12.61-8.64C151.71,76.48,155.87,74.19,161,73.88ZM148.42,58.64c1.34-2.7,5.2-.9,4.38,1.88l0,0a1,1,0,0,1-.21.47C150.78,63.22,147.05,61.39,148.42,58.64Zm-13-7.47L138,41.55c.34-1.3,2.34-.7,2,.59l-2.56,9.61C137,53.06,135,52.46,135.39,51.17Zm-3.46-11.74c.09-1.33,2.17-1.3,2.08,0q-.34,5-.67,9.93c-.09,1.33-2.17,1.3-2.08,0Q131.6,44.39,131.93,39.42Zm-3.87-1.08q0,5,.1,9.95c0,1.34-2.07,1.29-2.08,0q0-5-.1-9.95C126,37,128,37,128.06,38.34ZM121,39l1.56,9.82c.21,1.32-1.81,1.83-2,.51L119,39.52C118.78,38.2,120.8,37.68,121,39Zm-8.36-12.87c1.34-2.7,5.2-.9,4.38,1.88l0,0a1,1,0,0,1-.21.47C115,30.72,111.29,28.89,112.65,26.13ZM79,154.51l0,0a1,1,0,0,1-.21.47c-1.79,2.21-5.52.37-4.15-2.38S79.86,151.74,79,154.51ZM78,136l0,0a1,1,0,0,1-.21.47c-1.79,2.21-5.52.37-4.15-2.38S78.86,133.24,78,136ZM72.18,62.4c1.34-2.7,5.2-.9,4.38,1.88l0,0a1,1,0,0,1-.21.47C74.54,67,70.81,65.15,72.18,62.4ZM57,71.88c1.34-2.7,5.2-.9,4.38,1.88l0,0a1,1,0,0,1-.21.47C59.37,76.47,55.64,74.63,57,71.88ZM45,62.4c1.34-2.7,5.2-.9,4.38,1.88l0,0a1,1,0,0,1-.21.47C47.36,67,43.63,65.15,45,62.4ZM37.59,97.13A2.23,2.23,0,0,1,37,95.29c.18-1.42,2.28-3.31,3.68-4.54l.72-.67A28,28,0,0,1,52,83.67c2.87-.91,14.13-2.06,18,.85a3,3,0,0,1,1.29,2.26,1.05,1.05,0,0,1-.08.51c0,.13,0,.07-.1.25-4.08,7.54-10.27,11.82-18,12.53a23.53,23.53,0,0,1-2.92.08C47.77,100.1,39.8,99.71,37.59,97.13Zm21.18,21.52h0a3.25,3.25,0,0,0-6.22-1.88h0c-2.42,6.44-11.79,3.53-10.18-3.15.31-1.3,2.29-.66,2,.64a3.25,3.25,0,0,0,6.22,1.88c2.42-6.44,11.78-3.53,10.18,3.15A3.25,3.25,0,0,0,67,121.15c2.42-6.44,11.78-3.53,10.18,3.15-.31,1.3-2.29.66-2-.64A3.25,3.25,0,0,0,69,121.79C66.54,128.23,57.18,125.31,58.77,118.64ZM79,204.82h0a.73.73,0,0,1-.31-.1c-7.8-4.65-16.23-8.84-23.64-14.09-5.69-4,.91-6.65,4.6-8.74l13.62-7.69c1.73-1,5-3.81,7.28-3.5,4.84.68,2.46,14.27,2.44,17.25C82.92,191.36,85.49,206,79,204.82Zm11-80.16,0,0a1,1,0,0,1-.21.47c-1.79,2.21-5.52.37-4.15-2.38S90.79,121.88,90,124.65Zm5.26,72.53,0,0a1,1,0,0,1-.21.47c-1.79,2.21-5.52.37-4.15-2.38S96.05,194.41,95.23,197.18ZM110,201.57c-1.19.61-2-1.31-.81-1.92a3.25,3.25,0,0,0-2.64-5.93c-6.46,2.38-10.37-6.61-4.27-9.77A3.25,3.25,0,0,0,99.65,178c-6.46,2.38-10.37-6.61-4.27-9.77,1.19-.61,2,1.3.81,1.92a3.25,3.25,0,0,0,2.64,5.93c6.45-2.37,10.36,6.6,4.29,9.76h0a3.25,3.25,0,0,0,2.64,5.94h0C112.21,189.42,116.12,198.41,110,201.57Zm25-11.25c-2.29,3.64-5.87,3.11-9.13.93-6.12-4.1-9.49-11.52-11.28-18.42a.55.55,0,0,1-.09-.5.62.62,0,0,1,.72-.57.73.73,0,0,1,.45.09c5.07,2.92,10.48,4.84,15.66,7.42C135.63,181.4,137.69,186,135,190.31Zm1.66-73.18c1.34-2.7,5.2-.9,4.38,1.88l0,0a1,1,0,0,1-.21.47C139,121.72,135.28,119.89,136.65,117.13ZM143,130l0,0a1,1,0,0,1-.21.47c-1.79,2.21-5.52.37-4.15-2.38S143.85,127.24,143,130Zm2.56-84.17-4.09,9.07c-.55,1.22-2.32.12-1.78-1.09l4.09-9.07C144.37,43.54,146.14,44.64,145.59,45.85Zm2.56,74.29c1.34-2.7,5.2-.9,4.38,1.88l0,0a1,1,0,0,1-.21.47C150.51,124.72,146.78,122.89,148.15,120.13Zm18.42,15.33a3.25,3.25,0,0,0-3.21,5.65c5.75,3.79.82,12.27-5.33,9.23a3.25,3.25,0,0,0-3.21,5.65c5.74,3.79.82,12.27-5.33,9.23-1.2-.59-.14-2.38,1.06-1.79a3.25,3.25,0,0,0,3.21-5.65c-5.74-3.79-.83-12.27,5.32-9.23h0a3.25,3.25,0,0,0,3.21-5.64h0c-5.74-3.79-.82-12.28,5.33-9.23C168.83,134.26,167.77,136.05,166.57,135.46Zm-1.37-20.65a22.77,22.77,0,0,1-2.13-1.9c-1.66-1.64-7-7.25-6.88-10.57a2.17,2.17,0,0,1,.83-1.68c1.08-.89,3.83-.82,5.65-.75h1a27.34,27.34,0,0,1,11.8,2.56c2.64,1.28,11.39,8,12.15,12.64a2.92,2.92,0,0,1-.6,2.46,1.05,1.05,0,0,1-.4.3c-.11.08-.07,0-.24.12C178.41,120.62,171.15,119.5,165.2,114.81Z" transform="translate(-8.3 -8.18)"/><path class="cls-5" d="M29.23,51.23a106.29,106.29,0,0,0-9.43,15.2,9.47,9.47,0,0,0,4,3.22c1.22.55.13,2.33-1.07,1.78a11.45,11.45,0,0,1-3.94-2.93q-.56,1.16-1.09,2.34A10.85,10.85,0,0,0,22.59,74C36.14,76.69,42,55.34,29.23,51.23Z" transform="translate(-8.3 -8.18)"/><path d="M22.59,74c1.27.41.7,2.41-.58,2,15.86,3.15,23-21.15,8.56-26.53q-.68.87-1.34,1.76C42,55.34,36.14,76.69,22.59,74Z" transform="translate(-8.3 -8.18)"/><path d="M22.59,74c-1.31-.26-1.9,1.74-.58,2C23.29,76.41,23.86,74.41,22.59,74Z" transform="translate(-8.3 -8.18)"/><path d="M22,76c-1.31-.26-.72-2.26.58-2a10.85,10.85,0,0,1-4.91-3.16c-.31.68-.6,1.36-.89,2A13.12,13.12,0,0,0,22,76Z" transform="translate(-8.3 -8.18)"/><path d="M22.71,71.43c1.21.55,2.29-1.23,1.07-1.78a9.47,9.47,0,0,1-4-3.22q-.53,1-1,2.08A11.45,11.45,0,0,0,22.71,71.43Z" transform="translate(-8.3 -8.18)"/><path class="cls-6" d="M93.43,196.36l-.23.5c-.38,1.26,1.61,1.58,2,.36A1,1,0,0,0,93.43,196.36Z" transform="translate(-8.3 -8.18)"/><path class="cls-6" d="M90.85,195.31c-1.37,2.75,2.36,4.58,4.15,2.38a1,1,0,0,0,.21-.47c-.41,1.22-2.39.9-2-.36l.23-.5a1,1,0,0,1,1.78.86l0,0C96.05,194.41,92.19,192.61,90.85,195.31Z" transform="translate(-8.3 -8.18)"/><path class="cls-6" d="M77.23,153.68l-.23.5c-.38,1.26,1.61,1.58,2,.36A1,1,0,0,0,77.23,153.68Z" transform="translate(-8.3 -8.18)"/><path class="cls-6" d="M74.65,152.63c-1.37,2.75,2.36,4.58,4.15,2.38a1,1,0,0,0,.21-.47c-.41,1.22-2.39.9-2-.36l.23-.5a1,1,0,0,1,1.78.86l0,0C79.86,151.74,76,149.93,74.65,152.63Z" transform="translate(-8.3 -8.18)"/><path class="cls-6" d="M88.17,123.83l-.23.5c-.38,1.26,1.61,1.58,2,.36A1,1,0,0,0,88.17,123.83Z" transform="translate(-8.3 -8.18)"/><path class="cls-6" d="M85.59,122.78c-1.37,2.75,2.36,4.58,4.15,2.38a1,1,0,0,0,.21-.47c-.41,1.22-2.39.9-2-.36l.23-.5a1,1,0,0,1,1.78.86l0,0C90.79,121.88,86.93,120.08,85.59,122.78Z" transform="translate(-8.3 -8.18)"/><path class="cls-6" d="M74.76,63.45l-.23.5c-.38,1.26,1.61,1.58,2,.36A1,1,0,0,0,74.76,63.45Z" transform="translate(-8.3 -8.18)"/><path class="cls-6" d="M76.33,64.78a1,1,0,0,0,.21-.47c-.41,1.22-2.39.9-2-.36l.23-.5a1,1,0,0,1,1.78.86l0,0c.82-2.77-3-4.58-4.38-1.88S74.54,67,76.33,64.78Z" transform="translate(-8.3 -8.18)"/><path class="cls-6" d="M61.16,74.26a1,1,0,0,0,.21-.47c-.41,1.22-2.39.9-2-.36l.23-.5a1,1,0,0,1,1.78.86l0,0c.82-2.77-3-4.58-4.38-1.88S59.37,76.47,61.16,74.26Z" transform="translate(-8.3 -8.18)"/><path class="cls-6" d="M59.59,72.93l-.23.5C59,74.7,61,75,61.37,73.79A1,1,0,0,0,59.59,72.93Z" transform="translate(-8.3 -8.18)"/><path class="cls-6" d="M47.58,63.45l-.23.5c-.38,1.26,1.61,1.58,2,.36A1,1,0,0,0,47.58,63.45Z" transform="translate(-8.3 -8.18)"/><path class="cls-6" d="M49.15,64.78a1,1,0,0,0,.21-.47c-.41,1.22-2.39.9-2-.36l.23-.5a1,1,0,0,1,1.78.86l0,0c.82-2.77-3-4.58-4.38-1.88S47.36,67,49.15,64.78Z" transform="translate(-8.3 -8.18)"/><path class="cls-6" d="M76.23,135.18l-.23.5c-.38,1.26,1.61,1.58,2,.36A1,1,0,0,0,76.23,135.18Z" transform="translate(-8.3 -8.18)"/><path class="cls-6" d="M73.65,134.13c-1.37,2.75,2.36,4.58,4.15,2.38A1,1,0,0,0,78,136c-.41,1.22-2.39.9-2-.36l.23-.5A1,1,0,0,1,78,136l0,0C78.86,133.24,75,131.43,73.65,134.13Z" transform="translate(-8.3 -8.18)"/><path class="cls-6" d="M140.8,119.51A1,1,0,0,0,141,119c-.41,1.22-2.39.9-2-.36l.23-.5A1,1,0,0,1,141,119l0,0c.82-2.77-3-4.58-4.38-1.88S139,121.72,140.8,119.51Z" transform="translate(-8.3 -8.18)"/><path class="cls-6" d="M139.23,118.18l-.23.5c-.38,1.26,1.61,1.58,2,.36A1,1,0,0,0,139.23,118.18Z" transform="translate(-8.3 -8.18)"/><path class="cls-6" d="M152.3,122.51a1,1,0,0,0,.21-.47c-.41,1.22-2.39.9-2-.36l.23-.5a1,1,0,0,1,1.78.86l0,0c.82-2.77-3-4.58-4.38-1.88S150.51,124.72,152.3,122.51Z" transform="translate(-8.3 -8.18)"/><path class="cls-6" d="M150.73,121.18l-.23.5c-.38,1.26,1.61,1.58,2,.36A1,1,0,0,0,150.73,121.18Z" transform="translate(-8.3 -8.18)"/><path class="cls-6" d="M202.65,91.63c-1.37,2.75,2.36,4.58,4.15,2.38a1,1,0,0,0,.21-.47c-.41,1.23-2.39.91-2-.36l.23-.5a1,1,0,0,1,1.79.86l0,0C207.86,90.74,204,88.94,202.65,91.63Z" transform="translate(-8.3 -8.18)"/><path class="cls-6" d="M205.23,92.68l-.23.5c-.37,1.26,1.61,1.58,2,.36A1,1,0,0,0,205.23,92.68Z" transform="translate(-8.3 -8.18)"/><path class="cls-6" d="M214.73,104.18l-.23.5c-.37,1.26,1.61,1.58,2,.36A1,1,0,0,0,214.73,104.18Z" transform="translate(-8.3 -8.18)"/><path class="cls-6" d="M216.3,105.51a1,1,0,0,0,.21-.47c-.41,1.23-2.39.91-2-.36l.23-.5a1,1,0,0,1,1.79.86l0,0c.82-2.77-3-4.58-4.38-1.88S214.51,107.72,216.3,105.51Z" transform="translate(-8.3 -8.18)"/><path class="cls-6" d="M217.73,89.18l-.23.5a.83.83,0,0,0,.73,1.12c-.13-.57-.27-1.13-.41-1.7A1,1,0,0,0,217.73,89.18Z" transform="translate(-8.3 -8.18)"/><path class="cls-6" d="M215.15,88.13c-1.15,2.32,1.3,4,3.18,3.13l-.1-.46a.83.83,0,0,1-.73-1.12l.23-.5a1,1,0,0,1,.09-.08q-.28-1.15-.59-2.29A2.19,2.19,0,0,0,215.15,88.13Z" transform="translate(-8.3 -8.18)"/><path class="cls-6" d="M116.8,28.51A1,1,0,0,0,117,28c-.41,1.22-2.39.9-2-.36l.23-.5A1,1,0,0,1,117,28l0,0c.82-2.77-3-4.58-4.38-1.88S115,30.72,116.8,28.51Z" transform="translate(-8.3 -8.18)"/><path class="cls-6" d="M115.23,27.18l-.23.5c-.38,1.26,1.61,1.58,2,.36A1,1,0,0,0,115.23,27.18Z" transform="translate(-8.3 -8.18)"/><path class="cls-6" d="M104.23,15.68l-.23.5c-.38,1.26,1.61,1.58,2,.36A1,1,0,0,0,104.23,15.68Z" transform="translate(-8.3 -8.18)"/><path class="cls-6" d="M101.65,14.63c-1.37,2.75,2.36,4.58,4.15,2.38a1,1,0,0,0,.21-.47c-.41,1.22-2.39.9-2-.36l.23-.5a1,1,0,0,1,1.78.86l0,0C106.86,13.74,103,11.94,101.65,14.63Z" transform="translate(-8.3 -8.18)"/><path class="cls-6" d="M159.3,48a1,1,0,0,0,.21-.47c-.41,1.22-2.39.9-2-.36l.23-.5a1,1,0,0,1,1.78.86l0,0c.82-2.77-3-4.58-4.38-1.88S157.51,50.22,159.3,48Z" transform="translate(-8.3 -8.18)"/><path class="cls-6" d="M157.73,46.68l-.23.5c-.38,1.26,1.61,1.58,2,.36A1,1,0,0,0,157.73,46.68Z" transform="translate(-8.3 -8.18)"/><path class="cls-6" d="M166,60.69l-.23.5c-.37,1.26,1.61,1.58,2,.36A1,1,0,0,0,166,60.69Z" transform="translate(-8.3 -8.18)"/><path class="cls-6" d="M167.57,62a1,1,0,0,0,.21-.47c-.41,1.23-2.39.91-2-.36l.23-.5a1,1,0,0,1,1.79.86l0,0c.82-2.77-3-4.58-4.38-1.88S165.78,64.22,167.57,62Z" transform="translate(-8.3 -8.18)"/><path class="cls-6" d="M151,59.69l-.23.5c-.38,1.26,1.61,1.58,2,.36A1,1,0,0,0,151,59.69Z" transform="translate(-8.3 -8.18)"/><path class="cls-6" d="M152.57,61a1,1,0,0,0,.21-.47c-.41,1.22-2.39.9-2-.36l.23-.5a1,1,0,0,1,1.78.86l0,0c.82-2.77-3-4.58-4.38-1.88S150.78,63.22,152.57,61Z" transform="translate(-8.3 -8.18)"/><path class="cls-6" d="M141.23,129.18l-.23.5c-.38,1.26,1.61,1.58,2,.36A1,1,0,0,0,141.23,129.18Z" transform="translate(-8.3 -8.18)"/><path class="cls-6" d="M138.65,128.13c-1.37,2.75,2.36,4.58,4.15,2.38A1,1,0,0,0,143,130c-.41,1.22-2.39.9-2-.36l.23-.5A1,1,0,0,1,143,130l0,0C143.85,127.24,140,125.43,138.65,128.13Z" transform="translate(-8.3 -8.18)"/><path d="M179,175.56c-1.24-.34-5-.7-6.66-1.58h0a.94.94,0,0,1-.5-.33,1.18,1.18,0,0,1-.11-.11l-1.14-.21c-.06.34-.13.69-.19,1a1.05,1.05,0,0,0,.85,1.19q8.34,2.37,16.72,4.54c2.19.56,5.14,1.64,8.22,2.6q.76-.91,1.5-1.84C191.38,179.51,185,177.17,179,175.56Z" transform="translate(-8.3 -8.18)"/><path d="M180.73,124.88a.88.88,0,0,0-1,.34,1.05,1.05,0,0,1,1.81.86c-.07.36-.14.72-.2,1.08q8.94,1.89,17.8,4.12c4.86,1.22,16.36,2.46,19.08,6.89q.28-1.26.54-2.53a7.93,7.93,0,0,0-2.4-1.52C205.24,129.47,192.53,127.39,180.73,124.88Z" transform="translate(-8.3 -8.18)"/><path class="cls-7" d="M199.19,131.28q-8.87-2.22-17.8-4.12-4,21.37-8,42.74c-.28,1.48-.12,4.28-1,4.08,1.68.88,5.42,1.24,6.66,1.58,5.94,1.61,12.36,4,18.68,5.29a106.47,106.47,0,0,0,6.84-9.61l-1.6-2.24a1,1,0,0,1,1.69-1.21l1.1,1.54a105.67,105.67,0,0,0,12.54-31.16C215.54,133.74,204.05,132.5,199.19,131.28Zm3.08,20.41c1.18,2.2-1.78,3.93-3.36,2.25a1.22,1.22,0,0,1-.21-.31l0-.06a1,1,0,0,1-.13-.32C198,151,201.1,149.51,202.27,151.69Zm-6.42-1.46a.92.92,0,0,1,0,.78h0v0c-.49,2.11-3.7,2.42-4,0C191.5,148.39,194.93,148.13,195.85,150.23Zm-11.47,12.42-5.9,4.23a1,1,0,0,1-1.21-1.7l5.9-4.22A1,1,0,0,1,184.38,162.65Zm-.61-25.52a1,1,0,0,1,1.69-1.22l4.22,5.9A1,1,0,0,1,188,143Zm18.51,24c-5.4,1.73-11.85.65-14.2-5.16a1,1,0,0,1,1.94-.74c1.9,4.69,7.23,5.33,11.52,4C202.82,158.78,203.56,160.73,202.28,161.13Zm13.5-16.36-5.9,4.22a1,1,0,0,1-1.21-1.69l5.9-4.22A1,1,0,0,1,215.78,144.77Z" transform="translate(-8.3 -8.18)"/><path d="M214.57,143.08l-5.9,4.22a1,1,0,0,0,1.21,1.69l5.9-4.22A1,1,0,0,0,214.57,143.08Z" transform="translate(-8.3 -8.18)"/><path d="M204.63,167.79a1,1,0,0,0-1.69,1.21l1.6,2.24q.6-1,1.18-1.92Z" transform="translate(-8.3 -8.18)"/><path d="M201.54,159.19c-4.29,1.37-9.62.73-11.52-4a1,1,0,0,0-1.94.74c2.35,5.81,8.8,6.89,14.2,5.16C203.56,160.73,202.82,158.78,201.54,159.19Z" transform="translate(-8.3 -8.18)"/><path d="M198.67,153.57a1.13,1.13,0,0,1,1-1.53.85.85,0,0,1,.31-.28,1,1,0,0,1,1,1.8.83.83,0,0,1-.4.11,1.15,1.15,0,0,1-1.84,0,1.22,1.22,0,0,0,.21.31c1.58,1.68,4.54-.05,3.36-2.25s-4.25-.71-3.73,1.56A1,1,0,0,0,198.67,153.57Z" transform="translate(-8.3 -8.18)"/><path d="M200.61,153a.85.85,0,0,1-.07.64.83.83,0,0,0,.4-.11,1,1,0,0,0-1-1.8.85.85,0,0,0-.31.28.85.85,0,0,1,.56.3C200.36,152.57,200.48,152.8,200.61,153Z" transform="translate(-8.3 -8.18)"/><path d="M199.57,153.14a1,1,0,0,0,1,.53.85.85,0,0,0,.07-.64c-.13-.23-.25-.46-.37-.69a.85.85,0,0,0-.56-.3A1,1,0,0,0,199.57,153.14Z" transform="translate(-8.3 -8.18)"/><path d="M200.54,153.67a1,1,0,0,1-1-.53,1,1,0,0,1,.11-1.1,1.13,1.13,0,0,0-1,1.53l0,.06A1.15,1.15,0,0,0,200.54,153.67Z" transform="translate(-8.3 -8.18)"/><path d="M195.85,151a1.16,1.16,0,0,1-1.35.51,1,1,0,0,1-.48.21,1,1,0,0,1-.3-2,1.06,1.06,0,0,1,.47,0,1.09,1.09,0,0,1,1.71,1,2.08,2.08,0,0,1,0,.23.92.92,0,0,0,0-.78c-.92-2.1-4.35-1.84-4,.78C192.15,153.46,195.36,153.15,195.85,151Z" transform="translate(-8.3 -8.18)"/><path d="M194.19,149.79a1,1,0,0,1,.68.82,1,1,0,0,1-.37.94,1.16,1.16,0,0,0,1.35-.51v0h0a2.08,2.08,0,0,0,0-.23A1.09,1.09,0,0,0,194.19,149.79Z" transform="translate(-8.3 -8.18)"/><path d="M194.87,150.61a1,1,0,0,0-.68-.82.93.93,0,0,0-.34.65c0,.18,0,.36.05.54a1,1,0,0,0,.6.57A1,1,0,0,0,194.87,150.61Z" transform="translate(-8.3 -8.18)"/><path d="M193.9,151c0-.18,0-.36-.05-.54a.93.93,0,0,1,.34-.65,1.06,1.06,0,0,0-.47,0,1,1,0,0,0,.3,2,1,1,0,0,0,.48-.21A1,1,0,0,1,193.9,151Z" transform="translate(-8.3 -8.18)"/><path d="M189.68,141.81l-4.22-5.9a1,1,0,0,0-1.69,1.22L188,143A1,1,0,0,0,189.68,141.81Z" transform="translate(-8.3 -8.18)"/><path d="M183.17,161l-5.9,4.22a1,1,0,0,0,1.21,1.7l5.9-4.23A1,1,0,0,0,183.17,161Z" transform="translate(-8.3 -8.18)"/><path d="M180.39,126.94l1,.22c.06-.36.13-.72.2-1.08a1.05,1.05,0,0,0-1.81-.86.2.2,0,0,0,0,.06l0,0A1.08,1.08,0,0,0,180.39,126.94Z" transform="translate(-8.3 -8.18)"/><path d="M173.36,169.9q4-21.37,8-42.74l-1-.22a1.08,1.08,0,0,1-.69-1.61,1,1,0,0,0-.17.41q-4.47,23.79-8.93,47.59l1.14.21a1.18,1.18,0,0,0,.11.11,2.22,2.22,0,0,0,.5.33h0C173.24,174.18,173.08,171.38,173.36,169.9Z" transform="translate(-8.3 -8.18)"/><path d="M172.35,174a2.22,2.22,0,0,1-.5-.33A.94.94,0,0,0,172.35,174Z" transform="translate(-8.3 -8.18)"/><path d="M80.5,170.69c-2.26-.31-5.54,2.52-7.28,3.5l-13.62,7.69c-3.69,2.09-10.29,4.71-4.6,8.74,7.41,5.25,15.83,9.44,23.64,14.09a.73.73,0,0,0,.31.1c-.85-.2-.75-1.58.14-1.41l.18,0L58.89,191.27c-2.54-1.51-6.09-2.75-3.13-5.58s7.88-4.45,11.28-6.37,7.27-5,11-6.23c4.19-1.33,3.5,2,3.49,5.29q0,7.23-.07,14.46c0,1.78,1.34,10.94-2.23,10.57l.17.1c.69.41.18,1.36-.48,1.29h0c6.5,1.2,3.94-13.46,4-16.88C83,185,85.34,171.36,80.5,170.69Z" transform="translate(-8.3 -8.18)"/><path d="M79.43,203.51l-.17-.1-.18,0c-.89-.17-1,1.21-.14,1.41C79.61,204.87,80.12,203.92,79.43,203.51Z" transform="translate(-8.3 -8.18)"/><path d="M78,176.18l.28,0A.59.59,0,0,0,78,176.18Z" transform="translate(-8.3 -8.18)"/><path d="M78.67,176.5a.59.59,0,0,0-.39-.28h0a.66.66,0,0,1,.18.08A1.82,1.82,0,0,1,78.67,176.5Z" transform="translate(-8.3 -8.18)"/><path d="M76.93,179.27c1.86.89,3-1.5,1.74-2.77a.76.76,0,0,1-.85,1.07l-.17-.08a.74.74,0,0,1,.34-1.32C76.22,176,75,178.37,76.93,179.27Z" transform="translate(-8.3 -8.18)"/><path d="M77.65,177.49l.17.08a.76.76,0,0,0,.85-1.07,1.82,1.82,0,0,0-.23-.2.66.66,0,0,0-.18-.08l-.28,0A.74.74,0,0,0,77.65,177.49Z" transform="translate(-8.3 -8.18)"/><path d="M71.31,181.26c1.86.89,3-1.5,1.75-2.76a.76.76,0,0,1-.86,1.07l-.16-.08a.74.74,0,0,1,.34-1.31C70.61,178,69.43,180.36,71.31,181.26Z" transform="translate(-8.3 -8.18)"/><path d="M72,179.49l.16.08a.76.76,0,0,0,.86-1.07,1.92,1.92,0,0,0-.23-.2.69.69,0,0,0-.18-.08l-.27,0A.74.74,0,0,0,72,179.49Z" transform="translate(-8.3 -8.18)"/><path d="M73.06,178.5a.6.6,0,0,0-.39-.28h0a.69.69,0,0,1,.18.08A1.92,1.92,0,0,1,73.06,178.5Z" transform="translate(-8.3 -8.18)"/><path d="M72.38,178.17l.27,0A.59.59,0,0,0,72.38,178.17Z" transform="translate(-8.3 -8.18)"/><path d="M79.72,200.11l-21.43-14a.72.72,0,0,0-.79,1.19l21.43,14A.72.72,0,0,0,79.72,200.11Z" transform="translate(-8.3 -8.18)"/><path d="M80.63,183.13c.6-.7-.6-1.48-1.19-.79-2.58,3-7.26,2.4-10.53,0-.74-.55-1.53.65-.79,1.19C71.93,186.33,77.26,187.06,80.63,183.13Z" transform="translate(-8.3 -8.18)"/><path class="cls-6" d="M167.63,133.67c-6.16-3-11.08,5.44-5.33,9.23h0c-1.12-.74-.06-2.53,1.06-1.79a3.25,3.25,0,0,1,3.21-5.65C167.77,136.05,168.83,134.26,167.63,133.67Z" transform="translate(-8.3 -8.18)"/><path class="cls-6" d="M162.31,142.91a3.25,3.25,0,0,1-3.21,5.64h0c1.2.59.13,2.38-1.06,1.79,6.15,3,11.08-5.44,5.33-9.23C164.47,141.84,163.43,143.63,162.31,142.91Z" transform="translate(-8.3 -8.18)"/><path class="cls-6" d="M162.3,142.9h0c1.12.73,2.17-1.06,1.05-1.8S161.18,142.16,162.3,142.9Z" transform="translate(-8.3 -8.18)"/><path class="cls-6" d="M159.08,148.55c-6.15-3-11.07,5.44-5.32,9.23-1.12-.74-.06-2.53,1.06-1.79a3.25,3.25,0,0,1,3.21-5.65C156.83,149.75,157.89,148,159.08,148.55Z" transform="translate(-8.3 -8.18)"/><path class="cls-6" d="M159.09,148.55h0c-1.19-.58-2.25,1.2-1.05,1.79S160.29,149.14,159.09,148.55Z" transform="translate(-8.3 -8.18)"/><path class="cls-6" d="M153.76,157.78a3.25,3.25,0,0,1-3.21,5.65c-1.2-.59-2.26,1.2-1.06,1.79,6.15,3,11.07-5.44,5.33-9.23C155.93,156.72,154.88,158.52,153.76,157.78Z" transform="translate(-8.3 -8.18)"/><path class="cls-6" d="M153.76,157.78c1.12.74,2.17-1.06,1.06-1.79S152.64,157,153.76,157.78Z" transform="translate(-8.3 -8.18)"/><path class="cls-6" d="M159.72,187.06a3.25,3.25,0,0,1-4.36-4.82c.94-1-.43-2.52-1.37-1.57-4.82,4.89,1.7,12.22,7.1,8h0C160,189.45,158.67,187.89,159.72,187.06Z" transform="translate(-8.3 -8.18)"/><path class="cls-6" d="M166.82,195c4.82-4.89-1.7-12.22-7.1-8,1-.83,2.41.73,1.38,1.56a3.25,3.25,0,0,1,4.35,4.82l0,0,0,0C166.39,192.49,167.76,194.06,166.82,195Z" transform="translate(-8.3 -8.18)"/><path class="cls-6" d="M159.72,187.06c-1.05.83.32,2.4,1.37,1.57h0C162.14,187.78,160.77,186.23,159.72,187.06Z" transform="translate(-8.3 -8.18)"/><path class="cls-6" d="M171.18,199.83a3.25,3.25,0,0,1-4.36-4.82c-.93.95-2.29-.6-1.39-1.55-4.78,4.89,1.72,12.2,7.11,7.93C171.5,202.22,170.12,200.66,171.18,199.83Z" transform="translate(-8.3 -8.18)"/><path class="cls-6" d="M166.82,195c.94-1-.43-2.52-1.37-1.57l0,0C164.54,194.41,165.89,196,166.82,195Z" transform="translate(-8.3 -8.18)"/><path class="cls-6" d="M171.18,199.83c1-.83,2.42.73,1.37,1.57a3.18,3.18,0,0,1,3.79-.28l1.71-1.25A5.17,5.17,0,0,0,171.18,199.83Z" transform="translate(-8.3 -8.18)"/><path class="cls-6" d="M171.18,199.83c-1.05.83.32,2.4,1.37,1.57S172.22,199,171.18,199.83Z" transform="translate(-8.3 -8.18)"/><path class="cls-6" d="M195.59,103.13h0c-1,.83-2.42-.74-1.37-1.57a3.25,3.25,0,0,1-4.36-4.82c.94-1-.43-2.52-1.37-1.57C183.68,100.06,190.19,107.39,195.59,103.13Z" transform="translate(-8.3 -8.18)"/><path class="cls-6" d="M195.6,103.12a3.25,3.25,0,0,1,4.35,4.82l0,0,0,0c.94-1,2.3.62,1.37,1.57,4.82-4.89-1.7-12.22-7.1-8C195.27,100.73,196.64,102.28,195.6,103.12Z" transform="translate(-8.3 -8.18)"/><path class="cls-6" d="M195.59,103.12h0c1-.84-.33-2.39-1.38-1.56S194.54,104,195.59,103.12Z" transform="translate(-8.3 -8.18)"/><path class="cls-6" d="M199.93,108c-4.78,4.89,1.72,12.2,7.11,7.93-1,.83-2.42-.73-1.37-1.57a3.25,3.25,0,0,1-4.36-4.82C200.39,110.46,199,108.91,199.93,108Z" transform="translate(-8.3 -8.18)"/><path class="cls-6" d="M200,107.94l0,0c-.9,1,.45,2.5,1.39,1.55S200.89,107,200,107.94Z" transform="translate(-8.3 -8.18)"/><path class="cls-6" d="M207,115.9a3.25,3.25,0,0,1,4.36,4.82c-.94,1,.43,2.52,1.37,1.57,4.82-4.89-1.7-12.22-7.1-8C206.72,113.5,208.1,115.06,207,115.9Z" transform="translate(-8.3 -8.18)"/><path class="cls-6" d="M207,115.9c1.05-.83-.32-2.4-1.37-1.57S206,116.72,207,115.9Z" transform="translate(-8.3 -8.18)"/><path class="cls-6" d="M113.87,8.28h0a1,1,0,0,1-1,0q-2.65,0-5.27.21A5.15,5.15,0,0,0,113.87,8.28Z" transform="translate(-8.3 -8.18)"/><path class="cls-6" d="M118.36,13l0,0,0,0c.94-1,2.31.62,1.37,1.57a5.2,5.2,0,0,0,1.15-6.11q-1.26-.07-2.53-.12A3.15,3.15,0,0,1,118.36,13Z" transform="translate(-8.3 -8.18)"/><path class="cls-6" d="M113.85,8.28h-1A1,1,0,0,0,113.85,8.28Z" transform="translate(-8.3 -8.18)"/><path class="cls-6" d="M118.34,13c-4.78,4.89,1.72,12.2,7.11,7.94-1,.83-2.42-.73-1.37-1.57a3.25,3.25,0,0,1-4.36-4.82C118.79,15.52,117.44,14,118.34,13Z" transform="translate(-8.3 -8.18)"/><path class="cls-6" d="M118.36,13l0,0c-.9,1,.45,2.5,1.39,1.55S119.3,12.05,118.36,13Z" transform="translate(-8.3 -8.18)"/><path class="cls-6" d="M125.46,21a3.25,3.25,0,0,1,4.36,4.82c-.94,1,.43,2.52,1.37,1.57,4.82-4.89-1.7-12.22-7.1-8C125.13,18.56,126.51,20.12,125.46,21Z" transform="translate(-8.3 -8.18)"/><path class="cls-6" d="M125.46,21c1.05-.83-.32-2.4-1.37-1.57S124.41,21.79,125.46,21Z" transform="translate(-8.3 -8.18)"/><path class="cls-6" d="M13.22,85a5.2,5.2,0,0,0,1.19-6q-.76,2.13-1.43,4.31A1.1,1.1,0,0,1,13.22,85Z" transform="translate(-8.3 -8.18)"/><path class="cls-6" d="M18.95,91.41c-1,.83-2.42-.73-1.37-1.57A3.25,3.25,0,0,1,13.22,85a.87.87,0,0,1-.83.27q-.7,2.46-1.29,5A5.23,5.23,0,0,0,18.95,91.41Z" transform="translate(-8.3 -8.18)"/><path class="cls-6" d="M13,83.31q-.3,1-.59,2a.87.87,0,0,0,.83-.27A1.1,1.1,0,0,0,13,83.31Z" transform="translate(-8.3 -8.18)"/><path class="cls-6" d="M18.95,91.41a3.25,3.25,0,0,1,4.36,4.82c-.94,1,.43,2.52,1.37,1.57,4.82-4.89-1.7-12.22-7.1-8C18.62,89,20,90.57,18.95,91.41Z" transform="translate(-8.3 -8.18)"/><path class="cls-6" d="M18.95,91.41c1.05-.83-.32-2.4-1.37-1.57S17.9,92.24,18.95,91.41Z" transform="translate(-8.3 -8.18)"/><path class="cls-6" d="M50.57,116.12a3.25,3.25,0,0,1-6.22-1.88c.31-1.3-1.67-1.94-2-.64-1.6,6.68,7.76,9.59,10.18,3.15h0C52.08,118,50.1,117.38,50.57,116.12Z" transform="translate(-8.3 -8.18)"/><path class="cls-6" d="M60.76,119.27c1.6-6.68-7.76-9.59-10.18-3.15.47-1.25,2.44-.62,2,.63a3.25,3.25,0,0,1,6.22,1.88h0C59.09,117.33,61.07,118,60.76,119.27Z" transform="translate(-8.3 -8.18)"/><path class="cls-6" d="M50.57,116.12c-.47,1.26,1.51,1.89,2,.64h0C53,115.5,51,114.88,50.57,116.12Z" transform="translate(-8.3 -8.18)"/><path class="cls-6" d="M67,121.15a3.25,3.25,0,0,1-6.22-1.88c-.31,1.3-2.29.66-2-.63-1.59,6.67,7.76,9.58,10.18,3.14C68.49,123,66.5,122.41,67,121.15Z" transform="translate(-8.3 -8.18)"/><path class="cls-6" d="M60.76,119.27c.31-1.3-1.67-1.94-2-.64h0C58.47,119.94,60.44,120.57,60.76,119.27Z" transform="translate(-8.3 -8.18)"/><path class="cls-6" d="M69,121.79a3.25,3.25,0,0,1,6.22,1.88c-.31,1.3,1.67,1.94,2,.64,1.6-6.67-7.76-9.59-10.18-3.15C67.44,119.9,69.43,120.53,69,121.79Z" transform="translate(-8.3 -8.18)"/><path class="cls-6" d="M69,121.79c.47-1.26-1.51-1.89-2-.64S68.49,123,69,121.79Z" transform="translate(-8.3 -8.18)"/><path class="cls-6" d="M105.75,191.8h0c1.25-.46,2.07,1.45.81,1.92a3.25,3.25,0,0,1,2.64,5.93c-1.19.61-.38,2.53.81,1.92C116.12,198.41,112.21,189.42,105.75,191.8Z" transform="translate(-8.3 -8.18)"/><path class="cls-6" d="M105.74,191.8a3.25,3.25,0,0,1-2.64-5.94h0c-1.19.62-2-1.3-.81-1.92-6.1,3.15-2.19,12.14,4.27,9.77C105.31,194.18,104.49,192.27,105.74,191.8Z" transform="translate(-8.3 -8.18)"/><path class="cls-6" d="M105.75,191.8h0c-1.25.47-.43,2.38.82,1.91S107,191.34,105.75,191.8Z" transform="translate(-8.3 -8.18)"/><path class="cls-6" d="M103.12,185.86c6.08-3.16,2.17-12.13-4.29-9.76,1.25-.46,2.08,1.45.81,1.92a3.25,3.25,0,0,1,2.64,5.93C103.48,183.34,104.28,185.24,103.12,185.86Z" transform="translate(-8.3 -8.18)"/><path class="cls-6" d="M103.1,185.86h0c1.16-.62.36-2.52-.83-1.91S101.91,186.48,103.1,185.86Z" transform="translate(-8.3 -8.18)"/><path class="cls-6" d="M98.83,176.1a3.25,3.25,0,0,1-2.64-5.93c1.19-.61.38-2.53-.81-1.92-6.1,3.15-2.19,12.14,4.27,9.77C98.39,178.48,97.57,176.56,98.83,176.1Z" transform="translate(-8.3 -8.18)"/><path class="cls-6" d="M98.83,176.1c-1.26.47-.44,2.38.81,1.92S100.09,175.64,98.83,176.1Z" transform="translate(-8.3 -8.18)"/><path d="M193.12,80.46c.43,1.27,2.37.5,1.94-.76l-3.21-9.42c-.43-1.27-2.37-.5-1.94.76Z" transform="translate(-8.3 -8.18)"/><path d="M199,79.21c.53,1.23,2.47.47,1.94-.77l-3.93-9.14c-.53-1.23-2.47-.47-1.94.76Z" transform="translate(-8.3 -8.18)"/><path d="M205.3,75.88c.7,1.14,2.36-.12,1.66-1.25l-5.23-8.46c-.7-1.14-2.36.12-1.66,1.25Z" transform="translate(-8.3 -8.18)"/><path d="M24.93,108.61c-.55-1.22-2.41-.27-1.86.94l4.09,9.07c.55,1.22,2.41.27,1.85-.94Z" transform="translate(-8.3 -8.18)"/><path d="M19.16,110.42c-.64-1.17-2.5-.23-1.85.95l4.78,8.72c.64,1.17,2.5.23,1.85-.94Z" transform="translate(-8.3 -8.18)"/><path d="M13.25,114.34c-.81-1.07-2.34.34-1.54,1.4l6,7.93c.81,1.06,2.34-.34,1.54-1.41Z" transform="translate(-8.3 -8.18)"/><path d="M143.82,44.76l-4.09,9.07c-.54,1.21,1.23,2.3,1.78,1.09l4.09-9.07C146.14,44.64,144.37,43.54,143.82,44.76Z" transform="translate(-8.3 -8.18)"/><path d="M133.34,49.39q.34-5,.67-9.93c.09-1.34-2-1.38-2.08,0q-.33,5-.67,9.93C131.17,50.69,133.25,50.73,133.34,49.39Z" transform="translate(-8.3 -8.18)"/><path d="M128.16,48.29q0-5-.1-9.95C128,37,126,37,126,38.3q.05,5,.1,9.95C126.1,49.58,128.18,49.63,128.16,48.29Z" transform="translate(-8.3 -8.18)"/><path d="M122.57,48.83,121,39c-.21-1.32-2.23-.8-2,.51l1.56,9.83C120.76,50.66,122.78,50.14,122.57,48.83Z" transform="translate(-8.3 -8.18)"/><path d="M137.39,51.76l2.56-9.61c.34-1.29-1.65-1.89-2-.59l-2.56,9.61C135,52.46,137,53.06,137.39,51.76Z" transform="translate(-8.3 -8.18)"/><path d="M196,61.45c-18,11.53-36.13-15-17.85-27.91-1,.55-1.9-.91-.93-1.46-8.08,5.8-11.14,16.53-5.55,25.27A18.48,18.48,0,0,0,197,62.9a18.16,18.16,0,0,0,6.29-7l-.92-1.37A16.81,16.81,0,0,1,196,61.45Z" transform="translate(-8.3 -8.18)"/><path d="M178.18,33.54A21,21,0,0,1,181.5,32L180,30.79a21,21,0,0,0-2.78,1.29C178.16,31.43,179.09,32.9,178.18,33.54Z" transform="translate(-8.3 -8.18)"/><path d="M178.18,33.54c.91-.64,0-2.11-.93-1.46S177.22,34.08,178.18,33.54Z" transform="translate(-8.3 -8.18)"/><path d="M181.25,57.58c.88.66,2.05-.62,1.16-1.28-3.88-2.87-6.56-7.79-3.69-12.34.6-.94-.95-1.72-1.54-.79C173.89,48.36,176.79,54.28,181.25,57.58Z" transform="translate(-8.3 -8.18)"/><path d="M185.73,42.67a1.14,1.14,0,0,1-.2,1.58.89.89,0,0,0,1.19-.33A1,1,0,0,0,185.73,42.67Z" transform="translate(-8.3 -8.18)"/><path d="M186.72,43.93h0a.89.89,0,0,1-1.19.33,1.15,1.15,0,1,1,.2-1.58,1,1,0,0,1,1,1.25.82.82,0,0,0,.09-.42c-.12-2.34-3.53-3-4-.49S185.9,46.21,186.72,43.93Z" transform="translate(-8.3 -8.18)"/><path d="M185.73,42.67a.66.66,0,0,0-.55.47l-.09.43a.78.78,0,0,0,.44.69,1.14,1.14,0,0,0,.2-1.58Z" transform="translate(-8.3 -8.18)"/><path d="M185.09,43.57l.09-.43a.66.66,0,0,1,.55-.47,1.16,1.16,0,1,0-.2,1.58A.78.78,0,0,1,185.09,43.57Z" transform="translate(-8.3 -8.18)"/><path d="M189.16,53.27a1.14,1.14,0,0,1,.76-1.41.86.86,0,1,0-.76,1.41Z" transform="translate(-8.3 -8.18)"/><path d="M192.06,53.9c1.19-2.25-1.93-3.9-3.45-2.06a.89.89,0,0,0-.18.34.92.92,0,0,1,1.49-.32,1.16,1.16,0,1,1-.76,1.41.92.92,0,0,1-.73-1.09l0,0C187.71,54.52,190.88,56.14,192.06,53.9Z" transform="translate(-8.3 -8.18)"/><path d="M190.09,52.6l-.2.39a.73.73,0,0,1-.73.27,1.15,1.15,0,1,0,.76-1.41A.7.7,0,0,1,190.09,52.6Z" transform="translate(-8.3 -8.18)"/><path d="M189.25,52.42a1.14,1.14,0,0,0-.09.85.73.73,0,0,0,.73-.27l.2-.39a.7.7,0,0,0-.17-.74A1.15,1.15,0,0,0,189.25,52.42Z" transform="translate(-8.3 -8.18)"/><path d="M185.93,117.5a.54.54,0,0,0,.33.31l.07,0,.23-.08,0,0a.66.66,0,0,1-.34-.07Z" transform="translate(-8.3 -8.18)"/><path d="M186.11,116.86l0,0,0,0a.59.59,0,0,0-.16.34l.46.24a.36.36,0,0,0,.5-.11.58.58,0,0,0-.19-.41A.52.52,0,0,0,186.11,116.86Z" transform="translate(-8.3 -8.18)"/><path d="M186.66,116.55l-.33-.17a1.39,1.39,0,0,1-.09.25.73.73,0,0,1,.52.17.84.84,0,0,1,.18.25A.5.5,0,0,0,186.66,116.55Z" transform="translate(-8.3 -8.18)"/><path d="M185.74,117a1.57,1.57,0,0,1-.25.08l.2.11A.89.89,0,0,1,185.74,117Z" transform="translate(-8.3 -8.18)"/><path d="M186.15,116.3l-22.72-11.43a.38.38,0,0,0-.55.19.51.51,0,0,0,.22.73l22.13,11.15.72-.23A.84.84,0,0,0,186.15,116.3Z" transform="translate(-8.3 -8.18)"/><path d="M186,117.91a.74.74,0,0,1-.32-.45s0,0,0-.07l-.48-.24c-7.9,2.37-15.07.8-20.81-4.6-.36-.32-8.71-8.24-6.47-10.89,1.63-1.91,10.79-.11,11.17,0a23.52,23.52,0,0,1,9.38,4.1c1.24.91,7.7,7.15,7.91,10.1a1.78,1.78,0,0,1,0,.38l.38.2a.7.7,0,0,1,.39.6,2.88,2.88,0,0,0,.24-1.83c-.48-3-4.53-7-7.92-9.69a27.2,27.2,0,0,0-4.11-2.79,27.14,27.14,0,0,0-11.73-2.55c-.27,0-.6,0-1,0-1.78,0-4.5-.13-5.53.7a2,2,0,0,0-.76,1.54c-.16,3.24,5.18,8.8,6.82,10.42C169.4,118.92,177.28,120.69,186,117.91Z" transform="translate(-8.3 -8.18)"/><path d="M186.35,118c.17-.08.13,0,.24-.12a1.05,1.05,0,0,0,.4-.3,2.92,2.92,0,0,0,.6-2.46c-.76-4.63-9.51-11.35-12.15-12.64a27.34,27.34,0,0,0-11.8-2.56h-1c-1.82-.07-4.57-.14-5.65.75a2.17,2.17,0,0,0-.83,1.68c-.17,3.31,5.22,8.93,6.88,10.57a22.77,22.77,0,0,0,2.13,1.9C171.15,119.5,178.41,120.62,186.35,118Zm.2-.26-.23.08-.07,0a.54.54,0,0,1-.33-.31l.31.17a.66.66,0,0,0,.34.07Zm-.23-.26-.46-.24a.59.59,0,0,1,.16-.34l0,0,0,0a.52.52,0,0,1,.52.1.58.58,0,0,1,.19.41A.36.36,0,0,1,186.33,117.49Zm-1.1-.55L163.1,105.79a.51.51,0,0,1-.22-.73.38.38,0,0,1,.55-.19l22.72,11.43a.84.84,0,0,1-.21.41Zm.51,0a.89.89,0,0,0,0,.18l-.2-.11A1.57,1.57,0,0,0,185.74,117Zm-22.86-11.09.13.09,21.94,11c-7.74,2.26-14.79.7-20.42-4.6-.08-.08-8.58-8.12-6.45-10.63,1.24-1.46,7.73-.61,11,0a23.16,23.16,0,0,1,9.31,4.06l.11.09c1.46,1.15,7.53,7.06,7.73,9.86a1.85,1.85,0,0,1,0,.27l-22.66-11.4a.58.58,0,0,0-.82.28A.74.74,0,0,0,162.88,105.89Zm23.88,10.92a.73.73,0,0,0-.52-.17,1.39,1.39,0,0,0,.09-.25l.33.17a.5.5,0,0,1,.28.51A.84.84,0,0,0,186.76,116.81Zm-23.56-4c-1.64-1.63-7-7.19-6.82-10.42a2,2,0,0,1,.76-1.54c1-.84,3.75-.75,5.53-.7.36,0,.69,0,1,0a27.14,27.14,0,0,1,11.73,2.55,27.2,27.2,0,0,1,4.11,2.79c3.4,2.68,7.44,6.65,7.92,9.69a2.88,2.88,0,0,1-.24,1.83.7.7,0,0,0-.39-.6l-.38-.2a1.78,1.78,0,0,0,0-.37c-.21-2.94-6.67-9.18-7.91-10.1a23.52,23.52,0,0,0-9.38-4.1c-.39-.07-9.54-1.88-11.17,0-2.24,2.65,6.11,10.57,6.47,10.89,5.74,5.4,12.91,7,20.81,4.6l.48.24s0,0,0,.07a.74.74,0,0,0,.32.45C177.28,120.69,169.4,118.92,163.2,112.78Z" transform="translate(-8.3 -8.18)"/><path d="M118.09,213a1.39,1.39,0,0,1,.1-.18v0a.57.57,0,0,1-.25.16l-.29.08a.45.45,0,0,0,.38,0Z" transform="translate(-8.3 -8.18)"/><path d="M118.14,212.48a.49.49,0,0,0-.36-.14.44.44,0,0,0-.38.24l0,0v0a.49.49,0,0,0,.1.3l.42-.12A.31.31,0,0,0,118.14,212.48Z" transform="translate(-8.3 -8.18)"/><path d="M118,212.22a.43.43,0,0,0-.47-.15l-.3.09a1.13,1.13,0,0,1,.09.21.62.62,0,0,1,.42-.2A.68.68,0,0,1,118,212.22Z" transform="translate(-8.3 -8.18)"/><path d="M117.13,213.06l.19-.05a.69.69,0,0,1-.08-.14A1.21,1.21,0,0,1,117.13,213.06Z" transform="translate(-8.3 -8.18)"/><path d="M117.1,212.21l-20.68,6.21a.32.32,0,0,0-.23.44.44.44,0,0,0,.56.32l20.15-6c.1-.19.21-.37.31-.56A.73.73,0,0,0,117.1,212.21Z" transform="translate(-8.3 -8.18)"/><path d="M98,213.11a20,20,0,0,1,8.18-2.95c1.3-.16,8.92-.08,10.77,1.61a1.44,1.44,0,0,1,.21.24l.35-.1a.59.59,0,0,1,.59.14,2.45,2.45,0,0,0-.92-1.27c-2.07-1.59-6.88-1.68-10.54-1.35a23.13,23.13,0,0,0-4.16.68,23,23,0,0,0-8.72,5.27c-.16.16-.37.35-.6.55a19.89,19.89,0,0,0-2.29,2.28l.76.17C93.18,216.17,97.78,213.26,98,213.11Z" transform="translate(-8.3 -8.18)"/><path d="M118,213.28a.63.63,0,0,1-.46-.09l0,0-.44.13a18.42,18.42,0,0,1-7.54,7.47l1.58.06A20,20,0,0,0,118,213.28Z" transform="translate(-8.3 -8.18)"/><path d="M118.22,213.15c.06-.15.06-.1.08-.21a.87.87,0,0,0,.07-.42,2.48,2.48,0,0,0-1.07-1.87c-3.17-2.41-12.49-1.45-14.87-.7a23.21,23.21,0,0,0-8.77,5.31l-.6.55a18.18,18.18,0,0,0-2.36,2.36l.18,0a19.89,19.89,0,0,1,2.29-2.28c.23-.2.44-.39.6-.55a23,23,0,0,1,8.72-5.27,23.13,23.13,0,0,1,4.16-.68c3.66-.33,8.47-.24,10.54,1.35a2.45,2.45,0,0,1,.92,1.27.59.59,0,0,0-.59-.14l-.35.1a1.44,1.44,0,0,0-.21-.24c-1.85-1.69-9.47-1.77-10.77-1.61A20,20,0,0,0,98,213.11c-.23.15-4.84,3.06-6.37,5.27l.18,0c1.23-1.71,4.41-4,6.28-5.16a19.67,19.67,0,0,1,8.11-2.93h.12c1.57-.14,8.76,0,10.52,1.57l.15.17-20.63,6.2a.49.49,0,0,0-.34.65.67.67,0,0,0,.35.4l.32.05h.1l20-6a18.08,18.08,0,0,1-7.66,7.38h.36a18.42,18.42,0,0,0,7.54-7.47l.44-.13,0,0a.63.63,0,0,0,.46.09A20,20,0,0,1,111,220.8h.29A20.42,20.42,0,0,0,118.22,213.15Zm-1.32,0-20.15,6a.44.44,0,0,1-.56-.32.32.32,0,0,1,.23-.44l20.68-6.21a.73.73,0,0,1,.11.37C117.11,212.77,117,212.95,116.9,213.14Zm.23-.08a1.21,1.21,0,0,0,.11-.19.69.69,0,0,0,.08.14Zm.13-.9.3-.09a.43.43,0,0,1,.47.15.68.68,0,0,0-.26-.05.62.62,0,0,0-.42.2A1.13,1.13,0,0,0,117.26,212.16Zm.22.8a.49.49,0,0,1-.1-.3v0l0,0a.44.44,0,0,1,.38-.24.49.49,0,0,1,.36.14.31.31,0,0,1-.24.36Zm.18.12.29-.08a.57.57,0,0,0,.25-.16v0a1.39,1.39,0,0,0-.1.18l-.05,0A.45.45,0,0,1,117.66,213.08Z" transform="translate(-8.3 -8.18)"/><path d="M70.42,87.45a.55.55,0,0,0,.46,0l.06,0a1.7,1.7,0,0,1,.12-.22s0,0,0,0a.68.68,0,0,1-.3.19Z" transform="translate(-8.3 -8.18)"/><path d="M70.11,86.85s0,0,0,0v0a.6.6,0,0,0,.12.36l.51-.15a.37.37,0,0,0,.29-.43.59.59,0,0,0-.43-.17A.53.53,0,0,0,70.11,86.85Z" transform="translate(-8.3 -8.18)"/><path d="M70.55,86.35a.84.84,0,0,1,.31.06.52.52,0,0,0-.57-.18l-.36.11a1.36,1.36,0,0,1,.11.25A.75.75,0,0,1,70.55,86.35Z" transform="translate(-8.3 -8.18)"/><path d="M69.91,87.2a1.48,1.48,0,0,1-.13.23l.23-.06A.81.81,0,0,1,69.91,87.2Z" transform="translate(-8.3 -8.18)"/><path d="M69.88,86.85a.89.89,0,0,0-.13-.45l-25,7.5a.39.39,0,0,0-.28.53.53.53,0,0,0,.67.39L69.5,87.52C69.62,87.29,69.76,87.08,69.88,86.85Z" transform="translate(-8.3 -8.18)"/><path d="M70.78,87.69a.77.77,0,0,1-.56-.11l-.06,0-.53.16C65.42,95,59,98.91,50.89,98.94c-.5,0-12.3,0-12.5-3.55-.13-2.57,8-7.68,8.3-7.9a24.13,24.13,0,0,1,9.88-3.56c1.57-.19,10.77-.1,13,1.94a1.74,1.74,0,0,1,.25.29l.42-.12a.71.71,0,0,1,.71.17,3,3,0,0,0-1.11-1.54c-2.5-1.92-8.31-2-12.73-1.63a27.94,27.94,0,0,0-5,.82,27.82,27.82,0,0,0-10.53,6.37c-.19.19-.45.42-.73.66-1.36,1.22-3.44,3.07-3.62,4.42A2.09,2.09,0,0,0,37.74,97c2.16,2.52,10.06,2.9,12.43,3C59.11,100.16,66.23,95.93,70.78,87.69Z" transform="translate(-8.3 -8.18)"/><path d="M53.09,100.06c7.74-.7,13.93-5,18-12.53.07-.18.07-.12.1-.25a1.05,1.05,0,0,0,.08-.51A3,3,0,0,0,70,84.52c-3.83-2.91-15.09-1.75-18-.85a28,28,0,0,0-10.6,6.41l-.72.67C39.3,92,37.2,93.87,37,95.29a2.23,2.23,0,0,0,.57,1.84c2.21,2.59,10.18,3,12.57,3A23.53,23.53,0,0,0,53.09,100.06Zm18-12.87a1.7,1.7,0,0,0-.12.22l-.06,0a.55.55,0,0,1-.46,0l.35-.1a.68.68,0,0,0,.3-.19S71.06,87.18,71.06,87.2Zm-.35,0-.51.15a.6.6,0,0,1-.12-.36v0s0,0,0,0a.53.53,0,0,1,.46-.29.59.59,0,0,1,.43.17A.37.37,0,0,1,70.71,87.16ZM44.29,94.49a.76.76,0,0,0,.77.55l.16,0,24.12-7.25c-4.17,7.14-10.52,10.94-18.46,11-.12,0-12.11,0-12.3-3.37-.11-2,5.33-5.91,8.2-7.71a23.75,23.75,0,0,1,9.8-3.54h.14c1.9-.17,10.58,0,12.71,1.9l.18.2L44.7,93.71A.59.59,0,0,0,44.29,94.49Zm.87.33a.53.53,0,0,1-.67-.39.39.39,0,0,1,.28-.53l25-7.5a.89.89,0,0,1,.13.45c-.12.23-.25.45-.37.68ZM69.91,87.2a.81.81,0,0,0,.1.17l-.23.06A1.48,1.48,0,0,0,69.91,87.2Zm0-.86.36-.11a.52.52,0,0,1,.57.18.84.84,0,0,0-.31-.06.75.75,0,0,0-.51.24A1.36,1.36,0,0,0,69.94,86.34Zm-32.72,9c.18-1.35,2.26-3.2,3.62-4.42.28-.24.53-.47.73-.66A27.82,27.82,0,0,1,52.1,83.86a27.94,27.94,0,0,1,5-.82c4.42-.4,10.23-.29,12.73,1.63A3,3,0,0,1,71,86.21a.71.71,0,0,0-.71-.17l-.42.12a1.74,1.74,0,0,0-.25-.29c-2.23-2-11.44-2.14-13-1.94a24.13,24.13,0,0,0-9.88,3.56c-.34.22-8.43,5.33-8.3,7.9.21,3.55,12,3.56,12.5,3.55C59,98.91,65.42,95,69.64,87.69l.53-.16.06,0a.77.77,0,0,0,.56.11C66.23,95.93,59.11,100.16,50.16,100c-2.37-.06-10.27-.43-12.43-3A2.09,2.09,0,0,1,37.21,95.31Z" transform="translate(-8.3 -8.18)"/><path d="M187.65,85.78a.81.81,0,0,0,.24-1.23A1.1,1.1,0,0,1,187.65,85.78Z" transform="translate(-8.3 -8.18)"/><path d="M184.68,84.45c.58.43,1.15.87,1.71,1.31a1,1,0,0,0,1.21.06.1.1,0,0,0,.05,0,1.1,1.1,0,0,0,.24-1.23l-.13-.13c-.12-.09-.23-.19-.35-.27a.76.76,0,0,0-.34,0Z" transform="translate(-8.3 -8.18)"/><path d="M187.89,84.55a.66.66,0,0,0-.48-.4c.12.08.23.18.35.27Z" transform="translate(-8.3 -8.18)"/><path d="M152.2,82.1c.58,6.61,6.42,9.82,12.61,8.64,7.47-1.42,14.65-3.71,22.27-4.69a1,1,0,0,0,.52-.23,1,1,0,0,1-1.21-.06c-.56-.44-1.13-.88-1.71-1.31-2.44.35-4.87.73-7.29,1.17-4.88.87-10.45,3.58-15.37,3.46-4.55-.1-9.78-4.61-7.84-9.71,1.3-3.41,5.78-3.71,8.89-3.6,7.89.27,15.36,4,21.61,8.68l2.39-.32a.76.76,0,0,1,.34,0C180.06,78.36,170.66,73.3,161,73.88,155.87,74.19,151.71,76.48,152.2,82.1Z" transform="translate(-8.3 -8.18)"/><path class="cls-7" d="M154.18,79.37c-1.94,5.1,3.29,9.61,7.84,9.71,4.92.12,10.49-2.59,15.37-3.46,2.42-.44,4.85-.82,7.29-1.17C178.43,79.8,171,76,163.07,75.77,160,75.66,155.48,76,154.18,79.37Zm10.53.5c-1.94-1-4.54-1.61-6.6-.68-1.12.5-2.08-1.17-1-1.67a9.9,9.9,0,0,1,8.5.69C166.76,78.78,165.8,80.44,164.71,79.87Z" transform="translate(-8.3 -8.18)"/><path d="M142.79,22.08l-.72.67c-1.4,1.23-3.5,3.11-3.68,4.54a2.2,2.2,0,0,0,.56,1.83c2.21,2.59,10.19,3,12.58,3a23.5,23.5,0,0,0,2.92-.08,21.39,21.39,0,0,0,15.29-8.38l-.17-.1a21.41,21.41,0,0,1-18,8.38c-2.37-.06-10.27-.43-12.43-3a2.08,2.08,0,0,1-.52-1.68c.18-1.35,2.26-3.2,3.62-4.42.28-.24.53-.47.73-.66a27.68,27.68,0,0,1,10.53-6.37l.38-.11-.3-.12-.14,0A28.07,28.07,0,0,0,142.79,22.08Z" transform="translate(-8.3 -8.18)"/><path d="M139.75,27.39c.21,3.55,12,3.56,12.5,3.55a20.39,20.39,0,0,0,16.45-7.88l-.18-.11a20.15,20.15,0,0,1-16.27,7.79c-.12,0-12.11,0-12.29-3.37-.11-2,5.32-5.9,8.2-7.7a24.05,24.05,0,0,1,7.56-3.15l-.34-.14a24.48,24.48,0,0,0-7.33,3.1C147.71,19.7,139.62,24.81,139.75,27.39Z" transform="translate(-8.3 -8.18)"/><path d="M145.66,26.49a.76.76,0,0,0,.77.56.9.9,0,0,1,.16,0l19-5.72-.24-.13-18.85,5.65a.53.53,0,0,1-.68-.39.4.4,0,0,1,.28-.53l18-5.4-.26-.14-17.79,5.35A.59.59,0,0,0,145.66,26.49Z" transform="translate(-8.3 -8.18)"/><path d="M152.25,30.94c-.49,0-12.29,0-12.5-3.55-.13-2.58,8-7.69,8.3-7.91a24.48,24.48,0,0,1,7.33-3.1l-1.54-.63-.38.11a27.68,27.68,0,0,0-10.53,6.37c-.2.19-.45.42-.73.66-1.36,1.22-3.44,3.07-3.62,4.42A2.08,2.08,0,0,0,139.1,29c2.16,2.53,10.06,2.9,12.43,3a21.41,21.41,0,0,0,18-8.38l-.87-.51A20.39,20.39,0,0,1,152.25,30.94Z" transform="translate(-8.3 -8.18)"/><path d="M145.85,26.43a.53.53,0,0,0,.68.39l18.85-5.65-1.26-.67-18,5.4A.4.4,0,0,0,145.85,26.43Z" transform="translate(-8.3 -8.18)"/><path class="cls-7" d="M140,27.37c.18,3.37,12.17,3.37,12.29,3.37a20.15,20.15,0,0,0,16.27-7.79q-1.44-.85-2.9-1.65l-19,5.72a.9.9,0,0,0-.16,0,.76.76,0,0,1-.77-.56.59.59,0,0,1,.41-.78l17.79-5.35q-4-2.08-8.14-3.84a24.05,24.05,0,0,0-7.56,3.15C145.28,21.47,139.85,25.42,140,27.37Z" transform="translate(-8.3 -8.18)"/><path d="M157.16,77.52c-1.13.5-.17,2.17,1,1.67,2.06-.93,4.66-.33,6.6.68,1.09.57,2-1.09,1-1.66A9.9,9.9,0,0,0,157.16,77.52Z" transform="translate(-8.3 -8.18)"/><path d="M126.6,208.82c.29-1.13,2.25-.9,2.3.47,1.29-15.79,27.07-15.42,26.75.55a13,13,0,0,1-.4,3q1.32-.54,2.61-1.12A17,17,0,0,0,158,210C158.4,191,128.47,190.41,126.6,208.82Z" transform="translate(-8.3 -8.18)"/><path d="M128.9,209.29a1.19,1.19,0,0,1-2.32.25,14.11,14.11,0,0,0,4.74,10q1.49-.24,3-.51A11.81,11.81,0,0,1,128.9,209.29Z" transform="translate(-8.3 -8.18)"/><path class="cls-7" d="M134.28,219a105.47,105.47,0,0,0,21-6.23,13,13,0,0,0,.4-3c.32-16-25.46-16.34-26.75-.55A11.81,11.81,0,0,0,134.28,219Zm-2.53-10.29c1-4.88,4.72-9.44,10.17-8.78,1.49.18,1.38,2.53-.13,2.34-4.42-.54-7,3.26-7.81,7.16C133.69,211,131.46,210.23,131.75,208.76Z" transform="translate(-8.3 -8.18)"/><path d="M134,209.48c.77-3.9,3.39-7.7,7.81-7.16,1.51.19,1.62-2.16.13-2.34-5.45-.66-9.21,3.9-10.17,8.78C131.46,210.23,133.69,211,134,209.48Z" transform="translate(-8.3 -8.18)"/><path d="M128.9,209.29c-.05-1.37-2-1.6-2.3-.47,0,.11,0,.23,0,.35s0,.17,0,.25a.5.5,0,0,0,0,.12A1.19,1.19,0,0,0,128.9,209.29Z" transform="translate(-8.3 -8.18)"/><path d="M79.58,14.18l-2,.7a.92.92,0,0,0,.72.41c15,1,27,9.13,27.12,25l.61-.38c1.13-.71,2,1.18.88,1.89a.82.82,0,0,0,.6-.85c0-13.51-6.78-22.71-20.06-26.25-.88-.24-1.82-.5-2.78-.74a11.92,11.92,0,0,1-2.36.53A6.46,6.46,0,0,1,79.58,14.18Z" transform="translate(-8.3 -8.18)"/><path d="M106.07,39.94l-.61.38c0,.15,0,.31,0,.47a1.12,1.12,0,0,0,1.46,1s0,0,0,0C108.07,41.12,107.2,39.23,106.07,39.94Z" transform="translate(-8.3 -8.18)"/><path d="M105.47,40.79c0-.16,0-.32,0-.47-13.3,8-26.77,2.52-35.64-9.71-.7-1-2.24.06-1.74,1.11.24.5.47,1,.68,1.61L69.6,33c-.59-1.34,1-.1,2,3l.35.44c9.32,11.45,23,13,35,5.41A1.12,1.12,0,0,1,105.47,40.79Z" transform="translate(-8.3 -8.18)"/><path d="M67.18,58.35C71.69,54,72.85,44.77,72.24,39a15,15,0,0,0-.64-3,15.57,15.57,0,0,1-2-3l-.84.32c2.05,5.42,2.82,13.45-.27,18.14-8.41,12.76-18.26.55-21.65-7.38a39.72,39.72,0,0,1-2.57-9.22q-.87.77-1.73,1.56a43.46,43.46,0,0,0,1.88,7C47.23,51.06,58.64,66.5,67.18,58.35Z" transform="translate(-8.3 -8.18)"/><path d="M84.71,14a20.08,20.08,0,0,0,5.47-2.89q-4.26,1-8.38,2.34A25.23,25.23,0,0,1,84.71,14Z" transform="translate(-8.3 -8.18)"/><path class="cls-7" d="M69.82,30.61c8.87,12.23,22.34,17.71,35.64,9.71-.17-15.89-12.1-24-27.12-25a.92.92,0,0,1-.72-.41q-4.56,1.69-8.91,3.78l13,7.17c1.17.65-.05,2.34-1.21,1.7l-14-7.75q-4.52,2.3-8.78,5a44.34,44.34,0,0,1,3.17,18.45c-.07,1.34-2.14,1.15-2.07-.19a42.61,42.61,0,0,0-2.83-17.13,106.73,106.73,0,0,0-11.66,9,39.72,39.72,0,0,0,2.57,9.22C50.23,52,60.08,64.23,68.49,51.47c3.09-4.69,2.32-12.72.27-18.14-.21-.57-.44-1.11-.68-1.61C67.58,30.67,69.12,29.65,69.82,30.61Z" transform="translate(-8.3 -8.18)"/><path d="M79.58,14.18a6.46,6.46,0,0,0,2.77.33A11.92,11.92,0,0,0,84.71,14a25.23,25.23,0,0,0-2.91-.55Z" transform="translate(-8.3 -8.18)"/><path d="M80.47,27.53c1.16.64,2.38-1,1.21-1.7l-13-7.17q-1.14.55-2.26,1.12Z" transform="translate(-8.3 -8.18)"/><path d="M69.6,33a15.57,15.57,0,0,0,2,3C70.6,32.91,69,31.67,69.6,33Z" transform="translate(-8.3 -8.18)"/><path d="M67.11,134.82a3.18,3.18,0,0,0-1.16-.18c-1.22,1.5-2.93,2.41-3,4.59a11.18,11.18,0,0,0,.47,3.09c.2.81,1,2.18,1,3v0c.5-.08,0,.73,0,0a1.42,1.42,0,0,0-.51.2,12.43,12.43,0,0,1-2.93,1c-1.79.47-3.63.63-5.43,1a17,17,0,0,0-6.94,3.72.94.94,0,0,0-.27,1.06,1.59,1.59,0,0,0,1.26.87l.12-.52c.09-.36.17-.71.26-1.06-.12-.3.77-.11,1.29-.08a21.41,21.41,0,0,1,7.87-2.77,26.23,26.23,0,0,0,5.12-1.24,3.48,3.48,0,0,0,1.9-1.54c.57-1.32-1-3.84-1.21-5.1-.36-2,.21-2.61,1.58-4a10.59,10.59,0,0,0,1.78-2.51.89.89,0,0,0-.49-1.16,4,4,0,0,0-1.15-.23l0,.72Z" transform="translate(-8.3 -8.18)"/><path d="M66.61,133.65a5.7,5.7,0,0,1-.66,1,3.18,3.18,0,0,1,1.16.18Z" transform="translate(-8.3 -8.18)"/><path d="M54.73,131.29a14.54,14.54,0,0,1-2.17,1.66c-.8,1.23-1.44,2.58-1.83,3.3a21.09,21.09,0,0,1-5,6.62l-.19.43c-.24.53.07,1.13-.37.76H44.13l-.52,0a1.69,1.69,0,0,0,.54,1.45.92.92,0,0,0,1.09,0,17.77,17.77,0,0,0,5.1-4.71c1.1-1.6,1.79-3.49,2.81-5.15.4-.66,2.27-3.58,2.27-3.6.35,0,1.83,1.4,2.13,1.6a14.68,14.68,0,0,0,3,1.66c2,.72,3.61-.6,5.4-.63a5.7,5.7,0,0,0,.66-1l0-.72c-2.2-.15-4.18,1.27-6.17.35-1.36-.63-3.34-3-4.87-3a1.84,1.84,0,0,0-.71.19A.89.89,0,0,1,54.73,131.29Z" transform="translate(-8.3 -8.18)"/><path d="M49.56,153.19h0a6.82,6.82,0,0,0,1.2.13c3.65.16,7.83-1.32,11.18-2.65.41-.16,2.39-1.46,2.8-1.41-.17,0,0,.82.07,1.32a16.23,16.23,0,0,1-.13,4.51c-.77,4.31-5.85,5.28-9.56,6a34.09,34.09,0,0,1-7,.7c-2.44,0-4.76-.67-7.18-.8-1.5-.08-4-.12-4.85,1.43-1.28,2.23,2.5,3,3.91,3.22A42.79,42.79,0,0,0,55,165a24.34,24.34,0,0,0,5-1.53c.6-.26,1.48-1,2.26-1.38a1.73,1.73,0,0,0-.09-.81l-.21-.45a21.91,21.91,0,0,1-3.11,1.19,13.51,13.51,0,0,0,1.91-.93c.74-.44,1.21-1,2.09-1a1,1,0,0,1,.49.08,6.44,6.44,0,0,0,3.11-4.86c.28-1.64,1-6.73-.93-7.77a1.29,1.29,0,0,0-1.29,0c-.3.15-.59.36-.9.52a32.07,32.07,0,0,1-4.81,1.9,29.59,29.59,0,0,1-7.13,1.57h-.17a13.41,13.41,0,0,0-1.55,1.14Zm7.24,9.58a42.9,42.9,0,0,1-14.14,1.35,12.29,12.29,0,0,1-4.66-.89l-.39.2c.14-.08-.21-.52,0-.41a4,4,0,0,0,.42.21,5.46,5.46,0,0,1,2.76-.44c4,.18,7.63,1,11.68.56a38,38,0,0,0,6.39-1.27C58.16,162.35,57.48,162.57,56.8,162.77Z" transform="translate(-8.3 -8.18)"/><path class="cls-7" d="M37.54,185.13c1,.51,2.89,1.74,4.11,1.65s2.57-1.69,3.41-2.45c1.64-1.48,3.2-3.06,4.75-4.65.59-.6,1.17-1.21,1.76-1.83a31.53,31.53,0,0,1-7.31-.64c-3.82-.69-7.63-1.71-11.37-2.73-1.57-.42-3.69-.8-4.92-2a2.21,2.21,0,0,1-.33-3.11c1.22-1.26,3.85-.27,5.22.12a60.8,60.8,0,0,0,20.61,2.41c2-.13,3.67.15,5-1.15a10.44,10.44,0,0,0,2-3.32c.5-1.17,1.78-3.72,1.86-5.31-.78.4-1.66,1.12-2.26,1.38A24.34,24.34,0,0,1,55,165a42.79,42.79,0,0,1-15,.61c-1.41-.23-5.19-1-3.91-3.22.89-1.55,3.35-1.51,4.85-1.43,2.42.13,4.74.78,7.18.8a34.09,34.09,0,0,0,7-.7c3.71-.73,8.79-1.7,9.56-6a16.23,16.23,0,0,0,.13-4.51c-.05-.5-.24-1.32-.07-1.32-.41,0-2.39,1.25-2.8,1.41-3.35,1.33-7.53,2.81-11.18,2.65a6.82,6.82,0,0,1-1.2-.13h0a1.59,1.59,0,0,1-1.26-.87.94.94,0,0,1,.27-1.06,17,17,0,0,1,6.94-3.72c1.8-.4,3.64-.56,5.43-1a12.43,12.43,0,0,0,2.93-1,1.42,1.42,0,0,1,.51-.2v0c.06-.81-.76-2.18-1-3a11.18,11.18,0,0,1-.47-3.09c.07-2.18,1.78-3.09,3-4.59-1.79,0-3.41,1.35-5.4.63a14.68,14.68,0,0,1-3-1.66c-.3-.2-1.78-1.62-2.13-1.6,0,0-1.87,2.94-2.27,3.6-1,1.66-1.71,3.55-2.81,5.15a17.77,17.77,0,0,1-5.1,4.71.92.92,0,0,1-1.09,0,1.69,1.69,0,0,1-.54-1.45,8,8,0,0,1,.87-2.8A33,33,0,0,1,49,134a33.13,33.13,0,0,1,3.67-3.19c-1.66-1.15-4.59-1.66-6.29-1.86-2.34-.28-3.5.38-5,2.07a32.06,32.06,0,0,0-6.14,11c-1.12,3.31-.74,7.55-2.74,10.53-.52.77-1.54,1.82-2.61,1.46-2.34-.82-.79-5.94-.43-7.31a48,48,0,0,1,5.06-12.42,22.85,22.85,0,0,1,3-4c.34-.35,1-.79,1.51-1.25-1.84-.51-5.3.09-6.73.32a7.3,7.3,0,0,0-3,1c-2,1.36-2.94,6.13-3.69,8.69-1.68,5.66-2.12,11.36-2.53,17.1-.11,1.65-.52,4.88-3,3.91a3,3,0,0,1-1.59-2.42c-.44-2.32-.05-4.93.11-7.26.28-4.17.4-8.42,1.42-12.48a26.08,26.08,0,0,1,1.09-3.44l-2.64,1.31c-2,1-3.91,2-5.79,3.1-.37.22-.87.47-1.38.77A106,106,0,0,0,33,182.73C34.52,183.56,36,184.37,37.54,185.13Z" transform="translate(-8.3 -8.18)"/><path d="M64.38,145.34c0,.73.5-.08,0,0Z" transform="translate(-8.3 -8.18)"/><path d="M62,160.88l.21.45.95.52a2,2,0,0,0-.86.29c-.08,1.59-1.36,4.14-1.86,5.31a10.44,10.44,0,0,1-2,3.32c-1.3,1.3-3,1-5,1.15a60.8,60.8,0,0,1-20.61-2.41c-1.37-.39-4-1.38-5.22-.12A2.21,2.21,0,0,0,28,172.5c1.23,1.18,3.35,1.56,4.92,2,3.74,1,7.55,2,11.37,2.73a31.53,31.53,0,0,0,7.31.64l1.85-1.95c.17-.18.4-.48.64-.75a12,12,0,0,1-3.39.79c-4.89.35-9.85-1.28-14.53-2.45-1.06-.27-6.69-1-7.15-2.52-.21-.7,5.41.85,6.07,1a60.62,60.62,0,0,0,11.61,1.74,56.92,56.92,0,0,0,8.33.14,11.73,11.73,0,0,0,3.11-.69,6.59,6.59,0,0,0,2.93-3c1.28-2.18,3.75-7.11,2.78-9.57a.76.76,0,0,0-.47-.44l-.7.39A5.92,5.92,0,0,1,62,160.88Z" transform="translate(-8.3 -8.18)"/><path d="M62.18,161.33a1.73,1.73,0,0,1,.09.81,2,2,0,0,1,.86-.29Z" transform="translate(-8.3 -8.18)"/><path d="M60.77,161.14a13.51,13.51,0,0,1-1.91.93A21.91,21.91,0,0,0,62,160.88a5.92,5.92,0,0,0,.68-.32l.7-.39a1,1,0,0,0-.49-.08C62,160.13,61.51,160.7,60.77,161.14Z" transform="translate(-8.3 -8.18)"/><path d="M58.77,43c-.07,1.34,2,1.53,2.07.19a44.34,44.34,0,0,0-3.17-18.45l-1.73,1.13A42.61,42.61,0,0,1,58.77,43Z" transform="translate(-8.3 -8.18)"/><path d="M54.43,174.88c.29.47.57,1,.85,1.42.59,0,0,.21-.4.64a2.78,2.78,0,0,0,1-1,.91.91,0,0,0-.79-1.43H55a1.62,1.62,0,0,0-.94.62A.87.87,0,0,0,54.43,174.88Z" transform="translate(-8.3 -8.18)"/><path d="M51.57,177.85a7,7,0,0,0,3.31-.91c.4-.43,1-.67.4-.64-.28-.47-.56-1-.85-1.42a.87.87,0,0,1-.36.27h0c-.24.27-.47.57-.64.75Z" transform="translate(-8.3 -8.18)"/><path d="M52.56,132.95a14.54,14.54,0,0,0,2.17-1.66.89.89,0,0,0,.15-.77,4,4,0,0,0-1.19.93A10.51,10.51,0,0,0,52.56,132.95Z" transform="translate(-8.3 -8.18)"/><path d="M49.81,179.68c-1.55,1.59-3.11,3.17-4.75,4.65-.84.76-2.21,2.35-3.41,2.45s-3.06-1.14-4.11-1.65c-1.52-.76-3-1.57-4.5-2.39q1.78,2.13,3.68,4.17c.81,0,1.87-.06,2.4.44a1,1,0,0,1,.35.82,9.13,9.13,0,0,0,1.85.37c2.73.22,5.46-3.32,7.18-5,1.53-1.5,3-3,4.5-4.6.62-.64,1.26-1.27,1.85-1.94l0,0a7,7,0,0,1-3.31.91C51,178.47,50.4,179.08,49.81,179.68Z" transform="translate(-8.3 -8.18)"/><path d="M41.22,129.07c-.32.85-1,1.14-1.63,1.72a12.57,12.57,0,0,0-1.51,1.59,37.78,37.78,0,0,0-3.19,5.81,31.53,31.53,0,0,0-2,5.6c-.49,2-.53,4.2-1.19,6.21a5.46,5.46,0,0,1-1.07,1.9,5.1,5.1,0,0,0,0,.55c0,.22-.31-.24-.39-.14.12-.14.23-.28.35-.41a15.68,15.68,0,0,1,.81-5.6A43.33,43.33,0,0,1,37,133.86c.35-.5.72-1,1.11-1.48a22.67,22.67,0,0,1,2.09-2.65l-.32-.28a2.13,2.13,0,0,0-.81-.39c-.49.46-1.17.9-1.51,1.25a22.85,22.85,0,0,0-3,4,48,48,0,0,0-5.06,12.42c-.36,1.37-1.91,6.49.43,7.31,1.07.36,2.09-.69,2.61-1.46,2-3,1.62-7.22,2.74-10.53a32.06,32.06,0,0,1,6.14-11c1.5-1.69,2.66-2.35,5-2.07,1.7.2,4.63.71,6.29,1.86.2-.19.4-.38.59-.59,0,.37,0,.73,0,1.09l.38.15a4,4,0,0,1,1.19-.93.58.58,0,0,0-.16-.32c-2-2-6.14-2.94-8.86-3.12a5.84,5.84,0,0,0-4.59,1.55A.85.85,0,0,1,41.22,129.07Z" transform="translate(-8.3 -8.18)"/><path d="M49,134a33,33,0,0,0-4.56,7.25,8,8,0,0,0-.87,2.8l.52,0h0a15.07,15.07,0,0,0,1.64-1.2,30.54,30.54,0,0,1,2-3.9A25.58,25.58,0,0,1,52,133.43a6.44,6.44,0,0,1,.59-.48,10.51,10.51,0,0,1,1.13-1.5l-.38-.15a3.73,3.73,0,0,0-.6-.5A33.13,33.13,0,0,0,49,134Z" transform="translate(-8.3 -8.18)"/><path d="M53.3,130.21c-.19.21-.39.4-.59.59a3.73,3.73,0,0,1,.6.5C53.31,130.94,53.3,130.58,53.3,130.21Z" transform="translate(-8.3 -8.18)"/><path d="M49.94,151.61c-.09.35-.17.7-.26,1.06a13.41,13.41,0,0,1,1.55-1.14C50.71,151.5,49.82,151.31,49.94,151.61Z" transform="translate(-8.3 -8.18)"/><path d="M45.22,144.06c.44.37.13-.23.37-.76l.19-.43a15.07,15.07,0,0,1-1.64,1.2Z" transform="translate(-8.3 -8.18)"/><path d="M40.41,129.46c-.08.09-.17.18-.24.27a22.67,22.67,0,0,0-2.09,2.65,12.57,12.57,0,0,1,1.51-1.59c.66-.58,1.31-.87,1.63-1.72a.85.85,0,0,0,0-.44A11.14,11.14,0,0,0,40.41,129.46Z" transform="translate(-8.3 -8.18)"/><path d="M21.09,134.45A26.08,26.08,0,0,0,20,137.89c-1,4.06-1.14,8.31-1.42,12.48-.16,2.33-.55,4.94-.11,7.26A3,3,0,0,0,20.06,160c2.47,1,2.88-2.26,3-3.91.41-5.74.85-11.44,2.53-17.1.75-2.56,1.74-7.33,3.69-8.69a7.3,7.3,0,0,1,3-1c1.43-.23,4.89-.83,6.73-.32a1.7,1.7,0,0,0,.52-.66c.1.35.2.7.29,1l.32.28c.07-.09.16-.18.24-.27a11.14,11.14,0,0,1,.86-.83,1,1,0,0,0-.34-.61c-2-1.65-7.73-.78-10.17-.15a6.31,6.31,0,0,0-3.47,1.87,12.61,12.61,0,0,0-1.55,2.71,55.12,55.12,0,0,0-2.42,8.09,61.27,61.27,0,0,0-1.91,11.8c0,.73-.23,6.33-.88,5.9-1.29-.86-.25-6.48-.17-7.66.32-4.79.31-9.93,2.06-14.47a19,19,0,0,1,1.61-2.9,1.76,1.76,0,0,1,.43-.37c-.36.2-.78.35-1.06.48Z" transform="translate(-8.3 -8.18)"/><path d="M39.56,128.4a1.7,1.7,0,0,1-.52.66,2.13,2.13,0,0,1,.81.39C39.76,129.1,39.66,128.75,39.56,128.4Z" transform="translate(-8.3 -8.18)"/><path d="M36.71,186.9l.17.18c.31.16.63.32.95.46a14.35,14.35,0,0,0,1.64.62,1,1,0,0,0-.35-.82C38.59,186.84,37.53,186.91,36.71,186.9Z" transform="translate(-8.3 -8.18)"/><path d="M39.41,188.39a.53.53,0,0,0,.06-.23,14.35,14.35,0,0,1-1.64-.62l-.08.18.11.41,1,1A2.59,2.59,0,0,0,39.41,188.39Z" transform="translate(-8.3 -8.18)"/><path d="M37.86,188.12l-.11-.41a.68.68,0,0,1-.12.17Z" transform="translate(-8.3 -8.18)"/><path d="M37.61,163.43l.39-.2a4,4,0,0,1-.42-.21C37.4,162.91,37.75,163.35,37.61,163.43Z" transform="translate(-8.3 -8.18)"/><path d="M37.63,187.88a.68.68,0,0,0,.12-.17l.08-.18c-.32-.14-.63-.3-.95-.46Z" transform="translate(-8.3 -8.18)"/><path d="M30.7,152.45a5.1,5.1,0,0,1,0-.55c-.12.13-.23.27-.35.41C30.39,152.21,30.73,152.67,30.7,152.45Z" transform="translate(-8.3 -8.18)"/><path d="M24.46,132.73c.19,0,.17,0,.08.06a1.33,1.33,0,0,0,.61-.61.91.91,0,0,0-1-1.22,2.54,2.54,0,0,0-.6.22,1.06,1.06,0,0,1-.09.33Z" transform="translate(-8.3 -8.18)"/><path d="M21.09,134.45l2.31-1.13c.28-.13.7-.28,1.06-.48l0,0,0,0c.09-.07.11-.1-.08-.06l-1-1.22a1.06,1.06,0,0,0,.09-.33A6.35,6.35,0,0,0,21.09,134.45Z" transform="translate(-8.3 -8.18)"/><path d="M12.66,138.86c1.88-1.11,3.84-2.11,5.79-3.1l2.64-1.31a6.35,6.35,0,0,1,2.49-3.27c0-.14-.41.26-.9.51l-2.18,1.06c-2,1-4,2-6,3.06-1,.52-2.36,1.13-3.65,1.89q.22,1,.45,1.94C11.79,139.33,12.29,139.07,12.66,138.86Z" transform="translate(-8.3 -8.18)"/><path d="M131.33,179.26c-5.18-2.58-10.59-4.5-15.66-7.42a.73.73,0,0,0-.45-.09.76.76,0,0,1,.73.58c.13.52.29,1,.44,1.57,1.64.92,3.29,1.81,5,2.67,3.36,1.72,8,2.65,10.91,5,2.71,2.16,3.8,7.3.27,9.5-2.36,1.47-5.21-.42-7-1.92-4.66-3.8-7.44-9.53-9.09-15.24l-1.6-.9a.68.68,0,0,1-.2-.18c1.79,6.9,5.15,14.32,11.28,18.42,3.26,2.18,6.83,2.71,9.13-.93C137.69,186,135.63,181.4,131.33,179.26Z" transform="translate(-8.3 -8.18)"/><path d="M115.22,171.75a.62.62,0,0,0-.72.57A.84.84,0,0,1,115.22,171.75Z" transform="translate(-8.3 -8.18)"/><path d="M116.39,173.9c-.15-.53-.31-1-.44-1.57a.76.76,0,0,0-.73-.58.84.84,0,0,0-.72.57.65.65,0,0,0,0,.19l.08.31a.68.68,0,0,0,.2.18Z" transform="translate(-8.3 -8.18)"/><path d="M114.5,172.32a.55.55,0,0,0,.09.5l-.08-.31A.65.65,0,0,1,114.5,172.32Z" transform="translate(-8.3 -8.18)"/><path d="M129.88,190.8c.92.21,1.1-1.24.19-1.45a6,6,0,0,1-3.68-3.46c-.4-.85-1.75-.29-1.34.56A7.51,7.51,0,0,0,129.88,190.8Z" transform="translate(-8.3 -8.18)"/><path class="cls-8" d="M114,8.18h0l-.14.09h0l.13-.09Z" transform="translate(-8.3 -8.18)"/><path class="cls-8" d="M96.7,219.36l-.32-.05a.54.54,0,0,0,.28.06Z" transform="translate(-8.3 -8.18)"/><path class="cls-8" d="M36.88,187.08l-.17-.18H36.5Z" transform="translate(-8.3 -8.18)"/></g></svg>