<svg id="Livello_1" data-name="Livello 1" xmlns="http://www.w3.org/2000/svg" viewBox="0 0 198 197.69"><defs><style>.cls-1{fill:#256935;}.cls-2{fill:#4d3b14;}.cls-3{fill:#fff;}.cls-4{fill:#f1e901;}.cls-5{fill:#223b74;}.cls-6,.cls-9{fill:none;stroke-linecap:round;stroke-linejoin:round;}.cls-6{stroke:#231f20;stroke-width:2px;}.cls-7{fill:#787878;}.cls-8{fill:#231f20;}.cls-9{stroke:#000;stroke-width:1.71px;}</style></defs><title>r_lupo</title><path class="cls-1" d="M99.85,197.69A97.85,97.85,0,0,1,3.78,118.44c2.91-.48,49.72-8,101.94-.31h0c27.19,4,55.85,12.18,80.53,27.63A97.79,97.79,0,0,1,99.85,197.69Z" transform="translate(-1 -1)"/><path class="cls-2" d="M137.78,67.24s3.22,8.14,5.06,8.14,6.9-8.14,6.9-8.14,4.45,8.14,5.68,8.14,3.83-8.28,3.83-8.28,5.68,6.9,8.14,6.59c1.83-.23,1.68-5.21,1.68-5.21l0,0c12.45,11,25.85,23.61,28.44,26,.1,1.77.15,3.55.15,5.35a97.35,97.35,0,0,1-11.43,45.92c-24.69-15.46-53.34-23.61-80.53-27.63h0c-.4-.64-6.61-10.66-14.95-23.51l.19-.13s19.89-17,36-29.84l.11.14s-1.38,9.2,1.69,9.35S137.78,67.24,137.78,67.24Z" transform="translate(-1 -1)"/><path class="cls-3" d="M149.75,67.24s-5.21,8.14-6.9,8.14-5.06-8.14-5.06-8.14-6,7.06-9,6.9S127,64.79,127,64.79l-.11-.14c9.65-7.68,17.92-13.83,19.69-13.83,2,0,11.92,8.25,22.49,17.62l0,0s.15,5-1.68,5.21c-2.46.31-8.14-6.59-8.14-6.59s-2.6,8.28-3.83,8.28S149.75,67.24,149.75,67.24Z" transform="translate(-1 -1)"/><path class="cls-4" d="M121.61,16.71a14.77,14.77,0,1,1-2.8,29A14.76,14.76,0,0,0,117,17.8,14.92,14.92,0,0,1,121.61,16.71Z" transform="translate(-1 -1)"/><path class="cls-3" d="M72.43,13.08C84.86,8,88.08,19.53,88.08,19.53c6.44-.46,8.74,11,8.74,11l-65.66-.3-.06-.06q2.65-2.62,5.5-5l.12.14C43,21.79,50.8,22,50.8,22c3.38-4.92,10.59-2.46,10.59-2.46C62.76,10.78,72.43,13.08,72.43,13.08Z" transform="translate(-1 -1)"/><path class="cls-5" d="M137.32,30.47a14.77,14.77,0,0,0-15.71-13.76A14.92,14.92,0,0,0,117,17.8a14.76,14.76,0,0,1,1.85,27.93,14.76,14.76,0,0,0,18.51-15.25Zm-40.5.1s-2.3-11.51-8.74-11c0,0-3.22-11.51-15.65-6.44,0,0-9.67-2.3-11,6.44,0,0-7.21-2.46-10.59,2.46,0,0-7.78-.19-14.07,3.34l-.12-.14a97.85,97.85,0,0,1,160.95,69.3c-2.6-2.44-16-15-28.44-26-10.57-9.37-20.45-17.62-22.49-17.62-1.77,0-10,6.15-19.69,13.83C110.86,77.45,91,94.49,91,94.49l-.19.13C85.34,86.26,79,76.7,72.81,67.73,61,50.68,49.57,35.78,45.59,35.42,40.45,34.95,25,47.55,16.44,55c-3.56,3.07-6,5.27-6,5.27l-.1,0a97.8,97.8,0,0,1,20.73-30l.06.06Z" transform="translate(-1 -1)"/><path class="cls-2" d="M72.81,67.73c6.2,9,12.54,18.53,18,26.89,8.34,12.85,14.55,22.87,14.95,23.51-52.22-7.72-99-.17-101.94.31a98.1,98.1,0,0,1,6.6-58.25l.1,0s2.39-2.19,6-5.27l.2.23s-2.29,12.37,1.21,12.7,10-9.31,10-9.31,2.84,11.6,5.36,11.28S43,58.6,43,58.6s6.46,12.26,11.06,12S58.88,57,58.88,57s8,12.14,13.68,10.94Z" transform="translate(-1 -1)"/><path class="cls-3" d="M45.59,35.42c4,.36,15.39,15.26,27.22,32.32l-.25.17C66.87,69.11,58.88,57,58.88,57s-.22,13.46-4.81,13.68S43,58.6,43,58.6s-7.33,10.94-9.85,11.28S27.8,58.6,27.8,58.6s-6.46,9.63-10,9.31-1.21-12.7-1.21-12.7l-.2-.23C25,47.55,40.45,34.95,45.59,35.42Z" transform="translate(-1 -1)"/><path class="cls-6" d="M197.55,94.49c.1,1.77.15,3.55.15,5.35A97.87,97.87,0,1,1,31.11,30.22q2.65-2.62,5.5-5a97.85,97.85,0,0,1,160.95,69.3Z" transform="translate(-1 -1)"/><path class="cls-6" d="M105.73,118.13c27.19,4,55.85,12.18,80.53,27.63l.17.11" transform="translate(-1 -1)"/><path class="cls-6" d="M3.63,118.47l.15,0c2.91-.48,49.72-8,101.94-.31" transform="translate(-1 -1)"/><path class="cls-6" d="M10.48,60.24s2.39-2.19,6-5.27c8.6-7.43,24-20,29.15-19.56,4,.36,15.39,15.26,27.22,32.32,6.2,9,12.54,18.53,18,26.89,8.34,12.85,14.55,22.87,14.95,23.51h0l0,0" transform="translate(-1 -1)"/><path class="cls-6" d="M91,94.49s19.89-17,36-29.84c9.65-7.68,17.92-13.83,19.69-13.83,2,0,11.92,8.25,22.49,17.62,12.45,11,25.85,23.61,28.44,26l.45.43" transform="translate(-1 -1)"/><path class="cls-6" d="M121.61,16.71A14.92,14.92,0,0,0,117,17.8a14.76,14.76,0,0,1,1.85,27.93,14.77,14.77,0,1,0,2.8-29Z" transform="translate(-1 -1)"/><path class="cls-6" d="M16.64,55.21s-2.29,12.37,1.21,12.7,10-9.31,10-9.31,2.84,11.6,5.36,11.28S43,58.6,43,58.6s6.46,12.26,11.06,12S58.88,57,58.88,57s8,12.14,13.68,10.94" transform="translate(-1 -1)"/><path class="cls-6" d="M127,64.79s-1.38,9.2,1.69,9.35,9-6.9,9-6.9,3.22,8.14,5.06,8.14,6.9-8.14,6.9-8.14,4.45,8.14,5.68,8.14,3.83-8.28,3.83-8.28,5.68,6.9,8.14,6.59c1.83-.23,1.68-5.21,1.68-5.21" transform="translate(-1 -1)"/><path class="cls-6" d="M31.16,30.27l65.66.3s-2.3-11.51-8.74-11c0,0-3.22-11.51-15.65-6.44,0,0-9.67-2.3-11,6.44,0,0-7.21-2.46-10.59,2.46,0,0-7.78-.19-14.07,3.34" transform="translate(-1 -1)"/><g id="lupo"><path class="cls-7" d="M138.76,149.6c-4.21-1.75-6.31-9.47-8.77-6.66l.35-3.16s31.9,1.4,20.33,17.53-16.47,10.16-13,18.93c0,0-8.07-2.46-7-10.87S143,151.35,138.76,149.6Z" transform="translate(-1 -1)"/><path class="cls-7" d="M95,138.64s-9.75.74-11.85,9.41c-1.12,4.61-1.29-45.43-1.29-45.43L110,116.82S90.82,117.35,95,138.64Z" transform="translate(-1 -1)"/><path class="cls-7" d="M91.53,61.74,90,56.23C106.35,54.89,91.53,61.74,91.53,61.74Z" transform="translate(-1 -1)"/><path class="cls-7" d="M75.46,53.08c0,3.15,2,5.86,5.2,6.08,1,.07,1-1.5,0-1.58C78.29,57.42,77,55.31,77,53.08A.79.79,0,0,0,75.46,53.08Zm7.71,95c2.1-8.68,11.85-9.41,11.85-9.41-4.21-21.3,15-21.82,15-21.82l-28.13-14.2S82.05,152.66,83.17,148.06Zm32.54-41.46c14.82,12.59,17.95,38.11,9,40.94-8,2.52-44.25.88-51.25.5a1.23,1.23,0,0,1-1.08-1c-1.3-7.17,4.57-14.18,1.5-31,0,0-2.56-14.95-3-14.87-1.31.25-4.85-.67-3.53-2.25s5.36-11.89,4.5-11.57c-.42.16-5.53,3.62-4.74,2.57s4-13.14,2.92-11-4.91,3.39-5,3.42c.16-.34,5.35-11.5,5-14.74a53.58,53.58,0,0,0-3.07-12,23.58,23.58,0,0,1-3.72-9.31,15.47,15.47,0,0,1,0-5.6c2.13-3.2,4.89,0,6.87,2.48a10.84,10.84,0,0,0,7.45,4c.86.07,1.65.09,2.26.09a6.36,6.36,0,0,1,2.87.63c7.57,3.75,8.42,13.47,8.5,16.37a12.92,12.92,0,0,0,.26,2.2C92.67,72.49,100.26,93.48,115.72,106.6Z" transform="translate(-1 -1)"/><path class="cls-7" d="M89.59,54,86,49.28C101.52,40.91,89.59,54,89.59,54Z" transform="translate(-1 -1)"/><path class="cls-8" d="M80.66,57.59c1,.07,1,1.65,0,1.58-3.24-.23-5.23-2.93-5.2-6.08a.79.79,0,0,1,1.58,0C77,55.31,78.29,57.42,80.66,57.59Z" transform="translate(-1 -1)"/><path class="cls-9" d="M91.53,61.74s14.82-6.85-1.58-5.51" transform="translate(-1 -1)"/><path class="cls-9" d="M89.59,54S101.52,40.91,86,49.28" transform="translate(-1 -1)"/><path class="cls-9" d="M65,82.4h0c.12,0,4-1.35,5-3.42s-2.13,10-2.92,11,4.33-2.41,4.74-2.57c.86-.32-3.19,10-4.5,11.57s2.22,2.5,3.53,2.25c.41-.08,3,14.87,3,14.87,3.07,16.78-2.8,23.79-1.5,31a1.23,1.23,0,0,0,1.08,1c7,.38,43.29,2,51.25-.5,8.92-2.83,5.79-28.35-9-40.94-15.45-13.12-23-34.11-24.23-40a12.92,12.92,0,0,1-.26-2.2c-.08-2.9-.93-12.62-8.5-16.37a6.36,6.36,0,0,0-2.87-.63c-.61,0-1.4,0-2.26-.09a10.84,10.84,0,0,1-7.45-4" transform="translate(-1 -1)"/><path class="cls-9" d="M70.15,43.26c-2-2.47-4.74-5.67-6.87-2.48a15.47,15.47,0,0,0,0,5.6A23.58,23.58,0,0,0,67,55.69a53.58,53.58,0,0,1,3.07,12c.35,3.24-4.84,14.4-5,14.74" transform="translate(-1 -1)"/><path class="cls-9" d="M110,116.82s-19.19.53-15,21.82c0,0-9.75.74-11.85,9.41-1.12,4.61-1.29-45.43-1.29-45.43" transform="translate(-1 -1)"/><path class="cls-9" d="M130.35,139.78s31.9,1.4,20.33,17.53-16.47,10.16-13,18.93c0,0-8.07-2.46-7-10.87s12.27-14,8.07-15.78-6.31-9.47-8.77-6.66" transform="translate(-1 -1)"/><path class="cls-9" d="M63.25,46.37v0c.23.4,4.75,8.19,7.66,8.27" transform="translate(-1 -1)"/></g></svg>