<svg id="Livello_1" data-name="Livello 1" xmlns="http://www.w3.org/2000/svg" viewBox="0 0 198 198.19"><defs><style>.cls-1{fill:#5180c1;}.cls-2{fill:#cea82c;}.cls-2,.cls-3,.cls-9{stroke:#000;stroke-miterlimit:10;}.cls-2,.cls-9{stroke-width:2px;}.cls-3{fill:#256935;stroke-width:1.82px;}.cls-4{fill:#231f20;}.cls-5{fill:#a8a8a8;}.cls-6,.cls-9{fill:none;}.cls-6{stroke:#231f20;stroke-linecap:round;stroke-linejoin:round;stroke-width:2.23px;}.cls-7{fill:#ef7322;}.cls-8{fill:#f0b91b;}</style></defs><title>r_squalo</title><circle id="bg_squalo" class="cls-1" cx="99" cy="99" r="98"/><path id="sabbia_squalo" class="cls-2" d="M25.06,163s83.93-30.78,144.08,6.1c0,0-26.27,29.49-70.53,29C53.1,197.72,25.06,163,25.06,163Z" transform="translate(-1 -1)"/><path id="alga_sq1" class="cls-3" d="M116.59,196.8s.46-4.61.92-12.91,6-22.59,2.77-26.74-2.77-36.42-1.38-37.34S127.66,129,129,136s-3.23,15.21-2.77,22.13,1.38,17.52,4.61,15.67,5.07-11.06,5.07-18-4.61-71.91-4.15-84.36,4.73-11.92,3.69-26.74c-.29-4.11,8.3-9.22,8.76-5.07s-2.3,12.91-1.84,28.58-5.07,24.89-4.15,36.88,7.38,24,7.38,27.2-1.38,11.06-2.3,20.28-3.23,26.74-3.23,26.74l-1.38,10.6" transform="translate(-1 -1)"/><g id="squalo"><g id="_Gruppo_" data-name="&lt;Gruppo&gt;"><path class="cls-4" d="M114.65,94.14c4.53,4.17,5.87,10.84,4.59,16.76-.31,1.39-2.44.79-2.13-.6,1.12-5.15-.08-11-4-14.6C112,94.73,113.6,93.17,114.65,94.14Z" transform="translate(-1 -1)"/><path class="cls-5" d="M105.5,122.58a71.06,71.06,0,0,0,8.38,6.68c-6.33.61-12.73-1.14-18-3.42C99.47,124.76,102.72,123.63,105.5,122.58Z" transform="translate(-1 -1)"/><path class="cls-4" d="M107.13,94.67c5,4.62,6.49,12,5.06,18.52-.29,1.39-2.44.79-2.13-.6,1.26-5.76-.08-12.29-4.49-16.35C104.51,95.27,106.09,93.71,107.13,94.67Z" transform="translate(-1 -1)"/><path class="cls-5" d="M83.18,118.54l19.6-.74c-.54,1.07.8,2.9,2.72,4.78-2.77,1-6,2.18-9.64,3.26A62.42,62.42,0,0,1,83.18,118.54Z" transform="translate(-1 -1)"/><path class="cls-5" d="M70.79,83.75a66.93,66.93,0,0,1,39.34-20.38,1,1,0,0,1,1,1.51c-1.9,3.21-5.54,10.43-5.58,18.87l-.1.31c-8.48-2.36-18-3.82-26.18-2.12q-4.39.92-8.44,2Z" transform="translate(-1 -1)"/><path class="cls-4" d="M56.52,105.62c.66-1.27,2.58-.14,1.91,1.12-2.12,4-6.62,4.74-10.5,2.86-1.27-.63-.15-2.54,1.13-1.91C51.72,109,55,108.54,56.52,105.62Z" transform="translate(-1 -1)"/><path class="cls-5" d="M47.93,109.6c3.88,1.88,8.38,1.11,10.5-2.86.67-1.26-1.26-2.38-1.91-1.12-1.56,2.92-4.8,3.36-7.46,2.06C47.77,107.06,46.66,109,47.93,109.6Zm71.31,1.31c1.28-5.93-.06-12.59-4.59-16.76-1-1-2.62.59-1.58,1.56,3.95,3.63,5.15,9.46,4,14.6C116.8,111.7,118.93,112.3,119.24,110.91Zm-7,2.29c1.42-6.54-.06-13.91-5.06-18.52-1-1-2.62.6-1.56,1.58,4.41,4.06,5.75,10.59,4.49,16.35C109.75,114,111.9,114.59,112.19,113.19Zm42.31,38.68a1.37,1.37,0,0,1-2.5.65c-2.33-3.35-5.26-10.57-2.69-24.18,0,0-2.19-11.59-26.71-10.81a28.71,28.71,0,0,0-10.49,2.38c-1.74.75-4,1.67-6.62,2.66-1.92-1.88-3.26-3.71-2.72-4.78l-19.6.74a62.42,62.42,0,0,0,12.68,7.31c-12.9,3.92-30.47,7.42-48.52,5.51,0,0-2.51-.43-6.05-1.34-9.36-2.38-25.9-8.13-22.68-18.23a5.15,5.15,0,0,1,2.55-2.94C28.85,104.76,44,91.41,70.84,84q4-1.11,8.44-2c8.16-1.7,17.7-.24,26.18,2.12a122.63,122.63,0,0,1,22.45,8.84c.21.11.42.25.63.39,2.59,1.8,21.35,15.09,26.82,26.3,0,0,.75,1.66,6,1.51,4.88-.14,14.43,3.74,17.48,17.64a1.3,1.3,0,0,1-2,1.34C170.88,135.72,156.68,128,154.51,151.87Z" transform="translate(-1 -1)"/><path class="cls-6" d="M70.79,83.75a66.93,66.93,0,0,1,39.34-20.38,1,1,0,0,1,1,1.51c-1.9,3.21-5.54,10.43-5.58,18.87" transform="translate(-1 -1)"/><path class="cls-6" d="M95.86,125.84c-12.9,3.92-30.47,7.42-48.52,5.51,0,0-2.51-.43-6.05-1.34-9.36-2.38-25.9-8.13-22.68-18.23" transform="translate(-1 -1)"/><path class="cls-6" d="M18.61,111.79a5.15,5.15,0,0,1,2.55-2.94C28.85,104.76,44,91.41,70.84,84q4-1.11,8.44-2c8.16-1.7,17.7-.24,26.18,2.12a122.63,122.63,0,0,1,22.45,8.84c.21.11.42.25.63.39,2.59,1.8,21.35,15.09,26.82,26.3,0,0,.75,1.66,6,1.51,4.88-.14,14.43,3.74,17.48,17.64a1.3,1.3,0,0,1-2,1.34c-6-4.36-20.15-12.06-22.33,11.79a1.37,1.37,0,0,1-2.5.65c-2.33-3.35-5.26-10.57-2.69-24.18,0,0-2.19-11.59-26.71-10.81a28.71,28.71,0,0,0-10.49,2.38c-1.74.75-4,1.67-6.62,2.66" transform="translate(-1 -1)"/><path class="cls-6" d="M40.91,130h.38c2.08.07,12.68.05,30-5.52" transform="translate(-1 -1)"/><path class="cls-6" d="M83.18,118.54a62.42,62.42,0,0,0,12.68,7.31c5.29,2.27,11.69,4,18,3.42a71.06,71.06,0,0,1-8.38-6.68c-1.92-1.88-3.26-3.71-2.72-4.78" transform="translate(-1 -1)"/></g></g><path id="alga_sq2" class="cls-3" d="M37.73,175.57c-1.26-1.26,1.57-19-.11-25.25s-11.34-31.91-10.92-38.62,9.24-27.29,9.66-18.05,0,26.87,2.94,32.33,4.2,25.19,4.62,30.65,2.94,19.73,2.94,19.73,3.78-4.62,4.2-13.43-1.68-12.17.42-17.63,5.46-8,5.88,0,2.94,16.79,2.1,23.09-8.14,15.08-9.19,15.92S39,176.83,37.73,175.57Z" transform="translate(-1 -1)"/><g id="pesci_sq"><path d="M115.49,26.34c.42.61,1.28,2.45.79,3.25a1,1,0,0,1-1.07.35,3.29,3.29,0,0,1-1.12-.51l-.11-.07a6,6,0,0,1-.72-.62c-.41-.37-.91-.84-1.09-.84-.59,0-.93.83-1.21,1.49a4,4,0,0,1-.29.62A6.3,6.3,0,0,1,105,33.1h0a7.7,7.7,0,0,1-6.42-4.16l-.25-.54a3.7,3.7,0,0,0-.48-.87.69.69,0,0,0-.26-.14.6.6,0,0,1-.36-.25.57.57,0,0,1,.14-.84,1.88,1.88,0,0,0,.29-.35,8.46,8.46,0,0,0,.57-1.7,8.45,8.45,0,0,1,.91-2.45,7,7,0,0,1,6.89-3,6.51,6.51,0,0,1,2.25.77,6.39,6.39,0,0,1,1.36,1.07.75.75,0,0,1,.12.14c.29.37,1.14,1.5,1.54,1.47.06,0,.09,0,.13-.09l0,0,0,0c.62-.92,2.16-3,3.25-3h.06c.36,0,.64.32.82.83.31.86-.22,2.23-.5,3l-.23.51c-.29.61-.62,1.3-.39,1.83a3.12,3.12,0,0,0,.59.68A4.63,4.63,0,0,1,115.49,26.34Zm-.27,3.57c2.11.3.85-2.67.24-3.54-.24-.34-.86-.79-1-1.17-.31-.7.35-1.7.61-2.36s.8-2.1.5-2.94c-.89-2.43-3.5,1.33-4.07,2.18l0,0v0l0,0c-.32.61-1.75-1.42-1.84-1.5a6.21,6.21,0,0,0-3.6-1.83,6.92,6.92,0,0,0-6.85,3c-.81,1.24-.92,3.13-1.48,4.14-.28.48-.77.52-.42,1.15.13.24.46.21.61.39a7.34,7.34,0,0,1,.74,1.41c2.39,4.67,9.1,5.89,12.07,1.09.34-.54.69-2.13,1.53-2.14.3,0,1.44,1.23,1.83,1.48A3.59,3.59,0,0,0,115.22,29.91Z" transform="translate(-1 -1)"/><path d="M115.43,26.39c.42.59,1.26,2.4.79,3.17-.17.28-.51.38-1,.31a3.41,3.41,0,0,1-1.09-.5L114,29.3a7.62,7.62,0,0,1-.71-.61c-.45-.42-.93-.86-1.13-.87-.65,0-1,.87-1.28,1.55a5.07,5.07,0,0,1-.28.61A6.21,6.21,0,0,1,105,33h0a7.62,7.62,0,0,1-6.34-4.12c-.1-.19-.18-.37-.26-.54a3.48,3.48,0,0,0-.49-.88.8.8,0,0,0-.29-.17.51.51,0,0,1-.31-.21c-.23-.41-.09-.54.12-.75a1.78,1.78,0,0,0,.3-.37,7.91,7.91,0,0,0,.58-1.71,8.29,8.29,0,0,1,.9-2.42,6.84,6.84,0,0,1,6-3.07c.28,0,.55,0,.83.07a6.55,6.55,0,0,1,2.22.77,6.82,6.82,0,0,1,1.35,1.05l.11.14c.49.65,1.18,1.48,1.58,1.5h0a.19.19,0,0,0,.1,0,.41.41,0,0,0,.18.31.3.3,0,0,0,.28,0c-.24.39-.47.58-.68.59-.38,0-.71-.48-1.07-1-.18-.27-.38-.54-.58-.79a6.24,6.24,0,0,0-8.24-1c-1.69,1.21-2.11,2.7-2.61,4.43-.07.24-.14.49-.21.74a5.9,5.9,0,0,0-.13.58c0,.14-.06.15-.1.16s-.14.09-.11.36,0,.27.1.3.08,0,.11,0l.06,0a.07.07,0,0,1,0,0c.82,2,2,4.07,4.49,5h.06a.41.41,0,0,0,.14.11.43.43,0,0,0,.16,0,.18.18,0,0,0,.1,0h0a5.92,5.92,0,0,0,4-.15,6,6,0,0,0,3.2-3.12,4.47,4.47,0,0,0,.2-.71c.13-.54.27-1.17.64-1.39a.72.72,0,0,1,.54,0,3.09,3.09,0,0,1,1.3,1.07,3.13,3.13,0,0,0,1.56,1.22c.42.09.71,0,.83-.18.37-.61-.68-2.28-1.17-2.84l-.27-.3c-.54-.62-.79-.89-.38-1.83.11-.24.24-.47.37-.7a4.49,4.49,0,0,0,.63-1.6,2.12,2.12,0,0,0-.21-1.56.55.55,0,0,0-.42-.18c-.59,0-1.53,1.48-2,2.27l0,.06a.23.23,0,0,0,0-.1.42.42,0,0,0-.34-.18l-.1,0c.66-1,2.09-2.86,3.1-2.83h.06c.33,0,.58.3.76.77.3.84-.22,2.19-.5,2.92a4.58,4.58,0,0,1-.23.5c-.28.6-.63,1.34-.38,1.89a2.85,2.85,0,0,0,.6.71A3.07,3.07,0,0,1,115.43,26.39Z" transform="translate(-1 -1)"/><path d="M112.08,22.21l0-.06c.51-.79,1.45-2.27,2-2.27a.55.55,0,0,1,.42.18,2.12,2.12,0,0,1,.21,1.56,4.49,4.49,0,0,1-.63,1.6c-.13.23-.26.46-.37.7-.41.94-.17,1.22.38,1.83l.27.3c.49.56,1.54,2.23,1.17,2.84-.12.21-.41.28-.83.18a3.13,3.13,0,0,1-1.56-1.22,3.09,3.09,0,0,0-1.3-1.07.72.72,0,0,0-.54,0c-.37.22-.51.85-.64,1.39a4.47,4.47,0,0,1-.2.71,6,6,0,0,1-3.2,3.12,5.92,5.92,0,0,1-4,.15l.06,0a5.86,5.86,0,0,0,7.12-3.26c.3-.67.3-2.48,1.43-2.17s1.67,2,2.86,2.29c1.84.4.24-2.25-.38-3s-1.14-1.07-.65-2.18a8.07,8.07,0,0,0,1-2.3c.06-.41.17-1.69-.6-1.7s-1.74,1.85-2.16,2.48c.18-.33-.3-.57-.53-.33.56-.85,3.18-4.61,4.07-2.18.3.84-.19,2.14-.5,2.94s-.92,1.66-.61,2.36c.17.38.78.83,1,1.17.61.87,1.87,3.84-.24,3.54a3.59,3.59,0,0,1-1.22-.57c-.39-.25-1.52-1.48-1.83-1.48-.84,0-1.19,1.59-1.53,2.14-3,4.8-9.68,3.59-12.07-1.09a7.34,7.34,0,0,0-.74-1.41c-.15-.18-.48-.15-.61-.39-.35-.64.15-.67.42-1.15.55-1,.66-2.9,1.48-4.14a6.92,6.92,0,0,1,6.85-3,6.21,6.21,0,0,1,3.6,1.83c.09.08,1.52,2.11,1.84,1.5l0,0c-.15.32.3.67.52.35-1,1.83-1.58,0-2.5-1a6.21,6.21,0,0,0-6.89-1.66l-.08,0h0a6.37,6.37,0,0,0-1.2.66c-1.9,1.36-2.19,3.11-2.81,5.15,0,.14-.09.43-.12.58-.06.35-.26,0-.21.5s.2.07.3.31c.92,2.19,2.14,4.11,4.47,5h0s0,0,0,0h0c-2.5-1-3.67-3.09-4.49-5a.07.07,0,0,0,0,0l-.06,0s-.07,0-.11,0-.08-.11-.1-.3,0-.32.11-.36.07,0,.1-.16a5.9,5.9,0,0,1,.13-.58c.07-.25.14-.5.21-.74.5-1.73.92-3.23,2.61-4.43a6.24,6.24,0,0,1,8.24,1c.2.25.4.53.58.79.36.53.69,1,1.07,1,.21,0,.44-.2.68-.59a.3.3,0,0,1-.28,0,.41.41,0,0,1-.18-.31.19.19,0,0,1-.1,0h0c-.4,0-1.09-.86-1.58-1.5l-.11-.14a6.82,6.82,0,0,0-1.35-1.05,6.55,6.55,0,0,0-2.22-.77c-.28,0-.55-.06-.83-.07a6.84,6.84,0,0,0-6,3.07,8.29,8.29,0,0,0-.9,2.42A7.91,7.91,0,0,1,97.69,26a1.78,1.78,0,0,1-.3.37c-.21.2-.35.34-.12.75a.51.51,0,0,0,.31.21.8.8,0,0,1,.29.17,3.48,3.48,0,0,1,.49.88c.07.18.16.35.26.54A7.62,7.62,0,0,0,105,33h0a6.21,6.21,0,0,0,5.61-3,5.07,5.07,0,0,0,.28-.61c.29-.68.64-1.55,1.28-1.55.2,0,.68.44,1.13.87a7.62,7.62,0,0,0,.71.61l.11.07a3.41,3.41,0,0,0,1.09.5c.49.06.83,0,1-.31.47-.77-.37-2.58-.79-3.17a3.07,3.07,0,0,0-.42-.46,2.85,2.85,0,0,1-.6-.71c-.25-.55.1-1.29.38-1.89a4.58,4.58,0,0,0,.23-.5c.28-.73.8-2.08.5-2.92-.18-.47-.42-.74-.76-.77h-.06c-1,0-2.43,1.86-3.1,2.83l.1,0a.42.42,0,0,1,.34.18A.23.23,0,0,1,112.08,22.21Z" transform="translate(-1 -1)"/><path class="cls-7" d="M114.39,26.12c.46.53,1.5,2.18,1.16,2.76-.11.18-.36.23-.75.15a3.18,3.18,0,0,1-1.52-1.19,3.14,3.14,0,0,0-1.34-1.1.73.73,0,0,0-.6.06c-.4.24-.54.88-.67,1.44a5.06,5.06,0,0,1-.19.69,5.87,5.87,0,0,1-7.05,3.25.36.36,0,0,0,.12-.14c2.19-4.53.32-9.94-.59-12.06a.33.33,0,0,0-.26-.21,6.11,6.11,0,0,1,6.73,1.7,8.2,8.2,0,0,1,.58.78c.39.57.72,1.07,1.13,1.05s.57-.3.88-.84l.17-.26c.46-.73,1.42-2.24,2-2.24a.48.48,0,0,1,.37.17,2,2,0,0,1,.19,1.49,4.49,4.49,0,0,1-.63,1.58c-.12.23-.26.47-.36.71-.44,1-.17,1.29.39,1.91Z" transform="translate(-1 -1)"/><path d="M115.55,28.88c.34-.57-.7-2.22-1.16-2.76l-.27-.3c-.55-.62-.83-.93-.39-1.91.1-.24.24-.48.36-.71a4.49,4.49,0,0,0,.63-1.58,2,2,0,0,0-.19-1.49.48.48,0,0,0-.37-.17c-.55,0-1.51,1.51-2,2.24l-.17.26c-.3.54-.59.82-.88.84s-.75-.48-1.13-1.05a8.2,8.2,0,0,0-.58-.78,6.11,6.11,0,0,0-6.73-1.7h-.13a6.21,6.21,0,0,1,6.89,1.66c.92,1.05,1.48,2.87,2.5,1a.32.32,0,0,0,0-.07c.41-.63,1.52-2.48,2.16-2.48s.65,1.28.6,1.7a8.07,8.07,0,0,1-1,2.3c-.49,1.12-.06,1.35.65,2.18s2.22,3.36.38,3c-1.19-.26-1.81-2-2.86-2.29s-1.12,1.49-1.43,2.17a5.86,5.86,0,0,1-7.12,3.26l0,0a5.87,5.87,0,0,0,7.05-3.25,5.06,5.06,0,0,0,.19-.69c.13-.56.28-1.2.67-1.44a.73.73,0,0,1,.6-.06,3.14,3.14,0,0,1,1.34,1.1A3.18,3.18,0,0,0,114.81,29C115.2,29.11,115.44,29.06,115.55,28.88Z" transform="translate(-1 -1)"/><path d="M111.48,22.07c.23-.24.7,0,.53.33a.32.32,0,0,1,0,.07c-.21.32-.66,0-.52-.35v0Zm.49.31a.21.21,0,0,0,0-.23.3.3,0,0,0-.28-.14.26.26,0,0,0-.21.11.29.29,0,0,0,.11.39.22.22,0,0,0,.33-.06l0,0Z" transform="translate(-1 -1)"/><path d="M112,22.15a.21.21,0,0,1,0,.23v0l0,0a.22.22,0,0,1-.33.06.29.29,0,0,1-.11-.39.26.26,0,0,1,.21-.11A.3.3,0,0,1,112,22.15Z" transform="translate(-1 -1)"/><path d="M104.29,13c.3.42.89,1.73.55,2.29-.13.22-.39.3-.76.25a2.16,2.16,0,0,1-.78-.36l-.07,0a4.62,4.62,0,0,1-.51-.43,3,3,0,0,0-.77-.6c-.41,0-.66.59-.86,1.06-.07.18-.14.33-.19.43a4.44,4.44,0,0,1-4,2.17h0a5.42,5.42,0,0,1-4.51-2.94c-.07-.13-.13-.26-.18-.38a2.42,2.42,0,0,0-.34-.61.32.32,0,0,0-.18-.09.43.43,0,0,1-.25-.18.41.41,0,0,1,.09-.6,1,1,0,0,0,.2-.25,5.6,5.6,0,0,0,.4-1.19,6.27,6.27,0,0,1,.65-1.72A4.9,4.9,0,0,1,97.6,7.7a4.32,4.32,0,0,1,1.59.54,4.86,4.86,0,0,1,1,.75l.07.1c.2.27.81,1.06,1.09,1,0,0,.06,0,.09-.06l0,0v0c.44-.65,1.52-2.15,2.3-2.12h0c.25,0,.44.22.57.58a3.56,3.56,0,0,1-.35,2.09c0,.1-.1.23-.16.35-.2.43-.43.92-.27,1.29a2,2,0,0,0,.41.48A2.51,2.51,0,0,1,104.29,13Zm-.19,2.51c1.48.21.6-1.88.17-2.49-.17-.24-.6-.56-.72-.82-.22-.5.25-1.2.43-1.66a3.5,3.5,0,0,0,.34-2.07c-.61-1.71-2.43.9-2.84,1.51l0,0,0,.06h0c-.25.39-1.24-1-1.3-1.08a4.43,4.43,0,0,0-1-.74,4.29,4.29,0,0,0-1.57-.54,4.85,4.85,0,0,0-4.82,2.12c-.57.88-.65,2.2-1.05,2.91-.18.34-.53.37-.3.81.09.18.32.15.43.28a4.86,4.86,0,0,1,.52,1c1.69,3.29,6.41,4.15,8.5.77.24-.39.48-1.5,1.08-1.51.21,0,1,.87,1.28,1A2.51,2.51,0,0,0,104.1,15.53Z" transform="translate(-1 -1)"/><path d="M104.24,13.06c.3.41.89,1.69.55,2.22-.12.2-.35.28-.7.23a2.23,2.23,0,0,1-.77-.36l-.07,0a4.41,4.41,0,0,1-.5-.42,2.68,2.68,0,0,0-.8-.62c-.45,0-.7.61-.9,1.1-.07.18-.14.32-.19.42a4.39,4.39,0,0,1-4,2.14h0a5.35,5.35,0,0,1-4.47-2.9c-.07-.14-.13-.26-.18-.38a2.33,2.33,0,0,0-.34-.62.46.46,0,0,0-.2-.12.34.34,0,0,1-.22-.15.36.36,0,0,1,.08-.53,1,1,0,0,0,.21-.26,5.51,5.51,0,0,0,.41-1.2,5.78,5.78,0,0,1,.64-1.71A4.81,4.81,0,0,1,97,7.7a3.1,3.1,0,0,1,.58.06,4.39,4.39,0,0,1,1.57.53,4.45,4.45,0,0,1,.95.75s0,0,.08.09c.34.45.83,1,1.11,1.05h0l.07,0a.27.27,0,0,0,.13.22.21.21,0,0,0,.19,0c-.17.28-.33.41-.48.42s-.5-.34-.76-.72a6.23,6.23,0,0,0-.41-.56A4.36,4.36,0,0,0,97.3,8.11a4.3,4.3,0,0,0-3,.77A5,5,0,0,0,92.42,12c0,.17-.1.34-.15.52a3.21,3.21,0,0,0-.09.41c0,.1,0,.11-.07.12s-.09.06-.07.25,0,.18.06.2a.09.09,0,0,0,.08,0l0,0s0,0,0,0a5.82,5.82,0,0,0,3.15,3.55l.06,0h0a.14.14,0,0,0,.07.06l.11,0h.06a4.16,4.16,0,0,0,5.1-2.3,3.65,3.65,0,0,0,.15-.5c.08-.39.18-.83.44-1a.5.5,0,0,1,.39,0,2.15,2.15,0,0,1,.91.76,2.17,2.17,0,0,0,1.1.85c.3.06.5,0,.59-.12.25-.43-.49-1.61-.83-2l-.18-.21c-.39-.43-.56-.63-.27-1.29.07-.17.17-.33.25-.49a3.18,3.18,0,0,0,.45-1.13,1.52,1.52,0,0,0-.15-1.1.42.42,0,0,0-.3-.13c-.41,0-1.08,1-1.44,1.59l0,0s0,0,0-.06a.26.26,0,0,0-.24-.12h-.07c.47-.68,1.48-2,2.18-2h0c.23,0,.41.21.53.55a3.55,3.55,0,0,1-.35,2l-.16.36c-.2.41-.45.94-.28,1.33a2,2,0,0,0,.42.5A2.37,2.37,0,0,1,104.24,13.06Z" transform="translate(-1 -1)"/><path class="cls-8" d="M101.88,10.11l0,0c.36-.55,1-1.59,1.44-1.59a.42.42,0,0,1,.3.13,1.52,1.52,0,0,1,.15,1.1,3.18,3.18,0,0,1-.45,1.13c-.08.16-.18.32-.25.49-.3.66-.12.86.27,1.29l.18.21c.34.4,1.08,1.58.83,2-.09.15-.3.18-.59.12a2.17,2.17,0,0,1-1.1-.85,2.15,2.15,0,0,0-.91-.76.5.5,0,0,0-.39,0c-.26.15-.36.59-.44,1a3.65,3.65,0,0,1-.15.5,4.16,4.16,0,0,1-5.1,2.3.07.07,0,0,0,.06,0,4.12,4.12,0,0,0,5-2.3c.21-.47.2-1.74,1-1.52s1.17,1.43,2,1.61c1.3.28.17-1.59-.27-2.09s-.81-.75-.46-1.53a5.77,5.77,0,0,0,.7-1.62c0-.29.12-1.19-.42-1.19s-1.22,1.28-1.51,1.73c.09-.22-.19-.38-.36-.24.41-.61,2.23-3.22,2.84-1.51a3.5,3.5,0,0,1-.34,2.07c-.18.46-.65,1.16-.43,1.66.12.26.55.58.72.82.43.61,1.32,2.7-.17,2.49a2.51,2.51,0,0,1-.86-.4c-.28-.18-1.07-1-1.28-1-.6,0-.84,1.12-1.08,1.51-2.09,3.37-6.81,2.52-8.5-.77a4.86,4.86,0,0,0-.52-1c-.11-.13-.34-.1-.43-.28-.24-.44.11-.47.3-.81.4-.71.48-2,1.05-2.91A4.85,4.85,0,0,1,97.6,7.73a4.29,4.29,0,0,1,1.57.54,4.43,4.43,0,0,1,1,.74c.06.06,1.05,1.47,1.3,1.08-.06.22.24.44.38.22-.72,1.29-1.12,0-1.76-.74a4.38,4.38,0,0,0-4.88-1.16h0l0,0a4.41,4.41,0,0,0-.81.45c-1.34,1-1.55,2.18-2,3.63,0,.1-.06.3-.08.41s-.18,0-.15.35.14.06.2.22A5.81,5.81,0,0,0,95.42,17a.09.09,0,0,0,0,0l-.06,0a5.82,5.82,0,0,1-3.15-3.55s0,0,0,0l0,0a.09.09,0,0,1-.08,0s-.06-.07-.06-.2,0-.23.07-.25.06,0,.07-.12a3.21,3.21,0,0,1,.09-.41c0-.18.1-.35.15-.52a5,5,0,0,1,1.83-3.13,4.3,4.3,0,0,1,3-.77,4.36,4.36,0,0,1,2.77,1.44,6.23,6.23,0,0,1,.41.56c.26.38.49.73.76.72s.31-.15.48-.42a.21.21,0,0,1-.19,0,.27.27,0,0,1-.13-.22l-.07,0h0c-.28,0-.77-.6-1.11-1.05,0,0-.07-.09-.08-.09a4.45,4.45,0,0,0-.95-.75,4.39,4.39,0,0,0-1.57-.53A3.1,3.1,0,0,0,97,7.7a4.81,4.81,0,0,0-4.21,2.16,5.78,5.78,0,0,0-.64,1.71,5.51,5.51,0,0,1-.41,1.2,1,1,0,0,1-.21.26.36.36,0,0,0-.08.53.34.34,0,0,0,.22.15.46.46,0,0,1,.2.12,2.33,2.33,0,0,1,.34.62c.06.12.11.24.18.38a5.35,5.35,0,0,0,4.47,2.9h0a4.39,4.39,0,0,0,4-2.14c.06-.1.12-.25.19-.42.2-.49.45-1.09.9-1.1a2.68,2.68,0,0,1,.8.62,4.41,4.41,0,0,0,.5.42l.07,0a2.23,2.23,0,0,0,.77.36c.35,0,.58,0,.7-.23.33-.53-.26-1.81-.55-2.22a2.37,2.37,0,0,0-.3-.33,2,2,0,0,1-.42-.5c-.18-.39.07-.91.28-1.33l.16-.36a3.55,3.55,0,0,0,.35-2c-.12-.34-.3-.53-.53-.55h0c-.71,0-1.71,1.31-2.18,2h.07a.26.26,0,0,1,.24.12S101.88,10.09,101.88,10.11Z" transform="translate(-1 -1)"/><path class="cls-7" d="M103.51,12.87c.32.38,1.05,1.54.81,1.95-.07.12-.25.16-.53.1a2.2,2.2,0,0,1-1.07-.84,2.13,2.13,0,0,0-.94-.77.51.51,0,0,0-.42,0c-.28.17-.38.61-.47,1a2.94,2.94,0,0,1-.14.49,4.11,4.11,0,0,1-5,2.29s.06-.06.08-.09c1.54-3.19.22-7-.41-8.49a.24.24,0,0,0-.2-.15A4.32,4.32,0,0,1,100,9.59c.15.18.28.37.41.55.28.41.51.76.8.74s.4-.2.62-.59l.11-.18c.33-.52,1-1.58,1.39-1.58a.32.32,0,0,1,.26.11,1.41,1.41,0,0,1,.14,1.05,3.08,3.08,0,0,1-.44,1.12c-.08.16-.18.32-.26.5-.3.69-.11.91.28,1.35Z" transform="translate(-1 -1)"/><path d="M104.33,14.82c.24-.41-.49-1.57-.81-1.95l-.19-.21c-.39-.43-.58-.65-.28-1.35.08-.18.18-.34.26-.5a3.08,3.08,0,0,0,.44-1.12,1.41,1.41,0,0,0-.14-1.05.32.32,0,0,0-.26-.11c-.39,0-1.06,1.06-1.39,1.58l-.11.18c-.22.39-.42.58-.62.59s-.53-.33-.8-.74c-.13-.18-.26-.38-.41-.55A4.32,4.32,0,0,0,95.26,8.4h-.1A4.38,4.38,0,0,1,100,9.57c.65.75,1,2,1.76.74v0l0,0c.3-.45,1.06-1.73,1.51-1.73s.46.9.42,1.19a5.77,5.77,0,0,1-.7,1.62c-.35.78,0,.94.46,1.53s1.57,2.37.27,2.09c-.84-.18-1.27-1.4-2-1.61s-.79,1.05-1,1.52a4.12,4.12,0,0,1-5,2.3l0,0a4.11,4.11,0,0,0,5-2.29,2.94,2.94,0,0,0,.14-.49c.09-.4.19-.84.47-1a.51.51,0,0,1,.42,0,2.13,2.13,0,0,1,.94.77,2.2,2.2,0,0,0,1.07.84C104.08,15,104.25,14.94,104.33,14.82Z" transform="translate(-1 -1)"/><path d="M103,20c.91,2.12,2.78,7.53.59,12.06a.36.36,0,0,1-.12.14l0,0a.22.22,0,0,0,.13-.13c1.8-3.71,1-8.37-.58-12a.31.31,0,0,0-.36-.18l.13,0A.33.33,0,0,1,103,20Z" transform="translate(-1 -1)"/><path d="M102.93,20c1.57,3.66,2.38,8.33.58,12a.22.22,0,0,1-.13.13h0a.29.29,0,0,0,.14-.14c2.18-4.5.32-9.89-.58-12a.28.28,0,0,0-.38-.14.25.25,0,0,0-.14.34c.87,2,2.68,7.26.59,11.57a.27.27,0,0,0,0,.24h0a.3.3,0,0,1,0-.25c1.72-3.54.91-8-.59-11.53a.27.27,0,0,1,.07-.34.11.11,0,0,1,.07,0l.06,0h0A.31.31,0,0,1,102.93,20Z" transform="translate(-1 -1)"/><path d="M102.9,20c.9,2.11,2.77,7.5.58,12a.29.29,0,0,1-.14.14L103,32h0a.27.27,0,0,1,0-.24c2.09-4.31.28-9.52-.59-11.57a.25.25,0,0,1,.14-.34A.28.28,0,0,1,102.9,20Z" transform="translate(-1 -1)"/><path d="M103.39,32.16l0,0,0,0-.06,0A.05.05,0,0,0,103.39,32.16Z" transform="translate(-1 -1)"/><path d="M103.39,32.2l-.06,0h0l-.06,0,.07,0Z" transform="translate(-1 -1)"/><path d="M103.39,32.16a.05.05,0,0,1,0,0,.1.1,0,0,1-.06,0h.11Z" transform="translate(-1 -1)"/><path d="M103,32l.36.12h-.06l-.25-.07h0A.09.09,0,0,1,103,32Z" transform="translate(-1 -1)"/><path d="M103.27,32.16a.1.1,0,0,0,.06,0l-.07,0a1.21,1.21,0,0,1-.26-.08h0l-.06-.06.06,0h0l.07,0A.29.29,0,0,0,103.27,32.16Z" transform="translate(-1 -1)"/><path d="M103.27,32.2l.06,0a.18.18,0,0,1-.1,0,.43.43,0,0,1-.16,0,.41.41,0,0,1-.14-.11l.07,0h0A.43.43,0,0,0,103.27,32.2Z" transform="translate(-1 -1)"/><path d="M103.27,32.16a.29.29,0,0,1-.18,0l-.07,0Z" transform="translate(-1 -1)"/><path d="M103.27,32.2a.43.43,0,0,1-.26-.08A1.21,1.21,0,0,0,103.27,32.2Z" transform="translate(-1 -1)"/><path d="M102.34,20.23c1.5,3.5,2.31,8,.59,11.53a.3.3,0,0,0,0,.25h0a.3.3,0,0,1,0-.25c2.07-4.28.27-9.47-.6-11.5a.3.3,0,0,1,0-.33h0a.08.08,0,0,1,.06,0A.27.27,0,0,0,102.34,20.23Z" transform="translate(-1 -1)"/><path class="cls-8" d="M102.31,20.25c.87,2,2.67,7.22.6,11.5a.3.3,0,0,0,0,.25c-2.46-1-3.61-3.06-4.43-5a.19.19,0,0,0-.07-.09h0l-.09,0,0,0s0,0-.06-.24,0-.26.06-.28.13-.06.16-.22a5.72,5.72,0,0,1,.13-.57l.21-.74c.49-1.71.91-3.2,2.57-4.39a5.94,5.94,0,0,1,1.05-.6A.3.3,0,0,0,102.31,20.25Zm.37,4.07a.31.31,0,0,0,.08-.3.39.39,0,0,0-.29-.26.34.34,0,0,0-.35.1,2,2,0,0,1-1.39.67h0a1,1,0,0,1-.76-.37.37.37,0,0,0-.34-.13.42.42,0,0,0-.3.25.3.3,0,0,0,.07.3,1.75,1.75,0,0,0,1.29.65h0A2.82,2.82,0,0,0,102.68,24.32Z" transform="translate(-1 -1)"/><path d="M103,32.07l-.06,0,0,0H103A.09.09,0,0,0,103,32.07Z" transform="translate(-1 -1)"/><path d="M103,32.11l-.07,0h0s0,0,0,0l0,0Z" transform="translate(-1 -1)"/><path d="M103,32.06l0,0s0,0,0,0h0Z" transform="translate(-1 -1)"/><path d="M102.91,32h0c-2.33-.9-3.55-2.82-4.47-5-.09-.24-.24.24-.3-.31s.15-.15.21-.5c0-.15.08-.44.12-.58.62-2,.91-3.79,2.81-5.15a6.37,6.37,0,0,1,1.2-.66.25.25,0,0,0-.12.1h0a5.94,5.94,0,0,0-1.05.6c-1.66,1.19-2.08,2.67-2.57,4.39l-.21.74a5.72,5.72,0,0,0-.13.57c0,.17-.09.2-.16.22s-.07,0-.06.28.06.23.06.24l0,0,.09,0h0a.19.19,0,0,1,.07.09c.81,1.93,2,4,4.43,5C102.89,32,102.9,32,102.91,32Z" transform="translate(-1 -1)"/><path d="M102.76,24a.31.31,0,0,1-.08.3,2.82,2.82,0,0,1-2,.93h0a1.75,1.75,0,0,1-1.29-.65.3.3,0,0,1-.07-.3.42.42,0,0,1,.3-.25.37.37,0,0,1,.34.13,1,1,0,0,0,.76.37h0a2,2,0,0,0,1.39-.67.34.34,0,0,1,.35-.1A.39.39,0,0,1,102.76,24Zm-.11.27c.28-.3-.21-.69-.5-.4-.61.63-1.6,1-2.21.3-.27-.3-.77.06-.51.38C100.38,25.68,101.76,25.21,102.65,24.29Z" transform="translate(-1 -1)"/><path d="M102.15,23.9c.29-.3.77.1.5.4-.89.91-2.27,1.38-3.22.28-.27-.31.24-.68.51-.38C100.55,24.9,101.54,24.52,102.15,23.9Zm.47.37a.23.23,0,0,0,.06-.22.32.32,0,0,0-.23-.2.26.26,0,0,0-.28.08,2.1,2.1,0,0,1-1.46.69,1.08,1.08,0,0,1-.81-.4.25.25,0,0,0-.2-.1h-.06a.35.35,0,0,0-.24.19.22.22,0,0,0,.06.23,1.61,1.61,0,0,0,1.24.63h0A2.7,2.7,0,0,0,102.62,24.27Z" transform="translate(-1 -1)"/><path d="M102.7,19.77l-.13,0h0a.08.08,0,0,0-.06,0,.11.11,0,0,0-.07,0,.08.08,0,0,0-.06,0,.25.25,0,0,1,.12-.1h0l.08,0Z" transform="translate(-1 -1)"/><path d="M102.68,24a.23.23,0,0,1-.06.22,2.7,2.7,0,0,1-1.92.9h0a1.61,1.61,0,0,1-1.24-.63.22.22,0,0,1-.06-.23.35.35,0,0,1,.24-.19h.06a.25.25,0,0,1,.2.1,1.08,1.08,0,0,0,.81.4,2.1,2.1,0,0,0,1.46-.69.26.26,0,0,1,.28-.08A.32.32,0,0,1,102.68,24Z" transform="translate(-1 -1)"/><path d="M102.56,19.82l-.06,0A.08.08,0,0,1,102.56,19.82Z" transform="translate(-1 -1)"/><path d="M101.48,10c.17-.14.45,0,.36.24l0,0v0c-.14.22-.44,0-.38-.22h0l0-.06Zm.33.24a.17.17,0,0,0,0-.17.24.24,0,0,0-.19-.1.22.22,0,0,0-.15.08.2.2,0,0,0,.07.28.16.16,0,0,0,.24,0l0,0Z" transform="translate(-1 -1)"/><path d="M101.81,10.08a.17.17,0,0,1,0,.17v0l0,0a.16.16,0,0,1-.24,0,.2.2,0,0,1-.07-.28.22.22,0,0,1,.15-.08A.24.24,0,0,1,101.81,10.08Z" transform="translate(-1 -1)"/><path d="M95.47,8.55c.64,1.49,2,5.3.41,8.49,0,0,0,.07-.08.09h0a.28.28,0,0,0,.08-.09c1.26-2.61.69-5.89-.41-8.47a.21.21,0,0,0-.29-.11l.11,0A.24.24,0,0,1,95.47,8.55Z" transform="translate(-1 -1)"/><path d="M95.44,8.56c1.11,2.58,1.68,5.86.41,8.47a.28.28,0,0,1-.08.09h0s.07,0,.1-.09c1.54-3.17.23-7-.41-8.44a.19.19,0,0,0-.27-.1.18.18,0,0,0-.1.24c.62,1.44,1.89,5.11.41,8.14a.19.19,0,0,0,0,.18l0,0h0a.27.27,0,0,1,0-.17c1.21-2.5.64-5.65-.42-8.12a.19.19,0,0,1,.06-.24.11.11,0,0,1,.07,0A.21.21,0,0,1,95.44,8.56Z" transform="translate(-1 -1)"/><path d="M95.42,8.57c.64,1.48,1.95,5.27.41,8.44,0,0-.06.08-.1.09L95.48,17a.19.19,0,0,1,0-.18c1.48-3,.2-6.7-.41-8.14a.18.18,0,0,1,.1-.24A.19.19,0,0,1,95.42,8.57Z" transform="translate(-1 -1)"/><path d="M95.77,17.12h0l0,0h0Z" transform="translate(-1 -1)"/><path d="M95.77,17.12l0,0h0l0,0a0,0,0,0,0,0,0Z" transform="translate(-1 -1)"/><path d="M95.76,17.15a.07.07,0,0,1-.06,0h0l0,0h.1Z" transform="translate(-1 -1)"/><path d="M95.72,17.11a0,0,0,0,1,0,0l-.17-.06s0,0,0,0Z" transform="translate(-1 -1)"/><path d="M95.68,17.12l0,0H95.6l0,0a.1.1,0,0,1-.06,0l0,0,.06,0a.09.09,0,0,0,0,0A.18.18,0,0,0,95.68,17.12Z" transform="translate(-1 -1)"/><path d="M95.66,17.15l0,0h0l-.11,0a.14.14,0,0,1-.07-.06h0a.1.1,0,0,0,.06,0,.06.06,0,0,0,0,0Z" transform="translate(-1 -1)"/><path d="M95.68,17.12a.18.18,0,0,1-.12,0,.09.09,0,0,1,0,0Z" transform="translate(-1 -1)"/><path d="M95,8.72c1.06,2.47,1.63,5.62.42,8.12a.27.27,0,0,0,0,.17h0a.27.27,0,0,1,0-.17c1.47-3,.19-6.67-.41-8.1a.21.21,0,0,1,0-.22h0l0,0A.19.19,0,0,0,95,8.72Z" transform="translate(-1 -1)"/><path d="M95.56,17.12l0,0A.06.06,0,0,1,95.56,17.12Z" transform="translate(-1 -1)"/><path class="cls-8" d="M95,8.73c.61,1.43,1.88,5.09.41,8.1a.27.27,0,0,0,0,.17,5.85,5.85,0,0,1-3.11-3.5.08.08,0,0,0-.06-.06h0l-.06,0s0,0,0,0,0,0,0-.17,0-.18,0-.19.09,0,.11-.16.06-.3.08-.41l.16-.52a4.94,4.94,0,0,1,1.81-3.09A3.43,3.43,0,0,1,95,8.51.21.21,0,0,0,95,8.73Zm.26,2.88a.23.23,0,0,0,.06-.21.3.3,0,0,0-.19-.18.27.27,0,0,0-.25.07,1.44,1.44,0,0,1-1,.47h0a.68.68,0,0,1-.53-.26.24.24,0,0,0-.24-.08.3.3,0,0,0-.21.17.22.22,0,0,0,.06.22,1.23,1.23,0,0,0,.9.46h0A2,2,0,0,0,95.26,11.61Z" transform="translate(-1 -1)"/><path d="M95.51,17.07l-.06,0a0,0,0,0,1,0,0l0,0S95.49,17.07,95.51,17.07Z" transform="translate(-1 -1)"/><path d="M95.46,17l0,0h0a.09.09,0,0,1,0,0Z" transform="translate(-1 -1)"/><path d="M95.46,17h0a0,0,0,0,1,0,0h0A0,0,0,0,0,95.46,17Z" transform="translate(-1 -1)"/><path d="M95.4,17a0,0,0,0,0,0,0,5.81,5.81,0,0,1-3.15-3.53c-.06-.17-.17.17-.2-.22s.1-.1.15-.35.06-.3.08-.41c.43-1.45.65-2.67,2-3.63a4.41,4.41,0,0,1,.81-.45L95,8.5h0a3.43,3.43,0,0,0-.74.41A4.94,4.94,0,0,0,92.48,12l-.16.52c0,.1-.06.3-.08.41s-.06.14-.11.16-.06,0,0,.19,0,.17,0,.17,0,0,0,0l.06,0h0a.08.08,0,0,1,.06.06A5.85,5.85,0,0,0,95.4,17Z" transform="translate(-1 -1)"/><path d="M95.32,11.4a.23.23,0,0,1-.06.21,2,2,0,0,1-1.39.65h0a1.23,1.23,0,0,1-.9-.46.22.22,0,0,1-.06-.22.3.3,0,0,1,.21-.17.24.24,0,0,1,.24.08.68.68,0,0,0,.53.26h0a1.44,1.44,0,0,0,1-.47.27.27,0,0,1,.25-.07A.3.3,0,0,1,95.32,11.4Zm-.08.19c.2-.21-.15-.49-.34-.29-.43.45-1.13.71-1.56.21-.18-.21-.55,0-.36.27A1.48,1.48,0,0,0,95.24,11.59Z" transform="translate(-1 -1)"/><path d="M94.89,11.3c.19-.2.54.07.34.29a1.48,1.48,0,0,1-2.26.19c-.19-.22.18-.48.36-.27C93.76,12,94.46,11.75,94.89,11.3Zm.32.27a.16.16,0,0,0,0-.16.21.21,0,0,0-.16-.15.2.2,0,0,0-.19.06,1.46,1.46,0,0,1-1,.49h0a.76.76,0,0,1-.56-.28.2.2,0,0,0-.15-.07h0a.22.22,0,0,0-.17.13.15.15,0,0,0,0,.17,1.18,1.18,0,0,0,.88.44h0A2,2,0,0,0,95.22,11.57Z" transform="translate(-1 -1)"/><path d="M95.26,11.41a.16.16,0,0,1,0,.16,2,2,0,0,1-1.32.64h0a1.18,1.18,0,0,1-.88-.44.15.15,0,0,1,0-.17.22.22,0,0,1,.17-.13h0a.2.2,0,0,1,.15.07.76.76,0,0,0,.56.28h0a1.46,1.46,0,0,0,1-.49.2.2,0,0,1,.19-.06A.21.21,0,0,1,95.26,11.41Z" transform="translate(-1 -1)"/><path d="M95.16,8.41h.1l-.11,0a.11.11,0,0,0-.07,0l0,0,.06-.06,0,0Z" transform="translate(-1 -1)"/><path d="M90.19,26.14c.52.73,1.55,3,1,3.92a1.17,1.17,0,0,1-1.29.42,3.8,3.8,0,0,1-1.35-.62l-.13-.07a8.17,8.17,0,0,1-.88-.75,5.1,5.1,0,0,0-1.3-1h0c-.71,0-1.12,1-1.46,1.82a4.75,4.75,0,0,1-.34.74,7.59,7.59,0,0,1-6.84,3.71h-.06a9.29,9.29,0,0,1-7.73-5c-.12-.23-.21-.44-.3-.65a4,4,0,0,0-.58-1,.61.61,0,0,0-.3-.17.74.74,0,0,1-.42-.3.69.69,0,0,1,.16-1,2,2,0,0,0,.34-.42,9.21,9.21,0,0,0,.69-2,10.29,10.29,0,0,1,1.1-3A8.37,8.37,0,0,1,78.75,17a7.52,7.52,0,0,1,2.7.93,7.94,7.94,0,0,1,1.66,1.28l.13.18c.34.44,1.38,1.81,1.85,1.77a.23.23,0,0,0,.17-.11l0-.06,0,0c.76-1.12,2.61-3.67,3.93-3.62h.08c.43,0,.77.39,1,1,.37,1-.26,2.69-.6,3.58-.07.18-.18.4-.28.62-.35.73-.75,1.57-.46,2.19a3.38,3.38,0,0,0,.7.83A4.65,4.65,0,0,1,90.19,26.14Zm-.32,4.3c2.54.36,1-3.22.29-4.27-.29-.41-1-.95-1.24-1.4-.38-.85.43-2,.74-2.85.37-1,1-2.54.6-3.54C89.19,15.43,86,20,85.36,21l0,0v0l0,0c-.4.73-2.11-1.71-2.22-1.82a7.51,7.51,0,0,0-4.33-2.21,8.37,8.37,0,0,0-8.26,3.63c-1,1.5-1.11,3.78-1.78,5-.32.58-.93.63-.51,1.4.16.29.55.25.73.46a8.69,8.69,0,0,1,.89,1.7c2.88,5.63,11,7.1,14.55,1.32.41-.65.82-2.57,1.83-2.58.37,0,1.73,1.48,2.2,1.77A4.28,4.28,0,0,0,89.87,30.43Z" transform="translate(-1 -1)"/><path d="M90.12,26.19c.5.71,1.52,2.89.95,3.82-.2.34-.61.47-1.2.39a4,4,0,0,1-1.31-.61l-.13-.08a8.69,8.69,0,0,1-.86-.73c-.55-.52-1.12-1-1.36-1.05h0c-.77,0-1.2,1-1.54,1.87a6.42,6.42,0,0,1-.33.73,7.52,7.52,0,0,1-6.77,3.66h-.06a9.19,9.19,0,0,1-7.65-5c-.12-.23-.21-.45-.3-.65A4,4,0,0,0,69,27.5a.79.79,0,0,0-.34-.19.64.64,0,0,1-.39-.26.61.61,0,0,1,.15-.9,1.85,1.85,0,0,0,.36-.45,9.22,9.22,0,0,0,.69-2.06,9.74,9.74,0,0,1,1.1-2.92A8.26,8.26,0,0,1,77.74,17c.33,0,.66,0,1,.09a7.49,7.49,0,0,1,2.67.93A7.76,7.76,0,0,1,83,19.3l.13.17c.6.77,1.43,1.79,1.9,1.81h0a.31.31,0,0,0,.13,0,.49.49,0,0,0,.21.39.41.41,0,0,0,.34.06c-.3.46-.57.7-.83.71-.45,0-.86-.58-1.29-1.23a9,9,0,0,0-.7-.95A7.51,7.51,0,0,0,73,19c-2,1.45-2.54,3.25-3.14,5.35-.08.29-.17.58-.26.89a5.54,5.54,0,0,0-.15.7c0,.16-.08.18-.13.19s-.16.11-.13.42.06.33.12.36a.15.15,0,0,0,.14,0s.06,0,.06,0,0,0,0,.06c1,2.34,2.4,4.9,5.41,6.07l.06,0a.48.48,0,0,0,.17.14.5.5,0,0,0,.19,0,.27.27,0,0,0,.12,0h0a7.09,7.09,0,0,0,8.68-3.94,4.61,4.61,0,0,0,.25-.86c.15-.65.32-1.4.77-1.67a.79.79,0,0,1,.65-.06A3.66,3.66,0,0,1,87.46,28a3.85,3.85,0,0,0,1.88,1.46c.52.11.86,0,1-.21.44-.74-.83-2.76-1.41-3.43-.11-.14-.22-.26-.32-.37-.65-.74-1-1.08-.45-2.2.13-.29.29-.57.43-.85a5.53,5.53,0,0,0,.77-1.94,2.53,2.53,0,0,0-.26-1.87.66.66,0,0,0-.52-.22c-.71,0-1.84,1.78-2.45,2.73l-.06.07A.24.24,0,0,0,86,21a.47.47,0,0,0-.41-.2.31.31,0,0,0-.13,0c.8-1.18,2.53-3.45,3.73-3.41h.07c.4,0,.7.36.9.93.37,1-.26,2.65-.6,3.52-.06.18-.17.39-.27.6-.34.72-.77,1.6-.46,2.28a3.41,3.41,0,0,0,.72.86A3.87,3.87,0,0,1,90.12,26.19Z" transform="translate(-1 -1)"/><path d="M86.08,21.17l.06-.07c.61-.95,1.74-2.74,2.45-2.73a.66.66,0,0,1,.52.22,2.53,2.53,0,0,1,.26,1.87,5.53,5.53,0,0,1-.77,1.94c-.15.28-.3.56-.43.85-.51,1.12-.2,1.47.45,2.2.1.11.21.23.32.37.58.67,1.85,2.69,1.41,3.43-.15.25-.49.32-1,.21A3.85,3.85,0,0,1,87.46,28a3.66,3.66,0,0,0-1.56-1.29.79.79,0,0,0-.65.06c-.44.27-.62,1-.77,1.67a4.61,4.61,0,0,1-.25.86,7.09,7.09,0,0,1-8.68,3.94.1.1,0,0,0,.06,0,7.07,7.07,0,0,0,8.58-3.93c.37-.82.35-3,1.72-2.61s2,2.44,3.43,2.75c2.23.49.3-2.7-.44-3.57s-1.39-1.28-.79-2.62a10.16,10.16,0,0,0,1.2-2.78c.06-.5.2-2-.73-2-.77,0-2.12,2.26-2.59,3,.21-.4-.36-.69-.64-.41.67-1,3.83-5.56,4.9-2.62.36,1-.23,2.57-.6,3.54-.3.8-1.12,2-.74,2.85.2.45.95,1,1.24,1.4.74,1.05,2.26,4.63-.29,4.27a4.28,4.28,0,0,1-1.47-.69c-.47-.29-1.83-1.77-2.2-1.77-1,0-1.43,1.93-1.83,2.58-3.59,5.78-11.67,4.31-14.55-1.32a8.69,8.69,0,0,0-.89-1.7c-.18-.21-.57-.18-.73-.46-.42-.77.18-.82.51-1.4.67-1.21.8-3.48,1.78-5a8.37,8.37,0,0,1,8.26-3.63,7.51,7.51,0,0,1,4.33,2.21c.11.1,1.83,2.54,2.22,1.82l0,0c-.22.4.34.84.61.44l0,0c-1.26,2.28-1.94.06-3-1.21a7.47,7.47,0,0,0-8.3-2l-.08,0h0l0,0h0a6.85,6.85,0,0,0-1.41.78c-2.3,1.64-2.65,3.74-3.38,6.2-.06.18-.12.53-.16.7-.07.42-.3,0-.25.61s.24.08.36.37c1.11,2.65,2.57,5,5.38,6h0a.08.08,0,0,0,0,.06L75,33c-3-1.16-4.43-3.72-5.41-6.07,0,0,0-.06,0-.06s0,0-.06,0a.15.15,0,0,1-.14,0c-.06,0-.1-.14-.12-.36s0-.39.13-.42.09,0,.13-.19a5.54,5.54,0,0,1,.15-.7c.09-.3.18-.6.26-.89C70.49,22.29,71,20.49,73,19A7.51,7.51,0,0,1,83,20.2a9,9,0,0,1,.7.95c.43.65.84,1.25,1.29,1.23.26,0,.53-.25.83-.71a.41.41,0,0,1-.34-.06.49.49,0,0,1-.21-.39.31.31,0,0,1-.13,0h0c-.47,0-1.3-1-1.9-1.81L83,19.3A7.76,7.76,0,0,0,81.41,18a7.49,7.49,0,0,0-2.67-.93c-.33,0-.66-.07-1-.09a8.26,8.26,0,0,0-7.21,3.71,9.74,9.74,0,0,0-1.1,2.92,9.22,9.22,0,0,1-.69,2.06,1.85,1.85,0,0,1-.36.45.61.61,0,0,0-.15.9.64.64,0,0,0,.39.26.79.79,0,0,1,.34.19,4,4,0,0,1,.59,1.06c.09.2.18.42.3.65a9.19,9.19,0,0,0,7.65,5h.06a7.52,7.52,0,0,0,6.77-3.66,6.42,6.42,0,0,0,.33-.73c.34-.83.77-1.86,1.54-1.87h0c.24,0,.81.53,1.36,1.05a8.69,8.69,0,0,0,.86.73l.13.08a4,4,0,0,0,1.31.61c.59.08,1,0,1.2-.39.57-.92-.45-3.11-.95-3.82a3.87,3.87,0,0,0-.52-.55,3.41,3.41,0,0,1-.72-.86c-.3-.67.12-1.56.46-2.28.1-.21.2-.42.27-.6.34-.88,1-2.51.6-3.52-.2-.57-.51-.89-.9-.93h-.07c-1.21,0-2.93,2.23-3.73,3.41a.31.31,0,0,1,.13,0A.47.47,0,0,1,86,21,.24.24,0,0,1,86.08,21.17Z" transform="translate(-1 -1)"/><path class="cls-7" d="M88.87,25.87c.54.65,1.81,2.64,1.4,3.32-.14.22-.44.28-.91.18a3.74,3.74,0,0,1-1.83-1.43,3.74,3.74,0,0,0-1.6-1.32.89.89,0,0,0-.73.07c-.48.28-.65,1.05-.81,1.72a5.24,5.24,0,0,1-.24.84,7.07,7.07,0,0,1-8.49,3.92A.42.42,0,0,0,75.8,33c2.65-5.46.39-12-.7-14.53a.38.38,0,0,0-.34-.25,7.38,7.38,0,0,1,8.14,2,10.44,10.44,0,0,1,.69.95c.47.69.88,1.29,1.36,1.26s.69-.35,1.06-1l.19-.3c.56-.88,1.71-2.7,2.38-2.69a.59.59,0,0,1,.45.19,2.49,2.49,0,0,1,.23,1.8,5.23,5.23,0,0,1-.76,1.9c-.15.28-.3.56-.44.86-.53,1.18-.19,1.56.48,2.3Z" transform="translate(-1 -1)"/><path d="M90.28,29.19c.41-.68-.86-2.67-1.4-3.32l-.32-.36c-.67-.75-1-1.12-.48-2.3.14-.3.3-.58.44-.86a5.23,5.23,0,0,0,.76-1.9,2.49,2.49,0,0,0-.23-1.8.59.59,0,0,0-.45-.19c-.66,0-1.82,1.82-2.38,2.69l-.19.3c-.37.66-.71,1-1.06,1s-.89-.57-1.36-1.26a10.44,10.44,0,0,0-.69-.95,7.38,7.38,0,0,0-8.14-2h-.13a7.47,7.47,0,0,1,8.3,2c1.11,1.27,1.78,3.48,3,1.21l0,0c.47-.73,1.82-3,2.59-3,.93,0,.78,1.54.73,2a10.16,10.16,0,0,1-1.2,2.78c-.6,1.34-.07,1.61.79,2.62s2.67,4.06.44,3.57c-1.43-.3-2.17-2.4-3.43-2.75s-1.36,1.79-1.72,2.61a7.07,7.07,0,0,1-8.58,3.93.08.08,0,0,0,0,0,7.07,7.07,0,0,0,8.49-3.92,5.24,5.24,0,0,0,.24-.84c.16-.67.33-1.45.81-1.72a.89.89,0,0,1,.73-.07,3.74,3.74,0,0,1,1.6,1.32,3.74,3.74,0,0,0,1.83,1.43C89.83,29.47,90.14,29.41,90.28,29.19Z" transform="translate(-1 -1)"/><path d="M85.36,21c.28-.29.85,0,.64.41l0,0,0,0c-.27.4-.83,0-.61-.44v0Zm.59.39a.28.28,0,0,0,0-.29.36.36,0,0,0-.33-.17.32.32,0,0,0-.27.14.36.36,0,0,0,.14.46.27.27,0,0,0,.41-.07l0,0Z" transform="translate(-1 -1)"/><path d="M86,21.09a.28.28,0,0,1,0,.29l0,0,0,0a.27.27,0,0,1-.41.07.36.36,0,0,1-.14-.46.32.32,0,0,1,.27-.14A.36.36,0,0,1,86,21.09Z" transform="translate(-1 -1)"/><path d="M75.1,18.48c1.09,2.54,3.35,9.07.7,14.53a.42.42,0,0,1-.14.17l0,0a.44.44,0,0,0,.15-.17c2.17-4.46,1.19-10.08-.71-14.49a.36.36,0,0,0-.41-.22l.12,0A.38.38,0,0,1,75.1,18.48Z" transform="translate(-1 -1)"/><path d="M75.05,18.49c1.9,4.42,2.88,10,.71,14.49a.44.44,0,0,1-.15.17h0l-.06,0a.34.34,0,0,0,.18-.17c2.64-5.42.39-11.92-.7-14.46a.34.34,0,0,0-.45-.18.31.31,0,0,0-.18.41c1.05,2.46,3.24,8.75.72,13.94a.3.3,0,0,0,0,.3l-.06,0a.33.33,0,0,1,0-.3c2.07-4.28,1.1-9.67-.72-13.9a.34.34,0,0,1,.11-.42l.12-.06.06,0A.36.36,0,0,1,75.05,18.49Z" transform="translate(-1 -1)"/><path d="M75,18.51c1.09,2.54,3.34,9,.7,14.46a.34.34,0,0,1-.18.17,3.86,3.86,0,0,1-.42-.15.3.3,0,0,1,0-.3c2.52-5.19.33-11.48-.72-13.94a.31.31,0,0,1,.18-.41A.34.34,0,0,1,75,18.51Z" transform="translate(-1 -1)"/><path d="M75.62,33.15l0,0a.08.08,0,0,1,0,0l-.06,0,.06,0Z" transform="translate(-1 -1)"/><path d="M75.62,33.2a.1.1,0,0,1-.06,0h0l-.08,0,.1,0Z" transform="translate(-1 -1)"/><path d="M75.61,33.15l-.06,0-.07,0,.06,0Z" transform="translate(-1 -1)"/><path d="M75.48,33.15l.07,0-.1,0a1.77,1.77,0,0,1-.29-.1h0a.22.22,0,0,1-.07-.08l.08,0a.25.25,0,0,0,.09.07.41.41,0,0,0,.21,0Z" transform="translate(-1 -1)"/><path d="M75.12,33a3.86,3.86,0,0,0,.42.15l-.06,0h0l-.3-.11Z" transform="translate(-1 -1)"/><path d="M75.53,33.23a.27.27,0,0,1-.12,0,.5.5,0,0,1-.19,0,.48.48,0,0,1-.17-.14l.1,0h0a.37.37,0,0,0,.29.1Z" transform="translate(-1 -1)"/><path d="M75.16,33l.3.11a.41.41,0,0,1-.21,0A.25.25,0,0,1,75.16,33Z" transform="translate(-1 -1)"/><path d="M75.45,33.2a.37.37,0,0,1-.29-.1A1.77,1.77,0,0,0,75.45,33.2Z" transform="translate(-1 -1)"/><path d="M74.34,18.77c1.82,4.23,2.79,9.62.72,13.9a.33.33,0,0,0,0,.3H75a.38.38,0,0,1,0-.3c2.5-5.16.33-11.41-.72-13.87a.38.38,0,0,1,0-.39h0l.1,0A.34.34,0,0,0,74.34,18.77Z" transform="translate(-1 -1)"/><path class="cls-8" d="M74.31,18.79c1.05,2.45,3.22,8.7.72,13.87a.38.38,0,0,0,0,.3c-3-1.16-4.35-3.69-5.33-6a.19.19,0,0,0-.09-.11h0a.16.16,0,0,0-.09,0l-.06,0s-.06,0-.07-.3,0-.31.06-.33.16-.06.18-.27.1-.52.16-.69.18-.59.26-.88c.59-2.07,1.11-3.86,3.11-5.3a6.52,6.52,0,0,1,1.25-.71A.38.38,0,0,0,74.31,18.79Zm.43,4.91a.38.38,0,0,0,.11-.36.48.48,0,0,0-.34-.3.41.41,0,0,0-.42.12,2.47,2.47,0,0,1-1.66.81h0a1.24,1.24,0,0,1-.91-.45.44.44,0,0,0-.41-.15.48.48,0,0,0-.35.3.35.35,0,0,0,.08.37,2.08,2.08,0,0,0,1.56.78h0A3.35,3.35,0,0,0,74.74,23.7Z" transform="translate(-1 -1)"/><path d="M75.16,33l-.08,0,0,0,.06,0Z" transform="translate(-1 -1)"/><path d="M75.16,33.1l-.1,0A.08.08,0,0,1,75,33h.06A.22.22,0,0,0,75.16,33.1Z" transform="translate(-1 -1)"/><path d="M75.08,33H75s0,0,0,0h.06Z" transform="translate(-1 -1)"/><path d="M75,32.95s0,0,0,0c-2.81-1.08-4.28-3.39-5.38-6-.12-.29-.3.29-.36-.37s.18-.18.25-.61c0-.18.1-.53.16-.7.74-2.46,1.09-4.56,3.38-6.2a6.85,6.85,0,0,1,1.41-.78.31.31,0,0,0-.12.1h0a6.52,6.52,0,0,0-1.25.71c-2,1.44-2.52,3.23-3.11,5.3-.08.29-.17.58-.26.88s-.12.52-.16.69-.1.25-.18.27-.09,0-.06.33.06.29.07.3l.06,0a.16.16,0,0,1,.09,0h0a.19.19,0,0,1,.09.11C70.65,29.26,72,31.79,75,32.95Z" transform="translate(-1 -1)"/><path d="M74.85,23.34a.38.38,0,0,1-.11.36,3.35,3.35,0,0,1-2.37,1.12h0A2.08,2.08,0,0,1,70.8,24a.35.35,0,0,1-.08-.37.48.48,0,0,1,.35-.3.44.44,0,0,1,.41.15,1.24,1.24,0,0,0,.91.45h0a2.47,2.47,0,0,0,1.66-.81.41.41,0,0,1,.42-.12A.48.48,0,0,1,74.85,23.34Zm-.14.32c.34-.35-.26-.83-.6-.48-.74.77-1.93,1.22-2.66.37-.31-.38-.93.07-.61.45C72,25.33,73.64,24.77,74.71,23.67Z" transform="translate(-1 -1)"/><path d="M74.11,23.19c.34-.35.94.13.6.48-1.07,1.11-2.74,1.67-3.87.34-.32-.38.3-.83.61-.45C72.19,24.4,73.38,24,74.11,23.19Zm.56.45a.26.26,0,0,0,.08-.27.38.38,0,0,0-.28-.25.33.33,0,0,0-.33.1,2.55,2.55,0,0,1-1.75.84h0a1.33,1.33,0,0,1-1-.48.3.3,0,0,0-.24-.12h-.08a.41.41,0,0,0-.29.23.29.29,0,0,0,.06.28,2,2,0,0,0,1.49.76h0A3.26,3.26,0,0,0,74.68,23.64Z" transform="translate(-1 -1)"/><path d="M74.76,23.37a.26.26,0,0,1-.08.27,3.26,3.26,0,0,1-2.3,1.1h0A2,2,0,0,1,70.87,24a.29.29,0,0,1-.06-.28.41.41,0,0,1,.29-.23h.08a.3.3,0,0,1,.24.12,1.33,1.33,0,0,0,1,.48h0a2.55,2.55,0,0,0,1.75-.84.33.33,0,0,1,.33-.1A.38.38,0,0,1,74.76,23.37Z" transform="translate(-1 -1)"/><path d="M74.76,18.23l-.12,0-.06,0a.29.29,0,0,0-.12.06l-.1,0a.31.31,0,0,1,.12-.1h0l.06,0,.08,0Z" transform="translate(-1 -1)"/><path d="M74.57,18.29l-.12.06A.29.29,0,0,1,74.57,18.29Z" transform="translate(-1 -1)"/><path d="M74.55,18.25l-.06,0,0,0Z" transform="translate(-1 -1)"/></g><circle id="bordo_sq" class="cls-9" cx="99" cy="99" r="98"/></svg>