<svg id="Livello_1" data-name="Livello 1" xmlns="http://www.w3.org/2000/svg" xmlns:xlink="http://www.w3.org/1999/xlink" viewBox="0 0 198 198.49"><defs><style>.cls-1,.cls-10,.cls-5{fill:none;}.cls-2{clip-path:url(#clip-path);}.cls-3{fill:#be8446;}.cls-4{fill:#a7d9e3;}.cls-10,.cls-5{stroke:#1d1d1b;}.cls-5{stroke-miterlimit:10;stroke-width:2px;}.cls-6{fill:#f08817;}.cls-7{fill:#1d1d1b;}.cls-8{fill:#d7d5d5;}.cls-9{fill:#f29100;}.cls-10{stroke-linecap:round;stroke-linejoin:round;stroke-width:1.94px;}</style><clipPath id="clip-path" transform="translate(-1 -1)"><circle class="cls-1" cx="100" cy="100.49" r="98"/></clipPath></defs><title>r_tigre</title><g class="cls-2"><path class="cls-3" d="M100,198.49a98.06,98.06,0,0,1-95.28-121h0S27,86.59,35.53,101.27s65.72,7.17,77.47,12c10.38,4.28,47.67,21.84,51.42,61.05h0A97.6,97.6,0,0,1,100,198.49Z" transform="translate(-1 -1)"/><path class="cls-4" d="M113,113.27c-11.75-4.83-68.93,2.69-77.47-12S4.74,77.46,4.74,77.46h0a98,98,0,1,1,159.7,96.87C160.68,135.12,123.39,117.55,113,113.27Z" transform="translate(-1 -1)"/><path class="cls-5" d="M164.43,174.34A98,98,0,1,1,198,100.49a97.6,97.6,0,0,1-33.57,73.84" transform="translate(-1 -1)"/><path class="cls-5" d="M4.74,77.46S27,86.59,35.53,101.27s65.72,7.17,77.47,12c10.38,4.28,47.67,21.84,51.42,61.05h0" transform="translate(-1 -1)"/><g id="_Gruppo_" data-name="&lt;Gruppo&gt;"><path class="cls-6" d="M110.64,59a14.29,14.29,0,0,1-3.21,4.49c-2.2,2.32-8.34,2.49-14-2.27a60.79,60.79,0,0,0,0,9.21c-.88,8.48,3.73,26.84,6.65,37.65a23.44,23.44,0,0,1,1,5.88h-.16c-2.07-.07-2.82,3.81-2.86,4.05h0c-.11-.19-1.45-2.43-2.62-2.49s-2.35,2.4-2.35,2.4V118H90.88v0c.65,0-3-41.17-3-41.17l-24.57,17s18.13,1.76,16.08,18.13a13.83,13.83,0,0,1,7.27.61c.14.29,1.7,3.67,1.6,5.41v0c-10.46-.06-26.26-.11-33.72.07-5.31.13-7.31-3.17-7.91-6.82l-.19-1.92a27.38,27.38,0,0,1,.79-7.34C49.23,90.59,77,75.09,82,53.85c0,0-1.4-8.2,2.94-11.16l1.17-.58S86,36.26,89.66,36s5.16,4,5.16,4,7.8,4,11,8.53c1.2,1.7,2.14,2.82,2.14,2.82A14.71,14.71,0,0,1,110.24,53c-.76.28,0,.38,0,1.65,0,1.47-.33,1.65.44,1.65s0,.78,0-.7c0-.14,0,3,0,2.83m-8.26-8.48c.48-.7-.66-1.36-1.14-.66-1.15,1.71-3.23,1.81-4.92.84a.66.66,0,0,0-.66,1.14A4.88,4.88,0,0,0,102.37,49.94Z" transform="translate(-1 -1)"/><path class="cls-7" d="M101.24,49.28c.47-.7,1.61,0,1.14.66a4.88,4.88,0,0,1-6.72,1.31.66.66,0,0,1,.66-1.14C98,51.09,100.09,51,101.24,49.28Z" transform="translate(-1 -1)"/><path class="cls-8" d="M101.09,114c0,4.58-2.72,4.06-2.72,4.06h-.3c0-.24.79-4.12,2.86-4.05Z" transform="translate(-1 -1)"/><path class="cls-6" d="M99.65,37.66c2.57,1.76,1.33,5.44,1.33,5.44l-6-3.22S97.07,35.89,99.65,37.66Z" transform="translate(-1 -1)"/><path class="cls-8" d="M95.44,115.59c1.17.07,2.5,2.3,2.62,2.49l-5,0V118S94.21,115.52,95.44,115.59Z" transform="translate(-1 -1)"/><path class="cls-6" d="M86.62,112.56a13.83,13.83,0,0,0-7.27-.61c2-16.38-16.08-18.13-16.08-18.13l24.57-17s3.69,41.17,3,41.17c0,0-.09-.14-.16-.45A6.84,6.84,0,0,0,86.62,112.56Z" transform="translate(-1 -1)"/><path class="cls-8" d="M90.88,118v0l-2.66,0v0c.1-1.74-1.46-5.12-1.6-5.41a6.84,6.84,0,0,1,4.1,5C90.79,117.86,90.84,118,90.88,118Z" transform="translate(-1 -1)"/><path class="cls-6" d="M50.39,124.94c3.07-.22,4.18,5.31,2.5,6.08s-2.93-.44-3.29-2.19c-.59-2.83-20,4.09-19.82-8.41s16.53-12,16.53-12l.09.91a15.89,15.89,0,0,0,.19,1.92l0,.3c-3.1-1.93-14,2.49-14,8C32.63,127,47.32,125.16,50.39,124.94Z" transform="translate(-1 -1)"/><path class="cls-9" d="M46.4,109.34l.19,1.92A15.89,15.89,0,0,1,46.4,109.34Z" transform="translate(-1 -1)"/><path class="cls-10" d="M110.24,53a14.71,14.71,0,0,0-2.31-1.68s-.94-1.12-2.14-2.82c-3.16-4.51-11-8.53-11-8.53s-1.54-4.23-5.16-4-3.53,6.11-3.53,6.11L85,42.69C80.62,45.65,82,53.85,82,53.85,77,75.09,49.23,90.59,47.18,102a27.38,27.38,0,0,0-.79,7.34,15.89,15.89,0,0,0,.19,1.92c.6,3.65,2.59,7,7.91,6.82,7.46-.19,23.26-.14,33.72-.07l2.66,0h2.21l5,0h.31s2.73.51,2.72-4.06a23.44,23.44,0,0,0-1-5.88C97.2,97.32,92.59,79,93.47,70.48a60.79,60.79,0,0,1,0-9.21c3.58,2.56,5.92,3.88,10.16,3.73a6,6,0,0,0,4.5-2.7" transform="translate(-1 -1)"/><path class="cls-10" d="M46.31,108.43s-16.31-.51-16.53,12S49,126,49.6,128.83c.36,1.76,1.7,2.93,3.29,2.19s.57-6.3-2.5-6.08-17.75,2.06-17.75-5.4c0-5.49,10.89-9.91,14-8" transform="translate(-1 -1)"/><path class="cls-10" d="M95,39.88s2-4,4.62-2.22S101,43.1,101,43.1" transform="translate(-1 -1)"/><path class="cls-10" d="M110.55,55.59" transform="translate(-1 -1)"/><path class="cls-10" d="M63.27,93.81s18.13,1.76,16.08,18.13a13.83,13.83,0,0,1,7.27.61,6.84,6.84,0,0,1,4.1,5c.07.3.12.45.16.45.65,0-3-41.17-3-41.17" transform="translate(-1 -1)"/><path class="cls-10" d="M110.58,57.87c-.71,7.35-7.09,3.91-7.68.11" transform="translate(-1 -1)"/><path class="cls-10" d="M93.09,118s1.12-2.47,2.35-2.4,2.5,2.3,2.62,2.49h0c0-.24.79-4.12,2.86-4.05" transform="translate(-1 -1)"/><path class="cls-10" d="M86.61,112.53v0c.14.29,1.7,3.67,1.6,5.41" transform="translate(-1 -1)"/></g><path class="cls-7" d="M79.3,60.34S85.91,66,91,65a5.74,5.74,0,0,1-2.66,2.22c-3.19,1-3.27-2.9-6.76-3.56s-4,0-4,0,2-2.44,1.69-3.31" transform="translate(-1 -1)"/><path class="cls-7" d="M72.8,71.18a16.16,16.16,0,0,1,5.44,8.91c1.6,6.21,8.77,6.34,8.77,6.34s-3.34,1.8-5.82.33-3.32-4.56-5.76-5.59-2.32-3.69-2.7-4.32A4.57,4.57,0,0,0,70,74.75Z" transform="translate(-1 -1)"/><path class="cls-7" d="M65.16,80.2a46,46,0,0,1,3.91,8c.94,3.11,7,5.64,7.16,6.2s2.84,1.58,3.26,3.38a26.87,26.87,0,0,0-4.66-2.8C73.49,94.55,70,94.15,69,92.8s-2.46-3.24-3.42-4.45-.77-2.72-2.25-3.06a3,3,0,0,1-2-1.32,44.87,44.87,0,0,1,3.78-3.77" transform="translate(-1 -1)"/><path class="cls-7" d="M93.59,71.26a53.16,53.16,0,0,1-9.66.42,8.19,8.19,0,0,1-4.35-1.43s-.14,1.67,3,2.89,5.59.86,6.21,1.81,5.11,2,5.11,2Z" transform="translate(-1 -1)"/><path class="cls-7" d="M97.42,97.4a10.82,10.82,0,0,0-2.8.21,5.23,5.23,0,0,1-2.33.25L91,97.44s1,1.19,1.81,1.17a11,11,0,0,1,2.38.06c.26.09,2.3.12,2.39.42s.25.21.25.21Z" transform="translate(-1 -1)"/><path class="cls-7" d="M49.18,96.46s7.17,3,8.7,4.43,5.83,1.94,7.65,1.68c2.56-.36,2,2.23,9.29,1.81,0,0-5.72,1.35-9.27.7a43.68,43.68,0,0,0-8.47-.78c-2.47.1-1.91-2.2-3.16-2.19s0,0-1.43-.14-5.47-.4-5.51.19,2.2-5.68,2.2-5.68" transform="translate(-1 -1)"/><path class="cls-7" d="M100.79,108.17a13.7,13.7,0,0,1-3.32.25c-1-.18-2.42.35-3.09.23a9.49,9.49,0,0,0-2,0,11,11,0,0,0,2.49.65c.92,0,2.78,0,3.31.12l2.57.5" transform="translate(-1 -1)"/><path class="cls-7" d="M96.81,94.29a7.68,7.68,0,0,1-1.87.14c-.56-.1-1.36.2-1.74.13a5.34,5.34,0,0,0-1.13,0,6.19,6.19,0,0,0,1.4.36C94,95,95,95,95.34,95l1.44.28" transform="translate(-1 -1)"/><path class="cls-7" d="M48.3,116.63A11.68,11.68,0,0,0,54.93,113c3.25-3.31,7.79-.79,7.79-.79s-1.44-2.34-3.52-2.32-3.73,1.65-5.63,1.41-2.79,1.46-3.26,1.72a3.3,3.3,0,0,1-2.47.33Z" transform="translate(-1 -1)"/><ellipse class="cls-7" cx="105.89" cy="58.34" rx="0.38" ry="0.38"/><path class="cls-7" d="M108.36,54.79c-.31-2,3.07-2.82,3.73-.94s-.93,2.37-.84,4c0,.73-1.11,1.66-1.24.17C109.83,56,108.55,56,108.36,54.79Z" transform="translate(-1 -1)"/><ellipse class="cls-7" cx="105.84" cy="56.69" rx="0.38" ry="0.38"/><ellipse class="cls-7" cx="107.54" cy="57.85" rx="0.38" ry="0.38"/></g><circle class="cls-5" cx="99" cy="99" r="98"/></svg>